<svg xmlns="http://www.w3.org/2000/svg" width="338" height="162" fill="none"><g clip-path="url(#a)"><path stroke="#313131" stroke-miterlimit="10" stroke-width=".8" d="M-16.868 141.256H155.01m29.634-29.634h130.391m-331.903-31.61h222.75m-225.713 31.61h222.75m0-31.61h151.628m-58.281-72.11v144.22M264.656 35.56v118.043M222.181 7.408v104.214M-14.892 44.451h338.817M111.547 13.829v96.805m42.475-66.183v96.805M23.632 0v153.11M67.096 45.438v103.72"/><path fill="#4D4D4F" d="M67.096 83.47a3.458 3.458 0 1 0 0-6.915 3.458 3.458 0 0 0 0 6.915zM23.652 47.908a3.457 3.457 0 1 0 0-6.913 3.457 3.457 0 0 0 0 6.913zm-.514 96.312a3.458 3.458 0 1 0 0-6.915 3.458 3.458 0 0 0 0 6.915zm273.128-96.312a3.457 3.457 0 1 0 .002-6.914 3.457 3.457 0 0 0-.002 6.914zM264.657 83.47a3.458 3.458 0 1 0-.001-6.915 3.458 3.458 0 0 0 .001 6.915z" opacity=".7"/><path fill="#909090" fill-opacity=".7" d="M83.466 46.953h-2.971a.715.715 0 1 1 0-1.43h2.971a.715.715 0 0 1 0 1.43zm-5.936.163a.88.88 0 1 0 0-1.759.88.88 0 0 0 0 1.759zm-2.84-.055h-1.808a.714.714 0 0 1-.714-.714v-6.906H69.58a.715.715 0 1 1 0-1.431h3.302a.714.714 0 0 1 .714.714v6.909h1.094a.715.715 0 1 1 0 1.43v-.002zm4.305 5.88h-9.45a.715.715 0 0 1 0-1.43h9.45a.715.715 0 1 1 0 1.43zm3.592.165a.88.88 0 1 0 0-1.758.88.88 0 0 0 0 1.758zm-6.741 9.726a.714.714 0 0 1-.715-.714v-3.903a.713.713 0 0 1 .715-.728h7.612a.715.715 0 0 1 0 1.431h-6.904v3.19a.714.714 0 0 1-.709.724zm-.024 2.607a.88.88 0 1 0 0-1.76.88.88 0 0 0 0 1.76zm.032 8.363h-6.3a.715.715 0 0 1 0-1.43h5.583v-4.988a.715.715 0 1 1 1.43 0v5.693a.715.715 0 0 1-.713.725zm61.806-26.849h-10.592a.715.715 0 1 1 0-1.43h9.875V38.85a.714.714 0 1 1 1.431 0v7.387a.715.715 0 0 1-.714.716zm-14.183.163a.88.88 0 1 0 0-1.759.88.88 0 0 0 0 1.759zm6.741 5.825h-7.613a.715.715 0 0 1 0-1.43h7.613a.715.715 0 1 1 0 1.43zm3.591.165a.88.88 0 1 0-.001-1.759.88.88 0 0 0 .001 1.76zm3.903 21.21h-8.461a.715.715 0 0 1-.714-.714V58.93h-1.467a.715.715 0 1 1 0-1.431h2.181a.713.713 0 0 1 .714.714v14.671h7.747a.714.714 0 0 1 0 1.43v.003zm-14.235-15.222a.88.88 0 1 0-.001-1.76.88.88 0 0 0 .001 1.76z"/><path fill="#909090" fill-opacity=".7" d="M137.749 69.037h-3.917a.714.714 0 0 1-.714-.714.883.883 0 0 1 0-.126c.04-.727.016-7.911 0-12.65a.71.71 0 0 1 .438-.664.715.715 0 0 1 .99.657c.042 7.492.058 10.668.014 12.075h3.186a.715.715 0 1 1 0 1.43l.003-.008zm-34.952-1.312c-7.21 0-13.075-7.486-13.075-16.69-.037-2.3.172-4.6.622-6.856a1.105 1.105 0 1 1 2.16.47 30.317 30.317 0 0 0-.57 6.389c0 7.983 4.875 14.48 10.868 14.48a1.108 1.108 0 0 1 1.105 1.105 1.105 1.105 0 0 1-1.105 1.105l-.005-.003z"/><path fill="#909090" fill-opacity=".7" d="M102.762 67.725a1.104 1.104 0 0 1-.781-1.887c.207-.207.488-.323.781-.323 5.993 0 10.868-6.495 10.868-14.48a30.531 30.531 0 0 0-.554-6.313 1.11 1.11 0 0 1 .437-1.175 1.103 1.103 0 0 1 1.723.716c.437 2.23.639 4.5.604 6.772-.008 9.217-5.875 16.69-13.078 16.69zm-6.347 3.851a1.105 1.105 0 0 1-1.105-1.105v-6.232a1.104 1.104 0 1 1 2.21 0v6.232a1.105 1.105 0 0 1-1.105 1.105zM76.612 92.568a1.105 1.105 0 0 1-1.105-1.105c0-10.056 6.636-18.36 16.136-20.189a1.106 1.106 0 0 1 .418 2.17c-8.445 1.628-14.343 9.036-14.343 18.019a1.106 1.106 0 0 1-1.106 1.105zm49.251 25.329h-19.569a1.108 1.108 0 0 1-1.106-1.106 1.105 1.105 0 0 1 1.106-1.105h18.587l2.993-24.291c-.032-8.925-6.143-16.475-14.553-17.99a1.104 1.104 0 0 1-.893-1.283 1.105 1.105 0 0 1 1.284-.893c9.487 1.71 16.369 10.22 16.369 20.234a.997.997 0 0 1 0 .134l-3.121 25.328a1.103 1.103 0 0 1-1.097.972z"/><path fill="#909090" fill-opacity=".7" d="M109.175 72.148a1.104 1.104 0 0 1-1.105-1.105v-6.804a1.106 1.106 0 0 1 2.211 0v6.801a1.1 1.1 0 0 1-.323.783 1.112 1.112 0 0 1-.783.325zM91.457 76.79a1.104 1.104 0 0 1-1.05-1.431l2.019-6.584a1.105 1.105 0 0 1 1.698-.575l6.326 4.53a1.102 1.102 0 0 1 .157 1.66 1.106 1.106 0 0 1-.537.312l-8.35 2.053a1.106 1.106 0 0 1-.263.034zm2.625-5.897-1 3.253 4.126-1.016-3.126-2.237z"/><path fill="#909090" fill-opacity=".7" d="M102.833 82.128a1.107 1.107 0 0 1-1.024-.687l-3.026-7.392a1.105 1.105 0 0 1 2.045-.838l3.026 7.392a1.106 1.106 0 0 1-1.021 1.525zm11.398-5.339c-.089 0-.177-.01-.263-.032l-8.35-2.052a1.103 1.103 0 0 1-.763-1.482c.078-.197.211-.367.382-.49l6.327-4.53a1.104 1.104 0 0 1 1.698.572l2.024 6.583a1.112 1.112 0 0 1-.165.98 1.1 1.1 0 0 1-.885.451h-.005zm-5.757-3.657 4.127 1.016-1.001-3.252-3.126 2.236z"/><path fill="#909090" fill-opacity=".7" d="M102.852 82.128a1.107 1.107 0 0 1-1.098-.994c-.019-.18.008-.363.077-.53l3.032-7.393a1.105 1.105 0 0 1 2.045.838l-3.027 7.392a1.105 1.105 0 0 1-1.029.687zM100.4 53.855h-5.775a1.105 1.105 0 0 1-1.097-.98l-.526-4.52a1.106 1.106 0 0 1 1.098-1.228h6.825a1.105 1.105 0 0 1 1.097 1.23l-.525 4.521a1.109 1.109 0 0 1-1.097.977zm-4.786-2.21h3.801l.263-2.31h-4.331l.267 2.31zm15.509 2.21h-5.775a1.104 1.104 0 0 1-1.098-.98l-.525-4.52a1.119 1.119 0 0 1 .273-.861 1.111 1.111 0 0 1 .825-.37h6.812a1.105 1.105 0 0 1 1.097 1.231l-.525 4.52a1.11 1.11 0 0 1-1.084.98zm-4.786-2.21h3.801l.263-2.31h-4.331l.267 2.31z"/><path fill="#909090" fill-opacity=".7" d="M115.984 49.274H90.162a1.105 1.105 0 0 1 0-2.21h25.822a1.106 1.106 0 1 1 0 2.21z"/><path fill="#909090" fill-opacity=".7" d="M90.9 47.61h-.118a1.105 1.105 0 0 1-.942-.788l-1.707-5.738a1.105 1.105 0 0 1 .147-.937l3.457-5.08c.073-.101.161-.19.263-.262.239-.176 5.925-4.31 12.805-3.218 4.307.682 8.077 3.247 11.203 7.612.096.134.16.287.189.45l.832 4.724a1.104 1.104 0 0 1-1.084 1.302c-.638 0-14.836-.173-21.1-4.056l-2.976 5.416a1.105 1.105 0 0 1-.969.575zm-.496-6.66.788 2.69 2.289-4.2a1.105 1.105 0 0 1 1.682-.314c4.056 3.412 15.524 4.131 19.446 4.278l-.551-3.129c-2.738-3.753-5.969-5.948-9.605-6.523-5.42-.858-10.135 2.124-11.004 2.715l-3.045 4.483zm12.429 68.712c-.293 0-.574-.116-.781-.324a1.101 1.101 0 0 1-.324-.781V81.023a1.102 1.102 0 0 1 1.105-1.105 1.108 1.108 0 0 1 1.105 1.105v27.534a1.104 1.104 0 0 1-1.105 1.105zm-5.88 3.935a1.106 1.106 0 0 1-1.105-1.105V96.445H67.745v16.049a1.103 1.103 0 0 1-.682 1.021 1.097 1.097 0 0 1-1.205-.239 1.11 1.11 0 0 1-.323-.782V95.34a1.105 1.105 0 0 1 1.105-1.103h30.313a1.105 1.105 0 0 1 1.105 1.106v17.154a1.105 1.105 0 0 1-1.105 1.1z"/><path fill="#909090" fill-opacity=".7" d="M99.875 117.912H63.723a1.105 1.105 0 0 1-1.105-1.099v-3.938a1.104 1.104 0 0 1 1.105-1.105h36.152a1.105 1.105 0 0 1 1.105 1.105v3.938a1.106 1.106 0 0 1-1.105 1.099zm-35.044-2.21h33.933v-1.717H64.828l.003 1.717zm164.276-64.547a.73.73 0 0 1-.73-.73v-1.4a.727.727 0 0 1 .44-.713.73.73 0 0 1 1.018.713v1.4a.731.731 0 0 1-.728.73zm0 34.552a.729.729 0 0 1-.73-.73v-1.4a.728.728 0 0 1 .729-.687.732.732 0 0 1 .728.687v1.4a.73.73 0 0 1-.727.73zM212.533 67.73h-1.4a.732.732 0 0 1-.688-.729.73.73 0 0 1 .688-.729h1.4a.73.73 0 0 1 0 1.458zm34.55 0h-1.4a.728.728 0 0 1-.687-.729.73.73 0 0 1 .687-.729h1.4a.728.728 0 0 1 .687.73.73.73 0 0 1-.687.728zm-29.496-11.94a.727.727 0 0 1-.515-.212l-5.445-5.446a.73.73 0 0 1 1.03-1.03l5.445 5.446a.726.726 0 0 1 .163.798.727.727 0 0 1-.678.452v-.008zm29.363 29.362a.728.728 0 0 1-.515-.212L241 79.5a.73.73 0 0 1 1.03-1.03l5.445 5.445a.733.733 0 0 1-.107 1.127.733.733 0 0 1-.408.123l-.01-.013zM241.5 55.79a.726.726 0 0 1-.677-.452.724.724 0 0 1 .162-.798l5.445-5.445a.738.738 0 0 1 .525-.25.732.732 0 0 1 .685 1.043.724.724 0 0 1-.18.237l-5.44 5.45a.728.728 0 0 1-.52.215zm-29.357 29.363a.732.732 0 0 1-.718-.876.726.726 0 0 1 .203-.374l5.445-5.446a.73.73 0 0 1 1.03 1.03l-5.445 5.446a.724.724 0 0 1-.515.22zm16.964-3.496a14.607 14.607 0 0 1-14.324-17.454 14.608 14.608 0 0 1 19.914-10.644 14.608 14.608 0 0 1 9.015 13.493 14.619 14.619 0 0 1-14.605 14.605zm0-27.144a12.537 12.537 0 0 0-11.585 7.74 12.548 12.548 0 0 0-.714 7.246 12.546 12.546 0 0 0 9.853 9.853 12.539 12.539 0 0 0 14.986-12.3 12.55 12.55 0 0 0-12.54-12.552v.013zm-.179-7.305a11.117 11.117 0 0 1-10.274-6.865 11.118 11.118 0 0 1 8.104-15.162 11.12 11.12 0 0 1 13.29 10.906 11.135 11.135 0 0 1-11.12 11.12zm0-20.175a9.055 9.055 0 1 0 9.055 9.054 9.064 9.064 0 0 0-9.055-9.057v.002zm0 82.104a11.116 11.116 0 0 1-10.274-6.864 11.118 11.118 0 0 1 8.104-15.162 11.122 11.122 0 0 1 13.29 10.906 11.135 11.135 0 0 1-11.12 11.12zm0-20.174a9.055 9.055 0 1 0 9.055 9.055 9.069 9.069 0 0 0-9.055-9.055zm-30.965-10.791a11.12 11.12 0 1 1 11.12-11.12 11.135 11.135 0 0 1-11.12 11.12zm0-20.175a9.055 9.055 0 1 0 9.055 9.055A9.066 9.066 0 0 0 197.963 58v-.002zm61.929 20.175a11.116 11.116 0 0 1-10.273-6.864 11.118 11.118 0 0 1 8.104-15.162 11.122 11.122 0 0 1 13.289 10.906 11.13 11.13 0 0 1-11.12 11.12zm0-20.175a9.055 9.055 0 1 0 9.055 9.055A9.065 9.065 0 0 0 259.892 58v-.003zM204.137 99.5a7.663 7.663 0 0 1-7.626-6.908 7.657 7.657 0 0 1 6.13-8.265 7.657 7.657 0 0 1 6.911 2.098.734.734 0 0 1 .199.818.73.73 0 0 1-1.229.212 6.198 6.198 0 0 0-10.583 4.385 6.198 6.198 0 0 0 10.583 4.385.726.726 0 0 1 .818-.199.73.73 0 0 1 .212 1.23 7.602 7.602 0 0 1-5.415 2.244zm49.67-49.675a7.636 7.636 0 0 1-5.415-2.25.735.735 0 0 1-.199-.818.732.732 0 0 1 1.229-.212 6.2 6.2 0 1 0 0-8.77.735.735 0 0 1-.826.22.732.732 0 0 1-.204-1.245 7.653 7.653 0 0 1 6.909-2.098 7.66 7.66 0 0 1 5.582 4.58 7.652 7.652 0 0 1-.708 7.185 7.65 7.65 0 0 1-6.368 3.403v.005zm.09 49.855a7.66 7.66 0 0 1-5.415-13.075.731.731 0 0 1 1.03 1.03 6.195 6.195 0 0 0-1.342 6.756 6.2 6.2 0 1 0 10.112-6.756.734.734 0 0 1 .034-.996.731.731 0 0 1 .996-.034 7.659 7.659 0 0 1-5.415 13.075zm-44.86-51.79a.726.726 0 0 1-.677-.452.732.732 0 0 1 .162-.798 6.2 6.2 0 1 0-8.77 0 .73.73 0 0 1-1.03 1.03 7.66 7.66 0 0 1 1.161-11.781 7.66 7.66 0 0 1 11.329 3.436 7.658 7.658 0 0 1-1.66 8.345.728.728 0 0 1-.515.22z"/></g><defs><clipPath id="a"><path fill="#fff" d="M0 0h338v162H0z"/></clipPath></defs></svg>