<svg xmlns="http://www.w3.org/2000/svg" width="338" height="162" fill="none"><g clip-path="url(#a)"><path stroke="#313131" stroke-miterlimit="10" stroke-width=".8" d="M-16.868 141.256H155.01m29.634-29.634h130.391m-331.903-31.61h222.75m-225.713 31.61h222.75m0-31.61h151.628m-58.281-72.11v144.22M264.656 35.56v118.043M222.181 7.408v104.214M-14.892 44.451h338.817M111.547 13.829v96.805m42.475-66.183v96.805M23.632 0v153.11M67.096 45.438v103.72"/><path fill="#4D4D4F" d="M67.096 83.47a3.458 3.458 0 1 0 0-6.915 3.458 3.458 0 0 0 0 6.915zM23.652 47.908a3.457 3.457 0 1 0 0-6.913 3.457 3.457 0 0 0 0 6.913zm-.514 96.312a3.458 3.458 0 1 0 0-6.915 3.458 3.458 0 0 0 0 6.915zm273.128-96.312a3.457 3.457 0 1 0 .002-6.914 3.457 3.457 0 0 0-.002 6.914zM264.657 83.47a3.458 3.458 0 1 0-.001-6.915 3.458 3.458 0 0 0 .001 6.915z" opacity=".7"/><path fill="#909090" fill-opacity=".8" d="M119.799 36H48.202A6.208 6.208 0 0 0 42 42.202v5.304a1.23 1.23 0 0 0 2.461 0v-5.304a3.745 3.745 0 0 1 3.74-3.741H119.8a3.745 3.745 0 0 1 3.74 3.74v35.082a1.23 1.23 0 0 0 2.461 0V42.202A6.208 6.208 0 0 0 119.799 36zm4.971 45.795c-.68 0-1.231.55-1.231 1.23v5.677H44.461V53.248a1.23 1.23 0 1 0-2.461 0v41.657a6.209 6.209 0 0 0 6.202 6.202h26.097l-3.297 11.128H63.78a2.56 2.56 0 0 0-2.556 2.558v2.651A2.56 2.56 0 0 0 63.78 120h40.438a2.56 2.56 0 0 0 2.556-2.556v-2.651a2.56 2.56 0 0 0-2.556-2.558h-7.22L93.7 101.107h26.098A6.209 6.209 0 0 0 126 94.905v-11.88c0-.68-.551-1.23-1.23-1.23zm-30.338 30.44H80.904a1.23 1.23 0 0 0 0 2.461h23.315c.052 0 .095.043.095.097v2.651a.096.096 0 0 1-.095.095H63.781a.096.096 0 0 1-.095-.095v-2.651c0-.054.042-.097.095-.097h11.38a1.23 1.23 0 1 0 0-2.461h-1.593l3.298-11.128h14.269l3.297 11.128zm25.367-13.59H48.202a3.745 3.745 0 0 1-3.741-3.74v-3.742h79.078v3.742a3.745 3.745 0 0 1-3.74 3.74z"/><path fill="#909090" fill-opacity=".8" d="M48.533 46.275c-.68 0-1.23.551-1.23 1.231v37.123c0 .68.55 1.23 1.23 1.23h47.73a1.23 1.23 0 0 0 0-2.46H92.19V64.742c0-.68-.55-1.23-1.23-1.23h-5.304c-.68 0-1.23.55-1.23 1.23v18.657h-2.843V58.112c0-.68-.55-1.23-1.23-1.23H75.05c-.68 0-1.23.55-1.23 1.23V83.4h-2.843V64.742c0-.68-.551-1.23-1.23-1.23h-5.304c-.68 0-1.23.55-1.23 1.23v18.657H60.37v-35.23c0-.68-.55-1.23-1.23-1.23h-5.304c-.68 0-1.23.55-1.23 1.23v35.23h-2.843V47.506c0-.68-.55-1.23-1.23-1.23zm38.354 19.697h2.842V83.4h-2.842V65.972zm-10.607-6.63h2.842V83.4H76.28V59.343zm-10.607 6.63h2.843V83.4h-2.843V65.972zM55.066 49.4h2.843v34h-2.843v-34zm65.631-6.866c0-.68-.55-1.231-1.23-1.231h-19.225c-.68 0-1.23.55-1.23 1.23v5.304c0 .68.55 1.23 1.23 1.23h19.225c.68 0 1.23-.55 1.23-1.23v-5.303zm-2.461 4.072h-16.763v-2.842h16.763v2.842zm1.23 31.49h-13.258c-.679 0-1.23.55-1.23 1.23v5.303c0 .68.551 1.23 1.23 1.23h13.258c.68 0 1.231-.55 1.231-1.23v-5.303c0-.68-.551-1.23-1.231-1.23zm-1.23 5.303h-10.797v-2.843h10.797V83.4zm1.23-31.489h-10.607a1.23 1.23 0 0 0 0 2.461h10.607a1.23 1.23 0 0 0 0-2.46zm-19.224 2.461h3.315a1.23 1.23 0 0 0 0-2.46h-3.315a1.23 1.23 0 0 0 0 2.46zm19.225 2.842h-3.315a1.23 1.23 0 0 0 0 2.462h3.315a1.23 1.23 0 0 0 0-2.462zm-19.225 2.462h10.607a1.23 1.23 0 0 0 0-2.462h-10.607a1.23 1.23 0 0 0 0 2.462zm0 5.303h19.225a1.23 1.23 0 1 0 0-2.461h-19.225a1.23 1.23 0 0 0 0 2.46zm19.224 2.842H106.87a1.23 1.23 0 0 0 0 2.461h12.596a1.23 1.23 0 0 0 0-2.46zm154.233 43.836h-81.691a.777.777 0 0 1-.559-.234.778.778 0 0 1-.226-.563V66.625a4.704 4.704 0 0 1 4.703-4.703h27.988a.786.786 0 0 1 0 1.575h-27.988a3.126 3.126 0 0 0-3.129 3.117v43.469h80.129V66.626a3.13 3.13 0 0 0-3.129-3.118h-28a.79.79 0 0 1-.789-.789.79.79 0 0 1 .789-.785h28a4.7 4.7 0 0 1 4.691 4.692v44.234a.782.782 0 0 1-.789.796z"/><path fill="#909090" fill-opacity=".8" d="M273.988 117.625h-82.234A6.768 6.768 0 0 1 185 110.86a.798.798 0 0 1 .785-.789h94.172c.43.007.781.355.785.789a6.769 6.769 0 0 1-6.754 6.765zm-87.352-5.969a5.184 5.184 0 0 0 5.117 4.407h82.234a5.207 5.207 0 0 0 5.129-4.407h-92.48z"/><path fill="#909090" fill-opacity=".8" d="M206.273 111.125a.787.787 0 0 1-.746-.508.793.793 0 0 1 .023-.621c0-.074 3.723-9.437 12.289-6.988a5.332 5.332 0 0 1 4.445-2.789 4.614 4.614 0 0 1 1.266-2.613 3.967 3.967 0 0 1 2.629-1.067c1.894-4.18 4.797-4.254 6.203-4.37.426 0 .84 0 .937.468.098.469 0 .98-.437.98v-.004a5.469 5.469 0 0 0-5.16 3.684.833.833 0 0 1-.235.617.807.807 0 0 1-.629.211 2.768 2.768 0 0 0-2.222.586 3.45 3.45 0 0 0-.852 2.317.813.813 0 0 1-.277.64.82.82 0 0 1-.68.16c-2.445-.562-3.82 2.297-3.883 2.426a.764.764 0 0 1-.957.402c-7.636-2.543-10.863 5.661-10.98 5.938a.796.796 0 0 1-.734.531z"/><path fill="#909090" fill-opacity=".8" d="M259.469 111.125a.787.787 0 0 0 .734-.508.78.78 0 0 0-.023-.621c0-.074-3.723-9.437-12.289-6.988a5.315 5.315 0 0 0-4.383-2.789 4.499 4.499 0 0 0-1.266-2.613 3.884 3.884 0 0 0-2.617-1.067c-1.902-4.18-4.808-4.254-6.211-4.37-.425 0-.828 0-.937.468-.106.469 0 .98.437.98v-.004a5.496 5.496 0 0 1 5.168 3.684.765.765 0 0 0 .235.617.78.78 0 0 0 .617.211 2.759 2.759 0 0 1 2.226.586c.563.637.868 1.465.848 2.317a.794.794 0 0 0 .289.64.824.824 0 0 0 .672.16c2.445-.562 3.828 2.297 3.883 2.426a.773.773 0 0 0 .965.402c7.636-2.543 10.863 5.661 10.98 5.938a.778.778 0 0 0 .672.531zm-23.067-27.598h-7.086a.788.788 0 0 1 0-1.574h7.086c.433 0 .789.355.789.79a.789.789 0 0 1-.789.784z"/><path fill="#909090" fill-opacity=".8" d="M236.391 83.52a.854.854 0 0 1-.434-.13.787.787 0 0 1-.214-1.062c2.648-3.902 4.363-12.266 4.363-21.277 0-10.777-5.32-19.957-7.246-22.828-1.871 2.871-7.246 12.074-7.246 22.828 0 9.031 1.711 17.395 4.351 21.277h.004c.137.172.196.39.16.61a.776.776 0 0 1-.332.53.79.79 0 0 1-1.129-.258c-2.851-4.265-4.625-12.776-4.625-22.214 0-13.488 7.852-24.234 8.192-24.691a.796.796 0 0 1 1.254 0c.328.457 8.179 11.203 8.179 24.69 0 9.438-1.765 17.95-4.625 22.204a.78.78 0 0 1-.652.32z"/><path fill="#909090" fill-opacity=".8" d="M239.254 50.945a1.065 1.065 0 0 1-.223 0l-4.469-1.328v-.004a5.74 5.74 0 0 0-3.383 0l-4.468 1.328v.004a.78.78 0 0 1-.641-.015.778.778 0 0 1-.418-.489.77.77 0 0 1 .082-.633.78.78 0 0 1 .531-.363l4.477-1.351a7.522 7.522 0 0 1 4.258 0l4.469 1.34a.777.777 0 0 1-.215 1.511zM220.519 86.04a.781.781 0 0 1-.723-.626c-4.098-20.414 4.457-23.84 4.82-23.98a.786.786 0 0 1 .551 1.469c-.105 0-6.894 2.988-4.32 19.488 1.062-2.426 2.969-5.82 5.426-7.031a.777.777 0 0 1 .605-.047.796.796 0 0 1 .504 1.004.783.783 0 0 1-.406.457c-3.309 1.637-5.629 8.66-5.649 8.734a.786.786 0 0 1-.808.531zm24.68 0a.77.77 0 0 1-.742-.544c0-.074-2.352-7.097-5.66-8.734a.784.784 0 0 1-.301-1.027.788.788 0 0 1 1.004-.375c2.457 1.21 4.34 4.605 5.414 7.03 2.586-16.554-4.254-19.456-4.32-19.487a.799.799 0 0 1-.446-1.066.783.783 0 0 1 1-.457c.371.136 8.926 3.562 4.821 23.98a.783.783 0 0 1-.727.628l-.043.051zm-12.328 7.64a.792.792 0 0 1-.789-.79v-7.636a.789.789 0 0 1 1.578 0v7.636c0 .434-.355.79-.789.79zm-2.914-3.64a.786.786 0 0 1-.789-.786v-4a.787.787 0 1 1 1.574 0v4a.785.785 0 0 1-.785.785zm5.691 0a.788.788 0 0 1-.789-.786v-4a.784.784 0 0 1 .781-.879.783.783 0 0 1 .785.88v4c0 .429-.347.78-.777.784zm-2.777-30.84a3.586 3.586 0 0 1-2.547-6.122 3.585 3.585 0 0 1 6.121 2.547 3.576 3.576 0 0 1-3.574 3.574zm0-5.587a2.011 2.011 0 1 0 .758 3.871 2.018 2.018 0 0 0 1.242-1.859 2.014 2.014 0 0 0-2-2.012z"/></g><defs><clipPath id="a"><path fill="#fff" d="M0 0h338v162H0z"/></clipPath></defs></svg>