<svg xmlns="http://www.w3.org/2000/svg" width="338" height="162" fill="none"><g clip-path="url(#a)"><path stroke="#313131" stroke-miterlimit="10" stroke-width=".8" d="M-16.868 141.256H155.01m29.634-29.634h130.391m-331.903-31.61h222.75m-225.713 31.61h222.75m0-31.61h151.628m-58.281-72.11v144.22M264.656 35.56v118.043M222.181 7.408v104.214M-14.892 44.451h338.817M111.547 13.829v96.805m42.475-66.183v96.805M23.632 0v153.11M67.096 45.438v103.72"/><path fill="#4D4D4F" d="M67.096 83.47a3.458 3.458 0 1 0 0-6.915 3.458 3.458 0 0 0 0 6.915zM23.652 47.908a3.457 3.457 0 1 0 0-6.913 3.457 3.457 0 0 0 0 6.913zm-.514 96.312a3.458 3.458 0 1 0 0-6.915 3.458 3.458 0 0 0 0 6.915zm273.128-96.312a3.457 3.457 0 1 0 .002-6.914 3.457 3.457 0 0 0-.002 6.914zM264.657 83.47a3.458 3.458 0 1 0-.001-6.915 3.458 3.458 0 0 0 .001 6.915z" opacity=".7"/><path stroke="#909090" stroke-opacity=".9" stroke-width=".895" d="M33.757 41.977h123.487c3.221 0 5.811 2.676 5.811 6.006v61.009c0 3.33-2.59 6.005-5.811 6.005H33.757c-3.223 0-5.812-2.675-5.812-6.005v-61.01c0-3.33 2.647-6.005 5.812-6.005z"/><path stroke="#909090" stroke-opacity=".9" stroke-width=".895" d="M37.267 105.365h11.624c.863 0 1.554.713 1.554 1.605s-.69 1.606-1.554 1.606H37.268c-.864 0-1.554-.714-1.554-1.606 0-.832.69-1.605 1.553-1.605zm0-12.845h11.624c.863 0 1.554.714 1.554 1.606 0 .892-.69 1.605-1.554 1.605H37.268c-.864 0-1.554-.713-1.554-1.605 0-.833.69-1.606 1.553-1.606zm116.524 9.633h-11.624c-.863 0-1.553-.713-1.553-1.605s.69-1.606 1.553-1.606h11.624c.863 0 1.554.714 1.554 1.606 0 .892-.691 1.605-1.554 1.605zm-97.881 3.212h29.52c.863 0 1.554.713 1.554 1.605s-.69 1.606-1.554 1.606H55.91c-.863 0-1.553-.714-1.553-1.606 0-.832.69-1.605 1.554-1.605zM93.198 92.52h29.52c.862 0 1.553.714 1.553 1.606 0 .892-.691 1.605-1.553 1.605h-29.52c-.863 0-1.554-.713-1.554-1.605 0-.833.69-1.606 1.554-1.606zm41.949 9.633h-29.52c-.863 0-1.554-.713-1.554-1.605s.691-1.606 1.554-1.606h29.52c.862 0 1.553.714 1.553 1.606 0 .892-.691 1.605-1.553 1.605zm-42.697 3.212h11.624c.863 0 1.553.713 1.553 1.605s-.69 1.606-1.553 1.606H92.45c-.863 0-1.553-.714-1.553-1.606 0-.832.69-1.605 1.553-1.605zM55.91 92.52h11.624c.863 0 1.554.714 1.554 1.606 0 .892-.69 1.605-1.554 1.605H55.911c-.864 0-1.554-.713-1.554-1.605 0-.833.69-1.606 1.554-1.606zm42.754 9.633H87.04c-.863 0-1.553-.713-1.553-1.605s.69-1.606 1.553-1.606h11.624c.863 0 1.554.714 1.554 1.606 0 .892-.69 1.605-1.554 1.605zm12.43 3.212h11.624c.863 0 1.554.713 1.554 1.605s-.691 1.606-1.554 1.606h-11.624c-.863 0-1.553-.714-1.553-1.606 0-.832.69-1.605 1.553-1.605zM74.555 92.52h11.623c.863 0 1.554.714 1.554 1.606 0 .892-.69 1.605-1.554 1.605H74.555c-.864 0-1.554-.713-1.554-1.605 0-.833.69-1.606 1.554-1.606zm55.182 12.845h5.41c.863 0 1.553.713 1.553 1.605s-.69 1.606-1.553 1.606h-5.41c-.862 0-1.553-.714-1.553-1.606 0-.832.691-1.605 1.553-1.605zm0-12.845h5.41c.863 0 1.553.714 1.553 1.606 0 .892-.69 1.605-1.553 1.605h-5.41c-.862 0-1.553-.713-1.553-1.605 0-.833.691-1.606 1.553-1.606zm-49.715 9.633H55.969c-.863 0-1.554-.713-1.554-1.605s.69-1.606 1.554-1.606h24.053c.863 0 1.553.714 1.553 1.606 0 .892-.69 1.605-1.553 1.605zm62.145 3.212h11.624c.863 0 1.554.713 1.554 1.605s-.691 1.606-1.554 1.606h-11.624c-.863 0-1.553-.714-1.553-1.606 0-.832.69-1.605 1.553-1.605zm-104.9-19.267h11.624c.863 0 1.554.714 1.554 1.606 0 .892-.69 1.605-1.554 1.605H37.268c-.864 0-1.554-.713-1.554-1.605 0-.833.69-1.606 1.553-1.606zm18.643 0h29.52c.863 0 1.554.714 1.554 1.606 0 .892-.69 1.605-1.554 1.605H55.91c-.863 0-1.553-.713-1.553-1.605 0-.833.69-1.606 1.554-1.606zm36.54 0h11.624c.863 0 1.553.714 1.553 1.606 0 .892-.69 1.605-1.553 1.605H92.45c-.863 0-1.553-.713-1.553-1.605 0-.833.69-1.606 1.553-1.606zm18.644 0h11.624c.863 0 1.554.714 1.554 1.606 0 .892-.691 1.605-1.554 1.605h-11.624c-.863 0-1.553-.713-1.553-1.605 0-.833.69-1.606 1.553-1.606zm18.643 0h5.41c.863 0 1.553.714 1.553 1.606 0 .892-.69 1.605-1.553 1.605h-5.41c-.862 0-1.553-.713-1.553-1.605 0-.833.691-1.606 1.553-1.606z"/><path fill="#909090" fill-opacity=".9" stroke="#909090" stroke-opacity=".9" stroke-width=".895" d="M131.292 63.264V61.66c0-.654.518-1.19 1.151-1.19h.748c.633 0 1.151.536 1.151 1.19v1.605c0 .655-.518 1.19-1.151 1.19h-.748c-.633 0-1.151-.535-1.151-1.19zm4.66 0v-3.983c0-.655.519-1.19 1.152-1.19h.747c.633 0 1.151.535 1.151 1.19v3.983c0 .654-.518 1.19-1.151 1.19h-.747c-.633 0-1.152-.535-1.152-1.19zm4.662.001v-6.422c0-.655.518-1.19 1.151-1.19h.748c.633 0 1.151.535 1.151 1.19v6.422c0 .654-.518 1.189-1.151 1.189h-.748c-.633 0-1.151-.535-1.151-1.19zm4.661 0v-8.028c0-.654.518-1.19 1.151-1.19h.748c.633 0 1.15.536 1.15 1.19v8.028c0 .654-.517 1.189-1.15 1.189h-.748c-.633 0-1.151-.535-1.151-1.19zm4.66 0V52.799c0-.654.518-1.19 1.151-1.19h.748c.633 0 1.151.536 1.151 1.19v10.406c0 .654-.518 1.19-1.151 1.19h-.748c-.633.059-1.151-.476-1.151-1.13zm4.661 0V49.588c0-.654.518-1.19 1.151-1.19h.748c.633 0 1.151.536 1.151 1.19v13.617c0 .654-.518 1.19-1.151 1.19h-.748c-.633.059-1.151-.476-1.151-1.13z"/><path stroke="#909090" stroke-opacity=".9" stroke-width=".895" d="M142.167 86.098h11.624c.863 0 1.554.714 1.554 1.606 0 .892-.691 1.605-1.554 1.605h-11.624c-.863 0-1.553-.713-1.553-1.605 0-.833.69-1.606 1.553-1.606zm0 6.422h11.624c.863 0 1.554.714 1.554 1.606 0 .892-.691 1.605-1.554 1.605h-11.624c-.863 0-1.553-.713-1.553-1.605 0-.833.69-1.606 1.553-1.606zm-93.218 9.633H37.268c-.864 0-1.554-.713-1.554-1.605s.69-1.606 1.553-1.606h11.624c.863 0 1.554.714 1.554 1.606a1.492 1.492 0 0 1-1.496 1.605z"/><mask id="b" width="16" height="17" x="35" y="51" maskUnits="userSpaceOnUse" style="mask-type:alpha"><path fill="#fff" d="M50.847 59.221a8.08 8.08 0 0 1-1.324 4.46c-.863 1.308-2.071 2.378-3.51 2.973-1.438.595-2.992.773-4.488.476-1.496-.298-2.877-1.07-3.97-2.2a8.025 8.025 0 0 1-2.13-4.103c-.287-1.546-.172-3.152.461-4.639.575-1.486 1.611-2.735 2.877-3.627a7.465 7.465 0 0 1 4.316-1.367v2.973c-.978 0-1.9.297-2.705.832-.805.535-1.438 1.368-1.784 2.26-.345.951-.46 1.962-.287 2.913a4.917 4.917 0 0 0 1.323 2.617 4.657 4.657 0 0 0 2.532 1.368c.978.178 1.957.118 2.82-.298a4.486 4.486 0 0 0 2.186-1.843 5.413 5.413 0 0 0 .806-2.795h2.877z"/></mask><g mask="url(#b)"><path fill="#909090" fill-opacity=".9" stroke="#909090" stroke-opacity=".9" stroke-width=".716" d="M50.847 59.221a8.08 8.08 0 0 1-1.324 4.46c-.863 1.308-2.071 2.378-3.51 2.973-1.438.595-2.992.773-4.488.476-1.496-.298-2.877-1.07-3.97-2.2a8.025 8.025 0 0 1-2.13-4.103c-.287-1.546-.172-3.152.461-4.639.575-1.486 1.611-2.735 2.877-3.627a7.465 7.465 0 0 1 4.316-1.367v2.973c-.978 0-1.9.297-2.705.832-.805.535-1.438 1.368-1.784 2.26-.345.951-.46 1.962-.287 2.913a4.917 4.917 0 0 0 1.323 2.617 4.657 4.657 0 0 0 2.532 1.368c.978.178 1.957.118 2.82-.298a4.486 4.486 0 0 0 2.186-1.843 5.413 5.413 0 0 0 .806-2.795h2.877z"/></g><mask id="c" width="13" height="17" x="53" y="51" maskUnits="userSpaceOnUse" style="mask-type:alpha"><path fill="#fff" d="M65.922 66a8.715 8.715 0 0 1-3.394 1.249c-1.209.119-2.417 0-3.568-.476-1.151-.416-2.13-1.13-2.992-2.081a8.327 8.327 0 0 1-1.784-3.211 7.969 7.969 0 0 1-.173-3.687c.23-1.249.69-2.378 1.439-3.39a8.29 8.29 0 0 1 2.762-2.378 8.027 8.027 0 0 1 3.51-.832v2.973c-.748 0-1.496.178-2.187.535a4.679 4.679 0 0 0-1.726 1.486c-.46.655-.748 1.368-.92 2.141-.116.773-.116 1.606.114 2.32.23.772.576 1.426 1.094 2.021.518.595 1.15 1.01 1.899 1.308.69.297 1.496.357 2.244.297.748-.059 1.496-.356 2.129-.773L65.922 66z"/></mask><g mask="url(#c)"><path fill="#909090" fill-opacity=".9" stroke="#909090" stroke-opacity=".9" stroke-width=".716" d="M65.922 66a8.715 8.715 0 0 1-3.394 1.249c-1.209.119-2.417 0-3.568-.476-1.151-.416-2.13-1.13-2.992-2.081a8.327 8.327 0 0 1-1.784-3.211 7.969 7.969 0 0 1-.173-3.687c.23-1.249.69-2.378 1.439-3.39a8.29 8.29 0 0 1 2.762-2.378 8.027 8.027 0 0 1 3.51-.832v2.973c-.748 0-1.496.178-2.187.535a4.679 4.679 0 0 0-1.726 1.486c-.46.655-.748 1.368-.92 2.141-.116.773-.116 1.606.114 2.32.23.772.576 1.426 1.094 2.021.518.595 1.15 1.01 1.899 1.308.69.297 1.496.357 2.244.297.748-.059 1.496-.356 2.129-.773L65.922 66z"/></g><mask id="d" width="16" height="17" x="35" y="51" maskUnits="userSpaceOnUse" style="mask-type:alpha"><path fill="#fff" d="M50.847 59.221c0 4.46-3.453 8.028-7.768 8.028-4.316 0-7.769-3.568-7.769-8.028 0-4.46 3.453-8.027 7.769-8.027 4.316 0 7.768 3.627 7.768 8.027zm-12.66 0c0 2.795 2.187 5.054 4.892 5.054 2.704 0 4.89-2.26 4.89-5.054 0-2.795-2.186-5.054-4.89-5.054-2.705 0-4.891 2.26-4.891 5.054z"/></mask><g mask="url(#d)"><path stroke="#909090" stroke-opacity=".9" stroke-width="1.791" d="M50.847 59.221c0 4.46-3.453 8.028-7.768 8.028-4.316 0-7.769-3.568-7.769-8.028 0-4.46 3.453-8.027 7.769-8.027 4.316 0 7.768 3.627 7.768 8.027zm-12.66 0c0 2.795 2.187 5.054 4.892 5.054 2.704 0 4.89-2.26 4.89-5.054 0-2.795-2.186-5.054-4.89-5.054-2.705 0-4.891 2.26-4.891 5.054z"/></g><mask id="e" width="17" height="17" x="53" y="51" maskUnits="userSpaceOnUse" style="mask-type:alpha"><path fill="#fff" d="M69.49 59.221c0 4.46-3.452 8.028-7.768 8.028-4.315 0-7.768-3.568-7.768-8.028 0-4.46 3.453-8.027 7.768-8.027 4.316 0 7.769 3.627 7.769 8.027zm-12.659 0c0 2.795 2.187 5.054 4.891 5.054 2.705 0 4.892-2.26 4.892-5.054 0-2.795-2.187-5.054-4.892-5.054-2.704 0-4.89 2.26-4.89 5.054z"/></mask><g mask="url(#e)"><path stroke="#909090" stroke-opacity=".9" stroke-width="1.791" d="M69.49 59.221c0 4.46-3.452 8.028-7.768 8.028-4.315 0-7.768-3.568-7.768-8.028 0-4.46 3.453-8.027 7.768-8.027 4.316 0 7.769 3.627 7.769 8.027zm-12.659 0c0 2.795 2.187 5.054 4.891 5.054 2.705 0 4.892-2.26 4.892-5.054 0-2.795-2.187-5.054-4.892-5.054-2.704 0-4.89 2.26-4.89 5.054z"/></g><path fill="#909090" fill-opacity=".9" fill-rule="evenodd" d="M267.301 54.251h-35.602c-1.635 0-3.088-1.488-3.088-2.976v-9.3c0-1.673 1.453-2.975 3.088-2.975h35.602c1.635 0 2.906 1.302 2.906 2.976v9.3c0 1.673-1.271 2.975-2.906 2.975zM231.699 41.79c-.181 0-.363 0-.363.186v9.3c0 .185.182.185.363.185h35.602c.181 0 .363 0 .363-.186v-9.3c0-.185-.182-.185-.363-.185h-35.602z" clip-rule="evenodd"/><path fill="#909090" fill-opacity=".9" fill-rule="evenodd" d="M237.875 47.928h-1.816c-.727 0-1.454-.558-1.454-1.302s.727-1.488 1.454-1.488h1.816c.727 0 1.271.744 1.271 1.488s-.544 1.302-1.271 1.302zm5.994 0h-1.816c-.727 0-1.453-.558-1.453-1.302s.726-1.488 1.453-1.488h1.816c.727 0 1.272.744 1.272 1.488s-.545 1.302-1.272 1.302zm5.994 0h-1.816c-.727 0-1.272-.558-1.272-1.302s.545-1.488 1.272-1.488h1.816c.727 0 1.272.744 1.272 1.488s-.727 1.302-1.272 1.302zm-.363 15.437c-.727 0-1.271-.558-1.271-1.302v-9.114c0-.744.544-1.488 1.271-1.488.727 0 1.271.744 1.271 1.488v9.114c0 .744-.544 1.302-1.271 1.302z" clip-rule="evenodd"/><path fill="#909090" fill-opacity=".9" fill-rule="evenodd" d="M275.111 63.365h-51.222c-.909 0-1.453-.558-1.453-1.302s.544-1.302 1.453-1.302h51.222c.727 0 1.453.558 1.453 1.302s-.726 1.302-1.453 1.302z" clip-rule="evenodd"/><path fill="#909090" fill-opacity=".9" fill-rule="evenodd" d="M275.111 72.664c-.726 0-1.271-.744-1.271-1.488v-9.113c0-.744.545-1.302 1.271-1.302.727 0 1.453.558 1.453 1.302v9.113c0 .744-.726 1.488-1.453 1.488zm-51.222 0c-.909 0-1.453-.744-1.453-1.488v-9.113c0-.744.544-1.302 1.453-1.302.726 0 1.271.558 1.271 1.302v9.113c0 .744-.545 1.488-1.271 1.488z" clip-rule="evenodd"/><path fill="#909090" fill-opacity=".9" fill-rule="evenodd" d="M241.689 85.126h-35.783c-1.453 0-2.906-1.488-2.906-2.976v-9.3c0-1.488 1.453-2.976 2.906-2.976h35.783c1.635 0 2.907 1.488 2.907 2.976v9.3c0 1.488-1.272 2.976-2.907 2.976zm-35.783-12.462s-.181 0-.181.186v9.3c0 .186.181.186.181.186h35.783c.182 0 .364 0 .364-.186v-9.3c0-.186-.182-.186-.364-.186h-35.783z" clip-rule="evenodd"/><path fill="#909090" fill-opacity=".9" fill-rule="evenodd" d="M212.082 78.802h-1.635c-.726 0-1.453-.558-1.453-1.302s.727-1.488 1.453-1.488h1.635c.908 0 1.453.744 1.453 1.488s-.545 1.302-1.453 1.302zm5.994 0h-1.635c-.726 0-1.453-.558-1.453-1.302s.727-1.488 1.453-1.488h1.635c.727 0 1.453.744 1.453 1.488s-.726 1.302-1.453 1.302zm6.176 0h-1.816c-.909 0-1.454-.558-1.454-1.302s.545-1.488 1.454-1.488h1.816c.727 0 1.271.744 1.271 1.488s-.726 1.302-1.271 1.302zm68.66 6.324h-35.601c-1.635 0-2.907-1.488-2.907-2.976v-9.3c0-1.488 1.272-2.976 2.907-2.976h35.601c1.635 0 3.088 1.488 3.088 2.976v9.3c0 1.488-1.453 2.976-3.088 2.976zm-35.601-12.462c-.182 0-.364 0-.364.186v9.3c0 .186.182.186.364.186h35.601c.182 0 .363 0 .363-.186v-9.3c0-.186-.181-.186-.363-.186h-35.601z" clip-rule="evenodd"/><path fill="#909090" fill-opacity=".9" fill-rule="evenodd" d="M263.486 78.802h-1.816c-.727 0-1.272-.558-1.272-1.302s.545-1.488 1.272-1.488h1.816c.727 0 1.272.744 1.272 1.488s-.545 1.302-1.272 1.302zm5.994 0h-1.816c-.726 0-1.453-.558-1.453-1.302s.727-1.488 1.453-1.488h1.816c.727 0 1.272.744 1.272 1.488s-.545 1.302-1.272 1.302zm5.995 0h-1.817c-.726 0-1.453-.558-1.453-1.302s.727-1.488 1.453-1.488h1.817c.726 0 1.271.744 1.271 1.488s-.545 1.302-1.271 1.302zm-.364 15.438H249.5c-.727 0-1.271-.559-1.271-1.303 0-.744.544-1.302 1.271-1.302h25.611c.727 0 1.453.558 1.453 1.302s-.726 1.302-1.453 1.302z" clip-rule="evenodd"/><path fill="#909090" fill-opacity=".9" fill-rule="evenodd" d="M275.111 94.24c-.726 0-1.271-.559-1.271-1.303v-9.3c0-.743.545-1.301 1.271-1.301.727 0 1.453.558 1.453 1.302v9.3c0 .743-.726 1.301-1.453 1.301zm-25.611 9.299c-.727 0-1.271-.744-1.271-1.488v-9.114c0-.744.544-1.302 1.271-1.302.727 0 1.271.558 1.271 1.302v9.114c0 .744-.544 1.488-1.271 1.488z" clip-rule="evenodd"/><path fill="#909090" fill-opacity=".9" fill-rule="evenodd" d="M267.301 116h-35.602c-1.635 0-3.088-1.302-3.088-2.976v-9.113c0-1.674 1.453-3.162 3.088-3.162h35.602c1.635 0 2.906 1.488 2.906 3.162v9.113c0 1.674-1.271 2.976-2.906 2.976zm-35.602-12.461c-.181 0-.363 0-.363.372v9.113c0 .186.182.186.363.186h35.602c.181 0 .363 0 .363-.186v-9.113c0-.186-.182-.372-.363-.372h-35.602z" clip-rule="evenodd"/><path fill="#909090" fill-opacity=".9" fill-rule="evenodd" d="M237.875 109.676h-1.816c-.727 0-1.454-.558-1.454-1.302s.727-1.488 1.454-1.488h1.816c.727 0 1.271.744 1.271 1.488s-.544 1.302-1.271 1.302zm5.994 0h-1.816c-.727 0-1.453-.558-1.453-1.302s.726-1.488 1.453-1.488h1.816c.727 0 1.272.744 1.272 1.488s-.545 1.302-1.272 1.302zm5.994 0h-1.816c-.727 0-1.272-.558-1.272-1.302s.545-1.488 1.272-1.488h1.816c.727 0 1.272.744 1.272 1.488s-.727 1.302-1.272 1.302z" clip-rule="evenodd"/></g><defs><clipPath id="a"><path fill="#fff" d="M0 0h338v162H0z"/></clipPath></defs></svg>