<svg xmlns="http://www.w3.org/2000/svg" width="338" height="162" fill="none"><mask id="a" width="338" height="159" x="0" y="0" maskUnits="userSpaceOnUse" style="mask-type:luminance"><path fill="#fff" stroke="#fff" d="M.5.74h337v156.931H.5V.741z"/></mask><g mask="url(#a)"><mask id="b" width="306" height="200" x="16" y="18" maskUnits="userSpaceOnUse" style="mask-type:luminance"><path fill="#fff" stroke="#fff" d="M16.834 19.465h303.709v197.738H16.834V19.464z"/></mask><g mask="url(#b)"><mask id="d" width="315" height="146" x="11" y="14" maskUnits="userSpaceOnUse" style="mask-type:alpha"><path fill="url(#c)" stroke="#fff" d="M12.437 14.58h312.498V159.3H12.437V14.58z"/></mask><g mask="url(#d)"><mask id="e" fill="#fff"><path d="M315.188 18.965H22.189c-3.229 0-5.855 3.402-5.855 7.587v191.152h304.709V26.552c0-4.185-2.626-7.587-5.855-7.587zm5.453 7.587v20.734h-18.999c-.081-.586-.439-1.05-.892-1.156V19.477h14.431c3.01 0 5.454 3.175 5.454 7.067l.006.008zm-18.999 162.317c-.081-.586-.439-1.05-.892-1.156v-25.488c.453-.106.811-.57.892-1.156h18.999v27.8h-18.999zm-284.912 0v-27.8h18.998c.082.586.44 1.05.892 1.156v25.488c-.452.106-.81.57-.892 1.156H16.73zm18.998-141.07c.082.586.44 1.05.892 1.156v25.488c-.452.106-.81.57-.892 1.156H16.73V47.8h18.998zm245.628 141.07c-.082-.586-.44-1.05-.892-1.156v-25.488c.452-.106.81-.57.892-1.156h18.106c.082.586.44 1.05.893 1.156v25.488c-.453.106-.811.57-.893 1.156h-18.106zm-20.286 0c-.082-.586-.44-1.05-.892-1.156v-25.488c.452-.106.81-.57.892-1.156h18.106c.082.586.44 1.05.892 1.156v25.488c-.452.106-.81.57-.892 1.156H261.07zm-20.286 0c-.082-.586-.44-1.05-.893-1.156v-25.488c.453-.106.811-.57.893-1.156h18.106c.081.586.44 1.05.892 1.156v25.488c-.452.106-.811.57-.892 1.156h-18.106zm-20.287 0c-.081-.586-.439-1.05-.892-1.156v-25.488c.453-.106.811-.57.892-1.156h18.107c.081.586.439 1.05.892 1.156v25.488c-.453.106-.811.57-.892 1.156h-18.107zm-20.286 0c-.082-.586-.44-1.05-.892-1.156v-25.488c.452-.106.81-.57.892-1.156h18.106c.082.586.44 1.05.892 1.156v25.488c-.452.106-.81.57-.892 1.156h-18.106zm-20.286 0c-.082-.586-.44-1.05-.892-1.156v-25.488c.452-.106.81-.57.892-1.156h18.106c.082.586.44 1.05.892 1.156v25.488c-.452.106-.81.57-.892 1.156h-18.106zm-20.287 0c-.081-.586-.439-1.05-.892-1.156v-25.488c.453-.106.811-.57.892-1.156h18.107c.081.586.439 1.05.892 1.156v25.488c-.453.106-.811.57-.892 1.156h-18.107zm-20.286 0c-.082-.586-.44-1.05-.892-1.156v-25.488c.452-.106.81-.57.892-1.156h18.106c.082.586.44 1.05.893 1.156v25.488c-.453.106-.811.57-.893 1.156h-18.106zm-20.286 0c-.082-.586-.44-1.05-.892-1.156v-25.488c.452-.106.81-.57.892-1.156h18.106c.082.586.44 1.05.892 1.156v25.488c-.452.106-.81.57-.892 1.156h-18.106zm-20.286 0c-.082-.586-.44-1.05-.892-1.156v-25.488c.452-.106.81-.57.892-1.156h18.106c.082.586.44 1.05.892 1.156v25.488c-.452.106-.81.57-.892 1.156H98.78zm-20.287 0c-.081-.586-.44-1.05-.892-1.156v-25.488c.453-.106.81-.57.892-1.156H96.6c.081.586.44 1.05.892 1.156v25.488c-.453.106-.81.57-.892 1.156H78.493zm-20.286 0c-.082-.586-.44-1.05-.892-1.156v-25.488c.452-.106.81-.57.892-1.156h18.106c.082.586.44 1.05.892 1.156v25.488c-.452.106-.81.57-.892 1.156H58.207zm-20.286 0c-.082-.586-.44-1.05-.892-1.156v-25.488c.452-.106.81-.57.892-1.156h18.106c.082.586.44 1.05.892 1.156v25.488c-.452.106-.81.57-.892 1.156H37.921zm18.093-141.07c.082.586.44 1.05.893 1.156v25.488c-.453.106-.81.57-.893 1.156H37.908c-.081-.586-.44-1.05-.892-1.156V48.955c.452-.106.81-.57.892-1.156h18.106zm20.287 0c.081.586.44 1.05.892 1.156v25.488c-.453.106-.81.57-.892 1.156H58.194c-.081-.586-.44-1.05-.892-1.156V48.955c.453-.106.81-.57.892-1.156h18.107zm20.286 0c.082.586.44 1.05.892 1.156v25.488c-.452.106-.81.57-.892 1.156H78.481c-.082-.586-.44-1.05-.892-1.156V48.955c.452-.106.81-.57.892-1.156h18.106zm20.286 0c.082.586.44 1.05.892 1.156v25.488c-.452.106-.81.57-.892 1.156H98.767c-.082-.586-.44-1.05-.892-1.156V48.955c.452-.106.81-.57.892-1.156h18.106zm20.287 0c.081.586.439 1.05.892 1.156v25.488c-.453.106-.811.57-.892 1.156h-18.107c-.081-.586-.439-1.05-.892-1.156V48.955c.453-.106.811-.57.892-1.156h18.107zm20.286 0c.082.586.44 1.05.892 1.156v25.488c-.452.106-.81.57-.892 1.156H139.34c-.082-.586-.44-1.05-.893-1.156V48.955c.453-.106.811-.57.893-1.156h18.106zm20.286 0c.082.586.44 1.05.892 1.156v25.488c-.452.106-.81.57-.892 1.156h-18.106c-.082-.586-.44-1.05-.892-1.156V48.955c.452-.106.81-.57.892-1.156h18.106zm20.286 0c.082.586.44 1.05.893 1.156v25.488c-.453.106-.811.57-.893 1.156h-18.106c-.082-.586-.44-1.05-.892-1.156V48.955c.452-.106.81-.57.892-1.156h18.106zm20.287 0c.081.586.439 1.05.892 1.156v25.488c-.453.106-.811.57-.892 1.156h-18.107c-.081-.586-.439-1.05-.892-1.156V48.955c.453-.106.811-.57.892-1.156h18.107zm20.286 0c.082.586.44 1.05.892 1.156v25.488c-.452.106-.81.57-.892 1.156h-18.106c-.082-.586-.44-1.05-.892-1.156V48.955c.452-.106.81-.57.892-1.156h18.106zm20.286 0c.082.586.44 1.05.892 1.156v25.488c-.452.106-.81.57-.892 1.156h-18.106c-.082-.586-.44-1.05-.892-1.156V48.955c.452-.106.81-.57.892-1.156h18.106zm20.287 0c.081.586.439 1.05.892 1.156v25.488c-.453.106-.811.57-.892 1.156h-18.107c-.081-.586-.439-1.05-.892-1.156V48.955c.453-.106.811-.57.892-1.156h18.107zm20.286 0c.082.586.44 1.05.892 1.156v25.488c-.452.106-.81.57-.892 1.156h-18.106c-.082-.586-.44-1.05-.893-1.156V48.955c.453-.106.811-.57.893-1.156h18.106zm.892 29.47v25.488c-.452.106-.81.57-.892 1.156h-18.106c-.082-.586-.44-1.05-.893-1.156V77.268c.453-.106.811-.57.893-1.156h18.106c.082.586.44 1.05.892 1.156zm0 28.313v25.488c-.452.106-.81.57-.892 1.156h-18.106c-.082-.586-.44-1.05-.893-1.156v-25.488c.453-.106.811-.57.893-1.156h18.106c.082.586.44 1.05.892 1.156zm0 28.313v25.489c-.452.105-.81.569-.892 1.156h-18.106c-.082-.587-.44-1.051-.893-1.156v-25.489c.453-.106.811-.57.893-1.156h18.106c.082.586.44 1.05.892 1.156zm-39.285 26.645c-.081-.587-.439-1.051-.892-1.156v-25.489c.453-.106.811-.57.892-1.156h18.107c.081.586.439 1.05.892 1.156v25.489c-.453.105-.811.569-.892 1.156h-18.107zm-20.286 0c-.082-.587-.44-1.051-.892-1.156v-25.489c.452-.106.81-.57.892-1.156h18.106c.082.586.44 1.05.892 1.156v25.489c-.452.105-.81.569-.892 1.156h-18.106zm-20.286 0c-.082-.587-.44-1.051-.892-1.156v-25.489c.452-.106.81-.57.892-1.156h18.106c.082.586.44 1.05.892 1.156v25.489c-.452.105-.81.569-.892 1.156h-18.106zm-20.287 0c-.081-.587-.439-1.051-.892-1.156v-25.489c.453-.106.811-.57.892-1.156h18.107c.081.586.439 1.05.892 1.156v25.489c-.453.105-.811.569-.892 1.156h-18.107zm-20.286 0c-.082-.587-.44-1.051-.892-1.156v-25.489c.452-.106.81-.57.892-1.156h18.106c.082.586.44 1.05.893 1.156v25.489c-.453.105-.811.569-.893 1.156h-18.106zm-20.286 0c-.082-.587-.44-1.051-.892-1.156v-25.489c.452-.106.81-.57.892-1.156h18.106c.082.586.44 1.05.892 1.156v25.489c-.452.105-.81.569-.892 1.156h-18.106zm-20.286 0c-.082-.587-.44-1.051-.893-1.156v-25.489c.453-.106.811-.57.893-1.156h18.106c.082.586.44 1.05.892 1.156v25.489c-.452.105-.81.569-.892 1.156H139.34zm-20.287 0c-.081-.587-.439-1.051-.892-1.156v-25.489c.453-.106.811-.57.892-1.156h18.107c.081.586.439 1.05.892 1.156v25.489c-.453.105-.811.569-.892 1.156h-18.107zm-20.286 0c-.082-.587-.44-1.051-.892-1.156v-25.489c.452-.106.81-.57.892-1.156h18.106c.082.586.44 1.05.892 1.156v25.489c-.452.105-.81.569-.892 1.156H98.767zm-20.286 0c-.082-.587-.44-1.051-.892-1.156v-25.489c.452-.106.81-.57.892-1.156h18.106c.082.586.44 1.05.892 1.156v25.489c-.452.105-.81.569-.892 1.156H78.481zm-20.286 0c-.082-.587-.44-1.051-.893-1.156v-25.489c.453-.106.81-.57.892-1.156h18.107c.081.586.44 1.05.892 1.156v25.489c-.453.105-.81.569-.892 1.156H58.194zm-20.287 0c-.081-.587-.44-1.051-.892-1.156v-25.489c.452-.106.81-.57.892-1.156h18.106c.082.586.44 1.05.893 1.156v25.489c-.453.105-.81.569-.893 1.156H37.908zm-.892-29.47v-25.488c.452-.106.81-.57.892-1.156h18.106c.082.586.44 1.05.893 1.156v25.488c-.453.106-.81.57-.893 1.156H37.908c-.081-.586-.44-1.05-.892-1.156zm0-28.313V77.268c.452-.106.81-.57.892-1.156h18.106c.082.586.44 1.05.893 1.156v25.489c-.453.106-.81.57-.893 1.156H37.908c-.081-.586-.44-1.05-.892-1.156zm39.285-26.645c.081.586.44 1.05.892 1.156v25.489c-.453.106-.81.57-.892 1.156H58.194c-.081-.586-.44-1.05-.892-1.156V77.268c.453-.106.81-.57.892-1.156h18.107zm20.286 0c.082.586.44 1.05.892 1.156v25.489c-.452.106-.81.57-.892 1.156H78.481c-.082-.586-.44-1.05-.892-1.156V77.268c.452-.106.81-.57.892-1.156h18.106zm20.286 0c.082.586.44 1.05.892 1.156v25.489c-.452.106-.81.57-.892 1.156H98.767c-.082-.586-.44-1.05-.892-1.156V77.268c.452-.106.81-.57.892-1.156h18.106zm20.287 0c.081.586.439 1.05.892 1.156v25.489c-.453.106-.811.57-.892 1.156h-18.107c-.081-.586-.439-1.05-.892-1.156V77.268c.453-.106.811-.57.892-1.156h18.107zm20.286 0c.082.586.44 1.05.892 1.156v25.489c-.452.106-.81.57-.892 1.156H139.34c-.082-.586-.44-1.05-.893-1.156V77.268c.453-.106.811-.57.893-1.156h18.106zm20.286 0c.082.586.44 1.05.892 1.156v25.489c-.452.106-.81.57-.892 1.156h-18.106c-.082-.586-.44-1.05-.892-1.156V77.268c.452-.106.81-.57.892-1.156h18.106zm20.286 0c.082.586.44 1.05.893 1.156v25.489c-.453.106-.811.57-.893 1.156h-18.106c-.082-.586-.44-1.05-.892-1.156V77.268c.452-.106.81-.57.892-1.156h18.106zm20.287 0c.081.586.439 1.05.892 1.156v25.489c-.453.106-.811.57-.892 1.156h-18.107c-.081-.586-.439-1.05-.892-1.156V77.268c.453-.106.811-.57.892-1.156h18.107zm20.286 0c.082.586.44 1.05.892 1.156v25.489c-.452.106-.81.57-.892 1.156h-18.106c-.082-.586-.44-1.05-.892-1.156V77.268c.452-.106.81-.57.892-1.156h18.106zm20.286 0c.082.586.44 1.05.892 1.156v25.489c-.452.106-.81.57-.892 1.156h-18.106c-.082-.586-.44-1.05-.892-1.156V77.268c.452-.106.81-.57.892-1.156h18.106zm20.287 0c.081.586.439 1.05.892 1.156v25.489c-.453.106-.811.57-.892 1.156h-18.107c-.081-.586-.439-1.05-.892-1.156V77.268c.453-.106.811-.57.892-1.156h18.107zm-18.107 56.122c-.081-.586-.439-1.05-.892-1.156V105.59c.453-.106.811-.57.892-1.156h18.107c.081.586.439 1.05.892 1.156v25.488c-.453.106-.811.57-.892 1.156h-18.107zm-20.286 0c-.082-.586-.44-1.05-.892-1.156V105.59c.452-.106.81-.57.892-1.156h18.106c.082.586.44 1.05.892 1.156v25.488c-.452.106-.81.57-.892 1.156h-18.106zm-20.286 0c-.082-.586-.44-1.05-.892-1.156V105.59c.452-.106.81-.57.892-1.156h18.106c.082.586.44 1.05.892 1.156v25.488c-.452.106-.81.57-.892 1.156h-18.106zm-20.287 0c-.081-.586-.439-1.05-.892-1.156V105.59c.453-.106.811-.57.892-1.156h18.107c.081.586.439 1.05.892 1.156v25.488c-.453.106-.811.57-.892 1.156h-18.107zm-20.286 0c-.082-.586-.44-1.05-.892-1.156V105.59c.452-.106.81-.57.892-1.156h18.106c.082.586.44 1.05.893 1.156v25.488c-.453.106-.811.57-.893 1.156h-18.106zm-20.286 0c-.082-.586-.44-1.05-.892-1.156V105.59c.452-.106.81-.57.892-1.156h18.106c.082.586.44 1.05.892 1.156v25.488c-.452.106-.81.57-.892 1.156h-18.106zm-20.286 0c-.082-.586-.44-1.05-.893-1.156V105.59c.453-.106.811-.57.893-1.156h18.106c.082.586.44 1.05.892 1.156v25.488c-.452.106-.81.57-.892 1.156H139.34zm-20.287 0c-.081-.586-.439-1.05-.892-1.156V105.59c.453-.106.811-.57.892-1.156h18.107c.081.586.439 1.05.892 1.156v25.488c-.453.106-.811.57-.892 1.156h-18.107zm-20.286 0c-.082-.586-.44-1.05-.892-1.156V105.59c.452-.106.81-.57.892-1.156h18.106c.082.586.44 1.05.892 1.156v25.488c-.452.106-.81.57-.892 1.156H98.767zm-20.286 0c-.082-.586-.44-1.05-.892-1.156V105.59c.452-.106.81-.57.892-1.156h18.106c.082.586.44 1.05.892 1.156v25.488c-.452.106-.81.57-.892 1.156H78.481zm-20.286 0c-.082-.586-.44-1.05-.893-1.156V105.59c.453-.106.81-.57.892-1.156h18.107c.081.586.44 1.05.892 1.156v25.488c-.453.106-.81.57-.892 1.156H58.194zm242.16-86.104c-.453.106-.811.57-.893 1.156h-18.106c-.082-.586-.44-1.05-.892-1.156V19.477h19.891V46.13zm-20.287 0c-.452.106-.81.57-.892 1.156H261.07c-.082-.586-.44-1.05-.892-1.156V19.477h19.89V46.13zm-20.286 0c-.452.106-.811.57-.892 1.156h-18.106c-.082-.586-.44-1.05-.893-1.156V19.477h19.891V46.13zm-20.286 0c-.453.106-.811.57-.892 1.156h-18.107c-.081-.586-.439-1.05-.892-1.156V19.477h19.891V46.13zm-20.287 0c-.452.106-.81.57-.892 1.156h-18.106c-.082-.586-.44-1.05-.892-1.156V19.477h19.89V46.13zm-20.286 0c-.452.106-.81.57-.892 1.156h-18.106c-.082-.586-.44-1.05-.892-1.156V19.477h19.89V46.13zm-20.286 0c-.453.106-.811.57-.892 1.156h-18.107c-.081-.586-.439-1.05-.892-1.156V19.477h19.891V46.13zm-20.286 0c-.453.106-.811.57-.893 1.156h-18.106c-.082-.586-.44-1.05-.892-1.156V19.477h19.891V46.13zm-20.287 0c-.452.106-.81.57-.892 1.156h-18.106c-.082-.586-.44-1.05-.892-1.156V19.477h19.89V46.13zm-20.286 0c-.452.106-.81.57-.892 1.156H98.78c-.082-.586-.44-1.05-.892-1.156V19.477h19.89V46.13zm-20.286 0c-.453.106-.81.57-.892 1.156H78.493c-.081-.586-.44-1.05-.892-1.156V19.477h19.89V46.13zm-20.287 0c-.452.106-.81.57-.892 1.156H58.207c-.082-.586-.44-1.05-.892-1.156V19.477h19.89V46.13zm-20.286 0c-.452.106-.81.57-.892 1.156H37.921c-.082-.586-.44-1.05-.892-1.156V19.477h19.89V46.13zM35.741 76.12c.081.587.44 1.05.892 1.156v25.489c-.453.106-.81.57-.892 1.156H16.73v-27.8h19.01zm0 28.314c.081.586.44 1.05.892 1.156v25.488c-.453.106-.81.57-.892 1.156H16.73v-27.8h19.01zm0 28.313c.081.586.44 1.05.892 1.156v25.489c-.453.106-.81.57-.892 1.156H16.73v-27.801h19.01zm1.288 57.791c.452-.106.81-.57.892-1.156h18.106c.082.586.44 1.05.892 1.156v26.645H37.03v-26.645zm20.286 0c.452-.106.81-.57.892-1.156h18.106c.082.586.44 1.05.892 1.156v26.645h-19.89v-26.645zm20.286 0c.453-.106.81-.57.892-1.156H96.6c.081.586.44 1.05.892 1.156v26.645h-19.89v-26.645zm20.287 0c.452-.106.81-.57.892-1.156h18.106c.082.586.44 1.05.892 1.156v26.645h-19.89v-26.645zm20.286 0c.452-.106.81-.57.892-1.156h18.106c.082.586.44 1.05.892 1.156v26.645h-19.89v-26.645zm20.286 0c.452-.106.81-.57.892-1.156h18.106c.082.586.44 1.05.893 1.156v26.645H138.46v-26.645zm20.286 0c.453-.106.811-.57.892-1.156h18.107c.081.586.439 1.05.892 1.156v26.645h-19.891v-26.645zm20.287 0c.452-.106.81-.57.892-1.156h18.106c.082.586.44 1.05.892 1.156v26.645h-19.89v-26.645zm20.286 0c.452-.106.81-.57.892-1.156h18.106c.082.586.44 1.05.892 1.156v26.645h-19.89v-26.645zm20.286 0c.453-.106.811-.57.892-1.156h18.107c.081.586.439 1.05.892 1.156v26.645h-19.891v-26.645zm20.286 0c.453-.106.811-.57.893-1.156h18.106c.081.586.44 1.05.892 1.156v26.645h-19.891v-26.645zm20.287 0c.452-.106.81-.57.892-1.156h18.106c.082.586.44 1.05.892 1.156v26.645h-19.89v-26.645zm20.286 0c.452-.106.81-.57.892-1.156h18.106c.082.586.44 1.05.893 1.156v26.645h-19.891v-26.645zm21.178-29.99c-.081-.586-.439-1.05-.892-1.156v-25.489c.453-.106.811-.57.892-1.156h18.999v27.801h-18.999zm0-28.322c-.081-.586-.439-1.05-.892-1.156v-25.488c.453-.106.811-.57.892-1.156h18.999v27.8h-18.999zm0-28.313c-.081-.586-.439-1.05-.892-1.156V77.268c.453-.106.811-.57.892-1.156h18.999v27.801h-18.999zm0-28.314c-.081-.586-.439-1.05-.892-1.156V48.955c.453-.106.811-.57.892-1.156h18.999v27.8h-18.999zM22.189 19.477H36.62v26.645c-.452.106-.81.57-.892 1.156H16.73V26.552c0-3.9 2.45-7.075 5.46-7.075zm-5.46 169.905h19c.08.586.439 1.05.891 1.156v26.645H16.73v-27.801zm284.021 27.801v-26.645c.453-.106.811-.57.892-1.156h18.999v27.801H300.75z"/></mask><path fill="#fff" stroke="#fff" stroke-width="2" d="M315.188 18.965H22.189c-3.229 0-5.855 3.402-5.855 7.587v191.152h304.709V26.552c0-4.185-2.626-7.587-5.855-7.587zm5.453 7.587v20.734h-18.999c-.081-.586-.439-1.05-.892-1.156V19.477h14.431c3.01 0 5.454 3.175 5.454 7.067l.006.008zm-18.999 162.317c-.081-.586-.439-1.05-.892-1.156v-25.488c.453-.106.811-.57.892-1.156h18.999v27.8h-18.999zm-284.912 0v-27.8h18.998c.082.586.44 1.05.892 1.156v25.488c-.452.106-.81.57-.892 1.156H16.73zm18.998-141.07c.082.586.44 1.05.892 1.156v25.488c-.452.106-.81.57-.892 1.156H16.73V47.8h18.998zm245.628 141.07c-.082-.586-.44-1.05-.892-1.156v-25.488c.452-.106.81-.57.892-1.156h18.106c.082.586.44 1.05.893 1.156v25.488c-.453.106-.811.57-.893 1.156h-18.106zm-20.286 0c-.082-.586-.44-1.05-.892-1.156v-25.488c.452-.106.81-.57.892-1.156h18.106c.082.586.44 1.05.892 1.156v25.488c-.452.106-.81.57-.892 1.156H261.07zm-20.286 0c-.082-.586-.44-1.05-.893-1.156v-25.488c.453-.106.811-.57.893-1.156h18.106c.081.586.44 1.05.892 1.156v25.488c-.452.106-.811.57-.892 1.156h-18.106zm-20.287 0c-.081-.586-.439-1.05-.892-1.156v-25.488c.453-.106.811-.57.892-1.156h18.107c.081.586.439 1.05.892 1.156v25.488c-.453.106-.811.57-.892 1.156h-18.107zm-20.286 0c-.082-.586-.44-1.05-.892-1.156v-25.488c.452-.106.81-.57.892-1.156h18.106c.082.586.44 1.05.892 1.156v25.488c-.452.106-.81.57-.892 1.156h-18.106zm-20.286 0c-.082-.586-.44-1.05-.892-1.156v-25.488c.452-.106.81-.57.892-1.156h18.106c.082.586.44 1.05.892 1.156v25.488c-.452.106-.81.57-.892 1.156h-18.106zm-20.287 0c-.081-.586-.439-1.05-.892-1.156v-25.488c.453-.106.811-.57.892-1.156h18.107c.081.586.439 1.05.892 1.156v25.488c-.453.106-.811.57-.892 1.156h-18.107zm-20.286 0c-.082-.586-.44-1.05-.892-1.156v-25.488c.452-.106.81-.57.892-1.156h18.106c.082.586.44 1.05.893 1.156v25.488c-.453.106-.811.57-.893 1.156h-18.106zm-20.286 0c-.082-.586-.44-1.05-.892-1.156v-25.488c.452-.106.81-.57.892-1.156h18.106c.082.586.44 1.05.892 1.156v25.488c-.452.106-.81.57-.892 1.156h-18.106zm-20.286 0c-.082-.586-.44-1.05-.892-1.156v-25.488c.452-.106.81-.57.892-1.156h18.106c.082.586.44 1.05.892 1.156v25.488c-.452.106-.81.57-.892 1.156H98.78zm-20.287 0c-.081-.586-.44-1.05-.892-1.156v-25.488c.453-.106.81-.57.892-1.156H96.6c.081.586.44 1.05.892 1.156v25.488c-.453.106-.81.57-.892 1.156H78.493zm-20.286 0c-.082-.586-.44-1.05-.892-1.156v-25.488c.452-.106.81-.57.892-1.156h18.106c.082.586.44 1.05.892 1.156v25.488c-.452.106-.81.57-.892 1.156H58.207zm-20.286 0c-.082-.586-.44-1.05-.892-1.156v-25.488c.452-.106.81-.57.892-1.156h18.106c.082.586.44 1.05.892 1.156v25.488c-.452.106-.81.57-.892 1.156H37.921zm18.093-141.07c.082.586.44 1.05.893 1.156v25.488c-.453.106-.81.57-.893 1.156H37.908c-.081-.586-.44-1.05-.892-1.156V48.955c.452-.106.81-.57.892-1.156h18.106zm20.287 0c.081.586.44 1.05.892 1.156v25.488c-.453.106-.81.57-.892 1.156H58.194c-.081-.586-.44-1.05-.892-1.156V48.955c.453-.106.81-.57.892-1.156h18.107zm20.286 0c.082.586.44 1.05.892 1.156v25.488c-.452.106-.81.57-.892 1.156H78.481c-.082-.586-.44-1.05-.892-1.156V48.955c.452-.106.81-.57.892-1.156h18.106zm20.286 0c.082.586.44 1.05.892 1.156v25.488c-.452.106-.81.57-.892 1.156H98.767c-.082-.586-.44-1.05-.892-1.156V48.955c.452-.106.81-.57.892-1.156h18.106zm20.287 0c.081.586.439 1.05.892 1.156v25.488c-.453.106-.811.57-.892 1.156h-18.107c-.081-.586-.439-1.05-.892-1.156V48.955c.453-.106.811-.57.892-1.156h18.107zm20.286 0c.082.586.44 1.05.892 1.156v25.488c-.452.106-.81.57-.892 1.156H139.34c-.082-.586-.44-1.05-.893-1.156V48.955c.453-.106.811-.57.893-1.156h18.106zm20.286 0c.082.586.44 1.05.892 1.156v25.488c-.452.106-.81.57-.892 1.156h-18.106c-.082-.586-.44-1.05-.892-1.156V48.955c.452-.106.81-.57.892-1.156h18.106zm20.286 0c.082.586.44 1.05.893 1.156v25.488c-.453.106-.811.57-.893 1.156h-18.106c-.082-.586-.44-1.05-.892-1.156V48.955c.452-.106.81-.57.892-1.156h18.106zm20.287 0c.081.586.439 1.05.892 1.156v25.488c-.453.106-.811.57-.892 1.156h-18.107c-.081-.586-.439-1.05-.892-1.156V48.955c.453-.106.811-.57.892-1.156h18.107zm20.286 0c.082.586.44 1.05.892 1.156v25.488c-.452.106-.81.57-.892 1.156h-18.106c-.082-.586-.44-1.05-.892-1.156V48.955c.452-.106.81-.57.892-1.156h18.106zm20.286 0c.082.586.44 1.05.892 1.156v25.488c-.452.106-.81.57-.892 1.156h-18.106c-.082-.586-.44-1.05-.892-1.156V48.955c.452-.106.81-.57.892-1.156h18.106zm20.287 0c.081.586.439 1.05.892 1.156v25.488c-.453.106-.811.57-.892 1.156h-18.107c-.081-.586-.439-1.05-.892-1.156V48.955c.453-.106.811-.57.892-1.156h18.107zm20.286 0c.082.586.44 1.05.892 1.156v25.488c-.452.106-.81.57-.892 1.156h-18.106c-.082-.586-.44-1.05-.893-1.156V48.955c.453-.106.811-.57.893-1.156h18.106zm.892 29.47v25.488c-.452.106-.81.57-.892 1.156h-18.106c-.082-.586-.44-1.05-.893-1.156V77.268c.453-.106.811-.57.893-1.156h18.106c.082.586.44 1.05.892 1.156zm0 28.313v25.488c-.452.106-.81.57-.892 1.156h-18.106c-.082-.586-.44-1.05-.893-1.156v-25.488c.453-.106.811-.57.893-1.156h18.106c.082.586.44 1.05.892 1.156zm0 28.313v25.489c-.452.105-.81.569-.892 1.156h-18.106c-.082-.587-.44-1.051-.893-1.156v-25.489c.453-.106.811-.57.893-1.156h18.106c.082.586.44 1.05.892 1.156zm-39.285 26.645c-.081-.587-.439-1.051-.892-1.156v-25.489c.453-.106.811-.57.892-1.156h18.107c.081.586.439 1.05.892 1.156v25.489c-.453.105-.811.569-.892 1.156h-18.107zm-20.286 0c-.082-.587-.44-1.051-.892-1.156v-25.489c.452-.106.81-.57.892-1.156h18.106c.082.586.44 1.05.892 1.156v25.489c-.452.105-.81.569-.892 1.156h-18.106zm-20.286 0c-.082-.587-.44-1.051-.892-1.156v-25.489c.452-.106.81-.57.892-1.156h18.106c.082.586.44 1.05.892 1.156v25.489c-.452.105-.81.569-.892 1.156h-18.106zm-20.287 0c-.081-.587-.439-1.051-.892-1.156v-25.489c.453-.106.811-.57.892-1.156h18.107c.081.586.439 1.05.892 1.156v25.489c-.453.105-.811.569-.892 1.156h-18.107zm-20.286 0c-.082-.587-.44-1.051-.892-1.156v-25.489c.452-.106.81-.57.892-1.156h18.106c.082.586.44 1.05.893 1.156v25.489c-.453.105-.811.569-.893 1.156h-18.106zm-20.286 0c-.082-.587-.44-1.051-.892-1.156v-25.489c.452-.106.81-.57.892-1.156h18.106c.082.586.44 1.05.892 1.156v25.489c-.452.105-.81.569-.892 1.156h-18.106zm-20.286 0c-.082-.587-.44-1.051-.893-1.156v-25.489c.453-.106.811-.57.893-1.156h18.106c.082.586.44 1.05.892 1.156v25.489c-.452.105-.81.569-.892 1.156H139.34zm-20.287 0c-.081-.587-.439-1.051-.892-1.156v-25.489c.453-.106.811-.57.892-1.156h18.107c.081.586.439 1.05.892 1.156v25.489c-.453.105-.811.569-.892 1.156h-18.107zm-20.286 0c-.082-.587-.44-1.051-.892-1.156v-25.489c.452-.106.81-.57.892-1.156h18.106c.082.586.44 1.05.892 1.156v25.489c-.452.105-.81.569-.892 1.156H98.767zm-20.286 0c-.082-.587-.44-1.051-.892-1.156v-25.489c.452-.106.81-.57.892-1.156h18.106c.082.586.44 1.05.892 1.156v25.489c-.452.105-.81.569-.892 1.156H78.481zm-20.286 0c-.082-.587-.44-1.051-.893-1.156v-25.489c.453-.106.81-.57.892-1.156h18.107c.081.586.44 1.05.892 1.156v25.489c-.453.105-.81.569-.892 1.156H58.194zm-20.287 0c-.081-.587-.44-1.051-.892-1.156v-25.489c.452-.106.81-.57.892-1.156h18.106c.082.586.44 1.05.893 1.156v25.489c-.453.105-.81.569-.893 1.156H37.908zm-.892-29.47v-25.488c.452-.106.81-.57.892-1.156h18.106c.082.586.44 1.05.893 1.156v25.488c-.453.106-.81.57-.893 1.156H37.908c-.081-.586-.44-1.05-.892-1.156zm0-28.313V77.268c.452-.106.81-.57.892-1.156h18.106c.082.586.44 1.05.893 1.156v25.489c-.453.106-.81.57-.893 1.156H37.908c-.081-.586-.44-1.05-.892-1.156zm39.285-26.645c.081.586.44 1.05.892 1.156v25.489c-.453.106-.81.57-.892 1.156H58.194c-.081-.586-.44-1.05-.892-1.156V77.268c.453-.106.81-.57.892-1.156h18.107zm20.286 0c.082.586.44 1.05.892 1.156v25.489c-.452.106-.81.57-.892 1.156H78.481c-.082-.586-.44-1.05-.892-1.156V77.268c.452-.106.81-.57.892-1.156h18.106zm20.286 0c.082.586.44 1.05.892 1.156v25.489c-.452.106-.81.57-.892 1.156H98.767c-.082-.586-.44-1.05-.892-1.156V77.268c.452-.106.81-.57.892-1.156h18.106zm20.287 0c.081.586.439 1.05.892 1.156v25.489c-.453.106-.811.57-.892 1.156h-18.107c-.081-.586-.439-1.05-.892-1.156V77.268c.453-.106.811-.57.892-1.156h18.107zm20.286 0c.082.586.44 1.05.892 1.156v25.489c-.452.106-.81.57-.892 1.156H139.34c-.082-.586-.44-1.05-.893-1.156V77.268c.453-.106.811-.57.893-1.156h18.106zm20.286 0c.082.586.44 1.05.892 1.156v25.489c-.452.106-.81.57-.892 1.156h-18.106c-.082-.586-.44-1.05-.892-1.156V77.268c.452-.106.81-.57.892-1.156h18.106zm20.286 0c.082.586.44 1.05.893 1.156v25.489c-.453.106-.811.57-.893 1.156h-18.106c-.082-.586-.44-1.05-.892-1.156V77.268c.452-.106.81-.57.892-1.156h18.106zm20.287 0c.081.586.439 1.05.892 1.156v25.489c-.453.106-.811.57-.892 1.156h-18.107c-.081-.586-.439-1.05-.892-1.156V77.268c.453-.106.811-.57.892-1.156h18.107zm20.286 0c.082.586.44 1.05.892 1.156v25.489c-.452.106-.81.57-.892 1.156h-18.106c-.082-.586-.44-1.05-.892-1.156V77.268c.452-.106.81-.57.892-1.156h18.106zm20.286 0c.082.586.44 1.05.892 1.156v25.489c-.452.106-.81.57-.892 1.156h-18.106c-.082-.586-.44-1.05-.892-1.156V77.268c.452-.106.81-.57.892-1.156h18.106zm20.287 0c.081.586.439 1.05.892 1.156v25.489c-.453.106-.811.57-.892 1.156h-18.107c-.081-.586-.439-1.05-.892-1.156V77.268c.453-.106.811-.57.892-1.156h18.107zm-18.107 56.122c-.081-.586-.439-1.05-.892-1.156V105.59c.453-.106.811-.57.892-1.156h18.107c.081.586.439 1.05.892 1.156v25.488c-.453.106-.811.57-.892 1.156h-18.107zm-20.286 0c-.082-.586-.44-1.05-.892-1.156V105.59c.452-.106.81-.57.892-1.156h18.106c.082.586.44 1.05.892 1.156v25.488c-.452.106-.81.57-.892 1.156h-18.106zm-20.286 0c-.082-.586-.44-1.05-.892-1.156V105.59c.452-.106.81-.57.892-1.156h18.106c.082.586.44 1.05.892 1.156v25.488c-.452.106-.81.57-.892 1.156h-18.106zm-20.287 0c-.081-.586-.439-1.05-.892-1.156V105.59c.453-.106.811-.57.892-1.156h18.107c.081.586.439 1.05.892 1.156v25.488c-.453.106-.811.57-.892 1.156h-18.107zm-20.286 0c-.082-.586-.44-1.05-.892-1.156V105.59c.452-.106.81-.57.892-1.156h18.106c.082.586.44 1.05.893 1.156v25.488c-.453.106-.811.57-.893 1.156h-18.106zm-20.286 0c-.082-.586-.44-1.05-.892-1.156V105.59c.452-.106.81-.57.892-1.156h18.106c.082.586.44 1.05.892 1.156v25.488c-.452.106-.81.57-.892 1.156h-18.106zm-20.286 0c-.082-.586-.44-1.05-.893-1.156V105.59c.453-.106.811-.57.893-1.156h18.106c.082.586.44 1.05.892 1.156v25.488c-.452.106-.81.57-.892 1.156H139.34zm-20.287 0c-.081-.586-.439-1.05-.892-1.156V105.59c.453-.106.811-.57.892-1.156h18.107c.081.586.439 1.05.892 1.156v25.488c-.453.106-.811.57-.892 1.156h-18.107zm-20.286 0c-.082-.586-.44-1.05-.892-1.156V105.59c.452-.106.81-.57.892-1.156h18.106c.082.586.44 1.05.892 1.156v25.488c-.452.106-.81.57-.892 1.156H98.767zm-20.286 0c-.082-.586-.44-1.05-.892-1.156V105.59c.452-.106.81-.57.892-1.156h18.106c.082.586.44 1.05.892 1.156v25.488c-.452.106-.81.57-.892 1.156H78.481zm-20.286 0c-.082-.586-.44-1.05-.893-1.156V105.59c.453-.106.81-.57.892-1.156h18.107c.081.586.44 1.05.892 1.156v25.488c-.453.106-.81.57-.892 1.156H58.194zm242.16-86.104c-.453.106-.811.57-.893 1.156h-18.106c-.082-.586-.44-1.05-.892-1.156V19.477h19.891V46.13zm-20.287 0c-.452.106-.81.57-.892 1.156H261.07c-.082-.586-.44-1.05-.892-1.156V19.477h19.89V46.13zm-20.286 0c-.452.106-.811.57-.892 1.156h-18.106c-.082-.586-.44-1.05-.893-1.156V19.477h19.891V46.13zm-20.286 0c-.453.106-.811.57-.892 1.156h-18.107c-.081-.586-.439-1.05-.892-1.156V19.477h19.891V46.13zm-20.287 0c-.452.106-.81.57-.892 1.156h-18.106c-.082-.586-.44-1.05-.892-1.156V19.477h19.89V46.13zm-20.286 0c-.452.106-.81.57-.892 1.156h-18.106c-.082-.586-.44-1.05-.892-1.156V19.477h19.89V46.13zm-20.286 0c-.453.106-.811.57-.892 1.156h-18.107c-.081-.586-.439-1.05-.892-1.156V19.477h19.891V46.13zm-20.286 0c-.453.106-.811.57-.893 1.156h-18.106c-.082-.586-.44-1.05-.892-1.156V19.477h19.891V46.13zm-20.287 0c-.452.106-.81.57-.892 1.156h-18.106c-.082-.586-.44-1.05-.892-1.156V19.477h19.89V46.13zm-20.286 0c-.452.106-.81.57-.892 1.156H98.78c-.082-.586-.44-1.05-.892-1.156V19.477h19.89V46.13zm-20.286 0c-.453.106-.81.57-.892 1.156H78.493c-.081-.586-.44-1.05-.892-1.156V19.477h19.89V46.13zm-20.287 0c-.452.106-.81.57-.892 1.156H58.207c-.082-.586-.44-1.05-.892-1.156V19.477h19.89V46.13zm-20.286 0c-.452.106-.81.57-.892 1.156H37.921c-.082-.586-.44-1.05-.892-1.156V19.477h19.89V46.13zM35.741 76.12c.081.587.44 1.05.892 1.156v25.489c-.453.106-.81.57-.892 1.156H16.73v-27.8h19.01zm0 28.314c.081.586.44 1.05.892 1.156v25.488c-.453.106-.81.57-.892 1.156H16.73v-27.8h19.01zm0 28.313c.081.586.44 1.05.892 1.156v25.489c-.453.106-.81.57-.892 1.156H16.73v-27.801h19.01zm1.288 57.791c.452-.106.81-.57.892-1.156h18.106c.082.586.44 1.05.892 1.156v26.645H37.03v-26.645zm20.286 0c.452-.106.81-.57.892-1.156h18.106c.082.586.44 1.05.892 1.156v26.645h-19.89v-26.645zm20.286 0c.453-.106.81-.57.892-1.156H96.6c.081.586.44 1.05.892 1.156v26.645h-19.89v-26.645zm20.287 0c.452-.106.81-.57.892-1.156h18.106c.082.586.44 1.05.892 1.156v26.645h-19.89v-26.645zm20.286 0c.452-.106.81-.57.892-1.156h18.106c.082.586.44 1.05.892 1.156v26.645h-19.89v-26.645zm20.286 0c.452-.106.81-.57.892-1.156h18.106c.082.586.44 1.05.893 1.156v26.645H138.46v-26.645zm20.286 0c.453-.106.811-.57.892-1.156h18.107c.081.586.439 1.05.892 1.156v26.645h-19.891v-26.645zm20.287 0c.452-.106.81-.57.892-1.156h18.106c.082.586.44 1.05.892 1.156v26.645h-19.89v-26.645zm20.286 0c.452-.106.81-.57.892-1.156h18.106c.082.586.44 1.05.892 1.156v26.645h-19.89v-26.645zm20.286 0c.453-.106.811-.57.892-1.156h18.107c.081.586.439 1.05.892 1.156v26.645h-19.891v-26.645zm20.286 0c.453-.106.811-.57.893-1.156h18.106c.081.586.44 1.05.892 1.156v26.645h-19.891v-26.645zm20.287 0c.452-.106.81-.57.892-1.156h18.106c.082.586.44 1.05.892 1.156v26.645h-19.89v-26.645zm20.286 0c.452-.106.81-.57.892-1.156h18.106c.082.586.44 1.05.893 1.156v26.645h-19.891v-26.645zm21.178-29.99c-.081-.586-.439-1.05-.892-1.156v-25.489c.453-.106.811-.57.892-1.156h18.999v27.801h-18.999zm0-28.322c-.081-.586-.439-1.05-.892-1.156v-25.488c.453-.106.811-.57.892-1.156h18.999v27.8h-18.999zm0-28.313c-.081-.586-.439-1.05-.892-1.156V77.268c.453-.106.811-.57.892-1.156h18.999v27.801h-18.999zm0-28.314c-.081-.586-.439-1.05-.892-1.156V48.955c.453-.106.811-.57.892-1.156h18.999v27.8h-18.999zM22.189 19.477H36.62v26.645c-.452.106-.81.57-.892 1.156H16.73V26.552c0-3.9 2.45-7.075 5.46-7.075zm-5.46 169.905h19c.08.586.439 1.05.891 1.156v26.645H16.73v-27.801zm284.021 27.801v-26.645c.453-.106.811-.57.892-1.156h18.999v27.801H300.75z" mask="url(#e)"/><path stroke="#fff" d="m119.261 110.877 39.237-56.313 21.165 28.004.092.122h20.277l20.198 29.625.169.247.222-.162 40.421-29.652 40.42 28.215.07.049h20.051v80.536H17.905v-80.632L98.64 82.74l20.157 28.141.233.326.23-.33z"/><path fill="#fff" stroke="#fff" d="m98.115 134.51-80.584 84.452-1.824-2.922 81.65-85.569h40.46l.15-.209 20.285-28.319 79.696 28.2.351.124.22-.301 50.128-68.723.229-.314-.248-.3-3.199-3.86 11.708-4.457-2.829 15.17-2.921-3.524-.41-.495-.379.52-51.481 70.577-79.677-28.194-.354-.125-.219.306-19.919 27.809H98.263l-.148.154z"/></g></g></g><defs><linearGradient id="c" x1="168.686" x2="168.686" y1="14.08" y2="159.799" gradientUnits="userSpaceOnUse"><stop stop-color="#D9D9D9"/><stop offset="1" stop-color="#D9D9D9" stop-opacity="0"/></linearGradient></defs></svg>