<svg xmlns="http://www.w3.org/2000/svg" width="338" height="162" fill="none"><g clip-path="url(#a)"><path stroke="#F4F4F5" stroke-miterlimit="10" stroke-opacity=".3" stroke-width=".8" d="M-16.868 141.256H155.01m29.634-29.634h130.391m-331.903-31.61h222.75m-225.713 31.61h222.75m0-31.61h151.628m-58.281-72.11v144.22M264.656 35.56v118.043M222.181 7.408v104.214M-14.892 44.451h338.817M111.547 13.829v96.805m42.475-66.183v96.805M23.632 0v153.11M67.096 45.438v103.72"/><path fill="#4D4D4F" d="M67.096 83.47a3.458 3.458 0 1 0 0-6.915 3.458 3.458 0 0 0 0 6.915zM23.652 47.908a3.457 3.457 0 1 0 0-6.913 3.457 3.457 0 0 0 0 6.913zm-.514 96.312a3.458 3.458 0 1 0 0-6.915 3.458 3.458 0 0 0 0 6.915zm273.128-96.312a3.457 3.457 0 1 0 .002-6.914 3.457 3.457 0 0 0-.002 6.914zM264.657 83.47a3.458 3.458 0 1 0-.001-6.915 3.458 3.458 0 0 0 .001 6.915z" opacity=".7"/><path fill="#fff" stroke="#fff" stroke-opacity=".996" stroke-width=".072" d="M73.506 66.939H44.099c-1.842 0-3.341 1.106-3.341 2.465v18.733c0 1.359 1.499 2.465 3.341 2.465h2.005v2.958c0 .272.299.493.669.493h3.341v2.958c0 .272.299.493.669.493h2.673c.37 0 .668-.221.668-.493v-2.958h2.673v2.958c0 .272.3.493.669.493h2.673c.37 0 .668-.221.668-.493v-2.958h2.674v2.958c0 .272.298.493.668.493h2.673c.37 0 .669-.221.669-.493v-2.958h3.341c.37 0 .669-.221.669-.493v-2.958h2.005c1.842 0 3.341-1.106 3.341-2.465V69.404c0-1.36-1.499-2.465-3.341-2.465zM52.788 96.518H51.45v-2.465h1.337v2.465zm6.683 0h-1.337v-2.465h1.337v2.465zm6.683 0h-1.337v-2.465h1.337v2.465zm4.01-3.451H47.44v-2.465h22.723v2.465zm5.346-4.93c0 .815-.9 1.479-2.004 1.479H44.099c-1.105 0-2.005-.664-2.005-1.479V69.404c0-.816.9-1.48 2.005-1.48h29.407c1.105 0 2.004.664 2.004 1.48v18.733z"/><path fill="#fff" stroke="#fff" stroke-opacity=".996" stroke-width=".072" d="M62.144 80.742h-2.005v-2.465c0-.222-.2-.416-.49-.475-.288-.059-.598.031-.751.221l-4.01 4.93a.384.384 0 0 0-.009.497c.119.154.341.25.582.25h2.005v2.465c0 .222.2.416.49.475a.91.91 0 0 0 .178.018c.23 0 .45-.088.573-.239l4.01-4.93a.385.385 0 0 0 .008-.496c-.118-.155-.34-.25-.581-.25zm-3.342 3.643v-1.178c0-.272-.298-.493-.668-.493h-1.492l2.16-2.657v1.178c0 .272.299.493.669.493h1.492l-2.16 2.657z"/><path fill="#fff" stroke="#fff" stroke-opacity=".996" stroke-width=".072" d="M72.837 68.91h-28.07c-.736 0-1.336.443-1.336.987v17.747c0 .544.6.986 1.337.986h28.07c.736 0 1.336-.442 1.336-.986V69.897c0-.544-.6-.986-1.337-.986zm-28.07 18.734V69.897h28.07v17.747h-28.07z"/><path fill="#fff" stroke="#fff" stroke-opacity=".996" stroke-width=".072" d="M49.446 70.883h-2.673c-.37 0-.669.22-.669.493v4.93c0 .272.3.493.669.493h2.673c.37 0 .668-.222.668-.494v-4.93c0-.271-.298-.492-.668-.492zm-.668 4.93H47.44v-3.944h1.337v3.944zm3.341.986h2.673c.37 0 .669-.222.669-.494v-4.93c0-.271-.299-.492-.669-.492H52.12c-.37 0-.668.22-.668.493v4.93c0 .272.298.493.668.493zm.668-4.93h1.337v3.944h-1.337v-3.944zm12.699-.986h-2.674c-.37 0-.668.22-.668.493v4.93c0 .272.299.493.668.493h2.674c.37 0 .668-.222.668-.494v-4.93c0-.271-.299-.492-.668-.492zm-.669 4.93h-1.336v-3.944h1.336v3.944zm6.015-4.93H68.16c-.37 0-.668.22-.668.493v4.93c0 .272.298.493.668.493h2.673c.37 0 .669-.222.669-.494v-4.93c0-.271-.299-.492-.669-.492zm-.668 4.93h-1.337v-3.944h1.337v3.944zm-12.698.986h2.673c.37 0 .668-.222.668-.494v-4.93c0-.271-.298-.492-.668-.492h-2.673c-.37 0-.669.22-.669.493v4.93c0 .272.299.493.669.493zm.668-4.93h1.337v3.944h-1.337v-3.944zm6.683 9.859h1.337v.986h-1.337v-.986zm2.673 0h1.337v.986h-1.336v-.986zm2.674 0h1.337v.986h-1.337v-.986zm-24.059 0h1.336v.986h-1.337v-.986zm2.673 0h1.337v.986h-1.337v-.986zm2.672 0h1.337v.986h-1.336v-.986z"/><path fill="#fff" stroke="#fff" stroke-opacity=".996" stroke-width=".026" d="M37.653 119.252c-3.892-.201-7.445-2.068-9.737-5.116a12.102 12.102 0 0 1-2.406-8.004c.232-3.594 2.004-6.83 4.959-9.057 2.655-2 6.084-2.899 9.474-2.484a13.03 13.03 0 0 1 6.622 2.807 16.81 16.81 0 0 1 1.359 1.287c2.574 2.838 3.663 6.533 3.023 10.26-.58 3.375-2.622 6.394-5.612 8.295-2.25 1.43-5 2.151-7.682 2.012zm1.584-1.907a10.898 10.898 0 0 0 3.8-1.01 10.458 10.458 0 0 0 2.87-1.946c1.972-1.852 3.138-4.365 3.258-7.022a10.085 10.085 0 0 0-1.123-5.169 10.39 10.39 0 0 0-2.553-3.206c-2.505-2.137-5.852-3.028-9.18-2.442-1.43.251-2.84.81-4.073 1.614a10.5 10.5 0 0 0-3.706 4.124 10.07 10.07 0 0 0-1.059 3.68 14.504 14.504 0 0 0 0 1.82 10.359 10.359 0 0 0 3.28 6.641 10.56 10.56 0 0 0 2.636 1.816c1.825.895 3.778 1.262 5.85 1.1zm5.957-5.686a24.183 24.183 0 0 1-.766-.451c-.016-.015.095-.234.306-.603l.349-.609c.011-.021.136.033.396.17.208.11.386.201.395.201.022.001.243-.504.363-.83.595-1.613.619-3.477.065-5.137a7.841 7.841 0 0 0-.347-.873l-.045-.083-.374.213a5.184 5.184 0 0 1-.397.212c-.022 0-.734-1.153-.734-1.19 0-.011.171-.114.38-.23.208-.116.379-.222.379-.234 0-.035-.264-.368-.522-.656a8.52 8.52 0 0 0-4.254-2.542 10.382 10.382 0 0 0-1.119-.195l-.203-.018v.892h-1.465v-.907l-.085.01-.32.04c-.486.058-1.29.24-1.58.356l-.084.034 1.722 2.513 1.722 2.514.224.068a2.852 2.852 0 0 1 1.868 1.726 2.738 2.738 0 0 1-.624 2.87c-.62.63-1.434.93-2.349.864-1.21-.088-2.264-.953-2.565-2.106a3.69 3.69 0 0 1-.05-1.124c.064-.385.251-.838.467-1.13l.093-.126-.32-3.009a336.094 336.094 0 0 0-.328-3.016c-.015-.014-.522.2-.86.363a8.446 8.446 0 0 0-3 2.446.77.77 0 0 0-.104.154c.005.004.174.095.375.202.202.108.37.2.376.205.008.008-.66 1.192-.691 1.223a3.965 3.965 0 0 1-.395-.196c-.212-.114-.394-.198-.405-.187-.042.041-.217.468-.35.854-.644 1.87-.56 3.867.24 5.708.065.15.123.272.128.272.005 0 .17-.091.367-.202.196-.111.366-.202.378-.202.019 0 .684 1.078.72 1.166.012.033-.145.14-.734.501a31.43 31.43 0 0 1-.783.472c-.051.019-.413-.534-.688-1.052a9.086 9.086 0 0 1-.967-3.073c-.056-.426-.065-1.596-.014-1.997.175-1.383.59-2.572 1.294-3.717 1.238-2.011 3.342-3.523 5.712-4.105a8.704 8.704 0 0 1 2.055-.274c2.965-.08 5.736 1.164 7.591 3.409 2.378 2.878 2.7 6.938.803 10.124-.153.256-.467.72-.487.719-.009-.001-.35-.193-.759-.427zm-6.41-3.316c.102-.029.254-.101.369-.175.417-.27.646-.681.646-1.159 0-.411-.129-.711-.43-1.005a1.46 1.46 0 0 0-2.049.002c-.317.305-.441.624-.42 1.073.014.293.077.477.245.715.365.517.998.729 1.638.549z"/><path stroke="#fff" stroke-width="1.27" d="M287.487 80.86v3.81m0-8.891v3.81m0-8.883v3.811m0-8.9v3.81m-10.164-10.791h13.338v4.446h-13.338zm0 5.081h13.338v34.297h-13.338zm26.041 17.143v3.81m0-8.891v3.81m0-8.883v3.811m0-8.9v3.81M293.2 58.636h13.338v4.446H293.2zm0 5.081h13.338v34.297H293.2zm-32.713 20.955h11.432m-11.432-2.536h11.432m-14.606-3.179h17.149m-6.033-17.151h2.54v2.54h-2.54z"/><path stroke="#fff" stroke-width="1.27" d="M257.635 58.636h17.148v39.377h-17.148z"/><path fill="#fff" d="m193.249 127.847-1.677-.968v1.936l1.677-.968zm-79.807.167h.665v-.335h-.665v.335zm1.996 0h1.33v-.335h-1.33v.335zm2.66 0h1.33v-.335h-1.33v.335zm2.66 0h1.33v-.335h-1.33v.335zm2.66 0h1.33v-.335h-1.33v.335zm2.66 0h1.33v-.335h-1.33v.335zm2.661 0h1.33v-.335h-1.33v.335zm2.66 0h1.33v-.335h-1.33v.335zm2.66 0h1.33v-.335h-1.33v.335zm2.66 0h1.33v-.335h-1.33v.335zm2.66 0h1.33v-.335h-1.33v.335zm2.661 0h1.33v-.335h-1.33v.335zm2.66 0h1.33v-.335h-1.33v.335zm2.66 0h1.33v-.335h-1.33v.335zm2.66 0h1.33v-.335h-1.33v.335zm2.66 0h1.33v-.335h-1.33v.335zm2.661 0h1.33v-.335h-1.33v.335zm2.66 0h1.33v-.335h-1.33v.335zm2.66 0h1.33v-.335h-1.33v.335zm2.66 0h1.33v-.335h-1.33v.335zm2.66 0h1.331v-.335h-1.331v.335zm2.661 0h1.33v-.335h-1.33v.335zm2.66 0h1.33v-.335h-1.33v.335zm2.66 0h1.33v-.335h-1.33v.335zm2.66 0h1.33v-.335h-1.33v.335zm2.66 0h1.331v-.335h-1.331v.335zm2.661 0h1.33v-.335h-1.33v.335zm2.66 0h1.33v-.335h-1.33v.335zm2.66 0h1.33v-.335h-1.33v.335zm2.66 0h1.33v-.335h-1.33v.335z"/><path fill="#909090" stroke="#fff" stroke-width=".335" d="M169.776 58.268v-3.353h12.575v3.353l4.359 2.85-.168 20.622-10.227 13.749-10.898-13.749V61.118l4.359-2.85z"/><path fill="#909090" stroke="#fff" stroke-width=".335" d="m170.782 54.937 10.73-.022v7.21h-10.73v-7.188z"/><path fill="#313131" stroke="#fff" stroke-width=".335" d="M119.814 58.268v-3.353h12.574v3.353l4.359 2.85-.167 20.622-10.228 13.749-10.897-13.749V61.118l4.359-2.85z"/><path fill="#313131" stroke="#fff" stroke-width=".335" d="m120.82 54.937 10.73-.022v7.21h-10.73v-7.188zM221.415 58.1v-3.353h12.575V58.1l4.359 2.85-.168 20.623-10.227 13.748-10.898-13.748V60.95l4.359-2.85z"/><path fill="#313131" stroke="#fff" stroke-width=".335" d="m222.421 54.77 10.731-.023v7.21h-10.731V54.77z"/><path stroke="#fff" stroke-width=".335" d="M104.892 54.915h6.036v26.826h-6.036z"/><path fill="#313131" d="M105.73 58.1h1.006v20.119h-1.006zm1.342 0h1.677v20.119h-1.677zm2.011 0h1.006v20.119h-1.006z"/><path stroke="#fff" stroke-width=".335" d="M155.526 54.915h6.036v26.826h-6.036z"/><path fill="#313131" d="M156.363 58.1h1.006v20.119h-1.006zm1.342 0h1.677v20.119h-1.677zm2.011 0h1.006v20.119h-1.006z"/><path stroke="#fff" stroke-width=".335" d="M207.165 54.915h6.036v26.826h-6.036z"/><path fill="#313131" d="M208.003 58.1h1.006v20.119h-1.006zm1.341 0h1.677v20.119h-1.677zm2.012 0h1.006v20.119h-1.006z"/><path fill="#fff" d="M107.575 87.944h-.168v.167h.168v-.167zm0-5.533-.968 1.677h1.936l-.968-1.677zm12.071 5.365h-12.071v.335h12.071v-.335zm-11.904.168V83.92h-.335v4.024h.335zm50.633.167h-.167v.168h.167v-.168zm0-5.532-.967 1.676h1.935l-.968-1.676zm12.072 5.365h-12.072v.335h12.072v-.335zm-11.904.167v-4.023h-.335v4.023h.335zm51.472 0h-.168v.168h.168v-.168zm0-5.532-.968 1.676h1.936l-.968-1.676zm12.071 5.365h-12.071v.335h12.071v-.335zm-11.904.167v-4.023h-.335v4.023h.335zM118.64 50.053l-1.677.968v-1.936l1.677.968zm-10.898 0h-.167v-.168h.167v.168zm0 4.191-.968-1.676h1.936l-.968 1.676zm-.167-1.572v-1.048h.335v1.048h-.335zm0-2.095v-.524h.335v.524h-.335zm.167-.692h.681v.335h-.681v-.335zm2.044 0h1.362v.335h-1.362v-.335zm2.724 0h1.362v.335h-1.362v-.335zm2.724 0h1.363v.335h-1.363v-.335zm25.034 7.545h.168v-.168h-.168v.168zm0 39.903h-.167v.167h.167v-.167zm23.808 0v.167h.168v-.167h-.168zm0-8.551-.968 1.677h1.936l-.968-1.677zm-31.688-31.185h7.88v-.335h-7.88v.335zm7.713-.167v39.903h.335V57.43h-.335zm.167 40.07h23.808v-.335h-23.808v.335zm23.976-.167V90.29h-.336v7.042h.336zm25.819-39.903h.168v-.168h-.168v.168zm0 39.903h-.168v.167h.168v-.167zm25.149 0v.167h.168v-.167h-.168zm0-8.719-.968 1.677h1.936l-.968-1.677zm-33.029-31.017h7.88v-.335h-7.88v.335zm7.712-.167v39.903h.336V57.43h-.336zm.168 40.07h25.149v-.335h-25.149v.335zm25.317-.167v-7.21h-.336v7.21h.336zm-89.363-77.627v-.168h-.168v.168h.168zm20.454 0h.168v-.168h-.168v.168zm0 41.244h-.168v.168h.168v-.168zm7.377 0-1.676-.968v1.937l1.676-.968zm-27.664-29.508V19.706h-.335v11.736h.335zm-.167-11.568h20.454v-.335h-20.454v.335zm20.286-.168V60.95h.336V19.706h-.336zm.168 41.412h5.868v-.335h-5.868v.335z"/><path stroke="#fff" stroke-width=".335" d="m126.017 31.275-5.533 7.041v16.599m5.533-23.64 5.365 7.041v16.599"/><path fill="#fff" d="M227.619 19.538v-.167h-.168v.168h.168zm6.874 0-1.677-.968v1.936l1.677-.968zm-6.707 11.737V19.539h-.335v11.736h.335zm-.167-11.569h5.365v-.335h-5.365v.335z"/><path stroke="#fff" stroke-width=".335" d="m227.619 31.107-5.533 7.042v16.598m5.533-23.64 5.365 7.042v16.598"/><path fill="#fff" d="M176.315 19.538v-.167h-.167v.168h.167zm20.455 0h.168v-.167h-.168v.168zm0 41.245h-.168v.167h.168v-.167zm7.377 0-1.677-.968v1.936l1.677-.968zm-27.664-29.508V19.539h-.335v11.736h.335zm-.168-11.569h20.455v-.335h-20.455v.335zm20.287-.168v41.245h.336V19.538h-.336zm.168 41.412h5.868v-.335h-5.868v.335z"/><path stroke="#fff" stroke-width=".335" d="m176.315 31.107-5.532 7.042v16.598m5.532-23.64 5.366 7.042v16.598"/><path fill="#fff" d="m104.054 61.453-1.677-.968v1.937l1.677-.968zM95 61.621h.754v-.335H95v.335zm2.263 0h1.51v-.335h-1.51v.335zm3.018 0h1.509v-.335h-1.509v.335zm142.93-4.862-1.676-.968v1.936l1.676-.968zm-9.053.168h7.544v-.336h-7.544v.336zm-122.057 54.824-1.676-.968v1.936l1.676-.968zM95 111.919h.713v-.335H95v.335zm2.138 0h1.425v-.335h-1.425v.335zm2.85 0h1.425v-.335h-1.425v.335zm2.85 0h1.425v-.335h-1.425v.335zm2.85 0h1.425v-.335h-1.425v.335zm2.851 0h1.425v-.335h-1.425v.335zM95 75.872l1.677-.968v1.936L95 75.872zm9.054.168h-.755v-.335h.755v.335zm-2.264 0h-1.509v-.335h1.509v.335zm-3.018 0h-1.509v-.335h1.51v.335zm47.532-.168 1.677-.968v1.936l-1.677-.968zm9.054.168h-.755v-.335h.755v.335zm-2.263 0h-1.509v-.335h1.509v.335zm-3.018 0h-1.509v-.335h1.509v.335z"/><path stroke="#fff" stroke-width=".335" d="M168.938 116.614h15.425v20.119h-15.425zm0 0 15.425 20.119"/><path fill="#fff" d="m113.442 87.944-.968 1.676h1.936l-.968-1.676zm0 39.568.968-1.677h-1.936l.968 1.677zm-.167-38.06v36.551h.335v-36.55h-.335z"/><path stroke="#fff" stroke-width=".335" d="M126.353 95.32v12.24h101.601V95.32m-51.639 0v12.24"/></g><defs><clipPath id="a"><path fill="#fff" d="M0 0h338v162H0z"/></clipPath></defs></svg>