<svg xmlns="http://www.w3.org/2000/svg" width="338" height="162" fill="none"><g clip-path="url(#a)"><path stroke="#313131" stroke-miterlimit="10" stroke-width=".8" d="M-16.868 141.256H155.01m29.634-29.634h130.391m-331.903-31.61h222.75m-225.713 31.61h222.75m0-31.61h151.628m-58.281-72.11v144.22M264.656 35.56v118.043M222.181 7.408v104.214M-14.892 44.451h338.817M111.547 13.829v96.805m42.475-66.183v96.805M23.632 0v153.11M67.096 45.438v103.72"/><path fill="#4D4D4F" d="M67.096 83.47a3.458 3.458 0 1 0 0-6.915 3.458 3.458 0 0 0 0 6.915zM23.652 47.908a3.457 3.457 0 1 0 0-6.913 3.457 3.457 0 0 0 0 6.913zm-.514 96.312a3.458 3.458 0 1 0 0-6.915 3.458 3.458 0 0 0 0 6.915zm273.128-96.312a3.457 3.457 0 1 0 .002-6.914 3.457 3.457 0 0 0-.002 6.914zM264.657 83.47a3.458 3.458 0 1 0-.001-6.915 3.458 3.458 0 0 0 .001 6.915z" opacity=".7"/><path stroke="#909090" stroke-linecap="round" stroke-linejoin="round" stroke-opacity=".7" stroke-width="2.571" d="M188.152 99.235V47.326a3.676 3.676 0 0 1 3.672-3.674h85.032a3.675 3.675 0 0 1 3.674 3.674v51.909m7.955 1.182H178.324v11.967h110.161v-11.967z"/><path fill="#909090" fill-opacity=".7" d="M234.339 49.121a1.31 1.31 0 1 0 0-2.62 1.31 1.31 0 0 0 0 2.62z"/><path stroke="#909090" stroke-linecap="round" stroke-linejoin="round" stroke-opacity=".7" stroke-width="2.571" d="M197.607 53.398h73.543v35.678M197.23 57.74v.23m0 4.136v5.614m0 4.09v15.753m-.105 5.391h.23m4.136 0h7.451m5.112 0h56.854"/><path fill="#909090" fill-opacity=".7" d="M127.274 43H57.726A3.73 3.73 0 0 0 54 46.726v59.613a3.73 3.73 0 0 0 3.726 3.726h69.548a3.73 3.73 0 0 0 3.726-3.726V46.726A3.73 3.73 0 0 0 127.274 43zm-69.548 2.484h69.548c.685 0 1.242.558 1.242 1.242v11.177H56.484V46.726c0-.684.556-1.242 1.242-1.242zm18.629 14.903h52.161V75.29H76.355V60.387zM73.87 75.29H56.484V60.387H73.87V75.29zm-17.386 31.05V77.774H73.87v29.807H57.726a1.244 1.244 0 0 1-1.242-1.242zm70.79 1.242h-50.92V77.774h52.162v28.565c0 .684-.557 1.242-1.242 1.242z"/><path fill="#909090" fill-opacity=".7" d="M62.692 55.42a3.73 3.73 0 0 0 3.726-3.727 3.73 3.73 0 0 0-3.726-3.725 3.73 3.73 0 0 0-3.726 3.725 3.73 3.73 0 0 0 3.726 3.726zm0-4.968c.685 0 1.242.557 1.242 1.242 0 .684-.557 1.241-1.242 1.241a1.243 1.243 0 0 1-1.242-1.242c0-.684.557-1.241 1.242-1.241zm9.938 4.968a3.73 3.73 0 0 0 3.725-3.727 3.73 3.73 0 0 0-3.726-3.725 3.73 3.73 0 0 0-3.726 3.725 3.73 3.73 0 0 0 3.726 3.726zm0-4.968c.684 0 1.241.557 1.241 1.242 0 .684-.557 1.241-1.242 1.241a1.243 1.243 0 0 1-1.242-1.242c0-.684.557-1.241 1.242-1.241zm9.937 4.968a3.73 3.73 0 0 0 3.725-3.727 3.73 3.73 0 0 0-3.725-3.725 3.73 3.73 0 0 0-3.726 3.725 3.73 3.73 0 0 0 3.726 3.726zm0-4.968c.685 0 1.242.557 1.242 1.242 0 .684-.557 1.241-1.242 1.241a1.243 1.243 0 0 1-1.242-1.242c0-.684.556-1.241 1.242-1.241zM71.386 72.807V62.87h-12.42v9.936h12.42zm-9.936-7.452h7.452v4.968H61.45v-4.968zm57.132-2.484a4.973 4.973 0 0 0-4.968 4.968 4.973 4.973 0 0 0 4.968 4.968 4.973 4.973 0 0 0 4.967-4.968 4.973 4.973 0 0 0-4.967-4.968zm0 7.452a2.486 2.486 0 0 1-2.484-2.484 2.486 2.486 0 0 1 2.484-2.484 2.485 2.485 0 0 1 2.483 2.484 2.485 2.485 0 0 1-2.483 2.484zm-14.904-7.452a4.973 4.973 0 0 0-4.968 4.968 4.973 4.973 0 0 0 4.968 4.968 4.973 4.973 0 0 0 4.967-4.968 4.973 4.973 0 0 0-4.967-4.968zm0 7.452a2.486 2.486 0 0 1-2.484-2.484 2.486 2.486 0 0 1 2.484-2.484 2.486 2.486 0 0 1 2.484 2.484 2.486 2.486 0 0 1-2.484 2.484zm-14.904-7.452a4.973 4.973 0 0 0-4.967 4.968 4.973 4.973 0 0 0 4.967 4.968 4.973 4.973 0 0 0 4.968-4.968 4.973 4.973 0 0 0-4.968-4.968zm0 7.452a2.486 2.486 0 0 1-2.484-2.484 2.486 2.486 0 0 1 2.484-2.484 2.486 2.486 0 0 1 2.484 2.484 2.486 2.486 0 0 1-2.484 2.484zM58.966 82.742v7.452h12.42v-7.452h-12.42zm9.936 4.968H61.45v-2.484h7.452v2.484zm-9.936 14.903h12.42v-7.452h-12.42v7.452zm2.484-4.968h7.452v2.484H61.45v-2.484zm37.262 4.968h-2.484V80.258h-7.452v22.355h-2.484V85.226h-7.451v19.871h27.322v-12.42h-7.451v9.936zm-14.903 0h-2.484V87.709h2.484v14.904zm7.451-19.871h2.484v19.871H91.26V82.742zm9.936 12.419h2.484v7.452h-2.484v-7.452zm7.451-4.968h17.388v-9.935h-17.388v9.935zm2.484-7.451h12.42v4.967h-12.42v-4.967zm-2.484 9.935h2.484v2.484h-2.484v-2.484zm4.967 0h12.419v2.484h-12.419v-2.484zm-4.967 4.968h2.484v2.484h-2.484v-2.484zm4.967 0h12.419v2.484h-12.419v-2.484zm-4.967 4.968h2.484v2.484h-2.484v-2.484zm4.967 0h12.419v2.484h-12.419v-2.484z"/></g><defs><clipPath id="a"><path fill="#fff" d="M0 0h338v162H0z"/></clipPath></defs></svg>