<svg xmlns="http://www.w3.org/2000/svg" width="1148" height="680" fill="none"><path stroke="#666" stroke-miterlimit="10" d="M722.707 177.871c-9.355-1.447-86.295 9.951-110.303 56.324-24.008 46.373-18.537 64.828-17.886 76.597 1.166 21.192 12.453 56.695 41.129 83.303 35.199 32.571 75.544 30.361 75.544 30.361s101.847-.371 104.372 0c2.525.371 3.251-1.466 2.891-4.047"/><path stroke="#666" stroke-miterlimit="10" d="M320.481 309.678c-.536 6.764-18.001 10.088-19.895-3.128-.823-5.748-8.188-64.261 6.389-101.25 0 0 32.961-156.205 222.538-156.205S745.03 198.868 745.03 198.868l-9.986 1.466s-4.782-19.139-6.58-22.815c-4.687-.625-80.652 7.82-95.784 58.143-15.131 50.321-15.934 63.439-19.799 75.189-5.05 15.347 29.518 107.721 103.302 109.48 73.785 1.76 100.833 1.838 100.833 1.838v-1.955"/><path stroke="#666" stroke-miterlimit="10" d="M745.029 198.868c25.213 0 95.783 2.208 112.35 5.161 16.566 2.952 20.163 12.512 21.595 24.281 1.438 11.769 4.02 37.425 5.055 76.538 1.03 39.115-7.214 89.051-10.084 95.679-2.87 6.627-12.97 19.882-29.536 19.882h-58.325c-19.457 0-51.136-2.952-71.299-21.348-20.163-18.397-43.999-49.306-43.999-97.888 0-48.582 40.402-102.305 74.243-102.305z"/><path fill="#fff" stroke="#666" stroke-miterlimit="10" d="M308.354 235.662H781.4c28.81 0 35.658 23.186 35.658 41.583s-11.882 34.232-35.658 34.232c-23.781 0-467.996-1.838-473.046-1.838-5.051 0-7.92-73.977 0-73.977z"/><path stroke="#666" stroke-linecap="round" stroke-linejoin="round" stroke-miterlimit="10" d="M804.224 452.261s-34.141-23.286-53.961-81.403m52.069-241.776s-33.53 24.191-51.855 82.818"/><path fill="#666" stroke="#666" stroke-linecap="round" stroke-linejoin="round" d="m785.765 450.369 18.621-15.986 1.788 21.441-20.409-5.455zm-1.829-318.902 19.023 15.483 1.239-21.481-20.262 5.998z"/><path stroke="#666" stroke-miterlimit="10" d="M866.736 206.98c-3.963 1.095-10.084 15.445-11.151 23.461-1.071 8.015-2.53 18.767-3.256 25.747-.727 6.979-4.669 41.231-5.735 64.515-1.072 23.284-4.919 90.791 1.511 99.491m-30.514-78.552c2.279 0 4.13-1.89 4.13-4.222 0-2.332-1.851-4.223-4.13-4.223-2.284 0-4.13 1.891-4.13 4.223s1.846 4.222 4.13 4.222zm-31.873-7.624h-18.364v6.804h18.364v-6.804z"/><path fill="#fff" stroke="#666" stroke-miterlimit="10" d="M865.492 242.015c0 6.354-2.776 11.261-8.992 11.261-6.215 0-13.523-4.907-13.523-11.261 0-6.354 5.107-12.375 11.249-11.496 6.138.88 11.266 5.142 11.266 11.496z"/><path stroke="#666" stroke-miterlimit="10" d="M859.371 246.462c1.39-2.459.104-5.875-2.87-7.629-2.975-1.755-6.509-1.184-7.899 1.276-1.391 2.459-.105 5.874 2.87 7.629 2.974 1.755 6.508 1.183 7.899-1.276zm-130.907-68.943S687.774 52.965 524.118 55.722c-180.432 3.03-211.193 149.441-211.193 151.259a82.96 82.96 0 0 1 8.915 28.68m-15.401.001s1.913-15.64 3.596-17.85c3.252 4.79 6.122 17.85 6.122 17.85"/><path fill="#fff" stroke="#666" stroke-miterlimit="10" d="M366.393 235.663v74.29c0 5.005 4.859 9.149 10.273 9.149s12.415-1.837 12.415-9.051v-74.29c0-4.693-5.949-7.723-11.344-7.723s-11.344 2.659-11.344 7.625z"/><path stroke="#666" stroke-miterlimit="10" d="M591.091 679.764c-15.132-34.78-6.389-79.708 12.416-96.326 19.99-17.596 68.063-8.835 84.171-6.624 16.107 2.206 50.694-4.54 47.537-28.701-4.59-35.054 9.451-35.621 10.254-42.523.803-6.9-5.126-14.623-5.126-14.623s18.364-7.175 16.47-14.623c-2.181-8.622-4.323-22.073 0-26.491 4.324-4.418 33.767-8.015 29.825-25.571m-475.339-108.68c28.982 134.25 115.563 152.49 116.309 222.56.421 38.278-5.222 72.139-33.304 101.657"/><path stroke="#666" d="M746.5 198.5V46.595c.135-5.1-1.046-6.43-5-6.5h-55"/><path stroke="#666" d="M719.5 139.5V77.595c-.104-4.206.788-5.78 5.5-6h21.5m7.5 0h164m7.5 0h101M807.5 200.5V40.095m0 140.5H763m115.5 45h89m7 0h63m-223.5-45h104.5m8 0h35c5.288.18 6.637 1.897 6.5 7.5v86m-101.5-93.5v-47l6-5.5H954m-36-125v125m0 7v90.5"/><path stroke="#666" d="M918 233.095v35c.158 4.489 1.168 5.899 5 6h225m-264 48.5h84m7 0h74m-81-41.5v133c-.35 4.742 1.128 5.914 6 6h48m-142.5-49.001H927c5.741-.189 6.796 1.424 6.5 6v177m0 7.501v57.5m-82.5-199.5h9c5.671-.361 6.734 1.391 6.5 6.5v39m0 7v141c.061 5.301-1.314 6.775-6 7H812c-3.573-.232-4.826-1.527-5-7v-52M735 554h132m6 .095h154M807 465h127m6 .095h158m-291 88.5V424.5M719 572v70M623 64V12m-49 40V3m-94 50H368m-7.5.095H264M361 112V13m-14 114.595H202.5m-7.5 0h-36m156 53.5H77m119-91v90.5m0 7v58.5c-.033 5.608-1.339 7.02-6 7h-85c-5.788-.135-6.318 1.896-6 6.5v60.5c-.174 5.238 1.342 6.315 6 6h208.5"/><path stroke="#666" d="M301 229.095h-33c-3.288.344-4.06 1.779-4 6v91m0 7v90m0 7v30c-.284 4.308-2.05 5.186-7 5H109m214.5-90h-52m-7.5 0H0m317 0V339.5m0 42.595v77c-.169 4.276.973 5.536 5.5 5.5H360M361 427v122.095c-.047 4.244 1.345 5.258 6 5h60.5M424 581H197m67 6.095v57m0-63.5v-74.5c-.028-4.902-1.471-6.323-6-7h-57c-3.799.009-5.19-.925-5-6v-21.24"/><path stroke="#666" d="M196 465.095v-36.763c-.174-3.99 1.012-5.23 6-5.237h115m7-.095h34m10 42h24"/><circle cx="361" cy="7.095" r="7" fill="#204ECF" transform="rotate(.78 361 7.095)"/><circle cx="72.095" cy="181.189" r="7" fill="#204ECF" transform="rotate(.78 72.095 181.189)"/><circle cx="196.095" cy="326.189" r="7" fill="#204ECF" transform="rotate(.78 196.095 326.189)"/><circle cx="104.095" cy="465.189" r="7" fill="#204ECF" transform="rotate(.78 104.095 465.189)"/><circle cx="264.095" cy="644.189" r="7" fill="#204ECF" transform="rotate(.78 264.095 644.189)"/><circle cx="720.094" cy="645.189" r="7" fill="#204ECF" transform="rotate(.78 720.094 645.189)"/><circle cx="867.094" cy="515.189" r="7" fill="#204ECF" transform="rotate(.78 867.094 515.189)"/><circle cx="1026.09" cy="420.189" r="7" fill="#204ECF" transform="rotate(.78 1026.09 420.189)"/><circle cx="1043.09" cy="225.189" r="7" fill="#204ECF" transform="rotate(.78 1043.09 225.189)"/><circle cx="808.094" cy="147.189" r="7" fill="#204ECF" transform="rotate(.78 808.094 147.189)"/><circle cx="623.094" cy="7.189" r="7" fill="#204ECF" transform="rotate(.78 623.094 7.19)"/><circle cx="889.094" cy="371.189" r="7" fill="#204ECF" transform="rotate(.78 889.094 371.189)"/></svg>