<svg xmlns="http://www.w3.org/2000/svg" width="338" height="162" fill="none"><g clip-path="url(#a)"><path stroke="#313131" stroke-miterlimit="10" stroke-width=".8" d="M-16.868 141.256H155.01m29.634-29.634h130.391m-331.903-31.61h222.75m-225.713 31.61h222.75m0-31.61h151.628m-58.281-72.11v144.22M264.656 35.56v118.043M222.181 7.408v104.214M-14.892 44.451h338.817M111.547 13.829v96.805m42.475-66.183v96.805M23.632 0v153.11M67.096 45.438v103.72"/><path fill="#4D4D4F" d="M67.096 83.47a3.458 3.458 0 1 0 0-6.915 3.458 3.458 0 0 0 0 6.915zM23.652 47.908a3.457 3.457 0 1 0 0-6.913 3.457 3.457 0 0 0 0 6.913zm-.514 96.312a3.458 3.458 0 1 0 0-6.915 3.458 3.458 0 0 0 0 6.915zm273.128-96.312a3.457 3.457 0 1 0 .002-6.914 3.457 3.457 0 0 0-.002 6.914zM264.657 83.47a3.458 3.458 0 1 0-.001-6.915 3.458 3.458 0 0 0 .001 6.915z" opacity=".7"/><path fill="#909090" fill-opacity=".8" d="M68.287 59.054a.728.728 0 0 0-.645.724v2.426c0 .37.277.681.645.724l1.678.19a9.943 9.943 0 0 0 1.351 3.263l-1.052 1.32a.728.728 0 0 0 .054.968l1.715 1.715c.261.261.68.286.967.054l1.32-1.053a9.887 9.887 0 0 0 3.264 1.352l.19 1.677a.728.728 0 0 0 .724.646h2.425a.728.728 0 0 0 .724-.646l.19-1.677a9.938 9.938 0 0 0 3.263-1.352l1.32 1.053a.73.73 0 0 0 .968-.054l1.715-1.716a.725.725 0 0 0 .054-.967l-1.052-1.32a9.89 9.89 0 0 0 1.351-3.263l1.678-.19a.728.728 0 0 0 .645-.724v-2.426a.728.728 0 0 0-.645-.724l-1.678-.19a9.938 9.938 0 0 0-1.351-3.263l1.052-1.32a.728.728 0 0 0-.054-.967l-1.715-1.716a.725.725 0 0 0-.967-.053l-1.32 1.052a9.89 9.89 0 0 0-3.264-1.352l-.19-1.677a.728.728 0 0 0-.724-.646h-2.425a.728.728 0 0 0-.724.646l-.19 1.677a9.95 9.95 0 0 0-3.264 1.352L73 51.545a.728.728 0 0 0-.967.053l-1.715 1.716a.725.725 0 0 0-.054.967l1.052 1.32a9.886 9.886 0 0 0-1.351 3.264l-1.678.19zm11.426-3.017a4.954 4.954 0 1 1 0 9.908 4.954 4.954 0 0 1 0-9.908zm11.186 14.099a.44.44 0 0 0-.391.438v1.47a.44.44 0 0 0 .39.438l1.017.116c.154.715.436 1.382.82 1.977l-.639.8a.441.441 0 0 0 .033.587l1.041 1.04a.444.444 0 0 0 .588.034l.8-.636a6.037 6.037 0 0 0 1.976.82l.117 1.016a.44.44 0 0 0 .437.39h1.47a.44.44 0 0 0 .438-.39l.116-1.017a5.948 5.948 0 0 0 1.977-.82l.8.637a.44.44 0 0 0 .587-.033l1.041-1.041a.444.444 0 0 0 .034-.588l-.639-.8a6.054 6.054 0 0 0 .82-1.976l1.016-.117a.44.44 0 0 0 .391-.437v-1.47a.44.44 0 0 0-.391-.438l-1.016-.116a5.972 5.972 0 0 0-.82-1.977l.639-.8a.442.442 0 0 0-.034-.587l-1.041-1.041a.443.443 0 0 0-.587-.033l-.8.636a6.033 6.033 0 0 0-1.977-.82l-.116-1.016a.44.44 0 0 0-.438-.39h-1.47a.44.44 0 0 0-.437.39l-.117 1.016a5.95 5.95 0 0 0-1.976.82l-.8-.636a.441.441 0 0 0-.588.033l-1.04 1.04a.444.444 0 0 0-.034.588l.639.8a6.034 6.034 0 0 0-.82 1.977l-1.016.116zm6.924-1.67a2.844 2.844 0 1 1 0 5.687 2.844 2.844 0 0 1 0-5.688zM59.777 85.473v3.482a2.16 2.16 0 0 0 2.158 2.158h48.912a2.16 2.16 0 0 0 2.158-2.158v-3.482a2.16 2.16 0 0 0-2.158-2.158h-1.445a.783.783 0 0 0 0 1.564h1.445c.329 0 .594.265.594.594v3.482a.593.593 0 0 1-.594.594h-10.494a.768.768 0 0 0-.078-.27 9.64 9.64 0 0 0-4.749-4.403h9.799a.782.782 0 0 0 0-1.563H61.937c-1.19.002-2.16.97-2.16 2.16zm29.396.815a.783.783 0 0 1 1.564 0v1.854a.783.783 0 0 1-1.564 0v-1.854zm-8.034 0a.783.783 0 0 1 1.563 0v1.854a.783.783 0 0 1-1.563 0v-1.854zm-7.964 0a.783.783 0 0 1 1.564 0v1.854a.783.783 0 0 1-1.564 0v-1.854zm-8.034 0a.783.783 0 0 1 1.563 0v1.854a.783.783 0 0 1-1.563 0v-1.854z"/><path fill="#909090" fill-opacity=".8" d="M138.741 101.446h-5.845v-58.23A4.22 4.22 0 0 0 128.681 39H44.102a4.22 4.22 0 0 0-4.215 4.215v54.32a.783.783 0 0 0 1.564 0v-54.32a2.655 2.655 0 0 1 2.651-2.651h84.579a2.655 2.655 0 0 1 2.651 2.651v58.231h-97.29A2.044 2.044 0 0 0 32 103.488v2.689c0 .778.451 1.499 1.15 1.839l2.089 1.014a19.776 19.776 0 0 0 8.58 1.97h85.143c2.955 0 5.922-.681 8.58-1.97l2.088-1.014a2.057 2.057 0 0 0 1.151-1.839v-2.689a2.041 2.041 0 0 0-2.04-2.042zm.478 4.734a.48.48 0 0 1-.27.431l-2.089 1.014a18.203 18.203 0 0 1-7.896 1.814H43.819c-2.721 0-5.45-.628-7.897-1.814l-2.088-1.014a.485.485 0 0 1-.27-.431v-2.69c0-.263.214-.478.478-.478h37.846l.835 2.462a3.014 3.014 0 0 0 2.855 2.046h21.625a3.011 3.011 0 0 0 2.854-2.046.782.782 0 1 0-1.48-.503c-.202.59-.753.985-1.374.985h-3.33a5.304 5.304 0 0 0 2.262-2.828c.013-.038.018-.076.025-.114h42.581c.264 0 .478.215.478.478v2.688zm72.254-42.122a1.134 1.134 0 1 0 0-2.268 1.134 1.134 0 0 0 0 2.268zm4.603 0a1.134 1.134 0 1 0 0-2.268 1.134 1.134 0 0 0 0 2.268zm4.607 0a1.134 1.134 0 1 0 0-2.269 1.134 1.134 0 0 0 0 2.269zm53.449-.254h-46.739a.879.879 0 0 1 0-1.758h46.739a.883.883 0 0 1 .857.53.869.869 0 0 1 0 .697.873.873 0 0 1-.857.53zm0 24.302h-27.996a.881.881 0 0 1 0-1.757h27.996a.881.881 0 0 1 0 1.757zm0 9.842h-27.996a.881.881 0 0 1 0-1.758h27.996a.881.881 0 0 1 0 1.758zm0 9.841h-27.996a.88.88 0 1 1 0-1.757h27.996a.88.88 0 1 1 0 1.757zm-76.043-64.656a1.134 1.134 0 1 0 0-2.269 1.134 1.134 0 0 0 0 2.269zm4.604 0a1.134 1.134 0 1 0 0-2.269 1.134 1.134 0 0 0 0 2.269zm4.606 0a1.134 1.134 0 1 0 0-2.269 1.134 1.134 0 0 0 0 2.269zm53.449-.257h-46.739a.881.881 0 0 1 0-1.758h46.739a.88.88 0 1 1 0 1.758z"/><path fill="#909090" fill-opacity=".8" d="M280.024 126.795h-75.001a1.26 1.26 0 0 1-.882-.364 1.238 1.238 0 0 1-.365-.881V61.2A5.23 5.23 0 0 1 209 55.974h67.041a5.233 5.233 0 0 1 5.228 5.228v64.349a1.255 1.255 0 0 1-.365.88 1.251 1.251 0 0 1-.88.365zm-73.756-2.492h72.511V61.201a2.738 2.738 0 0 0-2.735-2.735H209a2.738 2.738 0 0 0-2.735 2.735l.003 63.102z"/><path fill="#909090" fill-opacity=".8" d="M280.023 70.51h-74.115a1.246 1.246 0 0 1 0-2.489h74.115a1.244 1.244 0 1 1 0 2.49zm-44.077 38.408h-21.019a1.163 1.163 0 0 1-.818-.338 1.168 1.168 0 0 1-.338-.818v-21.02a1.158 1.158 0 0 1 1.156-1.155h21.019a1.154 1.154 0 0 1 1.156 1.156v21.019a1.157 1.157 0 0 1-1.156 1.156zm-19.864-2.309h18.711v-18.71h-18.711v18.71zm50.557-58.101h-75a1.244 1.244 0 1 1 0-2.49h75a1.244 1.244 0 1 1 0 2.49z"/><path fill="#909090" fill-opacity=".8" d="M200.695 105.867h-9.056c-.33 0-.647-.131-.88-.365a1.242 1.242 0 0 1-.365-.88V40.273a5.23 5.23 0 0 1 5.225-5.224h67.041a5.232 5.232 0 0 1 5.227 5.224v12.285a1.243 1.243 0 0 1-1.245 1.245 1.244 1.244 0 0 1-1.245-1.245V40.273a2.72 2.72 0 0 0-.207-1.05 2.722 2.722 0 0 0-1.482-1.484 2.732 2.732 0 0 0-1.048-.209h-67.041a2.745 2.745 0 0 0-1.937.805 2.734 2.734 0 0 0-.799 1.938v63.105h7.812a1.247 1.247 0 0 1 1.244 1.244 1.245 1.245 0 0 1-1.244 1.245z"/></g><defs><clipPath id="a"><path fill="#fff" d="M0 0h338v162H0z"/></clipPath></defs></svg>