<svg xmlns="http://www.w3.org/2000/svg" width="338" height="162" fill="none"><g clip-path="url(#a)"><path stroke="#313131" stroke-miterlimit="10" stroke-width=".8" d="M-16.868 141.256H155.01m29.634-29.634h130.391m-331.903-31.61h222.75m-225.713 31.61h222.75m0-31.61h151.628m-58.281-72.11v144.22M264.656 35.56v118.043M222.181 7.408v104.214M-14.892 44.45h338.817M111.547 13.83v96.804m42.474-66.184v96.806M23.632 0v153.11M67.096 45.438v103.72"/><path fill="#4D4D4F" d="M67.096 83.47a3.458 3.458 0 1 0-.001-6.915 3.458 3.458 0 0 0 0 6.915zM23.652 47.908a3.457 3.457 0 1 0 0-6.913 3.457 3.457 0 0 0 0 6.913zm-.514 96.312a3.458 3.458 0 1 0 0-6.915 3.458 3.458 0 0 0 0 6.915zm273.128-96.312a3.457 3.457 0 1 0 .002-6.914 3.457 3.457 0 0 0-.002 6.914zM264.657 83.47a3.458 3.458 0 1 0-.001-6.915 3.458 3.458 0 0 0 .001 6.915z" opacity=".7"/><path fill="#909090" fill-opacity=".8" d="M65.412 89.166h-12.69v-38.11h84.654l-71.964 38.11z" opacity=".1"/><path fill="#909090" fill-opacity=".8" fill-rule="evenodd" d="M77.611 70.13a.53.53 0 0 1 .53-.529h8.435a.53.53 0 0 1 0 1.058H78.14a.53.53 0 0 1-.529-.529zm25.382 0a.53.53 0 0 1 .529-.529h8.473a.53.53 0 0 1 0 1.058h-8.473a.53.53 0 0 1-.529-.529zM88.174 93.384a.53.53 0 0 1 .529-.529h12.691a.53.53 0 0 1 0 1.058H88.703a.53.53 0 0 1-.53-.529zm.026-10.728a.529.529 0 0 1 .668-.337l6.18 2.035 6.18-2.035a.529.529 0 1 1 .331 1.004l-6.345 2.09a.53.53 0 0 1-.331 0l-6.346-2.09a.53.53 0 0 1-.337-.667zm-6.01-21.5a.529.529 0 0 1 .336 0l6.346 2.127a.53.53 0 0 1-.337 1.004l-6.177-2.072-6.177 2.072a.53.53 0 0 1-.337-1.004l6.346-2.127zm25.381 0a.528.528 0 0 1 .336 0l6.345 2.127a.53.53 0 1 1-.336 1.004l-6.177-2.072-6.177 2.072a.53.53 0 0 1-.337-1.004l6.346-2.127zM52.192 51.057a.53.53 0 0 1 .53-.53h12.69a.529.529 0 0 1 0 1.059H53.25v12.199a.529.529 0 1 1-1.058 0V51.057zm.529 24.89a.53.53 0 0 1 .53.529v12.162h12.161a.529.529 0 1 1 0 1.057h-12.69a.529.529 0 0 1-.53-.528V76.475a.53.53 0 0 1 .53-.53zm71.435-24.89a.53.53 0 0 1 .529-.53h12.691a.53.53 0 0 1 .529.53v12.728a.53.53 0 0 1-1.058 0v-12.2h-12.162a.53.53 0 0 1-.529-.528zm13.22 24.89a.53.53 0 0 1 .529.529v12.69a.53.53 0 0 1-.529.53h-12.691a.53.53 0 0 1 0-1.058h12.162V76.475a.53.53 0 0 1 .529-.53zm-66.11-24.853c0-.292.236-.529.529-.529h16.908a.529.529 0 0 1 0 1.058H71.795a.529.529 0 0 1-.53-.529zM96.61 99.73a.53.53 0 0 1 .53-.53h19.073a.53.53 0 0 1 0 1.058H97.139a.528.528 0 0 1-.529-.528zm-12.653 0a.53.53 0 0 1 .529-.53h8.436a.53.53 0 0 1 0 1.058h-8.436a.528.528 0 0 1-.529-.528zm21.2 10.6a.53.53 0 0 1 .529-.529h4.255a.529.529 0 1 1 0 1.058h-4.255a.53.53 0 0 1-.529-.529zm-12.764 0a.53.53 0 0 1 .529-.529h8.547a.53.53 0 0 1 0 1.058h-8.547a.53.53 0 0 1-.53-.529zm-12.692 0a.53.53 0 0 1 .53-.529h8.547a.53.53 0 0 1 0 1.058H80.23a.53.53 0 0 1-.529-.529zM62.793 44.711a.53.53 0 0 1 .529-.529h12.541a.529.529 0 1 1 0 1.058H63.322a.529.529 0 0 1-.529-.529zm31.727 6.383c0-.292.236-.529.529-.529h10.6a.53.53 0 0 1 0 1.058h-10.6a.529.529 0 0 1-.53-.529zm16.945 0a.53.53 0 0 1 .529-.529h6.345a.53.53 0 0 1 0 1.058h-6.345a.53.53 0 0 1-.529-.529zM79.59 44.711a.53.53 0 0 1 .529-.529h12.579a.529.529 0 1 1 0 1.058h-12.58a.529.529 0 0 1-.528-.529zm16.907 0a.53.53 0 0 1 .53-.529h19.072a.53.53 0 1 1 0 1.058H97.026a.529.529 0 0 1-.529-.529zm13.886 61.364a.53.53 0 0 1 .529-.529h10.6a.53.53 0 0 1 0 1.058h-10.6a.53.53 0 0 1-.529-.529zm-31.727 0a.53.53 0 0 1 .53-.529h27.508a.53.53 0 0 1 0 1.058H79.185a.53.53 0 0 1-.529-.529zm14.819-67.709a.53.53 0 0 1 .529-.529h12.69a.528.528 0 1 1 0 1.058h-12.69a.53.53 0 0 1-.53-.529zm-10.601 0a.53.53 0 0 1 .529-.529h6.345a.529.529 0 1 1 0 1.058h-6.345a.53.53 0 0 1-.529-.529zm36.916 6.345a.53.53 0 0 1 .529-.529h6.495a.53.53 0 0 1 0 1.058h-6.495a.53.53 0 0 1-.529-.529zm-51.696 61.364a.53.53 0 0 1 .529-.529h6.345a.53.53 0 0 1 0 1.058h-6.345a.53.53 0 0 1-.53-.529zm51.807-6.345a.53.53 0 0 1 .529-.53h4.256a.53.53 0 0 1 0 1.058h-4.256a.528.528 0 0 1-.529-.528zm-55.018 0a.53.53 0 0 1 .529-.53h4.255a.53.53 0 0 1 0 1.058h-4.255a.528.528 0 0 1-.53-.528zm8.473 0a.53.53 0 0 1 .53-.53h6.345a.529.529 0 0 1 0 1.058h-6.346a.528.528 0 0 1-.529-.528zm47.074-38.602a.53.53 0 0 1 .529.53v12.578a.528.528 0 0 1-.138.356l-4.113 4.514-2.102 12.277a.529.529 0 1 1-1.043-.178l2.128-12.43a.529.529 0 0 1 .13-.267l4.08-4.477V61.657a.53.53 0 0 1 .529-.529zm-50.762 0a.53.53 0 0 1 .529.53v12.471l4.063 4.063a.53.53 0 0 1 .147.287l2.128 12.728a.529.529 0 1 1-1.044.174l-2.1-12.56-4.097-4.099a.529.529 0 0 1-.155-.374v-12.69a.53.53 0 0 1 .529-.53z" clip-rule="evenodd"/><path fill="#909090" fill-opacity=".8" fill-rule="evenodd" d="M221.559 39.078a8.46 8.46 0 0 0-8.469 8.469 8.46 8.46 0 0 0 8.469 8.469v3.389a11.85 11.85 0 0 1-11.858-11.858 11.85 11.85 0 0 1 11.858-11.858 11.85 11.85 0 0 1 11.858 11.858h-3.389a8.46 8.46 0 0 0-8.469-8.469zm6.776 31.646a8.46 8.46 0 0 0-8.468 8.469 8.46 8.46 0 0 0 8.468 8.468 8.46 8.46 0 0 0 8.469-8.468h3.389a11.85 11.85 0 0 1-11.858 11.858 11.849 11.849 0 0 1-11.857-11.858 11.849 11.849 0 0 1 11.857-11.858v3.389z" clip-rule="evenodd" opacity=".1"/><path fill="#909090" fill-opacity=".8" fill-rule="evenodd" d="M223.253 47.547a1.69 1.69 0 0 0-1.693-1.693v-3.39a5.08 5.08 0 0 1 5.082 5.083 5.08 5.08 0 0 1-5.082 5.082 5.08 5.08 0 0 1-5.082-5.082h3.389a1.69 1.69 0 0 0 1.693 1.693 1.69 1.69 0 0 0 1.693-1.693z" clip-rule="evenodd" opacity=".1"/><path fill="#909090" fill-opacity=".8" fill-rule="evenodd" d="M256.002 108.566s-.001.065.123.189.336.268.656.41c1.449.632 4.305 1.108 7.703 1.108 2.478 0 4.691-.256 6.269-.655.792-.201 1.393-.43 1.783-.661a1.44 1.44 0 0 0 .376-.296.344.344 0 0 0 .05-.078.043.043 0 0 0 .004-.014l.001-.002v-3.094a5.526 5.526 0 0 1-.476.226c-.866.366-2.065.653-3.464.836a31.283 31.283 0 0 1-4.583.325c-2.738 0-5.228-.281-6.934-.78l-.003-.002-.027-.007c-.379-.114-.817-.245-1.18-.427a5.573 5.573 0 0 1-.298-.159v3.081zm-1.13-4.543v4.543c0 .398.2.733.454.988.255.254.6.468.998.645l.003.001c1.66.724 4.701 1.203 8.157 1.203 2.544 0 4.855-.262 6.546-.69.841-.213 1.56-.474 2.083-.785.484-.287.983-.73.983-1.362v-4.543h-1.129l-.002.007a.136.136 0 0 1-.013.031.615.615 0 0 1-.129.151c-.149.135-.401.29-.772.446-.737.312-1.828.582-3.176.758l-.011.001a30.084 30.084 0 0 1-4.42.313c-2.681 0-5.052-.277-6.615-.734-.411-.124-.757-.229-1.023-.362-.337-.169-.557-.317-.686-.443a.52.52 0 0 1-.106-.133.082.082 0 0 1-.012-.034l-1.13-.001z" clip-rule="evenodd"/><path fill="#909090" fill-opacity=".8" fill-rule="evenodd" d="M256.002 110.029v3.041c0 .003 0 .011.006.026a.371.371 0 0 0 .052.083c.065.08.183.183.379.299.391.232.994.46 1.79.658 1.582.395 3.796.641 6.255.641 2.478 0 4.691-.256 6.269-.655.792-.201 1.393-.43 1.783-.661.194-.116.312-.218.376-.296a.322.322 0 0 0 .054-.092l.001-.002v-3.046c-.512.278-1.183.512-1.954.704-1.696.422-4.006.674-6.529.674-3.446 0-6.498-.437-8.168-1.208l-.008-.003-.008-.004a7.516 7.516 0 0 1-.298-.159zm-1.13-1.462v4.503c0 .639.498 1.087.989 1.379.527.313 1.251.573 2.095.784 1.696.422 4.006.674 6.528.674 2.544 0 4.855-.262 6.546-.69.841-.213 1.56-.474 2.083-.785.484-.287.983-.73.983-1.362v-4.503h-1.129c0 .002-.001.01-.007.025a.303.303 0 0 1-.052.083c-.065.08-.183.183-.378.299-.391.232-.995.46-1.79.659-1.583.394-3.796.64-6.256.64-3.403 0-6.245-.438-7.686-1.1-.333-.166-.55-.314-.678-.438a.557.557 0 0 1-.106-.133.088.088 0 0 1-.012-.035h-1.13zm9.692-6.251c-2.682 0-5.054.277-6.616.734l-.008.003c-.687.191-1.192.41-1.512.623-.328.219-.345.348-.346.348.001.009.009.073.123.187.125.124.337.269.657.412l.012.005.012.006c.269.134.587.242 1.012.358l.01.003c1.562.458 3.935.735 6.617.735a30.06 30.06 0 0 0 4.419-.313h.001c1.313-.196 2.387-.466 3.117-.774.368-.155.617-.306.765-.439a.587.587 0 0 0 .126-.146.135.135 0 0 0 .013-.029l.001-.006-.001-.006a.135.135 0 0 0-.013-.03.596.596 0 0 0-.127-.148c-.148-.134-.396-.286-.759-.444-.714-.309-1.753-.585-3.007-.8h-.066l-.034-.004a36.464 36.464 0 0 0-4.396-.275zm-6.93-.351c1.705-.498 4.194-.779 6.93-.779 1.648 0 3.173.12 4.498.279h.093l.047.008c1.316.223 2.472.521 3.314.886.419.181.791.392 1.068.642.275.248.513.59.513 1.022 0 .432-.239.774-.516 1.023-.279.25-.655.459-1.08.638-.854.36-2.032.648-3.389.85a31.193 31.193 0 0 1-4.587.326c-2.736 0-5.224-.281-6.93-.779-.445-.122-.84-.251-1.203-.431-.392-.176-.733-.388-.985-.64-.255-.254-.455-.589-.455-.987 0-.574.419-1 .85-1.287.456-.305 1.086-.563 1.832-.771zm-48.411 1.488c-.859.36-2.046.647-3.443.85a31.33 31.33 0 0 1-4.587.325c-2.738 0-5.228-.281-6.934-.78l-.003-.001a.276.276 0 0 0-.027-.008c-.379-.114-.817-.245-1.18-.427a5.573 5.573 0 0 1-.298-.159v3.081s-.001.065.123.189.336.268.656.41c1.449.632 4.306 1.108 7.703 1.108 2.478 0 4.691-.256 6.269-.655.792-.201 1.393-.43 1.783-.661a1.42 1.42 0 0 0 .376-.296.344.344 0 0 0 .05-.078.043.043 0 0 0 .004-.014l.001-.002v-3.116a5.638 5.638 0 0 1-.493.234zm1.622-1.662-1.129-.027c0 .003-.001.018-.02.052a.665.665 0 0 1-.135.154c-.153.134-.405.286-.774.441-.735.308-1.818.578-3.171.774h-.003a30.084 30.084 0 0 1-4.42.313c-2.681 0-5.052-.277-6.615-.734-.411-.123-.757-.229-1.023-.362-.337-.169-.557-.317-.686-.443a.52.52 0 0 1-.106-.133.082.082 0 0 1-.012-.034l-1.13-.001v4.543c0 .398.2.734.455.988.254.254.599.468.997.645l.003.001c1.66.724 4.701 1.203 8.157 1.203 2.544 0 4.855-.262 6.546-.69.841-.213 1.56-.474 2.083-.785.484-.287.983-.73.983-1.361v-.04h-.564.564v-4.504z" clip-rule="evenodd"/><path fill="#909090" fill-opacity=".8" fill-rule="evenodd" d="M207.762 108.467c-1.694.422-4.003.684-6.524.704h-.005c-3.446 0-6.498-.437-8.168-1.208l-.008-.003-.008-.004a7.516 7.516 0 0 1-.298-.159v3.041c0 .003 0 .011.006.026a.371.371 0 0 0 .052.083c.065.079.183.183.379.299.391.232.994.46 1.79.658 1.582.395 3.796.641 6.255.641 2.478 0 4.691-.256 6.269-.655.792-.201 1.393-.43 1.783-.661.194-.116.312-.218.376-.296a.342.342 0 0 0 .054-.092l.001-.002v-3.07c-.511.273-1.182.506-1.954.698zm1.954-2.132v-.002c-.002 0-.024.145-.433.384-.393.229-.998.455-1.794.654-1.584.394-3.798.651-6.258.67-3.402 0-6.244-.438-7.684-1.1-.333-.167-.55-.314-.678-.438a.557.557 0 0 1-.106-.133.088.088 0 0 1-.012-.035h-1.13v4.503c0 .639.498 1.087.989 1.379.527.313 1.251.573 2.095.784 1.696.422 4.006.674 6.528.674 2.544 0 4.855-.262 6.546-.69.841-.213 1.56-.474 2.083-.785.484-.288.983-.73.983-1.362v-4.503h-1.129zm-8.404-6.251c-2.682 0-5.054.277-6.616.734l-.008.003c-.687.191-1.192.41-1.512.623-.328.219-.345.348-.346.348.001.01.009.073.123.187.125.124.337.269.657.412l.012.005.012.006c.269.135.587.243 1.012.358l.01.003c1.563.458 3.935.735 6.617.735a30.06 30.06 0 0 0 4.419-.313h.001c1.313-.196 2.387-.466 3.117-.774.368-.155.617-.306.765-.439a.587.587 0 0 0 .126-.146.135.135 0 0 0 .013-.029l.001-.006-.001-.008c-.002-.005-.005-.016-.014-.032a.597.597 0 0 0-.129-.152c-.149-.137-.397-.293-.759-.452-.712-.313-1.749-.589-2.999-.784h-.071l-.034-.004a36.67 36.67 0 0 0-4.396-.275zm-6.93-.35c1.705-.5 4.194-.78 6.93-.78 1.648 0 3.173.12 4.498.28h.089l.043.006c1.321.203 2.48.502 3.325.873.42.185.792.4 1.068.653.274.251.51.595.51 1.025 0 .432-.239.775-.516 1.023-.279.25-.655.459-1.08.638-.854.36-2.032.648-3.389.85a31.193 31.193 0 0 1-4.587.326c-2.736 0-5.224-.281-6.93-.779-.445-.122-.84-.251-1.203-.431-.392-.176-.733-.388-.985-.64-.255-.254-.455-.589-.455-.987 0-.574.419-1 .85-1.287.456-.305 1.086-.563 1.832-.77zm47.587-2.207c-1.191.18-2.569.296-4.022.32v3.414c2.249-.035 4.247-.282 5.704-.65.792-.201 1.393-.43 1.783-.662.194-.115.312-.217.376-.295a.34.34 0 0 0 .054-.092l.001-.002v-3.106c-.148.08-.307.154-.473.223-.858.36-2.046.647-3.423.85zm3.896-2.511-.001.005-.013.03a.595.595 0 0 1-.126.145c-.149.133-.399.284-.769.44-.735.307-1.819.577-3.152.773h-.003a30.106 30.106 0 0 1-4.419.313h-.565v5.674h.565c2.544 0 4.855-.262 6.546-.69.841-.213 1.56-.475 2.083-.785.484-.288.983-.73.983-1.362v-.04h-.798.798v-4.504h-1.129z" clip-rule="evenodd"/><path fill="#909090" fill-opacity=".8" fill-rule="evenodd" d="M237.947 102.351v3.374c2.249-.035 4.247-.282 5.704-.651.792-.2 1.393-.429 1.783-.661a1.42 1.42 0 0 0 .376-.296.323.323 0 0 0 .05-.078.043.043 0 0 0 .004-.014l.001-.002v-3.046c-.512.278-1.183.512-1.954.704-1.569.391-3.662.636-5.964.67zm7.918-2.832a.08.08 0 0 1-.007.026.315.315 0 0 1-.052.082c-.065.08-.183.184-.378.3-.391.232-.995.46-1.79.658-1.583.394-3.796.641-6.256.641h-.565v5.633h.565c2.544 0 4.855-.261 6.546-.689.841-.213 1.56-.475 2.083-.785.484-.288.983-.731.983-1.362v-4.504h-1.129zm-9.008-7.34h.565c1.647 0 3.173.12 4.498.279h.088l.043.006c1.34.203 2.51.502 3.359.873.423.184.797.4 1.074.653.274.252.511.596.511 1.025 0 .432-.239.775-.517 1.023-.279.25-.655.46-1.079.639-.854.36-2.032.647-3.389.85a31.232 31.232 0 0 1-4.588.325h-.565v-5.673zm1.13 1.134v3.404c1.4-.024 2.721-.135 3.854-.307h.002c1.313-.196 2.386-.466 3.117-.774.367-.155.617-.307.765-.44a.592.592 0 0 0 .126-.145c.008-.015.011-.025.013-.03l.001-.006-.001-.007a.3.3 0 0 0-.014-.032.642.642 0 0 0-.129-.152c-.149-.137-.398-.293-.763-.452-.717-.313-1.764-.59-3.035-.785h-.071l-.034-.004a37.091 37.091 0 0 0-3.831-.27z" clip-rule="evenodd"/><path fill="#909090" fill-opacity=".8" fill-rule="evenodd" d="M236.342 94.41c-.863.364-2.06.662-3.454.884h-.005a31.217 31.217 0 0 1-4.588.326c-2.738 0-5.229-.28-6.934-.78l-.004-.001-.026-.008c-.379-.114-.817-.245-1.18-.426a6.254 6.254 0 0 1-.299-.16v3.081s0 .065.124.19c.124.123.336.268.655.41 1.449.631 4.306 1.108 7.704 1.108 2.478 0 4.691-.256 6.268-.655.793-.201 1.394-.43 1.783-.661.194-.116.312-.218.376-.296a.324.324 0 0 0 .051-.079l.004-.013v-3.146c-.149.08-.308.155-.475.226zm.475-1.666-.001.005a.1.1 0 0 1-.013.03.601.601 0 0 1-.126.146c-.15.134-.402.287-.775.444-.741.313-1.836.593-3.19.81-1.285.194-2.81.311-4.417.311-2.681 0-5.052-.277-6.615-.734-.411-.123-.758-.229-1.024-.362-.337-.168-.557-.317-.685-.442a.53.53 0 0 1-.107-.133.086.086 0 0 1-.012-.035h-1.129v4.542c0 .399.2.734.454.988.255.255.6.469.997.645l.004.002c1.66.723 4.701 1.203 8.157 1.203 2.544 0 4.854-.262 6.545-.69.841-.213 1.561-.475 2.083-.785.484-.288.984-.73.984-1.362v-4.583h-1.13z" clip-rule="evenodd"/><path fill="#909090" fill-opacity=".8" fill-rule="evenodd" d="M219.852 98.71v3.041c0 .003.001.01.007.026a.318.318 0 0 0 .052.082c.065.08.183.184.378.299.391.233.995.461 1.791.659 1.582.394 3.795.641 6.255.641 2.459 0 4.663-.246 6.241-.636.794-.196 1.398-.421 1.793-.65.197-.114.319-.216.387-.296a.383.383 0 0 0 .055-.083l.006-.016v-3.049c-.511.275-1.182.51-1.954.702-1.695.422-4.006.674-6.53.654-3.446 0-6.496-.437-8.166-1.208l-.008-.004-.008-.004a6.254 6.254 0 0 1-.299-.158zm-1.129-1.463v4.504c0 .639.497 1.086.989 1.379.527.313 1.251.573 2.094.783 1.696.423 4.006.675 6.529.675 2.523 0 4.822-.252 6.512-.669.841-.208 1.562-.464 2.089-.769.488-.284.991-.717 1.011-1.341v-4.522h-1.13c.001-.002 0-.002 0 0-.004.016-.047.16-.435.389-.392.231-.997.46-1.792.657-1.582.395-3.794.64-6.251.621h-.004c-3.403 0-6.246-.438-7.687-1.1-.332-.167-.55-.314-.677-.439a.529.529 0 0 1-.107-.132.085.085 0 0 1-.012-.035h-1.129z" clip-rule="evenodd"/><path fill="#909090" fill-opacity=".8" fill-rule="evenodd" d="M234.849 103.923c-1.689.422-3.988.684-6.51.705h-.004c-2.525 0-4.835-.262-6.53-.69-.772-.195-1.442-.43-1.953-.706v3.023c0 .003.001.01.007.025a.303.303 0 0 0 .052.083c.065.08.183.183.378.299.391.233.995.461 1.791.659 1.582.394 3.795.641 6.255.641 2.459 0 4.663-.247 6.241-.636.794-.196 1.398-.421 1.793-.65.197-.114.319-.217.387-.296a.383.383 0 0 0 .055-.083l.006-.016v-3.065c-.514.277-1.189.512-1.968.707zm-16.126-2.132v4.464c0 .639.497 1.086.989 1.378.527.313 1.251.574 2.094.784 1.696.423 4.006.674 6.529.674 2.523 0 4.822-.251 6.512-.669.841-.207 1.562-.463 2.089-.769.488-.283.991-.716 1.011-1.34v-4.522l-1.129-.018-.001.004-.006.016a.34.34 0 0 1-.055.083c-.068.08-.19.182-.387.297-.396.23-1.001.456-1.794.654-1.579.395-3.783.651-6.242.671-2.457 0-4.67-.256-6.252-.656-.796-.2-1.401-.43-1.793-.661-.389-.23-.431-.374-.435-.39 0-.002-.001-.002 0 0h-1.13zm9.692-10.754c-2.682 0-5.054.277-6.617.734l-.007.002c-.688.191-1.193.41-1.512.624-.328.218-.346.348-.346.348 0 .01.009.073.123.187.124.124.337.27.657.411l.012.006.011.005c.27.135.587.243 1.012.36l.01.002c1.563.457 3.935.735 6.617.735a30.06 30.06 0 0 0 4.419-.313h.001c1.313-.196 2.387-.466 3.118-.774.367-.155.616-.306.765-.439a.619.619 0 0 0 .126-.146c.008-.015.011-.025.013-.03l.001-.005-.001-.007-.013-.03a.626.626 0 0 0-.127-.147c-.148-.134-.396-.286-.759-.444-.714-.309-1.753-.585-3.007-.8h-.066l-.034-.004a36.622 36.622 0 0 0-4.396-.275zm-6.931-.351c1.706-.499 4.194-.779 6.931-.779 1.647 0 3.173.12 4.498.279h.093l.047.008c1.315.223 2.472.52 3.314.885.418.182.791.393 1.067.643.275.248.513.59.513 1.022 0 .432-.238.774-.516 1.023-.279.25-.655.46-1.08.638-.853.36-2.031.648-3.388.85a31.242 31.242 0 0 1-4.588.325c-2.736 0-5.224-.28-6.929-.778a6.565 6.565 0 0 1-1.203-.431c-.393-.176-.734-.388-.986-.64-.254-.254-.454-.589-.454-.987 0-.574.419-1 .849-1.287.457-.305 1.086-.564 1.832-.771z" clip-rule="evenodd"/><path fill="#909090" fill-opacity=".8" fill-rule="evenodd" d="M228.335 53.757c.312 0 .565.253.565.565v38.421a.565.565 0 0 1-1.129 0v-38.42c0-.313.252-.566.564-.566z" clip-rule="evenodd"/><path fill="#909090" fill-opacity=".8" fill-rule="evenodd" d="M220.995 47.547c0-.312.253-.565.565-.565a7.335 7.335 0 0 1 7.34 7.34.564.564 0 1 1-1.129 0 6.206 6.206 0 0 0-6.211-6.21.565.565 0 0 1-.565-.565zm30.499 9.117-.56-.07-.115-.553a.565.565 0 0 1 .675.623zm-1.236.663-.25.06c-.659.162-1.589.405-2.667.73-2.162.65-4.899 1.62-7.256 2.908-2.386 1.304-4.25 2.864-4.86 4.631-.578 1.673-.094 3.762 2.811 6.338m12.222-14.667-.036.228c-.103.654-.263 1.58-.486 2.664-.447 2.172-1.145 4.957-2.151 7.453-1.017 2.525-2.303 4.632-3.858 5.592-.756.466-1.573.66-2.481.502-.922-.16-1.989-.69-3.21-1.772m12.898-15.4-.115-.553-.005.001-.015.003-.056.012-.213.047c-.186.042-.454.104-.792.186-.674.166-1.622.414-2.722.745-2.195.66-5.017 1.657-7.473 3-2.427 1.326-4.629 3.06-5.386 5.252-.79 2.288.056 4.827 3.13 7.552 1.32 1.17 2.573 1.834 3.767 2.04 1.207.21 2.3-.058 3.266-.654 1.885-1.163 3.283-3.574 4.313-6.13 1.042-2.586 1.756-5.446 2.209-7.648a59.815 59.815 0 0 0 .614-3.498l.028-.21.008-.055.001-.014.001-.006-.56-.07z" clip-rule="evenodd"/><path fill="#909090" fill-opacity=".8" fill-rule="evenodd" d="M250.482 56.255a.565.565 0 1 1 .904.678l-.452-.339-.452-.339zm0 0 .452.339.452.339-.01.013-.03.04a150.729 150.729 0 0 1-2.23 2.858 171.961 171.961 0 0 1-5.666 6.735c-2.267 2.552-4.823 5.252-7.385 7.599-2.555 2.341-5.145 4.359-7.478 5.52a.564.564 0 1 1-.503-1.011c2.191-1.09 4.688-3.024 7.218-5.342 2.523-2.312 5.051-4.98 7.303-7.516a170.991 170.991 0 0 0 7.725-9.372l.114-.151.028-.038.008-.01.002-.003z" clip-rule="evenodd"/><path fill="#909090" fill-opacity=".8" fill-rule="evenodd" d="M237.519 61.707a.565.565 0 0 1 .689.403l1.887 7.207 6.914.264a.565.565 0 0 1-.042 1.128l-7.334-.279a.565.565 0 0 1-.525-.421l-1.993-7.612a.565.565 0 0 1 .404-.69zm5.779-3.406a.565.565 0 0 1 .588.541l.257 6.234h4.798a.565.565 0 1 1 0 1.13h-5.34a.566.566 0 0 1-.565-.542l-.279-6.775a.565.565 0 0 1 .541-.588z" clip-rule="evenodd"/><path fill="#909090" fill-opacity=".8" fill-rule="evenodd" d="M228.335 77.513a1.68 1.68 0 1 0 0 3.359 1.68 1.68 0 0 0 0-3.359zm-7.328 1.68a7.328 7.328 0 1 1 14.656 0 7.328 7.328 0 0 1-14.656 0z" clip-rule="evenodd" opacity=".4"/></g><defs><clipPath id="a"><path fill="#fff" d="M0 0h338v162H0z"/></clipPath></defs></svg>