<svg xmlns="http://www.w3.org/2000/svg" width="101" height="77" fill="none"><path stroke="#00E7F9" stroke-width=".26" d="M63.76.26h18.49v73.698h-4.948c-6.111.592-8.478 1.336-9.766 2.605H63.76V.26z"/><path stroke="#00E7F9" stroke-width=".26" d="M66.625.26h12.5v5.729h-12.5z"/><path fill="#00E7F9" d="M74.438 1.563h1.302v1.302h-1.302z"/><path fill="#00E7F9" d="M74.438 1.563h1.302v1.302h-1.302z"/><path fill="#00E7F9" d="M74.438 1.563h1.302v1.302h-1.302zm-2.084 0h1.302v1.302h-1.302z"/><path fill="#00E7F9" d="M72.354 1.563h1.302v1.302h-1.302z"/><path fill="#00E7F9" d="M72.354 1.563h1.302v1.302h-1.302zm-2.083 0h1.302v1.302h-1.302z"/><path fill="#00E7F9" d="M70.271 1.563h1.302v1.302h-1.302z"/><path fill="#00E7F9" d="M70.271 1.563h1.302v1.302h-1.302z"/><path fill="#00E7F9" fill-opacity=".2" d="M65.582 9.896h1.042v1.563h-1.042zm13.542 0h1.042v1.563h-1.042zm-11.198-.26h9.896v2.604h-9.896zm-2.344 3.124h1.042v1.563h-1.042zm13.542 0h1.042v1.563h-1.042zm-11.198-.26h9.896v2.604h-9.896zm-2.344 3.125h1.042v1.563h-1.042zm13.542 0h1.042v1.563h-1.042zm-11.198-.26h9.896v2.604h-9.896zm-2.344 3.125h1.042v1.563h-1.042zm13.542 0h1.042v1.563h-1.042zm-11.198-.261h9.896v2.604h-9.896zm-2.344 3.125h1.042v1.563h-1.042zm13.542 0h1.042v1.563h-1.042zm-11.198-.26h9.896v2.604h-9.896zm-2.344 3.125h1.042v1.563h-1.042zm13.542 0h1.042v1.563h-1.042zm-11.198-.261h9.896v2.604h-9.896zm-2.344 3.125h1.042v1.563h-1.042zm13.542 0h1.042v1.563h-1.042zm-11.198-.26h9.896v2.604h-9.896zm-2.344 3.125h1.042v1.563h-1.042zm13.542 0h1.042v1.563h-1.042zm-11.198-.26h9.896v2.604h-9.896zm-2.344 3.125h1.042v1.563h-1.042zm13.542 0h1.042v1.563h-1.042zm-11.198-.261h9.896v2.604h-9.896zm-2.344 3.125h1.042v1.563h-1.042zm13.542 0h1.042v1.563h-1.042zm-11.198-.26h9.896v2.604h-9.896zm-2.344 3.125h1.042v1.563h-1.042zm13.542 0h1.042v1.563h-1.042zm-11.198-.261h9.896v2.604h-9.896zm-2.344 3.125h1.042v1.563h-1.042zm13.542 0h1.042v1.563h-1.042zm-11.198-.26h9.896v2.604h-9.896zm-2.344 3.125h1.042v1.563h-1.042zm13.542 0h1.042v1.563h-1.042zm-11.198-.26h9.896v2.604h-9.896zm-2.344 3.124h1.042v1.563h-1.042zm13.542 0h1.042v1.563h-1.042zm-11.198-.26h9.896v2.604h-9.896zM65.582 50h1.042v1.563h-1.042zm13.542 0h1.042v1.563h-1.042zm-11.198-.26h9.896v2.604h-9.896zm-2.344 3.125h1.042v1.563h-1.042zm13.542 0h1.042v1.563h-1.042zm-11.198-.261h9.896v2.604h-9.896zm-2.344 3.125h1.042v1.563h-1.042zm13.542 0h1.042v1.563h-1.042zm-11.198-.26h9.896v2.604h-9.896zm-2.344 3.125h1.042v1.563h-1.042zm13.542 0h1.042v1.563h-1.042zm-11.198-.261h9.896v2.604h-9.896zm-2.344 3.125h1.042v1.563h-1.042zm13.542 0h1.042v1.563h-1.042zm-11.198-.26h9.896v2.604h-9.896zm-2.344 3.125h1.042v1.563h-1.042zm13.542 0h1.042v1.563h-1.042zm-11.198-.26h9.896v2.604h-9.896zm-2.344 3.125h1.042v1.563h-1.042zm13.542 0h1.042v1.563h-1.042zm-11.198-.261h9.896v2.604h-9.896z"/><path stroke="#00E7F9" stroke-width=".26" d="M82.25.26h18.489v73.698h-4.948c-6.111.592-8.478 1.336-9.766 2.605H82.25V.26z"/><path stroke="#00E7F9" stroke-width=".26" d="M85.113.26h12.5v5.729h-12.5z"/><path fill="#00E7F9" d="M92.926 1.563h1.302v1.302h-1.302z"/><path fill="#00E7F9" d="M92.926 1.563h1.302v1.302h-1.302z"/><path fill="#00E7F9" d="M92.926 1.563h1.302v1.302h-1.302zm-2.083 0h1.302v1.302h-1.302z"/><path fill="#00E7F9" d="M90.843 1.563h1.302v1.302h-1.302z"/><path fill="#00E7F9" d="M90.843 1.563h1.302v1.302h-1.302zm-2.084 0h1.302v1.302h-1.302z"/><path fill="#00E7F9" d="M88.759 1.563h1.302v1.302h-1.302z"/><path fill="#00E7F9" d="M88.759 1.563h1.302v1.302h-1.302z"/><path stroke="#00E7F9" stroke-width=".26" d="M33.551.26h30.208v76.302H33.551z"/><path stroke="#00E7F9" stroke-width=".26" d="M35.635 1.042h16.146v5.729H35.635z"/><path fill="#00E7F9" d="M44.49 2.344h1.563v1.563H44.49z"/><path fill="#00E7F9" d="M44.49 2.344h1.563v1.563H44.49z"/><path fill="#00E7F9" d="M44.49 2.344h1.563v1.563H44.49zm-2.084 0h1.563v1.563h-1.563z"/><path fill="#00E7F9" d="M42.406 2.344h1.563v1.563h-1.563z"/><path fill="#00E7F9" d="M42.406 2.344h1.563v1.563h-1.563zm-2.083 0h1.563v1.563h-1.563z"/><path fill="#00E7F9" d="M40.323 2.344h1.563v1.563h-1.563z"/><path fill="#00E7F9" d="M40.323 2.344h1.563v1.563h-1.563z"/><path stroke="#00E7F9" stroke-width=".26" d="M36.546 9.766h24.479v35.938H36.546z"/><rect width="20.573" height="28.385" x="38.369" y="16.016" stroke="#00E7F9" stroke-width=".26" rx=".911"/><path fill="#5A9095" d="M38.239 11.198h10.417v3.125H38.239z"/><path fill="#fff" d="M39.924 13.331a.197.197 0 0 0-.013-.071.135.135 0 0 0-.042-.059.381.381 0 0 0-.089-.054 1.242 1.242 0 0 0-.147-.055 1.88 1.88 0 0 1-.192-.073.786.786 0 0 1-.158-.095.425.425 0 0 1-.108-.127.35.35 0 0 1-.039-.168c0-.061.014-.117.04-.168a.386.386 0 0 1 .115-.13.541.541 0 0 1 .173-.084.781.781 0 0 1 .506.03.457.457 0 0 1 .19.161.415.415 0 0 1 .068.235h-.303a.229.229 0 0 0-.028-.114.186.186 0 0 0-.081-.078.29.29 0 0 0-.137-.029.315.315 0 0 0-.132.025.176.176 0 0 0-.08.064.157.157 0 0 0-.026.09.13.13 0 0 0 .019.067c.013.02.032.04.057.057a.5.5 0 0 0 .092.05c.037.016.08.031.127.046.081.024.152.052.213.082a.685.685 0 0 1 .155.103.381.381 0 0 1 .125.293.356.356 0 0 1-.147.302.513.513 0 0 1-.17.08.837.837 0 0 1-.437-.001.655.655 0 0 1-.194-.088.432.432 0 0 1-.19-.367h.306c0 .046.007.085.021.117a.197.197 0 0 0 .06.077c.026.02.058.034.094.043a.513.513 0 0 0 .12.013.326.326 0 0 0 .13-.022.16.16 0 0 0 .102-.152zm.837-1.093v1.48h-.304v-1.48h.304zm1.28 1.243v.238h-.789v-.238h.788zm-.69-1.243v1.48h-.304v-1.48h.305zm.587.603v.232h-.686v-.232h.686zm.101-.603v.239h-.787v-.24h.787zm.319 0h.258l.38 1.087.381-1.087h.258l-.535 1.48h-.207l-.535-1.48zm-.14 0h.258l.047 1.06v.42h-.305v-1.48zm1.3 0h.258v1.48h-.305v-.42l.047-1.06zm1.52 1.243v.238h-.79v-.238h.79zm-.69-1.243v1.48h-.304v-1.48h.305zm.587.603v.232h-.686v-.232h.686zm.101-.603v.239h-.787v-.24h.787zm1.385 0v1.48h-.305l-.596-.992v.993h-.305v-1.481h.305l.597.994v-.994h.304zm1.036 1.093a.195.195 0 0 0-.012-.071.134.134 0 0 0-.043-.059.377.377 0 0 0-.088-.054 1.24 1.24 0 0 0-.148-.055 1.87 1.87 0 0 1-.19-.073.786.786 0 0 1-.16-.095.425.425 0 0 1-.107-.127.35.35 0 0 1-.039-.168c0-.061.014-.117.04-.168a.387.387 0 0 1 .115-.13.543.543 0 0 1 .173-.084.781.781 0 0 1 .506.03.457.457 0 0 1 .19.161.415.415 0 0 1 .067.235h-.303a.229.229 0 0 0-.027-.114.186.186 0 0 0-.081-.078.29.29 0 0 0-.137-.029.315.315 0 0 0-.132.025.177.177 0 0 0-.08.064.158.158 0 0 0-.026.09.13.13 0 0 0 .018.067c.013.02.032.04.057.057a.5.5 0 0 0 .093.05c.037.016.079.031.127.046.08.024.152.052.213.082a.655.655 0 0 1 .154.103.381.381 0 0 1 .126.293.355.355 0 0 1-.147.302.513.513 0 0 1-.17.08.838.838 0 0 1-.438-.001.654.654 0 0 1-.193-.088.432.432 0 0 1-.19-.367h.305a.29.29 0 0 0 .022.117.195.195 0 0 0 .06.077.25.25 0 0 0 .093.043.513.513 0 0 0 .12.013.326.326 0 0 0 .13-.022.16.16 0 0 0 .102-.152z"/><path fill="#00E7F9" d="M51.96 12.042a.239.239 0 0 0-.016-.091.175.175 0 0 0-.055-.074.433.433 0 0 0-.107-.062 1.492 1.492 0 0 0-.173-.06 1.583 1.583 0 0 1-.199-.072.69.69 0 0 1-.151-.092.339.339 0 0 1-.13-.273.36.36 0 0 1 .137-.287.495.495 0 0 1 .16-.085.66.66 0 0 1 .206-.03c.111 0 .206.02.283.063a.449.449 0 0 1 .178.166c.04.068.061.14.061.218h-.195a.299.299 0 0 0-.036-.148.245.245 0 0 0-.108-.101.394.394 0 0 0-.183-.038c-.07 0-.127.01-.173.031a.228.228 0 0 0-.102.086.234.234 0 0 0-.032.123c0 .031.006.06.02.085a.229.229 0 0 0 .061.07.496.496 0 0 0 .108.06c.044.019.097.037.158.054.084.023.157.05.218.079.06.03.11.062.15.099a.34.34 0 0 1 .089.123c.02.045.029.097.029.154a.356.356 0 0 1-.141.289.506.506 0 0 1-.164.08.759.759 0 0 1-.414 0 .6.6 0 0 1-.18-.086.39.39 0 0 1-.177-.336h.195c0 .051.01.095.03.132.02.036.046.065.08.09a.374.374 0 0 0 .117.052.57.57 0 0 0 .311-.012.211.211 0 0 0 .146-.207zm.659-1.106v1.48h-.197v-1.48h.197zm.419 0h.19l.485 1.207.485-1.207h.19l-.601 1.48h-.149l-.6-1.48zm-.062 0h.168l.027.903v.578h-.195v-1.481zm1.306 0h.168v1.48h-.195v-.577l.027-.903zm1.08.13-.49 1.35h-.201l.564-1.48h.13l-.004.13zm.41 1.35-.491-1.35-.003-.13h.13l.566 1.48h-.202zm-.025-.548v.161h-.832v-.16h.832zm.84-.932v1.48h-.193v-1.48h.193zm.476 0v.16H55.92v-.16h1.144zm.43 0v1.48h-.196v-1.48h.197zm1.252 1.01h.195a.624.624 0 0 1-.08.251.47.47 0 0 1-.184.176.62.62 0 0 1-.297.064.528.528 0 0 1-.42-.187.649.649 0 0 1-.118-.217.926.926 0 0 1-.04-.283v-.147a.92.92 0 0 1 .04-.282.637.637 0 0 1 .12-.218.532.532 0 0 1 .188-.139.602.602 0 0 1 .247-.049.59.59 0 0 1 .284.063.45.45 0 0 1 .18.175c.043.074.07.16.08.258h-.195a.547.547 0 0 0-.053-.178.275.275 0 0 0-.11-.116.373.373 0 0 0-.186-.041.35.35 0 0 0-.299.144.495.495 0 0 0-.075.166.841.841 0 0 0-.026.215v.15c0 .072.008.14.022.204.016.064.04.12.07.168a.363.363 0 0 0 .12.114c.048.027.105.04.17.04a.42.42 0 0 0 .2-.04.26.26 0 0 0 .112-.113.579.579 0 0 0 .055-.178zm-6.524 2.18a.241.241 0 0 0-.016-.092.175.175 0 0 0-.055-.073.434.434 0 0 0-.108-.062 1.522 1.522 0 0 0-.173-.06 1.601 1.601 0 0 1-.198-.072.69.69 0 0 1-.152-.093.339.339 0 0 1-.13-.273.36.36 0 0 1 .137-.287.492.492 0 0 1 .16-.085c.062-.02.13-.03.206-.03.112 0 .206.02.283.064a.448.448 0 0 1 .178.165c.041.068.061.14.061.218h-.195a.298.298 0 0 0-.036-.147.245.245 0 0 0-.107-.102.394.394 0 0 0-.184-.038c-.07 0-.127.01-.172.032a.228.228 0 0 0-.102.085.233.233 0 0 0-.033.123c0 .032.007.06.02.086a.229.229 0 0 0 .062.07.494.494 0 0 0 .108.06c.044.018.096.036.157.053.084.024.157.05.218.08.06.028.111.061.15.098a.34.34 0 0 1 .089.123c.02.046.03.097.03.155a.354.354 0 0 1-.141.289.505.505 0 0 1-.165.08.758.758 0 0 1-.414-.001.602.602 0 0 1-.18-.086.39.39 0 0 1-.177-.336h.196c0 .052.01.095.029.132a.26.26 0 0 0 .08.09.375.375 0 0 0 .117.052.576.576 0 0 0 .312-.012.23.23 0 0 0 .107-.081.21.21 0 0 0 .038-.125zm1.356-1.107v.106l-.613 1.375h-.199l.613-1.326h-.802v-.155h1.001zm.627.774v.155h-.497v-.155h.497zm.782-.782V14.5h-.188v-1.254l-.38.138v-.17l.538-.203h.03zm.791.784-.15-.039.074-.737h.76v.174h-.6l-.045.403a.469.469 0 0 1 .247-.064c.069 0 .13.011.184.035.055.023.1.056.139.1a.441.441 0 0 1 .088.157c.02.06.03.129.03.204a.64.64 0 0 1-.029.196.39.39 0 0 1-.233.26.533.533 0 0 1-.206.036.584.584 0 0 1-.17-.024.414.414 0 0 1-.244-.205.516.516 0 0 1-.05-.18h.18a.35.35 0 0 0 .049.14.24.24 0 0 0 .095.086.31.31 0 0 0 .14.029.287.287 0 0 0 .119-.024.237.237 0 0 0 .087-.067.3.3 0 0 0 .054-.106.467.467 0 0 0 0-.27.297.297 0 0 0-.058-.104.253.253 0 0 0-.092-.07.296.296 0 0 0-.127-.024.318.318 0 0 0-.143.025.548.548 0 0 0-.099.07zm1.864-.153v.225c0 .122-.01.224-.033.307a.535.535 0 0 1-.093.202.357.357 0 0 1-.148.11.525.525 0 0 1-.193.034.552.552 0 0 1-.158-.021.372.372 0 0 1-.13-.068.415.415 0 0 1-.098-.124.666.666 0 0 1-.061-.185 1.33 1.33 0 0 1-.022-.255v-.226c0-.12.011-.223.033-.305a.526.526 0 0 1 .094-.197.352.352 0 0 1 .147-.108.545.545 0 0 1 .193-.032c.058 0 .11.007.159.02a.358.358 0 0 1 .227.187c.027.05.047.11.062.182.014.072.021.156.021.254zm-.19.256v-.288a1.11 1.11 0 0 0-.011-.175.552.552 0 0 0-.034-.13.256.256 0 0 0-.057-.088.2.2 0 0 0-.078-.049.283.283 0 0 0-.099-.016.267.267 0 0 0-.119.026.215.215 0 0 0-.087.078.424.424 0 0 0-.053.141c-.013.059-.019.13-.019.213v.288c0 .066.004.125.012.176.008.05.02.095.035.132a.304.304 0 0 0 .057.09.214.214 0 0 0 .077.054c.03.01.063.016.1.016a.263.263 0 0 0 .12-.027.218.218 0 0 0 .087-.082.43.43 0 0 0 .053-.146c.011-.06.017-.13.017-.213zm1.362-.256v.225c0 .122-.011.224-.033.307a.534.534 0 0 1-.093.202.356.356 0 0 1-.148.11.525.525 0 0 1-.193.034.551.551 0 0 1-.158-.021.372.372 0 0 1-.13-.068.414.414 0 0 1-.098-.124.666.666 0 0 1-.062-.185 1.33 1.33 0 0 1-.021-.255v-.226c0-.12.01-.223.032-.305a.526.526 0 0 1 .095-.197c.04-.05.09-.086.147-.108a.545.545 0 0 1 .193-.032c.058 0 .11.007.159.02a.36.36 0 0 1 .227.187c.027.05.047.11.062.182.014.072.02.156.02.254zm-.19.256v-.288a1.11 1.11 0 0 0-.011-.175.552.552 0 0 0-.034-.13.256.256 0 0 0-.057-.088.202.202 0 0 0-.078-.049.283.283 0 0 0-.1-.016.267.267 0 0 0-.118.026.214.214 0 0 0-.088.078.424.424 0 0 0-.053.141c-.012.059-.018.13-.018.213v.288c0 .066.004.125.011.176a.58.58 0 0 0 .036.132.304.304 0 0 0 .057.09.213.213 0 0 0 .077.054c.03.01.063.016.099.016a.264.264 0 0 0 .121-.027.218.218 0 0 0 .087-.082.432.432 0 0 0 .052-.146c.012-.06.018-.13.018-.213z"/><path stroke="#00E7F9" stroke-width=".26" d="M45.79 51.432c.045-.625.271-.874.912-1.172h3.255c.682.474.775.727.781 1.172v6.641h6.25c.657.02 1.002.215 1.302.911v3.125c-.311.681-.577.852-1.172.912h-6.38v6.64c-.199.503-.388.715-.911.912h-3.125c-.49-.19-.69-.388-.912-.911V63.02h-6.64c-.615-.26-.826-.502-.912-1.172v-2.604c.083-.64.252-.91.912-1.172h6.64v-6.64z"/><path fill="#00E7F9" d="m48.264 52.083-1.172 2.214h2.214l-1.042-2.214zm0 16.797-1.172-2.213h2.214l-1.042 2.213zm8.594-8.203-2.213 1.172v-2.213l2.213 1.041zm-17.318 0 2.214 1.172v-2.213l-2.214 1.041zm-.673 9.664v.279h-1.08v-.279h1.08zm-.981-1.758v2.037h-.352v-2.037h.352zm.84.85v.275h-.94v-.274h.94zm.135-.85v.28h-1.075v-.28h1.075zm1.365 1.512a.3.3 0 0 0-.02-.112.218.218 0 0 0-.066-.09.54.54 0 0 0-.134-.078 1.795 1.795 0 0 0-.218-.08 2.407 2.407 0 0 1-.269-.099 1.022 1.022 0 0 1-.212-.128.475.475 0 0 1-.192-.392.494.494 0 0 1 .201-.403.714.714 0 0 1 .231-.116.971.971 0 0 1 .294-.042c.151 0 .281.028.39.084.11.056.195.131.253.225.06.095.09.199.09.312h-.348a.356.356 0 0 0-.044-.177.294.294 0 0 0-.128-.123.465.465 0 0 0-.217-.045.497.497 0 0 0-.207.038.277.277 0 0 0-.123.102.267.267 0 0 0-.04.145.21.21 0 0 0 .026.105c.017.03.044.06.08.087a.71.71 0 0 0 .138.074c.055.023.12.046.194.067.113.034.212.071.295.112.084.04.154.086.21.137a.507.507 0 0 1 .168.395.512.512 0 0 1-.052.232.5.5 0 0 1-.148.174.708.708 0 0 1-.23.111 1.082 1.082 0 0 1-.296.038 1.09 1.09 0 0 1-.29-.04.853.853 0 0 1-.257-.118.569.569 0 0 1-.253-.485h.351a.38.38 0 0 0 .034.169.312.312 0 0 0 .096.114c.041.03.089.05.143.065a.714.714 0 0 0 .382-.014.271.271 0 0 0 .126-.098.256.256 0 0 0 .042-.146zm1.866-.138h.35a.804.804 0 0 1-.113.357.666.666 0 0 1-.267.244.898.898 0 0 1-.418.09.828.828 0 0 1-.34-.067.744.744 0 0 1-.259-.193.873.873 0 0 1-.165-.304 1.319 1.319 0 0 1-.056-.397v-.17c0-.146.02-.278.058-.397a.878.878 0 0 1 .168-.303.725.725 0 0 1 .261-.195.856.856 0 0 1 .346-.067c.162 0 .299.03.41.09.113.06.2.142.26.247a.877.877 0 0 1 .116.363h-.35a.648.648 0 0 0-.062-.225.317.317 0 0 0-.137-.143.488.488 0 0 0-.237-.05c-.08 0-.15.014-.21.044a.396.396 0 0 0-.15.132.633.633 0 0 0-.09.214c-.02.084-.03.18-.03.288v.172c0 .102.009.196.026.28a.683.683 0 0 0 .084.214.401.401 0 0 0 .357.187c.1 0 .18-.016.242-.047a.317.317 0 0 0 .141-.139.634.634 0 0 0 .065-.225z"/><path stroke="#00E7F9" stroke-width=".26" d="M36.676 66.667v5.468h6.771"/><path fill="#00E7F9" d="M56.867 69.546v.111c0 .154-.02.292-.06.415a.894.894 0 0 1-.172.311.74.74 0 0 1-.266.198.859.859 0 0 1-.344.067.771.771 0 0 1-.61-.264.917.917 0 0 1-.176-.313 1.297 1.297 0 0 1-.062-.413v-.112c0-.154.02-.292.062-.413a.91.91 0 0 1 .173-.312.747.747 0 0 1 .267-.197.84.84 0 0 1 .343-.069c.126 0 .24.023.344.069a.73.73 0 0 1 .267.197.89.89 0 0 1 .172.312c.041.121.062.259.062.413zm-.351.111v-.114c0-.114-.011-.214-.034-.3a.62.62 0 0 0-.096-.22.405.405 0 0 0-.156-.135.46.46 0 0 0-.208-.046.452.452 0 0 0-.207.046.418.418 0 0 0-.155.134.653.653 0 0 0-.097.22 1.208 1.208 0 0 0-.033.3v.115c0 .114.01.215.033.303a.667.667 0 0 0 .098.222c.044.06.096.105.157.136.06.03.13.044.207.044a.465.465 0 0 0 .208-.044.42.42 0 0 0 .154-.136.667.667 0 0 0 .095-.222 1.23 1.23 0 0 0 .034-.302zm1.053-1.074v2.037h-.351v-2.037h.351zm1.224 0-.825.98-.47.499-.062-.349.336-.414.593-.716h.428zm-.378 2.037-.67-.965.242-.24.845 1.205h-.417z"/><path stroke="#00E7F9" stroke-width=".26" d="M59.854 66.667v5.468h-6.51M1 .26h32.542v76.302H1V.26z"/><path stroke="#00E7F9" stroke-width=".26" d="M3.344 1.042H19.49v5.729H3.344z"/><path fill="#00E7F9" d="M12.198 2.344h1.563v1.563h-1.563z"/><path fill="#00E7F9" d="M12.198 2.344h1.563v1.563h-1.563z"/><path fill="#00E7F9" d="M12.198 2.344h1.563v1.563h-1.563zm-2.083 0h1.563v1.563h-1.563z"/><path fill="#00E7F9" d="M10.115 2.344h1.563v1.563h-1.563z"/><path fill="#00E7F9" d="M10.115 2.344h1.563v1.563h-1.563zm-2.084 0h1.563v1.563H8.031z"/><path fill="#00E7F9" d="M8.031 2.344h1.563v1.563H8.031z"/><path fill="#00E7F9" d="M8.031 2.344h1.563v1.563H8.031z"/></svg>