<svg xmlns="http://www.w3.org/2000/svg" width="338" height="162" fill="none"><g clip-path="url(#a)"><path stroke="#313131" stroke-miterlimit="10" stroke-width=".8" d="M-16.868 141.256H155.01m29.634-29.634h130.391m-331.903-31.61h222.75m-225.713 31.61h222.75m0-31.61h151.628m-58.281-72.11v144.22M264.656 35.56v118.043M222.181 7.408v104.214M-14.892 44.45h338.817M111.547 13.83v96.804m42.475-66.184v96.806M23.632 0v153.11M67.096 45.438v103.72"/><path fill="#4D4D4F" d="M67.096 83.47a3.458 3.458 0 1 0 0-6.915 3.458 3.458 0 0 0 0 6.915zM23.652 47.908a3.457 3.457 0 1 0 0-6.913 3.457 3.457 0 0 0 0 6.913zm-.514 96.312a3.458 3.458 0 1 0 0-6.915 3.458 3.458 0 0 0 0 6.915zm273.128-96.312a3.457 3.457 0 1 0 .002-6.914 3.457 3.457 0 0 0-.002 6.914zM264.657 83.47a3.458 3.458 0 1 0-.001-6.915 3.458 3.458 0 0 0 .001 6.915z" opacity=".7"/><path fill="#909090" fill-opacity=".8" d="M285.699 107.656h-81.691a.777.777 0 0 1-.559-.234.777.777 0 0 1-.226-.563V62.626a4.704 4.704 0 0 1 4.703-4.703h27.988a.786.786 0 0 1 0 1.574h-27.988a3.126 3.126 0 0 0-3.129 3.117v43.469h80.129V62.626a3.13 3.13 0 0 0-3.129-3.117h-28a.79.79 0 0 1-.789-.79.79.79 0 0 1 .789-.785h28a4.7 4.7 0 0 1 4.691 4.692v44.234a.782.782 0 0 1-.789.796z"/><path fill="#909090" fill-opacity=".8" d="M285.988 113.625h-82.234A6.768 6.768 0 0 1 197 106.86a.798.798 0 0 1 .785-.789h94.172c.43.007.781.355.785.789a6.769 6.769 0 0 1-6.754 6.765zm-87.352-5.969a5.184 5.184 0 0 0 5.117 4.407h82.234a5.207 5.207 0 0 0 5.129-4.407h-92.48z"/><path fill="#909090" fill-opacity=".8" d="M218.273 107.125a.788.788 0 0 1-.746-.507.795.795 0 0 1 .023-.622c0-.074 3.723-9.437 12.289-6.988a5.331 5.331 0 0 1 4.445-2.789 4.614 4.614 0 0 1 1.266-2.613 3.967 3.967 0 0 1 2.629-1.067c1.894-4.18 4.797-4.254 6.203-4.37.426 0 .84 0 .937.468.098.469 0 .98-.437.98v-.004a5.469 5.469 0 0 0-5.16 3.684.833.833 0 0 1-.235.617.806.806 0 0 1-.629.211 2.767 2.767 0 0 0-2.222.586 3.45 3.45 0 0 0-.852 2.317.814.814 0 0 1-.277.64.82.82 0 0 1-.68.16c-2.445-.562-3.82 2.297-3.883 2.426a.765.765 0 0 1-.957.403c-7.636-2.543-10.863 5.66-10.98 5.937a.794.794 0 0 1-.734.531z"/><path fill="#909090" fill-opacity=".8" d="M271.469 107.125a.788.788 0 0 0 .734-.507.782.782 0 0 0-.023-.622c0-.074-3.723-9.437-12.289-6.988a5.316 5.316 0 0 0-4.383-2.789 4.499 4.499 0 0 0-1.266-2.613 3.884 3.884 0 0 0-2.617-1.067c-1.902-4.18-4.808-4.254-6.211-4.37-.425 0-.828 0-.937.468-.106.469 0 .98.437.98v-.004a5.496 5.496 0 0 1 5.168 3.684.765.765 0 0 0 .235.617.78.78 0 0 0 .617.211 2.758 2.758 0 0 1 2.226.586 3.38 3.38 0 0 1 .848 2.317.795.795 0 0 0 .289.64.827.827 0 0 0 .672.16c2.445-.562 3.828 2.297 3.883 2.426a.774.774 0 0 0 .965.403c7.636-2.543 10.863 5.66 10.98 5.937a.778.778 0 0 0 .672.531zm-23.067-27.598h-7.086a.788.788 0 0 1 0-1.574h7.086c.433 0 .789.356.789.79a.789.789 0 0 1-.789.784z"/><path fill="#909090" fill-opacity=".8" d="M248.391 79.52a.854.854 0 0 1-.434-.13.787.787 0 0 1-.214-1.062c2.648-3.902 4.363-12.266 4.363-21.277 0-10.777-5.32-19.957-7.246-22.828-1.871 2.871-7.246 12.074-7.246 22.828 0 9.031 1.711 17.395 4.351 21.277h.004c.137.172.196.39.16.61a.776.776 0 0 1-.332.53.79.79 0 0 1-1.129-.258c-2.851-4.265-4.625-12.776-4.625-22.214 0-13.488 7.852-24.234 8.192-24.691a.796.796 0 0 1 1.254 0c.328.457 8.179 11.203 8.179 24.69 0 9.438-1.765 17.95-4.625 22.204a.78.78 0 0 1-.652.32z"/><path fill="#909090" fill-opacity=".8" d="M251.254 46.945a1.052 1.052 0 0 1-.223 0l-4.469-1.328v-.004a5.74 5.74 0 0 0-3.383 0l-4.468 1.328v.004a.78.78 0 0 1-.641-.015.778.778 0 0 1-.418-.489.77.77 0 0 1 .082-.632.78.78 0 0 1 .531-.364l4.477-1.351a7.52 7.52 0 0 1 4.258 0l4.469 1.34a.777.777 0 0 1-.215 1.511zM232.519 82.04a.781.781 0 0 1-.723-.626c-4.098-20.414 4.457-23.84 4.82-23.98a.786.786 0 0 1 .551 1.47c-.105 0-6.894 2.987-4.32 19.487 1.062-2.426 2.969-5.82 5.426-7.031a.777.777 0 0 1 .605-.047.795.795 0 0 1 .504 1.004.783.783 0 0 1-.406.457c-3.309 1.637-5.629 8.66-5.649 8.734a.787.787 0 0 1-.808.531zm24.68 0a.77.77 0 0 1-.742-.544c0-.074-2.352-7.097-5.66-8.734a.784.784 0 0 1-.301-1.027.788.788 0 0 1 1.004-.375c2.457 1.21 4.34 4.605 5.414 7.03 2.586-16.554-4.254-19.456-4.32-19.487a.799.799 0 0 1-.446-1.066.783.783 0 0 1 1-.457c.371.136 8.926 3.562 4.821 23.98a.783.783 0 0 1-.727.628l-.043.051zm-12.328 7.64a.792.792 0 0 1-.789-.79v-7.636a.789.789 0 0 1 1.578 0v7.636c0 .434-.355.79-.789.79zm-2.914-3.64a.786.786 0 0 1-.789-.786v-4a.787.787 0 1 1 1.574 0v4a.785.785 0 0 1-.785.785zm5.691 0a.788.788 0 0 1-.789-.786v-4a.784.784 0 0 1 .781-.879.783.783 0 0 1 .785.88v4c0 .429-.347.78-.777.784zm-2.777-30.84a3.587 3.587 0 0 1-2.547-6.122 3.586 3.586 0 0 1 6.121 2.547 3.576 3.576 0 0 1-3.574 3.574zm0-5.587a2.011 2.011 0 1 0 2 2.012 2.014 2.014 0 0 0-2-2.011zM45.92 85.401c-.394 0-.785-.073-1.152-.216l-2.732-1.045a3.18 3.18 0 0 1-1.822-4.115l10.924-28.593a3.18 3.18 0 0 1 4.105-1.835l2.748 1.058a3.18 3.18 0 0 1 1.835 4.106.768.768 0 1 1-1.442-.536 1.65 1.65 0 0 0-.967-2.131l-2.735-1.045a1.651 1.651 0 0 0-2.132.967l-10.907 28.57a1.65 1.65 0 0 0 .968 2.132l2.731 1.045a1.65 1.65 0 0 0 2.132-.967l7.417-19.447a.762.762 0 0 1 .994-.45.764.764 0 0 1 .432 1.001l-7.418 19.447a3.187 3.187 0 0 1-2.97 2.048l-.01.006zm14.47 7.524a.76.76 0 0 1-.548-.228l-5.428-5.55a4.044 4.044 0 0 1-.88-4.255l10.178-26.638a2.555 2.555 0 0 1 1.757-1.438c.877-.155 1.79.238 2.722 1.167.79.78 2.448 2.022 3.502 2.022 2.838 0 5.27-1.483 7.624-2.902 2.355-1.42 4.747-2.903 7.544-2.903.119 0 2.902.016 5.108 1.526a.766.766 0 0 1-.868 1.26c-1.806-1.241-4.218-1.254-4.24-1.254-2.364 0-4.493 1.29-6.747 2.674-2.532 1.544-5.16 3.14-8.42 3.14-2.026 0-4.325-2.215-4.583-2.466-.539-.539-1.02-.803-1.371-.749a1.029 1.029 0 0 0-.616.516l-10.162 26.59a2.509 2.509 0 0 0 .545 2.642l5.431 5.556a.765.765 0 0 1-.548 1.29zm61.674 9.382a4.356 4.356 0 0 1-3.092-1.29l-2.258-2.258a.765.765 0 0 1 0-1.083.768.768 0 0 1 1.084 0l2.257 2.257a2.843 2.843 0 0 0 4.019 0 2.845 2.845 0 0 0 0-4.018l-2.258-2.258a.767.767 0 0 1-.002-1.081.767.767 0 0 1 1.082-.002l2.258 2.257a4.368 4.368 0 0 1-.66 6.727 4.377 4.377 0 0 1-2.43.736v.013zm-8.852 6.311a4.337 4.337 0 0 1-1.675-.336 4.344 4.344 0 0 1-1.418-.954l-7.482-7.482a.765.765 0 0 1 0-1.083.768.768 0 0 1 1.084 0l7.482 7.482a2.838 2.838 0 0 0 4.018 0 2.842 2.842 0 0 0 0-4.019l-7.482-7.482a.765.765 0 0 1 0-1.083.768.768 0 0 1 1.084 0l7.482 7.482a4.37 4.37 0 0 1-3.09 7.462l-.003.013zm-6.202 5.97a.769.769 0 0 1-.691-.468.76.76 0 0 1 .15-.822 2.849 2.849 0 0 0 0-4.018l-8.517-8.514a.776.776 0 0 1-.225-.542.765.765 0 0 1 1.06-.708.767.767 0 0 1 .248.166l8.517 8.517a4.38 4.38 0 0 1 0 6.182.761.761 0 0 1-.542.207z"/><path fill="#909090" fill-opacity=".8" d="M57.342 60.26a1.132 1.132 0 1 0 0-2.265 1.132 1.132 0 0 0 0 2.264zm85.343 25.57a3.604 3.604 0 0 1-3.366-2.312l-10.924-28.593a3.604 3.604 0 0 1 2.077-4.644l2.732-1.045a3.602 3.602 0 0 1 4.647 2.077l10.923 28.593a3.6 3.6 0 0 1-2.077 4.644l-2.731 1.045a3.587 3.587 0 0 1-1.281.236zm-8.194-34.481c-.15 0-.299.027-.439.08l-2.735 1.045a1.238 1.238 0 0 0-.794 1.119c-.004.162.023.323.082.474l10.913 28.593a1.234 1.234 0 0 0 1.593.713l2.732-1.045a1.238 1.238 0 0 0 .794-1.118 1.223 1.223 0 0 0-.082-.475l-10.923-28.593a1.234 1.234 0 0 0-1.141-.793zm-7.486 43.231a1.186 1.186 0 0 1-1.159-1.404c.043-.228.152-.439.315-.605l6.62-6.773a2.08 2.08 0 0 0 .548-1.033 2.08 2.08 0 0 0-.093-1.166l-10.155-26.58c-.055-.091-.194-.259-.304-.275-.109-.016-.467.09-1.002.63-.275.27-2.69 2.58-4.88 2.58-3.386 0-6.053-1.613-8.636-3.203-2.203-1.342-4.28-2.613-6.528-2.613-.019 0-2.325.026-4.005 1.18l-22.143 14.98s-3.918 3.016-2.612 4.858c1.212 1.706 5.16.429 6.45-.155a1.184 1.184 0 0 1 .967 2.154c-.687.323-6.801 2.948-9.352-.645-2.151-3.028.983-6.553 3.176-8.159l22.172-15.003c2.29-1.573 5.215-1.593 5.337-1.593 2.903 0 5.377 1.503 7.76 2.957 2.383 1.455 4.683 2.858 7.417 2.858.881 0 2.409-1.116 3.225-1.906 1.026-1.026 2.071-1.458 3.083-1.29a2.977 2.977 0 0 1 2.042 1.612l.032.078 10.178 26.638a4.46 4.46 0 0 1-.967 4.696l-6.621 6.772a1.184 1.184 0 0 1-.865.41z"/><path fill="#909090" fill-opacity=".8" d="M120.062 87.888a1.176 1.176 0 0 1-.819-.323l-22.04-21.217-16.654 10.74a1.184 1.184 0 0 1-1.29-1.987L96.7 63.855a1.18 1.18 0 0 1 1.462.142l22.717 21.856a1.186 1.186 0 0 1-.159 1.831 1.183 1.183 0 0 1-.66.204h.003zm-54.551 14.835a4.785 4.785 0 0 1-3.386-8.185l2.257-2.257a4.79 4.79 0 0 1 6.773 6.772l-2.258 2.258a4.77 4.77 0 0 1-3.386 1.412zm2.258-9.475a2.416 2.416 0 0 0-1.716.71l-2.258 2.257a2.427 2.427 0 0 0 .751 4.014 2.423 2.423 0 0 0 2.678-.586l2.257-2.257a2.422 2.422 0 0 0-1.703-4.138h-.01zm6.591 15.786a4.781 4.781 0 0 1-4.786-4.786c0-1.269.504-2.487 1.4-3.386l7.482-7.482a4.79 4.79 0 0 1 6.773 6.773l-7.482 7.482a4.783 4.783 0 0 1-3.387 1.399zm-1.715-3.073a2.43 2.43 0 0 0 3.428 0l7.482-7.482a2.426 2.426 0 1 0-3.428-3.428l-7.482 7.482a2.427 2.427 0 0 0 0 3.428zm10.481 10.101a4.792 4.792 0 0 1-4.425-2.954 4.786 4.786 0 0 1 1.039-5.218l8.517-8.514a4.79 4.79 0 0 1 6.772 6.772l-8.517 8.517a4.785 4.785 0 0 1-3.386 1.397zm8.517-15.719a2.407 2.407 0 0 0-1.715.71l-8.514 8.517a2.425 2.425 0 0 0 3.428 3.428l8.517-8.517a2.423 2.423 0 0 0-1.716-4.138zm1.151 21.662a4.765 4.765 0 0 1-3.386-1.399 4.796 4.796 0 0 1 0-6.773l4.55-4.55a4.792 4.792 0 0 1 6.739.034 4.792 4.792 0 0 1 .034 6.738l-4.55 4.551a4.784 4.784 0 0 1-3.387 1.399zm-1.715-3.073a2.43 2.43 0 0 0 3.428 0l4.55-4.551a2.423 2.423 0 0 0-.05-3.377 2.428 2.428 0 0 0-3.377-.051l-4.551 4.548a2.427 2.427 0 0 0 0 3.431z"/></g><defs><clipPath id="a"><path fill="#fff" d="M0 0h338v162H0z"/></clipPath></defs></svg>