<svg xmlns="http://www.w3.org/2000/svg" width="338" height="162" fill="none"><g clip-path="url(#a)"><path stroke="#313131" stroke-miterlimit="10" stroke-width=".8" d="M-16.868 141.256H155.01m29.634-29.634h130.391m-331.903-31.61h222.75m-225.713 31.61h222.75m0-31.61h151.628m-58.281-72.11v144.22M264.656 35.56v118.043M222.181 7.408v104.214M-14.892 44.451h338.817M111.547 13.829v96.805m42.475-66.183v96.805M23.632 0v153.11M67.096 45.438v103.72"/><path fill="#4D4D4F" d="M67.096 83.47a3.458 3.458 0 1 0 0-6.915 3.458 3.458 0 0 0 0 6.915zM23.652 47.908a3.457 3.457 0 1 0 0-6.913 3.457 3.457 0 0 0 0 6.913zm-.514 96.312a3.458 3.458 0 1 0 0-6.915 3.458 3.458 0 0 0 0 6.915zm273.128-96.312a3.457 3.457 0 1 0 .002-6.914 3.457 3.457 0 0 0-.002 6.914zM264.657 83.47a3.458 3.458 0 1 0-.001-6.915 3.458 3.458 0 0 0 .001 6.915z" opacity=".7"/><path fill="#909090" fill-opacity=".7" d="M128.957 97.918c-3.352 0-6.16 2.39-6.805 5.555h-8.472v-1.391c0-.77-.621-1.391-1.391-1.391h-4.168v-4.168c0-.77-.621-1.39-1.391-1.39h-1.39v-5.555h1.39c.77 0 1.391-.621 1.391-1.39v-16.67c0-.77-.621-1.39-1.391-1.39h-1.39v-5.555h1.39c.77 0 1.391-.621 1.391-1.39v-4.168h4.168a1.39 1.39 0 0 0 1.391-1.391v-1.39h8.472c.645 3.163 3.45 5.554 6.805 5.554 3.828 0 6.945-3.117 6.945-6.945 0-3.828-3.117-6.946-6.945-6.946-3.352 0-6.16 2.391-6.805 5.555h-8.472v-1.39c0-.77-.621-1.391-1.391-1.391h-4.168v-4.168c0-.77-.621-1.39-1.391-1.39h-1.39v-1.391a4.172 4.172 0 0 0-4.168-4.168H85.754C85.109 36.39 82.304 34 78.949 34c-3.828 0-6.945 3.117-6.945 6.945 0 3.828 3.117 6.946 6.945 6.946 3.352 0 6.16-2.391 6.805-5.555h15.418c.766 0 1.39.621 1.39 1.39v1.391h-1.39c-.77 0-1.39.621-1.39 1.39v16.669c0 .77.62 1.39 1.39 1.39h1.39v5.555h-1.39c-.77 0-1.39.621-1.39 1.39v4.169h-4.169c-.77 0-1.39.62-1.39 1.39v1.39H85.75c-.644-3.163-3.45-5.554-6.805-5.554-3.828 0-6.945 3.117-6.945 6.945 0 3.829 3.117 6.946 6.945 6.946 3.352 0 6.16-2.39 6.805-5.555h8.473v1.39c0 .77.62 1.391 1.39 1.391h4.168v4.168c0 .77.621 1.39 1.391 1.39h1.39v5.555h-1.39c-.77 0-1.39.622-1.39 1.391v16.668c0 .77.62 1.391 1.39 1.391h1.39v1.39c0 .766-.621 1.391-1.39 1.391H85.754c-.645-3.164-3.45-5.555-6.805-5.555-3.828 0-6.945 3.117-6.945 6.945 0 3.829 3.117 6.946 6.945 6.946 3.352 0 6.16-2.391 6.805-5.555h15.418a4.172 4.172 0 0 0 4.168-4.168v-1.39h1.39a1.39 1.39 0 0 0 1.391-1.391v-4.168h4.168c.77 0 1.391-.621 1.391-1.391v-1.39h8.472c.645 3.164 3.45 5.554 6.805 5.554 3.828 0 6.945-3.117 6.945-6.945 0-3.828-3.117-6.945-6.945-6.945v.004zm0-47.223a4.172 4.172 0 0 1 4.168 4.168 4.172 4.172 0 0 1-4.168 4.168 4.172 4.172 0 0 1-4.168-4.168 4.172 4.172 0 0 1 4.168-4.168zm-50-5.555a4.172 4.172 0 0 1-4.168-4.168 4.172 4.172 0 0 1 4.168-4.168 4.172 4.172 0 0 1 4.168 4.168 4.172 4.172 0 0 1-4.168 4.168zm23.609 2.777h2.777v4.168c0 .77.621 1.391 1.391 1.391h4.168v2.777h-4.168c-.77 0-1.391.621-1.391 1.39v4.169h-2.777V47.917zM78.957 84.03a4.172 4.172 0 0 1-4.168-4.168 4.172 4.172 0 0 1 4.168-4.168 4.172 4.172 0 0 1 4.168 4.168 4.172 4.172 0 0 1-4.168 4.168zm22.223-2.777h-4.168v-2.777h4.168c.77 0 1.391-.621 1.391-1.39v-4.169h2.777v13.891h-2.777V82.64c0-.77-.621-1.39-1.391-1.39v.003zm-22.223 41.664a4.172 4.172 0 0 1-4.168-4.168 4.172 4.172 0 0 1 4.168-4.168 4.172 4.172 0 0 1 4.168 4.168 4.172 4.172 0 0 1-4.168 4.168zm31.945-16.664h-4.168a1.39 1.39 0 0 0-1.391 1.391v4.168h-2.777V97.921h2.777v4.168c0 .769.622 1.39 1.391 1.39h4.168v2.778-.004zm18.055 2.777a4.172 4.172 0 0 1-4.168-4.168 4.172 4.172 0 0 1 4.168-4.168 4.172 4.172 0 0 1 4.168 4.168 4.172 4.172 0 0 1-4.168 4.168zm82.261-20.76a7.823 7.823 0 0 1-1.753-.193c-3.884-.811-6.716-4.294-6.716-8.277a8.392 8.392 0 0 1 3.961-7.158 8.466 8.466 0 0 1 4.508-1.31 8.447 8.447 0 0 1 6.842 3.496 8.283 8.283 0 0 1 1.627 4.972c0 1.82-.565 3.543-1.635 4.984a8.439 8.439 0 0 1-6.834 3.486zm0-15.166a6.684 6.684 0 0 0-3.566 1.04 6.63 6.63 0 0 0-3.131 5.656c0 3.15 2.239 5.902 5.323 6.546.438.1.907.152 1.374.152a6.671 6.671 0 0 0 5.404-2.76 6.553 6.553 0 0 0 1.293-3.938 6.544 6.544 0 0 0-1.285-3.926 6.679 6.679 0 0 0-5.412-2.77zm30.313 37.156c-4.67 0-8.469-3.799-8.469-8.469 0-1.82.565-3.544 1.635-4.983a8.439 8.439 0 0 1 6.834-3.486c4.67 0 8.469 3.799 8.469 8.469s-3.799 8.469-8.469 8.469zm0-15.166a6.669 6.669 0 0 0-5.404 2.76 6.547 6.547 0 0 0-1.293 3.937 6.704 6.704 0 0 0 6.697 6.697 6.704 6.704 0 0 0 6.697-6.697 6.704 6.704 0 0 0-6.697-6.697zm0-28.834a8.524 8.524 0 0 1-6.858-3.491 8.407 8.407 0 0 1-1.611-4.978c0-4.67 3.799-8.47 8.469-8.47s8.469 3.8 8.469 8.47c0 4.67-3.799 8.47-8.469 8.47zm0-15.167a6.705 6.705 0 0 0-6.697 6.698c0 1.43.44 2.791 1.271 3.934a6.743 6.743 0 0 0 5.426 2.763 6.705 6.705 0 0 0 6.697-6.697 6.705 6.705 0 0 0-6.697-6.697zm-37.896 73.196c-4.67 0-8.469-3.799-8.469-8.469s3.799-8.469 8.469-8.469c.611 0 1.201.065 1.754.193 3.883.81 6.715 4.292 6.715 8.276 0 4.67-3.799 8.469-8.469 8.469zm0-15.166a6.704 6.704 0 0 0-6.697 6.697 6.704 6.704 0 0 0 6.697 6.697 6.704 6.704 0 0 0 6.697-6.697 6.715 6.715 0 0 0-5.323-6.545 6.136 6.136 0 0 0-1.374-.152zm-15.166-51.185c-4.67 0-8.469-3.8-8.469-8.47 0-4.67 3.799-8.468 8.469-8.468s8.469 3.799 8.469 8.469a8.388 8.388 0 0 1-3.961 7.158 8.454 8.454 0 0 1-4.508 1.311zm0-15.166a6.704 6.704 0 0 0-6.697 6.697 6.705 6.705 0 0 0 6.697 6.697c1.253 0 2.486-.36 3.565-1.04a6.627 6.627 0 0 0 3.132-5.657 6.704 6.704 0 0 0-6.697-6.697z"/><path fill="#909090" fill-opacity=".7" d="M207.181 74.279a.888.888 0 0 1-.68-.317l-14.674-17.517a.888.888 0 0 1 1.359-1.138l14.673 17.517a.887.887 0 0 1-.678 1.455zm10.162 1.953a.886.886 0 0 1-.522-1.603l18.047-13.1a.886.886 0 1 1 1.042 1.435l-18.047 13.1a.884.884 0 0 1-.52.168zm-12.153 33.062a.887.887 0 0 1-.868-1.07l4.474-21.194a.887.887 0 0 1 1.735.367l-4.475 21.194a.886.886 0 0 1-.866.703zm30.217-11.072a.88.88 0 0 1-.519-.168l-18.066-13.081a.885.885 0 1 1 1.04-1.435l18.066 13.08a.885.885 0 0 1-.521 1.604z"/></g><defs><clipPath id="a"><path fill="#fff" d="M0 0h338v162H0z"/></clipPath></defs></svg>