<svg xmlns="http://www.w3.org/2000/svg" width="338" height="162" fill="none"><g clip-path="url(#a)"><path stroke="#313131" stroke-miterlimit="10" stroke-width=".8" d="M-16.868 141.256H155.01m29.634-29.634h130.391m-331.903-31.61h222.75m-225.713 31.61h222.75m0-31.61h151.628m-58.281-72.11v144.22M264.656 35.56v118.043M222.181 7.408v104.214M-14.892 44.451h338.817M111.547 13.829v96.805m42.475-66.183v96.805M23.632 0v153.11M67.096 45.438v103.72"/><path fill="#4D4D4F" d="M67.096 83.47a3.458 3.458 0 1 0 0-6.915 3.458 3.458 0 0 0 0 6.915zM23.652 47.908a3.457 3.457 0 1 0 0-6.913 3.457 3.457 0 0 0 0 6.913zm-.514 96.312a3.458 3.458 0 1 0 0-6.915 3.458 3.458 0 0 0 0 6.915zm273.128-96.312a3.457 3.457 0 1 0 .002-6.914 3.457 3.457 0 0 0-.002 6.914zM264.657 83.47a3.458 3.458 0 1 0-.001-6.915 3.458 3.458 0 0 0 .001 6.915z" opacity=".7"/><path fill="#909090" fill-opacity=".7" fill-rule="evenodd" d="M135.244 94.71h-26.558v6.991h10.669c.559 0 1.072.373 1.118.886l2.191 11.601c.14.652-.373 1.398-1.072 1.398H82.498a1.113 1.113 0 0 1-1.118-1.258l2.237-11.601c.093-.513.56-.886 1.072-.886H95.45v-7.13H68.847C66.19 94.71 64 92.52 64 89.77V40.94c0-2.703 2.19-4.94 4.847-4.94h66.303c2.657 0 4.847 2.237 4.847 4.94v48.83a4.758 4.758 0 0 1-4.753 4.94zm-9.737-16.96h-3.868a1.154 1.154 0 0 1-1.165-1.165v-6.664c0-.652.513-1.165 1.165-1.165h3.868c.653 0 1.165.513 1.165 1.165v6.711c-.046.653-.559 1.119-1.165 1.119zm-2.749-2.283h1.584V71.04h-1.584v4.427zm8.478 2.284a1.154 1.154 0 0 1-1.165-1.166v-6.71c0-.653.513-1.165 1.165-1.165.653 0 1.165.512 1.165 1.165v6.757c-.093.653-.606 1.119-1.165 1.119zm-15.143 0h-3.914a1.154 1.154 0 0 1-1.166-1.166v-6.664c0-.652.513-1.165 1.166-1.165h3.914c.653 0 1.165.513 1.165 1.165v6.711c0 .653-.512 1.119-1.165 1.119zm-2.796-2.284h1.631V71.04h-1.631v4.427zm-6.851 2.284a1.154 1.154 0 0 1-1.165-1.166v-6.71c0-.653.513-1.165 1.165-1.165.653 0 1.165.512 1.165 1.165v6.757c0 .653-.512 1.119-1.165 1.119zm-5.126 0h-3.868a1.154 1.154 0 0 1-1.165-1.166v-6.664c0-.652.513-1.165 1.165-1.165h3.868c.652 0 1.118.513 1.118 1.165v6.711c0 .653-.466 1.119-1.118 1.119zm-2.796-2.284h1.631V71.04h-1.631v4.427zm-6.85 2.284a1.154 1.154 0 0 1-1.166-1.166v-6.71c0-.653.513-1.165 1.165-1.165.653 0 1.165.512 1.165 1.165v6.757c0 .653-.512 1.119-1.165 1.119zm9.643-12.953h-3.868a1.154 1.154 0 0 1-1.165-1.165v-6.71c0-.653.512-1.166 1.165-1.166h3.868c.652 0 1.118.513 1.118 1.165v6.711c0 .653-.466 1.165-1.118 1.165zm-2.796-2.237h1.631v-4.474h-1.631v4.474zm-6.85 2.237a1.154 1.154 0 0 1-1.166-1.165V56.83c0-.606.513-1.165 1.165-1.165.653 0 1.165.56 1.165 1.165v6.804c0 .653-.512 1.165-1.165 1.165zm19.01 0h-3.868a1.153 1.153 0 0 1-1.165-1.165v-6.71c0-.653.512-1.166 1.165-1.166h3.868c.652 0 1.165.513 1.165 1.165v6.711c0 .653-.513 1.165-1.165 1.165zm-2.703-2.237h1.631v-4.474h-1.631v4.474zm8.432 2.237a1.154 1.154 0 0 1-1.165-1.165V56.83c0-.606.513-1.165 1.165-1.165.606 0 1.165.56 1.165 1.165v6.804c0 .653-.512 1.165-1.165 1.165zm9.085 0h-3.868a1.153 1.153 0 0 1-1.165-1.165v-6.71c0-.653.512-1.166 1.165-1.166h3.868c.652 0 1.165.513 1.165 1.165v6.711c-.047.653-.559 1.165-1.165 1.165zm-2.75-2.237h1.585v-4.474h-1.585v4.474zm8.479 2.237a1.153 1.153 0 0 1-1.165-1.165V56.83c0-.606.512-1.165 1.165-1.165.652 0 1.165.56 1.165 1.165v6.804c-.093.653-.606 1.165-1.165 1.165zm-5.732-13h-3.868a1.153 1.153 0 0 1-1.165-1.164v-6.711c0-.653.512-1.165 1.165-1.165h3.868c.652 0 1.165.512 1.165 1.165v6.71c-.047.653-.56 1.166-1.165 1.166zm-2.75-2.236h1.585v-4.474h-1.585v4.474zm8.479 2.237a1.153 1.153 0 0 1-1.165-1.165v-6.711c0-.653.512-1.165 1.165-1.165.652 0 1.165.512 1.165 1.165v6.71c-.094.653-.606 1.166-1.165 1.166zm-15.143 0h-3.915a1.154 1.154 0 0 1-1.165-1.165v-6.711c0-.653.513-1.165 1.165-1.165h3.915c.652 0 1.165.512 1.165 1.165v6.71c0 .653-.513 1.166-1.165 1.166zm-2.796-2.237h1.631v-4.474h-1.631v4.474zm-6.851 2.237a1.154 1.154 0 0 1-1.165-1.165v-6.711c0-.653.513-1.165 1.165-1.165s1.165.512 1.165 1.165v6.71c0 .653-.513 1.166-1.165 1.166zm-5.126 0h-3.869a1.154 1.154 0 0 1-1.165-1.165v-6.711c0-.653.513-1.165 1.165-1.165h3.869c.652 0 1.118.512 1.118 1.165v6.71c0 .653-.466 1.166-1.118 1.166zm-2.797-2.237h1.632v-4.474h-1.632v4.474zm-6.85 2.237a1.154 1.154 0 0 1-1.165-1.165v-6.711c0-.653.512-1.165 1.165-1.165.652 0 1.165.512 1.165 1.165v6.71c0 .653-.513 1.166-1.165 1.166zM79.31 78.124h-9.596c-.606 0-1.166-.513-1.166-1.165 0-.653.56-1.166 1.166-1.166h9.596c.653 0 1.165.513 1.165 1.166 0 .652-.512 1.165-1.165 1.165zm0-6.665h-9.596c-.606 0-1.166-.512-1.166-1.165 0-.652.56-1.165 1.166-1.165h9.596c.653 0 1.165.513 1.165 1.165 0 .653-.512 1.165-1.165 1.165zm0-6.71h-9.596c-.606 0-1.166-.513-1.166-1.165 0-.653.56-1.166 1.166-1.166h9.596c.653 0 1.165.513 1.165 1.166 0 .652-.512 1.165-1.165 1.165zm0-6.758h-9.596c-.606 0-1.166-.513-1.166-1.165 0-.606.56-1.165 1.166-1.165h9.596c.653 0 1.165.56 1.165 1.165 0 .652-.512 1.165-1.165 1.165zm0-6.664h-9.596c-.606 0-1.166-.513-1.166-1.165 0-.606.56-1.165 1.166-1.165h9.596c.653 0 1.165.559 1.165 1.165 0 .652-.512 1.165-1.165 1.165zm0-6.664h-9.596c-.606 0-1.166-.513-1.166-1.165 0-.606.56-1.165 1.166-1.165h9.596c.653 0 1.165.559 1.165 1.165 0 .652-.512 1.165-1.165 1.165zm3.496 37.463V38.28H68.829c-1.445 0-2.61 1.166-2.61 2.657v41.188h16.588zm2.33-43.845v43.845h52.606V40.938c0-1.491-1.165-2.656-2.61-2.656H85.137zm16.867 53.492c-1.864 0-3.356-1.492-3.356-3.263 0-1.91 1.492-3.402 3.356-3.402 1.818 0 3.309 1.492 3.309 3.402 0 1.771-1.491 3.263-3.309 3.263zm0-4.381c-.559 0-1.072.513-1.072 1.118 0 .56.513 1.026 1.072 1.026.606 0 1.072-.466 1.072-1.026 0-.652-.466-1.118-1.072-1.118zm6.664 16.634v4.567c-.046.653-.559 1.165-1.211 1.165H96.602a1.153 1.153 0 0 1-1.166-1.165v-4.567h-9.83l-1.77 9.318h36.391l-1.771-9.318h-9.788zm-2.33-9.318h-8.572v12.813h8.572V94.708zm31.404-10.25H66.219v5.313c0 1.445 1.165 2.657 2.61 2.657h66.303c1.445 0 2.61-1.212 2.61-2.657V84.46z" clip-rule="evenodd"/><path fill="#909090" fill-opacity=".7" d="M230.509 31a8.681 8.681 0 0 0-7.633 12.784 8.675 8.675 0 0 0 10.18 4.198 8.677 8.677 0 0 0 6.105-9.164A8.675 8.675 0 0 0 230.509 31zm3.68 12.36a5.331 5.331 0 0 1-7.361 0 5.212 5.212 0 0 1-1.131-5.676 5.205 5.205 0 0 1 7.706-2.338 5.212 5.212 0 0 1 2.213 5.348 5.204 5.204 0 0 1-1.427 2.666zm39.285 26.995a8.679 8.679 0 1 0-12.276 12.27 8.679 8.679 0 0 0 12.276-12.27zm-2.448 9.825a5.209 5.209 0 1 1 0-7.36 5.21 5.21 0 0 1-.017 7.36h.017zm-83.483-9.825a8.68 8.68 0 1 0 12.274 12.276 8.68 8.68 0 0 0-12.274-12.276zm9.826 9.825a5.21 5.21 0 0 1-8.665-2.176 5.207 5.207 0 1 1 8.665 2.176zm33.14 24.46a8.681 8.681 0 1 0 .031 17.362 8.681 8.681 0 0 0-.031-17.362zm3.68 12.36a5.33 5.33 0 0 1-7.361 0 5.211 5.211 0 0 1-1.131-5.676 5.202 5.202 0 0 1 4.812-3.216 5.206 5.206 0 0 1 3.68 8.892zm-14.356-65.706c.088.208.136.432.138.66v7.36a1.734 1.734 0 0 1-1.736 1.736 1.734 1.734 0 0 1-1.736-1.736v-3.177l-9.304 9.305a1.738 1.738 0 0 1-2.864-1.252 1.732 1.732 0 0 1 .416-1.196l9.305-9.305h-3.177a1.737 1.737 0 1 1 0-3.472h7.36a1.736 1.736 0 0 1 1.598 1.077zM253.84 87.54l-9.305 9.305v-3.16a1.734 1.734 0 0 0-1.735-1.736 1.737 1.737 0 0 0-1.736 1.736v7.361a1.732 1.732 0 0 0 1.736 1.736h7.36a1.737 1.737 0 0 0 0-3.472h-3.177l9.305-9.305a1.737 1.737 0 0 0-2.448-2.448v-.017zm1.233-32.428a1.737 1.737 0 0 0-1.736 1.736v3.177l-9.305-9.305a1.735 1.735 0 0 0-2.448 2.447l9.305 9.305h-3.194a1.739 1.739 0 0 0-1.736 1.736 1.738 1.738 0 0 0 1.736 1.736h7.361a1.736 1.736 0 0 0 1.736-1.736v-7.343a1.735 1.735 0 0 0-1.736-1.736l.017-.017zm-44.927 35.396h3.177a1.734 1.734 0 0 0 1.227-2.963 1.735 1.735 0 0 0-1.227-.509h-7.361a1.735 1.735 0 0 0-1.736 1.736v7.36a1.735 1.735 0 0 0 1.736 1.737 1.738 1.738 0 0 0 1.736-1.736v-3.16l9.305 9.305a1.735 1.735 0 0 0 2.448-2.447l-9.305-9.323zm22.099 1.615V60.876a1.735 1.735 0 0 0-1.736-1.736 1.737 1.737 0 0 0-1.736 1.736v31.248a1.738 1.738 0 0 0 1.736 1.736 1.734 1.734 0 0 0 1.736-1.736z"/></g><defs><clipPath id="a"><path fill="#fff" d="M0 0h338v162H0z"/></clipPath></defs></svg>