<svg xmlns="http://www.w3.org/2000/svg" width="338" height="162" fill="none"><g clip-path="url(#a)"><path stroke="#313131" stroke-miterlimit="10" stroke-width=".8" d="M-16.868 141.256H155.01m29.634-29.634h130.391m-331.903-31.61h222.75m-225.713 31.61h222.75m0-31.61h151.628m-58.281-72.11v144.22M264.656 35.56v118.043M222.181 7.408v104.214M-14.892 44.451h338.817M111.547 13.829v96.805m42.475-66.183v96.805M23.632 0v153.11M67.096 45.438v103.72"/><path fill="#4D4D4F" d="M67.096 83.47a3.458 3.458 0 1 0 0-6.915 3.458 3.458 0 0 0 0 6.915zM23.652 47.908a3.457 3.457 0 1 0 0-6.913 3.457 3.457 0 0 0 0 6.913zm-.514 96.312a3.458 3.458 0 1 0 0-6.915 3.458 3.458 0 0 0 0 6.915zm273.128-96.312a3.457 3.457 0 1 0 .002-6.914 3.457 3.457 0 0 0-.002 6.914zM264.657 83.47a3.458 3.458 0 1 0-.001-6.915 3.458 3.458 0 0 0 .001 6.915z" opacity=".7"/><path fill="#909090" fill-opacity=".7" fill-rule="evenodd" d="M50.938 62.613a1.01 1.01 0 0 0-1.008 1.008v24.695c0 .555.453 1.012 1.008 1.012H86.89a1.01 1.01 0 0 0 1.007-1.012V63.621a1.01 1.01 0 0 0-1.007-1.008H50.937zM86.89 91.254H50.937A2.94 2.94 0 0 1 48 88.317V63.622a2.938 2.938 0 0 1 2.938-2.934H86.89a2.94 2.94 0 0 1 2.937 2.934v24.695a2.94 2.94 0 0 1-2.938 2.937z" clip-rule="evenodd"/><path fill="#909090" fill-opacity=".7" fill-rule="evenodd" d="M88.864 66.976H48.966a.964.964 0 1 1 0-1.93h39.898a.964.964 0 1 1 0 1.93zm0 19.914H48.966a.964.964 0 1 1 0-1.93h39.898a.964.964 0 1 1 0 1.93zM63.098 99.663h11.629v-2.46h-11.63v2.46zm12.594 1.926H62.137a.967.967 0 0 1-.965-.965v-4.39c0-.532.43-.965.965-.965h13.555c.531 0 .965.433.965.965v4.39c0 .531-.43.965-.965.965z" clip-rule="evenodd"/><path fill="#909090" fill-opacity=".7" fill-rule="evenodd" d="M65.094 97.198a.964.964 0 0 1-.965-.965v-5.945a.964.964 0 1 1 1.93 0v5.945c0 .532-.43.965-.965.965zm7.64 0a.964.964 0 0 1-.965-.965v-5.945a.964.964 0 1 1 1.93 0v5.945c0 .532-.43.965-.965.965zm38.348-27.788a.301.301 0 0 0-.297.296v15.781c0 .16.136.297.297.297h22.977c.16 0 .296-.137.296-.297v-15.78a.301.301 0 0 0-.296-.298h-22.977zm22.977 18.304h-22.977a2.224 2.224 0 0 1-2.223-2.222V69.71c0-1.226.996-2.222 2.223-2.222h22.977c1.226 0 2.222.996 2.222 2.226v15.781c0 1.227-1 2.227-2.222 2.223v-.004zm-15 5.149h7.023v-1.238h-7.023v1.238zm7.984 1.926h-8.949a.964.964 0 0 1-.965-.965v-3.168c0-.531.43-.965.965-.965h8.949c.531 0 .965.434.965.965v3.168c0 .531-.43.965-.965.965z" clip-rule="evenodd"/><path fill="#909090" fill-opacity=".7" fill-rule="evenodd" d="M120.128 91.624a.964.964 0 0 1-.964-.965v-3.91a.964.964 0 1 1 1.929 0v3.91a.964.964 0 0 1-.965.965zm4.883 0a.965.965 0 0 1-.965-.965v-3.91a.965.965 0 1 1 1.93 0v3.91a.967.967 0 0 1-.965.965zm-13.929-52.703a.301.301 0 0 0-.297.297V55c0 .164.136.297.297.297h22.977c.16 0 .296-.133.296-.297V39.22a.301.301 0 0 0-.296-.298h-22.977zm22.977 18.305h-22.977a2.224 2.224 0 0 1-2.223-2.222V39.223c0-1.227.996-2.223 2.223-2.223h22.977c1.226 0 2.222.996 2.222 2.223v15.78c0 1.227-1 2.223-2.222 2.223zm-15 5.148h7.023v-1.238h-7.023v1.238zm7.984 1.926h-8.949a.964.964 0 0 1-.965-.965v-3.168c0-.531.43-.965.965-.965h8.949c.531 0 .965.434.965.965v3.168c0 .531-.43.965-.965.965z" clip-rule="evenodd"/><path fill="#909090" fill-opacity=".7" fill-rule="evenodd" d="M120.128 61.136a.964.964 0 0 1-.964-.965v-3.91a.964.964 0 1 1 1.929 0v3.91a.961.961 0 0 1-.965.965zm4.883 0a.965.965 0 0 1-.965-.965v-3.91a.965.965 0 1 1 1.93 0v3.91a.965.965 0 0 1-.965.965zm-13.929 38.762a.301.301 0 0 0-.297.297v15.781c0 .16.136.297.297.297h22.977c.16 0 .296-.137.296-.297v-15.781a.301.301 0 0 0-.296-.297h-22.977zm22.977 18.305h-22.977a2.224 2.224 0 0 1-2.223-2.222V100.2c0-1.227.996-2.223 2.223-2.223h22.977c1.226 0 2.222.996 2.222 2.223v15.781c0 1.226-1 2.226-2.222 2.222zm-15 5.148h7.023v-1.238h-7.023v1.238zm7.984 1.926h-8.949a.964.964 0 0 1-.965-.965v-3.164c0-.531.43-.965.965-.965h8.949c.531 0 .965.434.965.965v3.164c0 .535-.43.965-.965.965z" clip-rule="evenodd"/><path fill="#909090" fill-opacity=".7" fill-rule="evenodd" d="M120.128 122.113a.963.963 0 0 1-.964-.965v-3.91a.964.964 0 1 1 1.929 0v3.91a.964.964 0 0 1-.965.965zm4.883 0a.964.964 0 0 1-.965-.965v-3.91a.965.965 0 1 1 1.93 0v3.91a.967.967 0 0 1-.965.965zm-15.19-74.039h-7.758a.965.965 0 1 1 0-1.93h7.758c.531 0 .965.434.965.965a.967.967 0 0 1-.965.965zM99.344 75.84a.964.964 0 0 1-.965-.965V49.828a.964.964 0 1 1 1.93 0v25.047c0 .532-.43.965-.965.965zm0 30.488a.967.967 0 0 1-.965-.965V80.316a.964.964 0 1 1 1.93 0v25.047c0 .532-.43.965-.965.965zm10.477 2.719h-7.758a.965.965 0 1 1 0-1.93h7.758c.531 0 .965.434.965.965a.968.968 0 0 1-.965.965zM96.62 78.562h-7.757a.964.964 0 1 1 0-1.93h7.758a.964.964 0 1 1 0 1.93zm13.2 0h-7.758a.965.965 0 1 1 0-1.93h7.758c.531 0 .964.434.964.965a.966.966 0 0 1-.964.965z" clip-rule="evenodd"/><path fill="#909090" fill-opacity=".7" fill-rule="evenodd" d="M99.34 45.355a1.76 1.76 0 0 0-1.758 1.758 1.758 1.758 0 1 0 1.758-1.758zm0 5.442a3.688 3.688 0 0 1-3.684-3.684 3.688 3.688 0 0 1 3.683-3.684 3.687 3.687 0 0 1 3.684 3.684 3.687 3.687 0 0 1-3.684 3.684zm0 25.046a1.76 1.76 0 0 0-1.758 1.758 1.758 1.758 0 1 0 1.758-1.758zm0 5.442a3.688 3.688 0 0 1-3.684-3.684 3.688 3.688 0 0 1 3.683-3.684 3.687 3.687 0 0 1 3.684 3.684 3.687 3.687 0 0 1-3.684 3.684zm0 25.042a1.758 1.758 0 1 0 0 3.516 1.758 1.758 0 0 0 0-3.516zm0 5.442a3.688 3.688 0 0 1-3.684-3.684 3.688 3.688 0 0 1 3.683-3.684 3.688 3.688 0 0 1 3.684 3.684 3.688 3.688 0 0 1-3.684 3.684z" clip-rule="evenodd"/><path fill="#909090" fill-opacity=".7" d="M198.656 63.905h8.995a1.546 1.546 0 0 0 0-3.09h-8.995a6.924 6.924 0 0 0-5.193-5.178V42.546a1.545 1.545 0 0 0-3.091 0v13.09a6.893 6.893 0 0 0 0 13.447v21.375a6.893 6.893 0 0 0 0 13.447v12.828a1.549 1.549 0 0 0 1.545 1.546 1.546 1.546 0 0 0 1.546-1.546v-12.782a6.918 6.918 0 0 0 5.193-5.178h8.995a1.546 1.546 0 1 0 0-3.09h-8.995a6.926 6.926 0 0 0-5.193-5.225V69.083a6.925 6.925 0 0 0 5.193-5.178zm-2.906 33.323a3.82 3.82 0 0 1-3.802 3.817 3.818 3.818 0 0 1 0-7.635 3.82 3.82 0 0 1 3.802 3.818zm-3.817-31.05a3.817 3.817 0 1 1 1.455-.282c-.467.19-.967.285-1.471.281h.016zm54.976-19.243h-29.366a3.09 3.09 0 0 0-3.091 3.091v17.372a3.09 3.09 0 0 0 3.091 3.091h13.138v1.546c-3.663.37-6.183 2.056-6.183 4.266a1.545 1.545 0 0 0 3.091 0c.171-.387 1.778-1.33 4.637-1.33a6.661 6.661 0 0 1 4.637 1.252 1.545 1.545 0 0 0 3.091 0c0-2.21-2.519-3.894-6.182-4.265v-1.546h13.137A3.092 3.092 0 0 0 250 67.321V50.026a3.09 3.09 0 0 0-3.091-3.091zm-14.606 20.463h-14.682V50.026h29.288v17.372h-14.606z"/><path fill="#909090" fill-opacity=".7" d="M233.709 62.932h-2.828a1.546 1.546 0 0 0 0 3.09h2.828a1.546 1.546 0 0 0 0-3.09zm13.2 18.887h-29.366a3.09 3.09 0 0 0-3.091 3.091v17.356a3.091 3.091 0 0 0 3.091 3.092h13.138v1.545c-3.663.371-6.183 2.056-6.183 4.281a1.546 1.546 0 0 0 3.091 0c.171-.371 1.778-1.329 4.637-1.329a6.636 6.636 0 0 1 4.637 1.267 1.544 1.544 0 0 0 2.638 1.093c.29-.289.453-.683.453-1.093 0-2.225-2.519-3.91-6.182-4.281v-1.545h13.137a3.091 3.091 0 0 0 3.091-3.091V84.91a3.09 3.09 0 0 0-3.091-3.091zm-14.606 20.447h-14.682V84.91h29.288v17.356h-14.606z"/><path fill="#909090" fill-opacity=".7" d="M233.709 97.8h-2.828a1.546 1.546 0 1 0 0 3.091h2.828a1.546 1.546 0 0 0 0-3.091z"/></g><defs><clipPath id="a"><path fill="#fff" d="M0 0h338v162H0z"/></clipPath></defs></svg>