<svg xmlns="http://www.w3.org/2000/svg" width="338" height="162" fill="none"><g clip-path="url(#a)"><path stroke="#313131" stroke-miterlimit="10" stroke-width=".8" d="M-16.868 141.256H155.01m29.634-29.634h130.391m-331.903-31.61h222.75m-225.713 31.61h222.75m0-31.61h151.628m-58.281-72.11v144.22M264.656 35.56v118.043M222.181 7.408v104.214M-14.892 44.45h338.817M111.547 13.83v96.804m42.475-66.184v96.806M23.632 0v153.11M67.096 45.438v103.72"/><path fill="#4D4D4F" d="M67.096 83.47a3.458 3.458 0 1 0 0-6.915 3.458 3.458 0 0 0 0 6.915zM23.652 47.908a3.457 3.457 0 1 0 0-6.913 3.457 3.457 0 0 0 0 6.913zm-.514 96.312a3.458 3.458 0 1 0 0-6.915 3.458 3.458 0 0 0 0 6.915zm273.128-96.312a3.457 3.457 0 1 0 .002-6.914 3.457 3.457 0 0 0-.002 6.914zM264.657 83.47a3.458 3.458 0 1 0-.001-6.915 3.458 3.458 0 0 0 .001 6.915z" opacity=".7"/><path fill="#909090" d="m65.204 53.198 16.622-5.541 1.835 14.788 7.375 25.87 12.167 12.167-1.085 2.621h-9.397s-2.696 11.081-12.767 11.081c-9.771 0-11.755-7.6-11.755-7.6l-3.782-.861-.674-4.342-7.787-3.857-3.706-11.081 3.706-11.082V64.279l9.248-11.081z" opacity=".1"/><path fill="#909090" fill-rule="evenodd" d="M70.85 102.466a.53.53 0 0 1 .531-.53h29.726a.53.53 0 1 1 0 1.061H71.381a.53.53 0 0 1-.53-.531zm-8.436-46.062a.53.53 0 0 1 .107.743l-5.435 7.271v10.456a.53.53 0 0 1-.038.198l-4.195 10.414L57 97.858l6.214 4.167a.532.532 0 0 1-.59.882l-6.365-4.268a.53.53 0 0 1-.208-.272l-4.268-12.73a.53.53 0 0 1 .011-.366l4.23-10.5v-10.53a.53.53 0 0 1 .105-.317l5.541-7.413a.53.53 0 0 1 .743-.107zM99.5 45.09a.53.53 0 0 1-.469.586L82.136 47.54l-12.931 4.732a.53.53 0 1 1-.365-.996l12.991-4.755a.53.53 0 0 1 .124-.03l16.96-1.871a.53.53 0 0 1 .585.47zm7.46.964a.53.53 0 0 1 .654-.369l19.093 5.317a.533.533 0 0 1 .233.136l8.498 8.498a.529.529 0 0 1 .152.316l2.134 19.094a.532.532 0 0 1-.052.296l-3.669 7.338a.534.534 0 0 1-.279.256l-9.247 3.669a.533.533 0 0 1-.231.036l-5.736-.382-2.026 8.068a.53.53 0 0 1-.219.312l-6.364 4.268a.532.532 0 0 1-.591-.882l6.195-4.154 2.084-8.3a.53.53 0 0 1 .55-.4l6.058.403 8.947-3.55 3.508-7.016-2.096-18.753-8.268-8.269-18.959-5.278a.53.53 0 0 1-.369-.654z" clip-rule="evenodd"/><path fill="#909090" fill-rule="evenodd" d="M108.022 69.083a.53.53 0 0 1 .711.24l9.847 19.88a.531.531 0 0 1-.951.47l-9.847-19.88a.531.531 0 0 1 .24-.71z" clip-rule="evenodd"/><path fill="#909090" fill-rule="evenodd" d="M122.502 76.467a.53.53 0 0 1 .336.671l-4.23 12.729a.531.531 0 0 1-1.008-.335l4.231-12.729a.53.53 0 0 1 .671-.336zm5.956.031a.53.53 0 0 1 .713.232l4.83 9.471a.53.53 0 0 1-.945.483l-4.83-9.472a.53.53 0 0 1 .232-.714zm7.081-16.722a.53.53 0 0 1-.24.71l-4.23 2.097a.53.53 0 0 1-.472-.95l4.231-2.097a.53.53 0 0 1 .711.24zm-26.464 6.6a.53.53 0 0 1 .53-.53h6.365a.53.53 0 0 1 0 1.06h-6.365a.53.53 0 0 1-.53-.53zm-5.921-17.521a.53.53 0 0 1 .61.438l2.097 12.729a.53.53 0 0 1-1.047.172l-2.097-12.729a.53.53 0 0 1 .437-.61zm-2.726-1.167a.53.53 0 0 1 .011.75l-7.45 7.675a.53.53 0 0 1-.761-.74l7.45-7.674a.53.53 0 0 1 .75-.011zm-18.577-1.173a.53.53 0 0 1 .668.343l2.134 6.626a.53.53 0 0 1-1.01.325l-2.134-6.626a.53.53 0 0 1 .342-.668zm45.159 4.709a.532.532 0 0 1-.156.734l-18.008 11.68a.53.53 0 0 1-.578-.89l18.008-11.68a.53.53 0 0 1 .734.156z" clip-rule="evenodd"/><path fill="#909090" fill-rule="evenodd" d="M105.337 62.676a3.7 3.7 0 1 0 0 7.4 3.7 3.7 0 0 0 0-7.4zm-4.761 3.7a4.761 4.761 0 1 1 9.523 0 4.761 4.761 0 0 1-9.523 0zm4.761 32.39a3.7 3.7 0 1 0 0 7.4 3.7 3.7 0 0 0 0-7.4zm-4.761 3.7a4.761 4.761 0 1 1 9.523 0 4.761 4.761 0 0 1-9.523 0zm2.665-61.018a3.7 3.7 0 1 0 0 7.4 3.7 3.7 0 0 0 0-7.4zm-4.761 3.7a4.761 4.761 0 1 1 9.523 0 4.761 4.761 0 0 1-9.523 0zM67.15 98.766a3.7 3.7 0 1 0 0 7.4 3.7 3.7 0 0 0 0-7.4zm-4.76 3.7a4.761 4.761 0 1 1 9.521 0 4.761 4.761 0 0 1-9.522 0zm8.991-29.196a3.7 3.7 0 1 0 0 7.4 3.7 3.7 0 0 0 0-7.4zm-4.76 3.7a4.761 4.761 0 1 1 9.521 0 4.761 4.761 0 0 1-9.522 0z" clip-rule="evenodd"/><path fill="#909090" fill-rule="evenodd" d="M96.502 93.591a.53.53 0 0 1 .75.003l5.28 5.316a.531.531 0 0 1-.753.748l-5.28-5.316a.53.53 0 0 1 .003-.75zm6.166-24.519c.268.118.39.43.273.7L97.362 82.5a.53.53 0 1 1-.971-.426l5.578-12.729a.53.53 0 0 1 .699-.273zm-15.405 1.27a.53.53 0 0 1 .593.46l1.048 8.236a.53.53 0 1 1-1.053.134l-1.048-8.237a.53.53 0 0 1 .46-.593zm6.977-7.317a.53.53 0 0 1 .67-.334l6.365 2.133a.53.53 0 1 1-.337 1.007l-6.365-2.134a.53.53 0 0 1-.334-.672zm11.097 7.051a.53.53 0 0 1 .531.53v27.592a.53.53 0 0 1-1.061 0V70.606a.53.53 0 0 1 .53-.53zm-12.729 31.86a.53.53 0 0 1 .53.53c0 3.253-1.737 6.044-4.236 8.004-2.498 1.958-5.795 3.122-9.023 3.122a.531.531 0 0 1 0-1.061c2.987 0 6.054-1.083 8.368-2.896 2.311-1.813 3.83-4.32 3.83-7.169a.53.53 0 0 1 .531-.53z" clip-rule="evenodd"/><path fill="#909090" fill-rule="evenodd" d="M69.283 106.604a.53.53 0 0 0-1.053.093h.53l-.53.001v.024a.525.525 0 0 0 .009.077.882.882 0 0 0 .027.112c.025.078.064.172.125.285.122.226.343.556.749 1.04l.004.005c2.615 3.038 6.308 5.351 10.735 5.351a.531.531 0 0 0 0-1.061c-4.032 0-7.452-2.104-9.928-4.98-.379-.45-.55-.719-.625-.858a1.188 1.188 0 0 1-.038-.075l-.005-.014zm14.25-13.93a.53.53 0 0 1-.226.716l-12.729 6.627a.531.531 0 0 1-.49-.942l12.729-6.626a.53.53 0 0 1 .716.225zM75.02 78.198a.53.53 0 0 1 .75.015l6.626 6.888a.53.53 0 1 1-.765.736l-6.626-6.889a.53.53 0 0 1 .014-.75zm-6.225-23.445a.53.53 0 0 1 .693-.286l9.547 3.968a.53.53 0 0 1-.407.98l-9.547-3.968a.53.53 0 0 1-.286-.694zm11.51 13.439a.53.53 0 0 1-.108.743l-6.364 4.754a.53.53 0 0 1-.635-.85l6.364-4.754a.53.53 0 0 1 .743.107zM69.597 80.286a.53.53 0 0 1 .117.74L56.983 98.51a.53.53 0 1 1-.857-.624l12.729-17.484a.53.53 0 0 1 .74-.116zm-1.938-2.811a.53.53 0 0 1-.226.715l-14.9 7.75a.53.53 0 0 1-.49-.942l14.9-7.75a.53.53 0 0 1 .716.227zM56.137 63.916a.53.53 0 0 1 .745-.093l11.905 9.285a.53.53 0 1 1-.652.837L56.229 64.66a.53.53 0 0 1-.092-.744z" clip-rule="evenodd"/><path fill="#909090" fill-rule="evenodd" d="M124.469 66.932a1.577 1.577 0 1 0-.001 3.155 1.577 1.577 0 0 0 .001-3.155zm-6.884 1.578a6.884 6.884 0 1 1 13.768 0 6.884 6.884 0 0 1-13.768 0zM90.512 86.026a1.577 1.577 0 1 0 0 3.155 1.577 1.577 0 0 0 0-3.155zm-6.884 1.577a6.884 6.884 0 1 1 13.768 0 6.884 6.884 0 0 1-13.768 0z" clip-rule="evenodd" opacity=".4"/><path fill="#909090" fill-rule="evenodd" d="M65.016 49.947a3.7 3.7 0 1 0 0 7.4 3.7 3.7 0 0 0 0-7.4zm-4.76 3.7a4.761 4.761 0 1 1 9.522 0 4.761 4.761 0 0 1-9.523 0z" clip-rule="evenodd"/><path fill="#909090" fill-rule="evenodd" d="M86.244 60.53a1.577 1.577 0 1 0 0 3.155 1.577 1.577 0 0 0 0-3.155zm-6.884 1.578a6.884 6.884 0 1 1 13.767 0 6.884 6.884 0 0 1-13.767 0z" clip-rule="evenodd" opacity=".4"/><path fill="#909090" fill-opacity=".8" d="m226.814 42.95 24.602 9.807-49.205 20.914-24.603-11.064 49.206-19.657z" opacity=".1"/><path fill="#909090" fill-opacity=".8" fill-rule="evenodd" d="m198.973 96.265 1.529-3.358 26.312 11.975 26.311-11.975 1.529 3.358-27.84 12.671-27.841-12.67z" clip-rule="evenodd" opacity=".1"/><path fill="#909090" fill-opacity=".8" fill-rule="evenodd" d="m198.973 88.889 1.529-3.359 26.312 11.976 26.311-11.976 1.529 3.359-27.84 12.671-27.841-12.671z" clip-rule="evenodd" opacity=".1"/><path fill="#909090" fill-opacity=".8" fill-rule="evenodd" d="M226.716 42.38a.614.614 0 0 1 .456 0l49.076 19.656a.614.614 0 0 1 .024 1.132l-49.076 22.13a.614.614 0 0 1-.504 0l-49.336-22.13a.616.616 0 0 1 .024-1.132l49.336-19.657zm-47.531 20.26 47.758 21.422 47.506-21.422-47.506-19.027-47.758 19.028z" clip-rule="evenodd"/><path fill="#909090" fill-opacity=".8" fill-rule="evenodd" d="M199.404 79.317a.615.615 0 0 1 .587-.044l26.952 12.165 26.692-12.165a.616.616 0 0 1 .87.56v22.13c0 .24-.141.459-.359.559L227.2 114.845a.617.617 0 0 1-.51.001l-27.206-12.323a.615.615 0 0 1-.361-.56v-22.13c0-.209.106-.403.281-.516zm.949 1.468v20.781l26.59 12.044 26.332-12.042V80.789l-26.076 11.883a.615.615 0 0 1-.508.001l-26.338-11.888z" clip-rule="evenodd"/><path fill="#909090" fill-opacity=".8" d="M271.723 64.473v19.96l-6.161 3.08V67.206l6.161-2.733z" opacity=".4"/></g><defs><clipPath id="a"><path fill="#fff" d="M0 0h338v162H0z"/></clipPath></defs></svg>