<svg xmlns="http://www.w3.org/2000/svg" width="312" height="150" fill="none"><path fill="#fff" stroke="#F4F4F5" stroke-miterlimit="10" stroke-width=".988" d="M306.329 118.634c0-12.002-9.729-21.731-21.731-21.731-12.002 0-21.732 9.729-21.732 21.731 0 12.002 9.73 21.732 21.732 21.732 12.002 0 21.731-9.73 21.731-21.732z"/><path fill="url(#a)" d="M157.622 95.592c0 3.242-3.089 6-6.5 6l-27.212-.004v-.023h-17.932c-.257 0-.513.008-.767.023h-.37v.027c-6.289.545-11.215 5.571-11.215 11.691v6.224h.01c-.158 3.108-2.86 5.582-6.169 5.582H38.14v5.87h49.327c6.822 0 12.352-5.256 12.352-11.74l.001-6.223h-.01c.148-2.938 2.568-5.309 5.626-5.56l45.686.133c6.822 0 12.5-5.517 12.5-12v-6h-6v6z"/><path fill="url(#b)" d="M195.702 40.84c-.158-3.121-2.868-5.604-6.188-5.604h-18.971v-.105h-.487c-3.421 0-6.195 2.638-6.195 5.893l-.239 52.568h-6l.044-52.568c0-6.509 5.547-11.786 12.39-11.786h15.036v.105h4.422c6.843 0 12.39 5.276 12.39 11.786l.001 6.247h-.01c.158 3.12 2.868 5.604 6.187 5.604h16.985v-.022h15.036c3.421 0 6.194-2.638 6.194-5.893v-6.247h6.197l-.001 6.247c0 6.509-5.548 11.786-12.39 11.786H226.07v.021h-17.988c-6.842 0-12.39-5.276-12.39-11.785l-.001-6.247h.011z"/><path fill="url(#c)" d="M71.976 60.156c0 3.242 2.765 5.87 6.176 5.87h25.352v-.022h17.933c.257 0 .513.008.766.022h.371v.027c6.288.545 11.214 5.572 11.214 11.691l.001 6.224h-.01c.158 3.108 2.859 5.582 6.168 5.582l23.675.042v6l-23.675-.172c-6.821 0-12.351-5.256-12.351-11.74l-.001-6.223h.011c-.149-2.937-2.569-5.308-5.628-5.561H78.152c-6.822 0-12.352-5.256-12.352-11.74l-.001-6.223h6.177v6.223z"/><path fill="url(#d)" d="M280.895 90.249c0-3.209-2.762-5.811-6.169-5.811l-113.104-.846v-6l113.104 1.036c6.814 0 12.34 5.203 12.34 11.621l.001 6.159-6.172.001v-6.16z"/><path fill="#fff" stroke="#F4F4F5" stroke-miterlimit="10" stroke-width=".988" d="M91.975 34.177c0-12.275-9.951-22.226-22.225-22.226-12.275 0-22.226 9.951-22.226 22.226 0 12.275 9.95 22.225 22.226 22.225 12.274 0 22.225-9.95 22.225-22.225zm176.818-6.421C268.793 16.845 259.948 8 249.037 8s-19.756 8.845-19.756 19.756 8.845 19.756 19.756 19.756 19.756-8.845 19.756-19.756zM47.524 125.055c0-10.638-8.624-19.262-19.262-19.262S9 114.417 9 125.055c0 10.639 8.624 19.263 19.262 19.263s19.262-8.624 19.262-19.263z"/><path stroke="#18181B" stroke-linecap="round" stroke-linejoin="round" stroke-width=".6" d="M69.162 42.235V27.663m-5.468.673a2.986 2.986 0 0 1-.2-1.016 2.84 2.84 0 0 1 2.834-2.835c1.56 0 2.834 1.26 2.834 2.835 0 1.102-.63 2.06-1.56 2.519m1.56 12.581a2.84 2.84 0 0 1-2.834 2.835 2.85 2.85 0 0 1-2.834-2.834c0-.33.043-.644.171-.945m-.243 1.331c-.1.015-.2.015-.315.015a2.84 2.84 0 0 1-2.834-2.835c0-.773.315-1.46.801-1.975m.058-6.355a3.325 3.325 0 0 1-.472-1.718 3.332 3.332 0 0 1 2.834-3.306"/><path stroke="#18181B" stroke-linecap="round" stroke-linejoin="round" stroke-width=".6" d="M62.75 39.114a4.413 4.413 0 0 1-1.647-1.088c-.787-.83-1.288-1.932-1.288-3.163a4.485 4.485 0 0 1 2.59-4.08m2.492 4.252c0-1.188.959-2.147 2.147-2.147 1.188 0 2.147.959 2.147 2.147M64.61 30.77c1.188 0 2.147.958 2.147 2.146m0 3.493a2.43 2.43 0 0 1-1.517.515c-.701 0-1.36-.3-1.818-.787m5.74 2.118a2.47 2.47 0 0 1-.701 1.432 2.426 2.426 0 0 1-1.833.73m-1.46-3.436a2.437 2.437 0 0 1-1.13 1.904m5.124-15.702v-.63m0 24.677v-.63m7.258-19.681a1.217 1.217 0 1 0 0-2.434 1.217 1.217 0 0 0 0 2.434zm3.792 3.421a1.217 1.217 0 1 0 0-2.434 1.217 1.217 0 0 0 0 2.434zm0 5.768a1.217 1.217 0 1 0 0-2.433 1.217 1.217 0 0 0 0 2.433zm-10.864-5.854h3.207l3.005-3.636"/><path stroke="#18181B" stroke-linecap="round" stroke-linejoin="round" stroke-width=".6" d="M73.857 32.702h1.073l2.548-3.507h1.503m-6.197 3.507h-1.16m-1.116 0h-1.16m3.436 2.19h-1.16m-1.116 0h-1.16m4.509 0h5.124M76.42 45.298a1.217 1.217 0 1 0 0-2.434 1.217 1.217 0 0 0 0 2.434zm3.792-3.421a1.217 1.217 0 1 0 0-2.434 1.217 1.217 0 0 0 0 2.434z"/><path stroke="#18181B" stroke-linecap="round" stroke-linejoin="round" stroke-width=".6" d="M69.348 39.53h3.207l3.005 3.635m-1.703-6.083h1.073l2.548 3.507h1.503m-6.197-3.507h-1.16m-1.116 0h-1.16m-.186-13.055v21.728"/><path fill="#18181B" d="M253.835 21.976h-1.375c-.584-1.454-1.613-2.732-2.553-3.394-2.95-2.078-7.09-1.9-9.631.413a7.768 7.768 0 0 0-2.361 4.598h-.074a.72.72 0 0 0-.719.72v1.078a.717.717 0 0 0 .719.718h.153c.234 1.197.702 2.31 1.163 3.396.499 1.177 1.016 2.394 1.198 3.675a9.52 9.52 0 0 1 .054 2.08.362.362 0 0 0 .331.387.359.359 0 0 0 .386-.33c.062-.747.042-1.497-.059-2.239-.196-1.374-.731-2.634-1.249-3.854-.444-1.047-.869-2.055-1.093-3.115h3.98a1.35 1.35 0 0 1-.012-.18v-.538h-4.852v-1.079h4.852v-.539c0-.06.004-.12.012-.18h-4.064a7.018 7.018 0 0 1 2.119-4.067c2.298-2.092 6.053-2.245 8.733-.356.803.566 1.653 1.617 2.186 2.806h-.361a.36.36 0 0 0-.359.36v1.258h-4.325c.008.059.012.119.012.18v.538h4.313v1.078h-4.313v.54c0 .06-.004.12-.012.18h4.325v1.257c0 .199.161.36.359.36h1.881l.413.671a.52.52 0 0 1 .013.365.581.581 0 0 1-.397.233.612.612 0 0 0-.454.75l.231.78-.387.165a.49.49 0 0 0-.131.748l.339.354-.091.285c-.104.4-.121.817-.051 1.224l.066.358a.632.632 0 0 1-.227.615c-.207.148-.627.32-1.457.3-1.467-.035-2.614.7-3.142 2.02h-.001a6.668 6.668 0 0 0-.368 2.076.36.36 0 0 0 .341.377.37.37 0 0 0 .377-.342c.009-.627.116-1.25.318-1.844.561-1.403 1.778-1.586 2.458-1.568.821.02 1.461-.126 1.893-.434a1.342 1.342 0 0 0 .515-1.326l-.065-.358c-.05-.292-.04-.59.028-.879l.131-.409a.501.501 0 0 0-.097-.478l-.2-.21.217-.092a.538.538 0 0 0 .287-.574l-.258-.867a1.094 1.094 0 0 0 .738-1.622l-.207-.337a1.078 1.078 0 0 0 .882-1.06v-3.594a1.084 1.084 0 0 0-1.079-1.078h.001zm.359 4.672a.36.36 0 0 1-.359.36h-2.157v-4.313h2.157a.36.36 0 0 1 .359.36v3.593z"/><path fill="#18181B" d="M245.208 23.06h-1.078a.719.719 0 0 0-.719.718v2.156a.718.718 0 0 0 .719.72h1.078a.719.719 0 0 0 .719-.72v-2.156a.718.718 0 0 0-.719-.719zm-1.078 2.874v-2.156h1.078l.001 2.156h-1.079zm13.119 9.579V20.67l2.796-3.496a.359.359 0 0 0-.561-.45l-2.796 3.497a.714.714 0 0 0-.158.449v14.843a.72.72 0 0 0 .157.45l2.797 3.495a.36.36 0 0 0 .561-.449l-2.796-3.496z"/><path fill="#18181B" d="M259.045 30.786v-5.39a.359.359 0 1 0-.718 0v5.39a.36.36 0 1 0 .718 0zm-.819 3.819.719.898a.36.36 0 0 0 .561-.449l-.719-.898a.36.36 0 0 0-.561.449zm1.224-14.163a.358.358 0 0 0-.505.056l-.719.899a.36.36 0 0 0 .056.505c.156.121.38.097.505-.056l.719-.899a.359.359 0 0 0-.056-.505zm-15.859 12.501a.36.36 0 0 0-.36.359v1.977a.36.36 0 0 0 .719 0v-1.977a.36.36 0 0 0-.359-.36zM28.605 138.942c-1.318 0-1.584-.65-1.584-1.699v-.791c-1.965-.282-3.474-1.21-4.412-1.961-.553-.429-.835-.956-.835-1.562 0-.831.798-1.845 1.73-1.845.675 0 1.043.27 1.472.583l.054.04c.367.281 1.186.756 1.993 1.051v-5.388c-2.608-.769-5.187-2.103-5.187-5.837 0-2.923 2.071-5.248 5.188-5.867v-.632c0-.775.28-1.7 1.611-1.7 1.051 0 1.584.572 1.584 1.7v.585c2.022.288 3.349 1.211 4.117 1.954.324.325.692.775.692 1.424 0 1.007-1.04 1.991-1.817 1.991-.675 0-.95-.25-1.45-.703l-.13-.118a4.12 4.12 0 0 0-1.413-.798v4.992c2.537.837 5.334 2.305 5.334 6.032 0 3.144-2.224 5.645-5.334 6.064v.786c0 1.506-.863 1.699-1.613 1.699zm-5.098-7.141c-.538 0-1.007.703-1.007 1.128 0 .242.058.608.56.999.918.733 2.414 1.646 4.364 1.85a.358.358 0 0 1 .322.357v1.108c0 .844.122.982.866.982.719 0 .894-.193.894-.982v-1.108a.358.358 0 0 1 .328-.357c1.402-.12 2.674-.72 3.583-1.688.91-.968 1.422-2.289 1.422-3.697 0-2.677-1.52-4.3-5.083-5.425a.355.355 0 0 1-.25-.341v-5.717a.364.364 0 0 1 .128-.275.362.362 0 0 1 .293-.078c1.085.193 1.89.815 2.184 1.074l.136.122c.48.436.583.517.969.517s1.099-.674 1.099-1.273c0-.31-.139-.573-.478-.912-.724-.698-2.01-1.583-4.01-1.791a.362.362 0 0 1-.327-.354v-.906c0-.826-.305-.982-.866-.982-.66 0-.894.257-.894.982v.93a.357.357 0 0 1-.303.354c-2.922.465-4.882 2.562-4.882 5.212 0 1.522.465 2.681 1.426 3.544.775.698 1.854 1.215 3.5 1.678a.357.357 0 0 1 .258.348v6.149a.356.356 0 0 1-.141.286.37.37 0 0 1-.15.067.376.376 0 0 1-.163-.006c-1.04-.284-2.198-.94-2.688-1.318l-.05-.036c-.388-.282-.603-.441-1.04-.441zm6.355 1.808a.36.36 0 0 1-.358-.359v-5.334a.355.355 0 0 1 .16-.299.366.366 0 0 1 .338-.031c.753.32 1.257.637 1.634 1.029.492.51.742 1.148.742 1.895 0 1.605-.937 2.79-2.445 3.092a.372.372 0 0 1-.075.008l.004-.001zm.36-5.128v4.294c.909-.348 1.438-1.167 1.438-2.265-.004-.889-.428-1.5-1.443-2.029h.004zm-2.84-4.344a.372.372 0 0 1-.119-.02c-.94-.331-2.193-.968-2.193-2.67 0-1.488.88-2.621 2.243-2.888a.36.36 0 0 1 .393.199c.023.048.034.1.034.153v4.868a.357.357 0 0 1-.358.358zm-.359-4.743c-.653.281-1.234.925-1.234 2.052 0 .834.375 1.391 1.234 1.799v-3.851z"/><path fill="#18181B" d="M23.963 120.202a.226.226 0 0 1-.109-.025.22.22 0 0 1-.084-.072.228.228 0 0 1-.03-.213c.815-2.43 3.31-2.75 3.416-2.762a.232.232 0 0 1 .054.461c-.094.012-2.311.303-3.031 2.449a.234.234 0 0 1-.216.162zm3.408 5.675a.207.207 0 0 1-.05-.005c-2.904-.636-3.413-2.537-3.434-2.618a.233.233 0 0 1 .45-.114c.02.071.477 1.705 3.084 2.279a.234.234 0 0 1 .178.252.231.231 0 0 1-.074.146.23.23 0 0 1-.153.061v-.001zm2.91 8.775a.228.228 0 0 1-.168-.059.23.23 0 0 1-.02-.328.231.231 0 0 1 .161-.078c.094-.012 2.311-.303 3.031-2.449a.232.232 0 0 1 .379-.11.227.227 0 0 1 .077.166.232.232 0 0 1-.016.092c-.815 2.43-3.31 2.75-3.416 2.762l-.028.004zm3.075-5.833a.235.235 0 0 1-.225-.175c-.019-.07-.477-1.705-3.084-2.279a.234.234 0 0 1-.153-.366.235.235 0 0 1 .252-.088c2.905.637 3.414 2.538 3.434 2.618a.234.234 0 0 1-.123.266.24.24 0 0 1-.102.024zm.274 1.81a.388.388 0 1 0 0-.777.388.388 0 0 0 0 .777zm-9.788-8.658a.388.388 0 1 0 .001-.775.388.388 0 0 0-.001.775z"/><g fill="#18181B" clip-path="url(#e)"><path d="m287.088 110.461.849 2.115-.486.952-3.095 6.591a.359.359 0 0 0 .175.48.36.36 0 0 0 .48-.174l3.091-6.579.492-.964 2.037-.778a.36.36 0 0 0 .198-.184l2.515-5.372a.36.36 0 0 0-.398-.509l-1.851.37-.834-1.619a.364.364 0 0 0-.33-.196.36.36 0 0 0-.321.21l-2.515 5.372a.367.367 0 0 0-.012.278c0 .003.003.007.005.01v-.003zm2.866-4.686.62 1.207a.36.36 0 0 0 .394.189l1.414-.283-2.149 4.592-1.698.648-.718-1.792 2.135-4.563.002.002z"/><path d="M296.351 115.784a12.41 12.41 0 0 0-3.502-5.087l-.448.57a11.71 11.71 0 0 1 3.269 4.769c2.244 6.093-.889 12.875-6.982 15.116-6.093 2.244-12.875-.888-15.116-6.981-2.242-6.094.888-12.875 6.982-15.119a11.696 11.696 0 0 1 5.631-.618l.13-.714a12.398 12.398 0 0 0-6.014.65c-6.465 2.384-9.789 9.582-7.408 16.05 2.381 6.468 9.579 9.792 16.047 7.411 6.468-2.38 9.792-9.579 7.411-16.047z"/><path d="M285.751 111.687a8.308 8.308 0 0 0-3.76.467c-4.33 1.593-6.555 6.414-4.961 10.744 1.593 4.33 6.413 6.555 10.744 4.962 4.33-1.594 6.555-6.414 4.961-10.744a8.318 8.318 0 0 0-2.218-3.291l-.448.573a7.585 7.585 0 0 1 1.985 2.97c1.457 3.955-.577 8.356-4.533 9.813-3.955 1.456-8.356-.578-9.813-4.533-1.456-3.955.578-8.356 4.533-9.813a7.611 7.611 0 0 1 3.38-.434l.13-.714z"/><path d="M283.592 116.644a3.539 3.539 0 0 1 1.292-.217l.132-.723a4.336 4.336 0 0 0-1.676.261 4.33 4.33 0 0 0-2.565 5.554 4.33 4.33 0 0 0 5.554 2.564 4.329 4.329 0 0 0 1.652-7.026l-.455.579c.29.328.528.71.689 1.144a3.604 3.604 0 0 1-2.136 4.624 3.606 3.606 0 0 1-4.625-2.135 3.605 3.605 0 0 1 2.136-4.625h.002z"/></g><defs><linearGradient id="a" x1="163.622" x2="101.324" y1="102.507" y2="173.507" gradientUnits="userSpaceOnUse"><stop stop-color="#F4F4F5"/><stop offset="1" stop-color="#F4F4F5" stop-opacity=".116"/></linearGradient><linearGradient id="b" x1="157.622" x2="248.606" y1="67.67" y2="41.595" gradientUnits="userSpaceOnUse"><stop stop-color="#F4F4F5"/><stop offset="1" stop-color="#F4F4F5" stop-opacity=".116"/></linearGradient><linearGradient id="c" x1="163.622" x2="99.623" y1="82.348" y2="27.622" gradientUnits="userSpaceOnUse"><stop stop-color="#F4F4F5"/><stop offset="1" stop-color="#F4F4F5" stop-opacity=".116"/></linearGradient><linearGradient id="d" x1="161.622" x2="168.93" y1="79.757" y2="117.262" gradientUnits="userSpaceOnUse"><stop stop-color="#F4F4F5"/><stop offset="1" stop-color="#F4F4F5" stop-opacity=".116"/></linearGradient><clipPath id="e"><path fill="#fff" d="M272.122 104.592h25v28.01h-25z"/></clipPath></defs></svg>