<svg width="1780" height="1001" viewBox="0 0 1780 1001" fill="none" xmlns="http://www.w3.org/2000/svg">
<path d="M1780 0H0V1001H1780V0Z" fill="#0A0046"/>
<path d="M140.062 887.055L115.506 921.714H135.384L159.938 887.055H140.062Z" fill="white"/>
<path d="M60.5553 887.055L36 921.714H55.8765L80.4318 887.055H60.5553Z" fill="white"/>
<path d="M100.308 887.055L75.7529 921.714H95.6294L120.185 887.055H100.308Z" fill="white"/>
<path d="M179.815 887.055L155.26 921.714H175.136L199.692 887.055H179.815Z" fill="white"/>
<path d="M299.074 887.055L274.519 921.714H294.396L318.951 887.055H299.074Z" fill="white"/>
<path d="M259.321 887.055L234.766 921.714H254.642L279.197 887.055H259.321Z" fill="white"/>
<path d="M219.568 887.055L195.013 921.714H214.889L239.444 887.055H219.568Z" fill="white"/>
<path d="M184.493 865.59L159.938 900.247H179.815L204.37 865.59H184.493Z" fill="#3ED160"/>
<path d="M104.987 865.59L80.4316 900.247H100.308L124.863 865.59H104.987Z" fill="#3ED160"/>
<path d="M144.74 865.59L120.185 900.247H140.061L164.616 865.59H144.74Z" fill="#3ED160"/>
<path d="M224.246 865.59L199.691 900.247H219.568L244.123 865.59H224.246Z" fill="#3ED160"/>
<path d="M343.506 865.59L318.951 900.247H338.827L363.382 865.59H343.506Z" fill="#3ED160"/>
<path d="M303.753 865.59L279.197 900.247H299.074L323.629 865.59H303.753Z" fill="#3ED160"/>
<path d="M264 865.59L239.444 900.247H259.321L283.876 865.59H264Z" fill="#3ED160"/>
<path d="M1517.06 142.463L1492.51 177.122H1512.38L1536.94 142.463H1517.06Z" fill="white"/>
<path d="M1437.56 142.463L1413 177.122H1432.88L1457.43 142.463H1437.56Z" fill="white"/>
<path d="M1477.31 142.463L1452.75 177.122H1472.63L1497.18 142.463H1477.31Z" fill="white"/>
<path d="M1556.82 142.463L1532.26 177.122H1552.14L1576.69 142.463H1556.82Z" fill="white"/>
<path d="M1676.07 142.463L1651.52 177.122H1671.4L1695.95 142.463H1676.07Z" fill="white"/>
<path d="M1636.32 142.463L1611.77 177.122H1631.64L1656.2 142.463H1636.32Z" fill="white"/>
<path d="M1596.57 142.463L1572.01 177.122H1591.89L1616.44 142.463H1596.57Z" fill="white"/>
<path d="M1561.49 121L1536.94 155.659H1556.81L1581.37 121H1561.49Z" fill="#3ED160"/>
<path d="M1481.99 121L1457.43 155.659H1477.31L1501.86 121H1481.99Z" fill="#3ED160"/>
<path d="M1521.74 121L1497.19 155.659H1517.06L1541.62 121H1521.74Z" fill="#3ED160"/>
<path d="M1601.25 121L1576.69 155.659H1596.57L1621.12 121H1601.25Z" fill="#3ED160"/>
<path d="M1720.51 121L1695.95 155.659H1715.83L1740.38 121H1720.51Z" fill="#3ED160"/>
<path d="M1680.75 121L1656.2 155.659H1676.07L1700.63 121H1680.75Z" fill="#3ED160"/>
<path d="M1641 121L1616.44 155.659H1636.32L1660.88 121H1641Z" fill="#3ED160"/>
</svg>
