<svg width="1440" height="900" viewBox="0 0 1440 900" fill="none" xmlns="http://www.w3.org/2000/svg">
<g clip-path="url(#clip0_2237_229)">
<rect width="1440" height="900" fill="url(#paint0_linear_2237_229)"/>
<path d="M65.9756 698.78V686.496H51.9999V698.78H65.9756Z" fill="#3ED160"/>
<path d="M65.9761 722.409V710.125H52.0004V722.409H65.9761Z" fill="#3ED160"/>
<path d="M65.9756 746.039V733.756H51.9999V746.039H65.9756Z" fill="#3ED160"/>
<path d="M65.9761 769.668V757.385H52.0004V769.668H65.9761Z" fill="#3ED160"/>
<path d="M65.9756 793.3V781.016H51.9999V793.3H65.9756Z" fill="#3ED160"/>
<path d="M65.9761 816.928V804.645H52.0004V816.928H65.9761Z" fill="#3ED160"/>
<path d="M92.8608 816.928V804.645H78.8844V816.928H92.8608Z" fill="#3ED160"/>
<path d="M92.8608 793.3V781.016H78.8844V793.3H92.8608Z" fill="#3ED160"/>
<path d="M119.747 816.928V804.645H105.771V816.928H119.747Z" fill="#3ED160"/>
<path d="M65.9756 840.557V828.273H51.9999V840.557H65.9756Z" fill="#3ED160"/>
<path d="M65.9761 864.186V851.902H52.0004V864.186H65.9761Z" fill="#3ED160"/>
<path d="M240.195 864.188H254.172V851.904H240.195V864.188Z" fill="#3ED160"/>
<path d="M213.311 864.188H227.287V851.904H213.311V864.188Z" fill="#3ED160"/>
<path d="M186.426 864.188H200.403V851.904H186.426V864.188Z" fill="#3ED160"/>
<path d="M159.541 864.188H173.517V851.904H159.541V864.188Z" fill="#3ED160"/>
<path d="M132.656 864.188H146.632V851.904H132.656V864.188Z" fill="#3ED160"/>
<path d="M105.771 864.188H119.747V851.904H105.771V864.188Z" fill="#3ED160"/>
<path d="M105.771 839.795H119.747V827.511H105.771V839.795Z" fill="#3ED160"/>
<path d="M132.656 839.795H146.632V827.511H132.656V839.795Z" fill="#3ED160"/>
<path d="M78.8849 864.188H92.8613V851.904H78.8849V864.188Z" fill="#3ED160"/>
<path d="M78.8849 840.559H92.8613V828.275H78.8849V840.559Z" fill="#3ED160"/>
<mask id="mask0_2237_229" style="mask-type:luminance" maskUnits="userSpaceOnUse" x="930" y="427" width="509" height="474">
<path d="M1439 427.453H930.342V900.143H1439V427.453Z" fill="white"/>
</mask>
<g mask="url(#mask0_2237_229)">
<g opacity="0.7">
<path d="M1456.65 615.696L1648.78 446.83H1581.27L1389.14 615.696H1456.65Z" fill="#3ED160"/>
<path d="M1286.86 886.132L1586.09 623.143H1518.58L1219.36 886.132H1286.86Z" fill="#3ED160"/>
<path d="M1283.48 804.703L1395.87 705.922H1328.37L1215.98 804.703H1283.48Z" fill="#3ED160"/>
<path d="M1428.18 890.494L1681.57 667.787H1614.06L1360.67 890.494H1428.18Z" fill="#3ED160"/>
<path d="M1270.63 940.362H1248.85L1546.03 679.172H1567.81L1270.63 940.362ZM1250.94 939.601H1270.27L1565.72 679.932H1546.39L1250.94 939.601Z" fill="white"/>
<path d="M1466.28 644.381H1401.15L1410 636.6H1475.13L1466.28 644.381ZM1403.24 643.621H1465.92L1473.04 637.361H1410.36L1403.24 643.621Z" fill="white"/>
<path d="M1482.25 630.336H1417.13L1425.98 622.555H1491.11L1482.25 630.336ZM1419.22 629.575H1481.89L1489.02 623.315H1426.34L1419.22 629.575Z" fill="white"/>
<path d="M1418.35 686.5H1353.22L1362.08 678.719H1427.2L1418.35 686.5ZM1355.31 685.74H1417.99L1425.11 679.48H1362.43L1355.31 685.74Z" fill="white"/>
<path d="M1450.3 658.422H1385.17L1394.03 650.641H1459.15L1450.3 658.422ZM1387.26 657.661H1449.94L1457.06 651.401H1394.39L1387.26 657.661Z" fill="white"/>
<path d="M1434.32 672.461H1369.2L1378.05 664.68H1443.18L1434.32 672.461ZM1371.29 671.7H1433.97L1441.09 665.441H1378.41L1371.29 671.7Z" fill="white"/>
<path d="M1498.23 616.299H1433.1L1441.95 608.518H1507.08L1498.23 616.299ZM1435.19 615.538H1497.87L1504.99 609.278H1442.31L1435.19 615.538Z" fill="white"/>
<path d="M1222.62 855.664H1157.49L1166.34 847.883H1231.47L1222.62 855.664ZM1159.58 854.904H1222.26L1229.38 848.644H1166.7L1159.58 854.904Z" fill="white"/>
<path d="M1238.59 841.621H1173.47L1182.32 833.84H1247.45L1238.59 841.621ZM1175.56 840.86H1238.23L1245.36 834.6H1182.68L1175.56 840.86Z" fill="white"/>
<path d="M1174.69 897.789H1109.56L1118.42 890.008H1183.54L1174.69 897.789ZM1111.65 897.028H1174.33L1181.45 890.768H1118.78L1111.65 897.028Z" fill="white"/>
<path d="M1206.64 869.706H1141.52L1150.37 861.924H1215.5L1206.64 869.706ZM1143.61 868.945H1206.28L1213.41 862.685H1150.73L1143.61 868.945Z" fill="white"/>
<path d="M1190.67 883.746H1125.54L1134.39 875.965H1199.52L1190.67 883.746ZM1127.63 882.985H1190.31L1197.43 876.725H1134.75L1127.63 882.985Z" fill="white"/>
<path d="M1254.57 827.582H1189.44L1198.3 819.801H1263.42L1254.57 827.582ZM1191.53 826.822H1254.21L1261.33 820.562H1198.65L1191.53 826.822Z" fill="white"/>
<path d="M1339.36 920.675L1568.93 718.906H1544.04L1314.48 920.675H1339.36Z" fill="#3ED160"/>
<path d="M1360.16 646.249L1523 503.125H1498.12L1335.27 646.249H1360.16Z" fill="#3ED160"/>
<path d="M1645.9 531.168L1301.71 833.682L1302.32 834.22L1646.51 531.706L1645.9 531.168Z" fill="white"/>
<path d="M1229.25 762.265L930.332 1024.99L930.944 1025.53L1229.87 762.803L1229.25 762.265Z" fill="white"/>
</g>
</g>
<path d="M1198.98 278H1185V291.976H1198.98V278Z" fill="#132B36"/>
<path d="M1225.86 278H1211.89V291.976H1225.86V278Z" fill="#122B36"/>
<path d="M1252.75 278H1238.77V291.976H1252.75V278Z" fill="#3ED160"/>
<path d="M1279.63 278H1265.66V291.976H1279.63V278Z" fill="#3ED160"/>
<path d="M1306.52 278H1292.54V291.976H1306.52V278Z" fill="#3ED160"/>
<path d="M1333.4 278H1319.43V291.976H1333.4V278Z" fill="#3ED160"/>
<path d="M1360.29 278H1346.31V291.976H1360.29V278Z" fill="#3ED160"/>
<path d="M1387.17 278H1373.2V291.976H1387.17V278Z" fill="#3ED160"/>
</g>
<defs>
<linearGradient id="paint0_linear_2237_229" x1="0" y1="450" x2="1440" y2="450" gradientUnits="userSpaceOnUse">
<stop offset="1"/>
</linearGradient>
<clipPath id="clip0_2237_229">
<rect width="1440" height="900" fill="white"/>
</clipPath>
</defs>
</svg>
