<svg width="156" height="149" viewBox="0 0 156 149" fill="none" xmlns="http://www.w3.org/2000/svg">
<path d="M66.917 104.029V121.189H57.5977V104.029H66.917Z" stroke="black" stroke-width="2"/>
<path d="M38.6182 66.5908V121.188H29.2988V100.723H29.2979C29.3127 100.345 29.2601 99.9676 29.1377 99.6104C29.0089 99.2346 28.8067 98.8869 28.54 98.5918C28.2731 98.2965 27.9465 98.0594 27.5791 97.9023C27.2261 97.7515 26.8458 97.6789 26.4619 97.6904H11.0752C9.48481 97.6904 7.98931 98.9097 7.98926 100.723V121.188H1V51.0947L38.6182 66.5908Z" stroke="black" stroke-width="2"/>
<path d="M81.5469 66.3213L79.2852 121.188H72.9121V100.723H72.9111C72.922 100.339 72.8638 99.9545 72.7344 99.5928C72.6003 99.2179 72.3933 98.872 72.123 98.5791C71.8526 98.286 71.5232 98.0522 71.1543 97.8975C70.8007 97.7492 70.4205 97.6782 70.0371 97.6904H54.6494C53.0344 97.6905 51.6026 98.9331 51.6025 100.723V121.188H44.6133V51.0947L81.5469 66.3213Z" stroke="black" stroke-width="2"/>
<path d="M23.3037 104.029V121.189H13.9844V104.029H23.3037Z" stroke="black" stroke-width="2"/>
<path d="M126.594 86.5156C134.047 86.5247 141.211 89.7424 146.508 95.4941C151.642 101.069 154.612 108.581 154.8 116.474L154.81 117.238C154.81 123.332 153.146 129.282 150.036 134.337C146.925 139.391 142.512 143.319 137.366 145.634C132.22 147.948 126.564 148.551 121.108 147.373C115.651 146.195 110.626 143.283 106.674 138.992C102.722 134.7 100.021 129.222 98.9263 123.247C97.8317 117.272 98.3942 111.079 100.54 105.455C102.685 99.8314 106.313 95.0372 110.953 91.6709C115.591 88.3059 121.034 86.5159 126.594 86.5156ZM126.574 91.9082C126.083 91.9187 125.606 92.0547 125.181 92.2998C124.81 92.514 124.49 92.8047 124.238 93.1494L124.139 93.292L110.56 113.799L110.411 114.056L110.405 114.067C107.38 119.702 107.423 126.532 110.488 132.329V132.33C112.093 135.405 114.428 137.972 117.259 139.762C120.092 141.552 123.318 142.499 126.609 142.497C129.899 142.495 133.125 141.545 135.956 139.751C138.785 137.958 141.117 135.387 142.719 132.311L142.718 132.31C145.769 126.526 145.807 119.727 142.78 114.126H142.779C142.734 114.042 142.685 113.959 142.632 113.88H142.631L129.051 93.2969H129.05C128.786 92.889 128.432 92.5457 128.011 92.3018C127.586 92.0556 127.108 91.9189 126.617 91.9082L126.595 91.9072L126.574 91.9082Z" stroke="black" stroke-width="2"/>
<path d="M137.637 117.385C139.506 120.934 139.528 125.078 137.667 128.859L137.481 129.226L137.478 129.231C136.381 131.346 134.791 133.096 132.88 134.31C130.971 135.522 128.805 136.159 126.606 136.16C124.406 136.162 122.24 135.528 120.329 134.318C118.536 133.183 117.025 131.577 115.937 129.64L115.725 129.247L115.722 129.241L115.535 128.874C113.662 125.079 113.679 120.907 115.554 117.325L126.591 100.673L137.637 117.385ZM134.736 119.584C133.913 119.584 133.142 119.939 132.587 120.541C132.036 121.139 131.739 121.935 131.738 122.748C131.731 124.3 131.157 125.772 130.164 126.843C129.235 127.844 128.016 128.417 126.749 128.481L126.494 128.487H126.492C125.669 128.487 124.898 128.843 124.343 129.445C123.791 130.045 123.494 130.841 123.494 131.656C123.494 132.471 123.791 133.269 124.343 133.868C124.898 134.47 125.669 134.825 126.492 134.825V134.824C129.493 134.827 132.355 133.538 134.455 131.268C136.421 129.141 137.573 126.317 137.717 123.351L137.733 122.756V122.753C137.733 121.938 137.435 121.14 136.883 120.541C136.329 119.939 135.558 119.584 134.736 119.584Z" stroke="black" stroke-width="2"/>
<path d="M92.8999 110.856C92.5628 112.946 92.3892 115.071 92.3872 117.21C92.3829 118.54 92.4486 119.868 92.5825 121.189H85.2876L85.6558 112.345H90.3608C91.1836 112.345 91.9547 111.989 92.5093 111.387C92.6593 111.224 92.7883 111.045 92.8999 110.856ZM108.562 1L109.218 17.0752H98.8608C98.038 17.0752 97.267 17.431 96.7124 18.0332C96.1605 18.6325 95.8629 19.4292 95.8628 20.2441C95.8628 21.0593 96.1604 21.8566 96.7124 22.4561C97.2324 23.0207 97.9427 23.368 98.7075 23.4092L98.8608 23.4131H109.476L110.669 52.5029H105.605C104.782 52.5029 104.011 52.8588 103.457 53.4609C102.905 54.0603 102.607 54.8569 102.607 55.6719C102.607 56.487 102.904 57.2844 103.457 57.8838C104.011 58.4858 104.782 58.8408 105.605 58.8408H110.93L111.947 83.7227C108.831 85.3256 105.974 87.4199 103.46 89.9229C103.317 89.5434 103.104 89.1908 102.826 88.8887C102.271 88.2865 101.5 87.9307 100.677 87.9307H95.3882C94.5654 87.9307 93.7943 88.2865 93.2397 88.8887C92.6878 89.488 92.3902 90.2846 92.3901 91.0996C92.3901 91.9147 92.6877 92.7121 93.2397 93.3115C93.7943 93.9137 94.5654 94.2695 95.3882 94.2695H99.7427C99.0755 95.1864 98.4462 96.1388 97.8589 97.125C95.7405 100.682 94.2093 104.586 93.3149 108.661C93.217 108.032 92.9441 107.436 92.5093 106.964C91.9547 106.362 91.1836 106.006 90.3608 106.006H85.9146L87.1079 76.5547H89.5767C90.3994 76.5547 91.1705 76.1997 91.7251 75.5977C92.2771 74.9982 92.5747 74.2009 92.5747 73.3857C92.5746 72.5708 92.2771 71.7741 91.7251 71.1748C91.1705 70.5727 90.3994 70.2168 89.5767 70.2168H87.3677L88.5601 41.127H90.9819C91.8045 41.1269 92.5749 40.7718 93.1294 40.1699C93.6814 39.5705 93.979 38.7731 93.979 37.958C93.9789 37.143 93.6814 36.3464 93.1294 35.7471C92.5749 35.1451 91.8046 34.7891 90.9819 34.7891H88.8188L90.2017 1H108.562ZM95.7681 70.2168C94.9455 70.2169 94.1751 70.5728 93.6206 71.1748C93.0686 71.7741 92.7711 72.5708 92.771 73.3857C92.771 74.2009 93.0686 74.9982 93.6206 75.5977C94.1751 76.1996 94.9455 76.5545 95.7681 76.5547H103.958C104.781 76.5547 105.552 76.1998 106.107 75.5977C106.659 74.9982 106.957 74.2009 106.957 73.3857C106.956 72.5708 106.659 71.7741 106.107 71.1748C105.552 70.5726 104.781 70.2168 103.958 70.2168H95.7681ZM94.1216 52.5029C93.2988 52.5029 92.5277 52.8587 91.9731 53.4609C91.4212 54.0603 91.1236 54.8569 91.1235 55.6719V56.6719H91.2817C91.4221 57.1187 91.6541 57.5352 91.9751 57.8838C92.5297 58.4859 93.3008 58.8408 94.1235 58.8408H99.4126C100.235 58.8408 101.006 58.4857 101.56 57.8838C102.112 57.2844 102.41 56.487 102.41 55.6719C102.41 54.8569 102.112 54.0603 101.56 53.4609C101.006 52.8589 100.235 52.503 99.4126 52.5029H94.1216ZM97.1724 34.7891C96.3497 34.7891 95.5794 35.1451 95.0249 35.7471C94.4729 36.3464 94.1754 37.143 94.1753 37.958C94.1753 38.7731 94.4729 39.5705 95.0249 40.1699C95.5794 40.7718 96.3498 41.1269 97.1724 41.127H105.363C106.185 41.1269 106.956 40.7718 107.51 40.1699C108.062 39.5705 108.36 38.7731 108.36 37.958C108.36 37.143 108.062 36.3464 107.51 35.7471C106.956 35.1451 106.185 34.7891 105.363 34.7891H97.1724ZM92.6675 17.0752C91.8447 17.0752 91.0736 17.4311 90.519 18.0332C89.9671 18.6326 89.6695 19.4291 89.6694 20.2441C89.6694 21.0593 89.967 21.8566 90.519 22.4561C91.0389 23.0204 91.7487 23.3679 92.5132 23.4092L92.6675 23.4131H92.7163C93.5391 23.4131 94.3102 23.0582 94.8647 22.4561C95.4168 21.8566 95.7134 21.0593 95.7134 20.2441C95.7133 19.4292 95.4166 18.6325 94.8647 18.0332C94.3102 17.431 93.5391 17.0752 92.7163 17.0752H92.6675Z" stroke="black" stroke-width="2"/>
</svg>
