<svg width="156" height="149" viewBox="0 0 156 149" fill="none" xmlns="http://www.w3.org/2000/svg">
<path d="M140.943 130.455C141.634 130.695 142.624 131.014 143.838 131.332C146.26 131.966 149.595 132.605 153.213 132.605H154.81V147.984H1V132.605H2.59668C6.21719 132.605 9.5521 131.966 11.9736 131.332C13.1869 131.014 14.1782 130.695 14.8682 130.455C15.1581 130.354 15.3945 130.265 15.5732 130.197C15.7408 130.263 15.96 130.349 16.2227 130.447C16.8601 130.685 17.7567 131.004 18.7979 131.321C20.8592 131.95 23.5712 132.605 25.9688 132.605C28.3692 132.605 31.0801 131.95 33.1406 131.321C34.1817 131.004 35.0787 130.686 35.7158 130.447C35.9738 130.351 36.1892 130.266 36.3555 130.2C36.5221 130.266 36.7383 130.351 36.9971 130.447C37.6346 130.686 38.5319 131.004 39.5732 131.321C41.6345 131.95 44.3458 132.605 46.7432 132.605C49.1436 132.605 51.8545 131.95 53.915 131.321C54.9561 131.004 55.8531 130.686 56.4902 130.447C56.7482 130.351 56.9636 130.266 57.1299 130.2C57.2965 130.266 57.5127 130.351 57.7715 130.447C58.409 130.686 59.3062 131.004 60.3477 131.321C62.4089 131.95 65.1201 132.605 67.5176 132.605C69.9183 132.605 72.6297 131.95 74.6904 131.321C75.7314 131.004 76.6276 130.686 77.2646 130.447C77.523 130.351 77.7389 130.266 77.9053 130.2C78.0717 130.266 78.2875 130.351 78.5459 130.447C79.1835 130.686 80.0807 131.004 81.1221 131.321C83.1833 131.95 85.8945 132.605 88.292 132.605C90.6894 132.605 93.4007 131.95 95.4619 131.321C96.5033 131.004 97.4005 130.686 98.0381 130.447C98.2966 130.351 98.5122 130.265 98.6787 130.199C98.8453 130.265 99.0613 130.35 99.3203 130.447C99.9578 130.685 100.855 131.004 101.896 131.321C103.958 131.95 106.669 132.605 109.066 132.605C111.464 132.605 114.176 131.95 116.237 131.321C117.278 131.004 118.175 130.685 118.812 130.447C119.071 130.351 119.288 130.265 119.454 130.199C119.621 130.265 119.837 130.351 120.096 130.447C120.733 130.686 121.631 131.004 122.672 131.321C124.733 131.95 127.444 132.605 129.842 132.605C132.239 132.605 134.95 131.95 137.012 131.321C138.053 131.004 138.95 130.686 139.588 130.447C139.85 130.349 140.068 130.263 140.235 130.197C140.414 130.265 140.652 130.354 140.943 130.455Z" stroke="black" stroke-width="2"/>
<path d="M66.5181 45.7148V58.6104H47.7437V45.7148H66.5181Z" stroke="black" stroke-width="2"/>
<path d="M108.067 45.7148V58.6104H89.293V45.7148H108.067Z" stroke="black" stroke-width="2"/>
<path d="M123.649 5.99219V8.95703H118.455V25.8535H123.649V58.6094H115.262V38.749H82.0996V58.6094H73.7119V38.749H40.5508V58.6094H32.1631V25.8535H37.3564V8.95703H32.1631V5.99219H123.649ZM40.5508 25.8535H52.9375V8.95703H40.5508V25.8535ZM56.1318 25.8535H68.5186V8.95703H56.1318V25.8535ZM71.7119 25.8535H84.0996V8.95703H71.7119V25.8535ZM87.293 25.8535H99.6807V8.95703H87.293V25.8535ZM102.874 25.8535H115.262V8.95703H102.874V25.8535Z" stroke="black" stroke-width="2"/>
<path d="M10.1875 1.02734H20.7754C23.1354 1.02734 24.9695 2.84321 24.9697 4.99219V125.607C22.8525 125.478 20.7729 124.968 19.1318 124.445C18.188 124.145 17.4015 123.845 16.8535 123.62C16.5798 123.508 16.3662 123.415 16.2227 123.351C16.151 123.319 16.0969 123.294 16.0615 123.277C16.0439 123.269 16.0305 123.264 16.0225 123.26C16.0186 123.258 16.0163 123.256 16.0146 123.255H16.0137L15.6436 123.078L15.2568 123.212H15.2559C15.2553 123.212 15.2542 123.212 15.2529 123.213C15.25 123.214 15.2454 123.216 15.2393 123.218C15.2267 123.222 15.2073 123.229 15.1816 123.237C15.1301 123.255 15.0524 123.28 14.9512 123.312C14.7484 123.379 14.4504 123.474 14.0742 123.588C13.3213 123.817 12.2571 124.123 11.0156 124.428C8.67378 125.003 5.7553 125.565 3.12109 125.633L2.59766 125.64L1.04199 125.641L5.99902 4.84082V4.83887C6.07796 2.81312 7.77938 1.13492 9.97363 1.03223L10.1875 1.02734Z" stroke="black" stroke-width="2"/>
<path d="M135.035 1.02539H145.624C147.84 1.02539 149.611 2.64427 149.799 4.64453L149.812 4.83984L154.768 125.64H153.213C150.448 125.64 147.294 125.04 144.796 124.426C143.555 124.12 142.49 123.816 141.737 123.587C141.361 123.473 141.063 123.378 140.86 123.312C140.759 123.279 140.681 123.253 140.63 123.235C140.604 123.227 140.585 123.22 140.572 123.216C140.566 123.214 140.561 123.212 140.559 123.211L140.555 123.21L140.167 123.076L139.798 123.253H139.797C139.795 123.254 139.792 123.256 139.788 123.258C139.78 123.262 139.767 123.267 139.75 123.275C139.715 123.292 139.66 123.317 139.588 123.349C139.444 123.413 139.231 123.506 138.957 123.618C138.409 123.843 137.623 124.143 136.68 124.443C135.039 124.966 132.959 125.476 130.842 125.605V4.99023C130.842 2.84135 132.675 1.02555 135.035 1.02539Z" stroke="black" stroke-width="2"/>
<path d="M40.2852 65.5762L35.9795 123.229L35.9297 123.254L35.9268 123.256C35.9237 123.257 35.9183 123.259 35.9111 123.263C35.8966 123.269 35.8734 123.28 35.8428 123.294C35.7815 123.322 35.6886 123.363 35.5674 123.415C35.3244 123.52 34.9671 123.669 34.5186 123.84C33.8892 124.08 33.0829 124.363 32.1631 124.633V65.5762H40.2852Z" stroke="black" stroke-width="2"/>
<path d="M66.7734 65.5742L71.2285 125.234C70.8596 125.305 70.4793 125.369 70.0908 125.427C70.0238 125.436 69.9585 125.446 69.8955 125.455C69.8367 125.464 69.7797 125.472 69.7217 125.48C68.9823 125.576 68.2483 125.64 67.5195 125.64C65.0674 125.64 62.5806 125.051 60.6816 124.446C59.7378 124.146 58.9513 123.845 58.4033 123.62C58.1297 123.508 57.916 123.415 57.7725 123.351C57.7008 123.319 57.6466 123.294 57.6113 123.277C57.5937 123.269 57.5803 123.264 57.5723 123.26L57.5625 123.255H57.5635L57.1318 123.049L56.7002 123.255L56.6992 123.256C56.6976 123.257 56.6951 123.258 56.6914 123.26C56.6833 123.264 56.67 123.269 56.6523 123.277C56.617 123.294 56.5629 123.319 56.4912 123.351C56.3477 123.415 56.134 123.508 55.8604 123.62C55.3123 123.845 54.5259 124.146 53.582 124.446C51.6831 125.051 49.1963 125.64 46.7441 125.64C46.0156 125.64 45.2823 125.576 44.543 125.48L44.5254 125.479L44.5088 125.477L44.1719 125.427C43.7817 125.369 43.3995 125.303 43.0273 125.232L47.4834 65.5742H66.7734ZM62.3252 95.8486C60.3813 95.8488 58.7287 97.3655 58.7285 99.3311V119.192C58.7286 121.158 60.3812 122.675 62.3252 122.675C64.2693 122.675 65.9218 121.158 65.9219 119.192V99.3311C65.9217 97.3653 64.2693 95.8486 62.3252 95.8486ZM51.9385 71.0225C49.9944 71.0225 48.342 72.5392 48.3418 74.5049V89.4004C48.3418 91.3662 49.9943 92.8838 51.9385 92.8838C53.8825 92.8836 55.5352 91.3661 55.5352 89.4004V74.5049C55.535 72.5393 53.8824 71.0226 51.9385 71.0225Z" stroke="black" stroke-width="2"/>
<path d="M81.8335 65.5762L77.9019 118.224L73.9712 65.5762H81.8335Z" stroke="black" stroke-width="2"/>
<path d="M123.649 65.5742V124.635C122.109 124.181 120.899 123.696 120.298 123.438C120.286 123.433 120.272 123.426 120.263 123.422L120.231 123.407L120.198 123.394L120.087 123.347C120.068 123.338 120.051 123.331 120.03 123.321C120.016 123.315 119.998 123.307 119.98 123.299C119.964 123.291 119.946 123.283 119.93 123.275C119.918 123.27 119.907 123.265 119.899 123.261C119.895 123.259 119.892 123.257 119.89 123.256C119.889 123.255 119.888 123.255 119.887 123.255H119.886L119.832 123.229L115.527 65.5742H123.649Z" stroke="black" stroke-width="2"/>
<path d="M108.315 65.5742L112.771 125.234C112.402 125.305 112.021 125.369 111.633 125.427C111.566 125.436 111.501 125.446 111.438 125.455C111.379 125.464 111.322 125.472 111.264 125.48C110.524 125.576 109.79 125.64 109.062 125.64C106.609 125.64 104.123 125.051 102.224 124.446C101.28 124.146 100.493 123.845 99.9453 123.62C99.6717 123.508 99.458 123.415 99.3145 123.351C99.2428 123.319 99.1886 123.294 99.1533 123.277C99.1357 123.269 99.1223 123.264 99.1143 123.26L99.1045 123.255H99.1055L98.6738 123.049L98.2422 123.255L98.2412 123.256C98.2396 123.257 98.237 123.258 98.2334 123.26C98.2253 123.264 98.212 123.269 98.1943 123.277C98.159 123.294 98.1049 123.319 98.0332 123.351C97.8897 123.415 97.676 123.508 97.4023 123.62C96.8543 123.845 96.0678 124.146 95.124 124.446C93.2251 125.051 90.7383 125.64 88.2861 125.64C87.5576 125.64 86.8243 125.576 86.085 125.48L86.0674 125.479L86.0508 125.477L85.7246 125.428C85.3333 125.369 84.9441 125.304 84.5693 125.232L89.0254 65.5742H108.315ZM103.875 95.8486C101.931 95.8486 100.278 97.3652 100.278 99.3311V119.191C100.278 121.157 101.931 122.674 103.875 122.674C105.819 122.674 107.472 121.157 107.472 119.191V99.3311C107.472 97.3653 105.819 95.8487 103.875 95.8486ZM93.4873 71.0225C91.5432 71.0226 89.8906 72.5391 89.8906 74.5049V89.4004C89.8907 91.3661 91.5433 92.8827 93.4873 92.8828C95.4314 92.8828 97.0839 91.3662 97.084 89.4004V74.5049C97.084 72.539 95.4315 71.0225 93.4873 71.0225Z" stroke="black" stroke-width="2"/>
</svg>
