<svg width="156" height="149" viewBox="0 0 156 149" fill="none" xmlns="http://www.w3.org/2000/svg">
<mask id="path-1-inside-1_2262_667" fill="white">
<path fill-rule="evenodd" clip-rule="evenodd" d="M73.0353 148.953V103.739L41.8057 86.8362V110.622H0V148.953L73.0353 148.953ZM96.651 95.6155L99.3965 72.9475H88.759C88.7252 72.9689 88.6981 72.976 88.6576 72.9831V76.5532C88.6576 78.0639 87.4876 79.2895 86.054 79.2895C84.6271 79.2895 83.4571 78.0639 83.4571 76.5532V73.1327H81.0362C79.6025 73.1327 78.4326 71.8999 78.4326 70.3892C78.4326 68.8857 79.6025 67.6529 81.0362 67.6529H83.9171C83.9645 67.6458 83.9983 67.6244 84.0456 67.603L100.966 59.8855L105.449 22.7531H88.8401V25.8244C88.8401 27.3351 87.6769 28.5679 86.2432 28.5679C84.8096 28.5679 83.6464 27.3351 83.6464 25.8244V22.9169H81.6311C80.2042 22.9169 79.0342 21.6912 79.0342 20.1805C79.0342 18.6698 80.2042 17.4371 81.6311 17.4371H86.6218C86.6557 17.4299 86.6827 17.4157 86.7165 17.4086L103.833 9.60573C104.164 9.44896 104.516 9.38483 104.854 9.38483V9.3777H114.349V2.73636C114.349 1.22567 115.512 0 116.945 0C118.379 0 119.549 1.22567 119.549 2.73636V9.3777H129.044C129.497 9.3777 129.93 9.49172 130.295 9.71975L146.883 17.2803H152.605C154.038 17.2803 155.208 18.5131 155.208 20.0238C155.208 21.5345 154.038 22.7602 152.605 22.7602H150.596V25.6961C150.596 27.2068 149.433 28.4325 147.999 28.4325C146.566 28.4325 145.402 27.2068 145.402 25.6961V22.7602H128.401L132.885 59.8926L149.521 67.4818H153.213C154.647 67.4818 155.81 68.7075 155.81 70.2182C155.81 71.7289 154.647 72.9546 153.213 72.9546H150.792V76.4035C150.792 77.9142 149.622 79.1398 148.189 79.1398C146.762 79.1398 145.592 77.9142 145.592 76.4035V72.9546H134.46L140.067 119.38L146.295 143.494H151.523V148.96H105.882V143.494H140.912L135.549 122.714H105.881V117.249H131.207L116.282 95.2649L105.881 110.586V101.201L113.097 90.576L104.089 77.2933L101.546 98.2794L96.6503 95.6357L96.651 95.6155ZM133.954 111.913L129.572 75.6704L119.462 90.5637L133.954 111.913ZM116.276 85.8807L125.054 72.9471H107.505L116.276 85.8807ZM136.516 67.4741L129.605 64.3243H104.251L97.3393 67.4741H136.516ZM108.132 58.8445H125.715L116.93 42.07L108.132 58.8445ZM107.531 48.7042L113.969 36.4191L109.938 28.7374L107.524 48.6964L107.531 48.7042ZM116.931 30.7754L121.137 22.7445H112.718L116.931 30.7754ZM123.916 28.7445L119.886 36.4262L126.324 48.7113L123.91 28.7523L123.916 28.7445ZM128.522 14.8346H105.353L100.017 17.2716H133.871L128.522 14.8346ZM33.9605 57.2975H44.2869L45.1864 82.9008L36.9293 78.4399V105.49H32.2766L33.9605 57.2897L33.9605 57.2975ZM63.3706 45.5753H73.697L75.0428 83.9209L64.9191 78.441V93.5766L61.7542 91.8735L63.3706 45.5753ZM101.011 148.951V103.738L69.7814 86.8349V96.2126L77.8965 100.595V148.952L101.011 148.951ZM80.8318 112.68H89.9612V124.887H80.8318V112.68ZM52.8551 112.68H61.9846V124.887H52.8551V112.68ZM12.3738 132.803H29.4225V138.283H12.3738V132.803ZM12.3738 121.295H29.4225V126.76H12.3738V121.295Z"/>
</mask>
<path fill-rule="evenodd" clip-rule="evenodd" d="M73.0353 148.953V103.739L41.8057 86.8362V110.622H0V148.953L73.0353 148.953ZM96.651 95.6155L99.3965 72.9475H88.759C88.7252 72.9689 88.6981 72.976 88.6576 72.9831V76.5532C88.6576 78.0639 87.4876 79.2895 86.054 79.2895C84.6271 79.2895 83.4571 78.0639 83.4571 76.5532V73.1327H81.0362C79.6025 73.1327 78.4326 71.8999 78.4326 70.3892C78.4326 68.8857 79.6025 67.6529 81.0362 67.6529H83.9171C83.9645 67.6458 83.9983 67.6244 84.0456 67.603L100.966 59.8855L105.449 22.7531H88.8401V25.8244C88.8401 27.3351 87.6769 28.5679 86.2432 28.5679C84.8096 28.5679 83.6464 27.3351 83.6464 25.8244V22.9169H81.6311C80.2042 22.9169 79.0342 21.6912 79.0342 20.1805C79.0342 18.6698 80.2042 17.4371 81.6311 17.4371H86.6218C86.6557 17.4299 86.6827 17.4157 86.7165 17.4086L103.833 9.60573C104.164 9.44896 104.516 9.38483 104.854 9.38483V9.3777H114.349V2.73636C114.349 1.22567 115.512 0 116.945 0C118.379 0 119.549 1.22567 119.549 2.73636V9.3777H129.044C129.497 9.3777 129.93 9.49172 130.295 9.71975L146.883 17.2803H152.605C154.038 17.2803 155.208 18.5131 155.208 20.0238C155.208 21.5345 154.038 22.7602 152.605 22.7602H150.596V25.6961C150.596 27.2068 149.433 28.4325 147.999 28.4325C146.566 28.4325 145.402 27.2068 145.402 25.6961V22.7602H128.401L132.885 59.8926L149.521 67.4818H153.213C154.647 67.4818 155.81 68.7075 155.81 70.2182C155.81 71.7289 154.647 72.9546 153.213 72.9546H150.792V76.4035C150.792 77.9142 149.622 79.1398 148.189 79.1398C146.762 79.1398 145.592 77.9142 145.592 76.4035V72.9546H134.46L140.067 119.38L146.295 143.494H151.523V148.96H105.882V143.494H140.912L135.549 122.714H105.881V117.249H131.207L116.282 95.2649L105.881 110.586V101.201L113.097 90.576L104.089 77.2933L101.546 98.2794L96.6503 95.6357L96.651 95.6155ZM133.954 111.913L129.572 75.6704L119.462 90.5637L133.954 111.913ZM116.276 85.8807L125.054 72.9471H107.505L116.276 85.8807ZM136.516 67.4741L129.605 64.3243H104.251L97.3393 67.4741H136.516ZM108.132 58.8445H125.715L116.93 42.07L108.132 58.8445ZM107.531 48.7042L113.969 36.4191L109.938 28.7374L107.524 48.6964L107.531 48.7042ZM116.931 30.7754L121.137 22.7445H112.718L116.931 30.7754ZM123.916 28.7445L119.886 36.4262L126.324 48.7113L123.91 28.7523L123.916 28.7445ZM128.522 14.8346H105.353L100.017 17.2716H133.871L128.522 14.8346ZM33.9605 57.2975H44.2869L45.1864 82.9008L36.9293 78.4399V105.49H32.2766L33.9605 57.2897L33.9605 57.2975ZM63.3706 45.5753H73.697L75.0428 83.9209L64.9191 78.441V93.5766L61.7542 91.8735L63.3706 45.5753ZM101.011 148.951V103.738L69.7814 86.8349V96.2126L77.8965 100.595V148.952L101.011 148.951ZM80.8318 112.68H89.9612V124.887H80.8318V112.68ZM52.8551 112.68H61.9846V124.887H52.8551V112.68ZM12.3738 132.803H29.4225V138.283H12.3738V132.803ZM12.3738 121.295H29.4225V126.76H12.3738V121.295Z" stroke="black" stroke-width="4" mask="url(#path-1-inside-1_2262_667)"/>
</svg>
