<svg width="156" height="149" viewBox="0 0 156 149" fill="none" xmlns="http://www.w3.org/2000/svg">
<mask id="path-1-inside-1_2261_123" fill="white">
<path d="M155.81 121.182C155.81 117.163 154.104 113.384 151.013 110.54C147.918 107.696 143.805 106.133 139.432 106.133H78.9621C79.2735 105.548 79.4501 104.89 79.4501 104.194V88.3133C79.4501 85.354 78.2278 82.5484 76.0062 80.409L75.7971 80.2083C75.4114 79.8368 75.1976 79.3457 75.1976 78.8333V77.9707H76.7638C77.512 77.9707 78.1162 77.4155 78.1162 76.728V70.7923C78.1162 69.3191 76.8103 68.1191 75.2069 68.1191H60.9016C59.2982 68.1191 57.9922 69.3191 57.9922 70.7923V76.728C57.9922 77.4155 58.5964 77.9707 59.3447 77.9707H60.9109V78.8333C60.9109 79.3457 60.6971 79.8368 60.3114 80.2083L60.3067 80.2126L60.1022 80.4133C57.8853 82.5527 56.663 85.3625 56.663 88.3175V104.199C56.663 104.895 56.8396 105.552 57.151 106.137H45.9457C46.2571 105.552 46.4337 104.895 46.4337 104.199V88.3175C46.4337 85.3582 45.2114 82.5527 42.9899 80.4133L42.7807 80.2126C42.395 79.841 42.1812 79.35 42.1812 78.8375V77.9749H43.7474C44.4957 77.9749 45.0999 77.4198 45.0999 76.7323V70.7966C45.0999 69.3234 43.7939 68.1234 42.1905 68.1234H27.8852C26.2818 68.1234 24.9759 69.3234 24.9759 70.7966V76.7323C24.9759 77.4198 25.58 77.9749 26.3283 77.9749H27.8945V78.8375C27.8945 79.35 27.6807 79.841 27.295 80.2126L27.2903 80.2168L27.0859 80.4175C24.869 82.5569 23.6466 85.3668 23.6466 88.3218V104.203C23.6466 104.899 23.8233 105.557 24.1346 106.142H18.0231C13.6497 106.142 9.5366 107.709 6.44132 110.549C3.34603 113.388 1.64502 117.172 1.64502 121.19C1.64502 125.208 3.35068 128.988 6.44132 131.832C9.21592 134.381 12.8085 135.901 16.6706 136.187V147.717C16.6706 148.405 17.2748 148.96 18.0231 148.96H139.441C140.189 148.96 140.793 148.405 140.793 147.717V136.187C144.66 135.901 148.253 134.377 151.023 131.832C154.104 128.979 155.81 125.2 155.81 121.182ZM60.6925 70.7881C60.6925 70.6813 60.7854 70.6002 60.897 70.6002H75.2022C75.3184 70.6002 75.4067 70.6856 75.4067 70.7881V75.4811H60.6878L60.6925 70.7881ZM61.4686 106.129C60.3067 106.129 59.3586 105.258 59.3586 104.19V88.309C59.3586 85.9945 60.316 83.7953 62.0542 82.1171L62.0589 82.1128L62.2634 81.9121C63.1324 81.0752 63.6111 79.982 63.6111 78.8247V77.9621H72.4973V78.8247C72.4973 79.9777 72.976 81.0751 73.8358 81.9079L74.045 82.1086L74.0496 82.1128C75.7924 83.7868 76.7499 85.986 76.7499 88.3047V104.186C76.7499 105.253 75.8017 106.125 74.6352 106.125L61.4686 106.129ZM27.6714 70.7881C27.6714 70.6813 27.7644 70.6002 27.8759 70.6002H42.1812C42.2974 70.6002 42.3857 70.6856 42.3857 70.7881V75.4811H27.6668L27.6714 70.7881ZM28.4429 106.129C27.281 106.129 26.3329 105.258 26.3329 104.19V88.309C26.3329 85.9945 27.2903 83.7953 29.0285 82.1171L29.0332 82.1128L29.2377 81.9121C30.1068 81.0752 30.5855 79.982 30.5855 78.8247V77.9621H39.4716V78.8247C39.4716 79.9777 39.9503 81.0751 40.8101 81.9079L41.0193 82.1086L41.0239 82.1128C42.7668 83.7868 43.7242 85.986 43.7242 88.3047V104.186C43.7242 105.253 42.7761 106.125 41.6095 106.125L28.4429 106.129ZM19.3616 146.47V136.23H138.079V146.47H19.3616ZM139.432 133.749H18.0091C10.4661 133.749 4.33132 128.112 4.33132 121.182C4.33132 114.251 10.4661 108.614 18.0091 108.614H139.427C146.97 108.614 153.105 114.251 153.105 121.182C153.11 128.108 146.975 133.749 139.432 133.749Z"/>
</mask>
<path d="M155.81 121.182C155.81 117.163 154.104 113.384 151.013 110.54C147.918 107.696 143.805 106.133 139.432 106.133H78.9621C79.2735 105.548 79.4501 104.89 79.4501 104.194V88.3133C79.4501 85.354 78.2278 82.5484 76.0062 80.409L75.7971 80.2083C75.4114 79.8368 75.1976 79.3457 75.1976 78.8333V77.9707H76.7638C77.512 77.9707 78.1162 77.4155 78.1162 76.728V70.7923C78.1162 69.3191 76.8103 68.1191 75.2069 68.1191H60.9016C59.2982 68.1191 57.9922 69.3191 57.9922 70.7923V76.728C57.9922 77.4155 58.5964 77.9707 59.3447 77.9707H60.9109V78.8333C60.9109 79.3457 60.6971 79.8368 60.3114 80.2083L60.3067 80.2126L60.1022 80.4133C57.8853 82.5527 56.663 85.3625 56.663 88.3175V104.199C56.663 104.895 56.8396 105.552 57.151 106.137H45.9457C46.2571 105.552 46.4337 104.895 46.4337 104.199V88.3175C46.4337 85.3582 45.2114 82.5527 42.9899 80.4133L42.7807 80.2126C42.395 79.841 42.1812 79.35 42.1812 78.8375V77.9749H43.7474C44.4957 77.9749 45.0999 77.4198 45.0999 76.7323V70.7966C45.0999 69.3234 43.7939 68.1234 42.1905 68.1234H27.8852C26.2818 68.1234 24.9759 69.3234 24.9759 70.7966V76.7323C24.9759 77.4198 25.58 77.9749 26.3283 77.9749H27.8945V78.8375C27.8945 79.35 27.6807 79.841 27.295 80.2126L27.2903 80.2168L27.0859 80.4175C24.869 82.5569 23.6466 85.3668 23.6466 88.3218V104.203C23.6466 104.899 23.8233 105.557 24.1346 106.142H18.0231C13.6497 106.142 9.5366 107.709 6.44132 110.549C3.34603 113.388 1.64502 117.172 1.64502 121.19C1.64502 125.208 3.35068 128.988 6.44132 131.832C9.21592 134.381 12.8085 135.901 16.6706 136.187V147.717C16.6706 148.405 17.2748 148.96 18.0231 148.96H139.441C140.189 148.96 140.793 148.405 140.793 147.717V136.187C144.66 135.901 148.253 134.377 151.023 131.832C154.104 128.979 155.81 125.2 155.81 121.182ZM60.6925 70.7881C60.6925 70.6813 60.7854 70.6002 60.897 70.6002H75.2022C75.3184 70.6002 75.4067 70.6856 75.4067 70.7881V75.4811H60.6878L60.6925 70.7881ZM61.4686 106.129C60.3067 106.129 59.3586 105.258 59.3586 104.19V88.309C59.3586 85.9945 60.316 83.7953 62.0542 82.1171L62.0589 82.1128L62.2634 81.9121C63.1324 81.0752 63.6111 79.982 63.6111 78.8247V77.9621H72.4973V78.8247C72.4973 79.9777 72.976 81.0751 73.8358 81.9079L74.045 82.1086L74.0496 82.1128C75.7924 83.7868 76.7499 85.986 76.7499 88.3047V104.186C76.7499 105.253 75.8017 106.125 74.6352 106.125L61.4686 106.129ZM27.6714 70.7881C27.6714 70.6813 27.7644 70.6002 27.8759 70.6002H42.1812C42.2974 70.6002 42.3857 70.6856 42.3857 70.7881V75.4811H27.6668L27.6714 70.7881ZM28.4429 106.129C27.281 106.129 26.3329 105.258 26.3329 104.19V88.309C26.3329 85.9945 27.2903 83.7953 29.0285 82.1171L29.0332 82.1128L29.2377 81.9121C30.1068 81.0752 30.5855 79.982 30.5855 78.8247V77.9621H39.4716V78.8247C39.4716 79.9777 39.9503 81.0751 40.8101 81.9079L41.0193 82.1086L41.0239 82.1128C42.7668 83.7868 43.7242 85.986 43.7242 88.3047V104.186C43.7242 105.253 42.7761 106.125 41.6095 106.125L28.4429 106.129ZM19.3616 146.47V136.23H138.079V146.47H19.3616ZM139.432 133.749H18.0091C10.4661 133.749 4.33132 128.112 4.33132 121.182C4.33132 114.251 10.4661 108.614 18.0091 108.614H139.427C146.97 108.614 153.105 114.251 153.105 121.182C153.11 128.108 146.975 133.749 139.432 133.749Z" stroke="black" stroke-width="3" mask="url(#path-1-inside-1_2261_123)"/>
<path d="M22.2705 113.268C26.9671 113.268 30.7103 116.655 30.9355 120.776L30.9463 121.177V121.178C30.9463 125.479 27.1133 129.088 22.2705 129.088C17.4279 129.088 13.5957 125.479 13.5957 121.178C13.5957 116.876 17.4279 113.268 22.2705 113.268ZM22.2705 114.253C18.2089 114.253 14.7961 117.302 14.7959 121.182C14.7959 125.062 18.2088 128.111 22.2705 128.111C26.3324 128.111 29.7461 125.062 29.7461 121.182C29.7459 117.301 26.3323 114.253 22.2705 114.253Z" stroke="black" stroke-width="1.5"/>
<path d="M136.313 113.268C141.156 113.268 144.989 116.876 144.989 121.178C144.989 125.479 141.156 129.088 136.313 129.088C131.47 129.088 127.638 125.479 127.638 121.178C127.638 116.876 131.47 113.268 136.313 113.268ZM136.313 114.253C132.251 114.253 128.839 117.302 128.838 121.182C128.838 125.062 132.251 128.111 136.313 128.111C140.375 128.111 143.789 125.062 143.789 121.182C143.788 117.301 140.375 114.253 136.313 114.253Z" stroke="black" stroke-width="1.5"/>
<path d="M79.292 113.268C83.9886 113.268 87.7318 116.655 87.957 120.776L87.9678 121.177V121.178C87.9678 125.479 84.1348 129.088 79.292 129.088C74.4494 129.088 70.6172 125.479 70.6172 121.178C70.6172 116.876 74.4494 113.268 79.292 113.268ZM79.292 114.253C75.2304 114.253 71.8176 117.302 71.8174 121.182C71.8174 125.062 75.2303 128.111 79.292 128.111C83.3539 128.111 86.7676 125.062 86.7676 121.182C86.7674 117.301 83.3538 114.253 79.292 114.253Z" stroke="black" stroke-width="1.5"/>
<path d="M119.889 26.9473C123.022 26.9474 125.455 29.2711 125.455 32.001C125.454 34.7307 123.021 37.0535 119.889 37.0537C116.757 37.0537 114.323 34.7308 114.323 32.001C114.323 29.2713 116.761 26.9473 119.889 26.9473ZM119.889 27.9287C117.548 27.9287 115.528 29.6909 115.528 31.9961C115.528 34.2959 117.542 36.0645 119.889 36.0645C122.161 36.0643 124.129 34.4104 124.245 32.209L124.25 31.9941C124.248 29.6949 122.231 27.9289 119.889 27.9287Z" stroke="black" stroke-width="1.5"/>
<path d="M112.778 54.252H127.083C128.333 54.2521 129.242 55.1745 129.243 56.1748V62.1104C129.243 62.3251 129.035 62.6035 128.64 62.6035H126.324V64.2158C126.324 64.8509 126.556 65.4539 126.966 65.9336L127.153 66.1309L127.154 66.1318L127.363 66.333C129.444 68.3376 130.577 70.9506 130.577 73.6963V89.5771C130.577 91.5418 128.813 93.2471 126.511 93.2471H113.345C111.045 93.2471 109.285 91.5427 109.285 89.5771V73.6963C109.285 71.1256 110.281 68.6644 112.117 66.7148L112.495 66.3311L112.5 66.3271L112.69 66.1396L112.697 66.1338L112.704 66.127C113.163 65.6845 113.452 65.1079 113.521 64.4902L113.538 64.2227V62.6035H111.221C110.826 62.6035 110.619 62.3251 110.619 62.1104V56.1748C110.619 55.1744 111.528 54.252 112.778 54.252ZM114.733 64.2119C114.733 65.0959 114.392 65.9432 113.748 66.625L113.615 66.7588L113.418 66.9473L113.412 66.9541L113.405 66.96C111.528 68.7725 110.48 71.1638 110.48 73.6914V89.5732C110.48 91.1134 111.825 92.2617 113.34 92.2617H126.507C128.026 92.2615 129.371 91.1143 129.372 89.5732V73.6914C129.371 71.1598 128.324 68.768 126.441 66.959L126.434 66.9521L126.227 66.7539C125.507 66.0557 125.119 65.1508 125.119 64.2119V62.5996H114.733V64.2119ZM112.773 55.2334C112.32 55.2336 111.819 55.5806 111.819 56.1699L111.814 60.8633L111.813 61.6143H128.033V56.1709C128.033 55.6064 127.56 55.2335 127.079 55.2334H112.773Z" stroke="black" stroke-width="1.5"/>
<mask id="path-7-inside-2_2261_123" fill="white">
<path d="M9.23008 49.4711C9.23473 49.4754 9.23938 49.4797 9.24403 49.4882C9.24867 49.4925 9.25332 49.4967 9.26262 49.501C12.1581 52.1571 15.5229 54.241 19.2735 55.6972C23.1635 57.2089 27.2952 57.9775 31.5524 57.9775C35.8096 57.9775 39.9413 57.2089 43.8313 55.6972C47.5865 54.2367 50.9607 52.1486 53.8608 49.4839C56.7562 46.8235 59.0335 43.7233 60.623 40.2687C62.2682 36.6945 63.1048 32.8982 63.1048 28.9866C63.1048 25.075 62.2682 21.2788 60.623 17.7046C59.6424 15.5737 58.4014 13.5795 56.9142 11.739H110.069C114.744 11.739 118.546 15.2278 118.546 19.5194V19.7372C115.474 20.019 112.625 21.2489 110.417 23.2815C107.884 25.6088 106.49 28.7005 106.49 31.9929C106.49 33.0861 106.648 34.1494 106.941 35.1572L87.0909 56.1584C86.2311 57.0722 85.7292 58.238 85.6781 59.4422C85.6269 60.6464 86.0266 61.8421 86.8028 62.8157L96.5162 74.939C97.6549 76.361 99.4163 77.1126 101.206 77.1126C102.4 77.1126 103.604 76.7753 104.636 76.0792C107.215 74.3369 107.773 70.9933 105.876 68.619L98.9144 59.929L114.605 43.3048C116.231 43.9497 118.016 44.3041 119.898 44.3041C121.776 44.3041 123.565 43.9454 125.192 43.3048L140.891 59.929L133.925 68.6276C132.033 70.9976 132.586 74.3412 135.17 76.0877C136.179 76.7624 137.364 77.1211 138.605 77.1211C140.44 77.1211 142.193 76.3098 143.285 74.9433L152.989 62.8157C153.765 61.8464 154.165 60.6464 154.109 59.4422C154.058 58.238 153.556 57.0722 152.696 56.1584L132.851 35.1486C133.139 34.1408 133.297 33.0861 133.297 31.9972C133.297 28.7048 131.903 25.6088 129.37 23.2858C127.162 21.2574 124.313 20.0233 121.246 19.7415V19.5237C121.246 16.7822 120.084 14.2029 117.969 12.2642C115.859 10.3255 113.052 9.25795 110.064 9.25795H54.6648C54.4092 9.00174 54.1443 8.75406 53.8747 8.50638C53.8701 8.50211 53.8654 8.49784 53.8608 8.4893C53.8561 8.48076 53.8515 8.48076 53.8422 8.47649C50.9467 5.82038 47.5819 3.73649 43.8313 2.28032C39.9413 0.768648 35.8096 0 31.5524 0C27.2952 0 23.1635 0.768648 19.2735 2.28032C15.5183 3.74076 12.1441 5.82892 9.24403 8.49357C6.34394 11.1582 4.07127 14.2542 2.4818 17.7088C0.836562 21.283 0 25.0793 0 28.9909C0 32.9025 0.836562 36.6987 2.4818 40.273C4.07127 43.7191 6.33929 46.815 9.23008 49.4711ZM96.1583 59.0622C95.7447 59.502 95.7168 60.1425 96.0886 60.6123L103.687 70.1008C104.701 71.3691 104.403 73.1583 103.023 74.0892C101.642 75.0202 99.6952 74.7469 98.682 73.4786L88.9686 61.3553C88.1041 60.2749 88.1692 58.8102 89.1219 57.7939L108.042 37.7706C109.037 39.4872 110.464 40.9647 112.183 42.0793L96.1583 59.0622ZM150.651 57.7896C151.609 58.8059 151.669 60.2706 150.809 61.351L141.105 73.4743C140.519 74.2045 139.585 74.6401 138.6 74.6401C137.935 74.6401 137.299 74.4479 136.764 74.0892C135.384 73.1583 135.086 71.3691 136.1 70.1008L143.698 60.6123C144.075 60.1468 144.047 59.502 143.629 59.0622L127.59 42.075C129.314 40.9605 130.741 39.4787 131.736 37.7578L150.651 57.7896ZM130.597 31.9972C130.597 37.4204 125.796 41.8316 119.894 41.8316C115.186 41.8316 111.179 39.026 109.748 35.1358C109.734 35.0974 109.72 35.0547 109.706 35.0162C109.371 34.064 109.19 33.0476 109.19 31.9972C109.19 26.5953 113.949 22.2012 119.819 22.1627C119.847 22.1627 119.87 22.167 119.898 22.167C119.926 22.167 119.949 22.167 119.977 22.1627C125.838 22.2012 130.597 26.5995 130.597 31.9972ZM31.5524 55.4965C24.0837 55.4965 17.2704 52.8745 12.1441 48.5829L21.5276 39.9612C22.9126 41.0288 24.4927 41.87 26.2216 42.4465L25.2642 45.7389L22.959 45.171C22.2386 44.9916 21.4997 45.3845 21.3045 46.0464C21.1093 46.7083 21.5369 47.3872 22.2572 47.5666L25.7708 48.4334C25.8033 48.442 25.8359 48.4548 25.8684 48.4633C25.9009 48.4719 25.9335 48.4761 25.966 48.4847L29.4749 49.3516C29.5911 49.3814 29.712 49.3943 29.8281 49.3943C30.423 49.3943 30.9714 49.027 31.1341 48.4761C31.3293 47.8143 30.9017 47.1353 30.1814 46.9559L27.8808 46.388L28.8382 43.0956C29.7538 43.2451 30.674 43.3219 31.5896 43.3219C34.3223 43.3219 37.0179 42.6558 39.4393 41.3533C40.2666 40.9092 41.0334 40.4011 41.7445 39.8417L44.3983 42.2202L42.7252 43.7746C42.2046 44.2657 42.2139 45.0514 42.7531 45.5297C43.018 45.7645 43.3572 45.8798 43.6965 45.8798C44.0497 45.8798 44.3983 45.756 44.6632 45.504L47.1961 43.1127C47.2194 43.0913 47.2473 43.07 47.2705 43.0486C47.2891 43.0315 47.3077 43.0102 47.3263 42.9888L49.8731 40.5847C50.3937 40.0936 50.3844 39.3079 49.8453 38.8296C49.3108 38.3513 48.4556 38.3599 47.9351 38.8552L46.2713 40.4267L43.6222 38.0524C45.0211 36.4767 46.0528 34.6319 46.6245 32.6078C47.2008 30.5837 47.2844 28.5083 46.8987 26.5056L50.4773 25.6259L51.0908 27.7397C51.2535 28.2948 51.7972 28.6621 52.3968 28.6621C52.513 28.6621 52.6291 28.6493 52.7453 28.6194C53.4657 28.4443 53.8933 27.761 53.7027 27.0992L52.75 23.8239C52.7453 23.811 52.7453 23.7982 52.7407 23.7854C52.736 23.7726 52.7314 23.7598 52.7268 23.747L51.774 20.4674C51.5834 19.8055 50.8398 19.4127 50.1195 19.5877C49.3991 19.7628 48.9715 20.4461 49.1621 21.108L49.7802 23.2303L46.2016 24.11C45.8809 23.3029 45.4765 22.5129 44.9932 21.7528C44.547 21.0525 44.0404 20.3948 43.4827 19.7799L52.8708 11.154C57.5416 15.8641 60.3953 22.1286 60.3953 28.9866C60.3999 43.6038 47.4564 55.4965 31.5524 55.4965ZM20.44 34.9735C19.8591 34.0597 19.4176 33.0946 19.1201 32.0996C19.1155 32.0826 19.1108 32.0612 19.1062 32.0441C19.1015 32.0228 19.0922 32.0014 19.0876 31.9801C18.5345 30.0414 18.5252 27.9916 19.0922 26.0017C20.8862 19.686 27.9366 15.894 34.8057 17.5423C36.609 17.9736 38.2542 18.7422 39.6578 19.7884L21.5369 36.4382C21.1372 35.9771 20.77 35.4902 20.44 34.9735ZM42.6647 23.0082C43.2503 23.9221 43.6919 24.8914 43.9847 25.8907C43.9893 25.9077 43.994 25.9206 43.9986 25.9376C44.0033 25.9505 44.0079 25.9633 44.0125 25.9803C44.5749 27.9276 44.5842 29.9816 44.0125 31.9844C43.4455 33.9871 42.3441 35.7764 40.8197 37.2197C40.8104 37.2282 40.7964 37.2368 40.7871 37.2496C40.7778 37.2581 40.7732 37.2667 40.7639 37.2752C39.9738 38.0182 39.0675 38.6673 38.0636 39.2054C35.0938 40.8025 31.6268 41.2423 28.2991 40.4438C26.4958 40.0125 24.8506 39.2438 23.447 38.1976L41.5679 21.5478C41.9676 22.0047 42.3348 22.4915 42.6647 23.0082ZM31.5524 2.4853C39.021 2.4853 45.8344 5.10725 50.9607 9.39887L41.5772 18.0248C40.1922 16.9573 38.6121 16.116 36.8832 15.5395L37.8452 12.2471L40.1458 12.8151C40.262 12.845 40.3828 12.8578 40.499 12.8578C41.0939 12.8578 41.6423 12.4905 41.8049 11.9397C42.0001 11.2778 41.5726 10.5988 40.8522 10.4195L37.2921 9.53979C37.2782 9.53552 37.2643 9.53125 37.2503 9.52698C37.2364 9.52271 37.2224 9.51844 37.2085 9.51844L33.6392 8.63876C32.9188 8.45941 32.1798 8.85228 31.9846 9.51417C31.7894 10.1761 32.217 10.855 32.9374 11.0344L35.2426 11.6023L34.2805 14.8947C30.6322 14.2926 26.9095 14.899 23.6794 16.6413C22.8521 17.0854 22.0853 17.5935 21.3742 18.1529L18.7158 15.7787L20.3843 14.2072C20.9048 13.7161 20.8955 12.9304 20.3564 12.4521C19.8173 11.9738 18.9668 11.9824 18.4462 12.4777L15.8668 14.9118C15.8575 14.9203 15.8436 14.9289 15.8343 14.9417C15.825 14.9502 15.8157 14.963 15.8064 14.9716L13.2363 17.4014C12.7158 17.8924 12.7251 18.6782 13.2642 19.1564C13.5291 19.3913 13.8684 19.5066 14.2076 19.5066C14.5609 19.5066 14.9094 19.3828 15.1743 19.1308L16.8335 17.5636L19.4873 19.9379C18.0884 21.5136 17.0566 23.3584 16.485 25.3825C15.9087 27.4066 15.825 29.482 16.2107 31.4847L12.6368 32.3644L12.0186 30.2463C11.8281 29.5845 11.0845 29.1916 10.3641 29.3667C9.64372 29.5418 9.21614 30.225 9.40669 30.8869L10.3455 34.1152C10.3502 34.1451 10.3594 34.175 10.3687 34.2092C10.378 34.2391 10.3873 34.2647 10.3966 34.2946L11.3354 37.5229C11.4981 38.078 12.0419 38.4453 12.6414 38.4453C12.7576 38.4453 12.8738 38.4325 12.99 38.4026C13.7103 38.2275 14.1379 37.5442 13.9474 36.8824L13.3292 34.7643L16.9079 33.8804C17.2286 34.6874 17.6329 35.4774 18.1163 36.2375C18.5624 36.9379 19.069 37.5955 19.6267 38.2104L10.2386 46.8364C5.5678 42.1262 2.71418 35.8618 2.71418 29.0037C2.70489 14.378 15.6484 2.4853 31.5524 2.4853Z"/>
</mask>
<path d="M9.23008 49.4711C9.23473 49.4754 9.23938 49.4797 9.24403 49.4882C9.24867 49.4925 9.25332 49.4967 9.26262 49.501C12.1581 52.1571 15.5229 54.241 19.2735 55.6972C23.1635 57.2089 27.2952 57.9775 31.5524 57.9775C35.8096 57.9775 39.9413 57.2089 43.8313 55.6972C47.5865 54.2367 50.9607 52.1486 53.8608 49.4839C56.7562 46.8235 59.0335 43.7233 60.623 40.2687C62.2682 36.6945 63.1048 32.8982 63.1048 28.9866C63.1048 25.075 62.2682 21.2788 60.623 17.7046C59.6424 15.5737 58.4014 13.5795 56.9142 11.739H110.069C114.744 11.739 118.546 15.2278 118.546 19.5194V19.7372C115.474 20.019 112.625 21.2489 110.417 23.2815C107.884 25.6088 106.49 28.7005 106.49 31.9929C106.49 33.0861 106.648 34.1494 106.941 35.1572L87.0909 56.1584C86.2311 57.0722 85.7292 58.238 85.6781 59.4422C85.6269 60.6464 86.0266 61.8421 86.8028 62.8157L96.5162 74.939C97.6549 76.361 99.4163 77.1126 101.206 77.1126C102.4 77.1126 103.604 76.7753 104.636 76.0792C107.215 74.3369 107.773 70.9933 105.876 68.619L98.9144 59.929L114.605 43.3048C116.231 43.9497 118.016 44.3041 119.898 44.3041C121.776 44.3041 123.565 43.9454 125.192 43.3048L140.891 59.929L133.925 68.6276C132.033 70.9976 132.586 74.3412 135.17 76.0877C136.179 76.7624 137.364 77.1211 138.605 77.1211C140.44 77.1211 142.193 76.3098 143.285 74.9433L152.989 62.8157C153.765 61.8464 154.165 60.6464 154.109 59.4422C154.058 58.238 153.556 57.0722 152.696 56.1584L132.851 35.1486C133.139 34.1408 133.297 33.0861 133.297 31.9972C133.297 28.7048 131.903 25.6088 129.37 23.2858C127.162 21.2574 124.313 20.0233 121.246 19.7415V19.5237C121.246 16.7822 120.084 14.2029 117.969 12.2642C115.859 10.3255 113.052 9.25795 110.064 9.25795H54.6648C54.4092 9.00174 54.1443 8.75406 53.8747 8.50638C53.8701 8.50211 53.8654 8.49784 53.8608 8.4893C53.8561 8.48076 53.8515 8.48076 53.8422 8.47649C50.9467 5.82038 47.5819 3.73649 43.8313 2.28032C39.9413 0.768648 35.8096 0 31.5524 0C27.2952 0 23.1635 0.768648 19.2735 2.28032C15.5183 3.74076 12.1441 5.82892 9.24403 8.49357C6.34394 11.1582 4.07127 14.2542 2.4818 17.7088C0.836562 21.283 0 25.0793 0 28.9909C0 32.9025 0.836562 36.6987 2.4818 40.273C4.07127 43.7191 6.33929 46.815 9.23008 49.4711ZM96.1583 59.0622C95.7447 59.502 95.7168 60.1425 96.0886 60.6123L103.687 70.1008C104.701 71.3691 104.403 73.1583 103.023 74.0892C101.642 75.0202 99.6952 74.7469 98.682 73.4786L88.9686 61.3553C88.1041 60.2749 88.1692 58.8102 89.1219 57.7939L108.042 37.7706C109.037 39.4872 110.464 40.9647 112.183 42.0793L96.1583 59.0622ZM150.651 57.7896C151.609 58.8059 151.669 60.2706 150.809 61.351L141.105 73.4743C140.519 74.2045 139.585 74.6401 138.6 74.6401C137.935 74.6401 137.299 74.4479 136.764 74.0892C135.384 73.1583 135.086 71.3691 136.1 70.1008L143.698 60.6123C144.075 60.1468 144.047 59.502 143.629 59.0622L127.59 42.075C129.314 40.9605 130.741 39.4787 131.736 37.7578L150.651 57.7896ZM130.597 31.9972C130.597 37.4204 125.796 41.8316 119.894 41.8316C115.186 41.8316 111.179 39.026 109.748 35.1358C109.734 35.0974 109.72 35.0547 109.706 35.0162C109.371 34.064 109.19 33.0476 109.19 31.9972C109.19 26.5953 113.949 22.2012 119.819 22.1627C119.847 22.1627 119.87 22.167 119.898 22.167C119.926 22.167 119.949 22.167 119.977 22.1627C125.838 22.2012 130.597 26.5995 130.597 31.9972ZM31.5524 55.4965C24.0837 55.4965 17.2704 52.8745 12.1441 48.5829L21.5276 39.9612C22.9126 41.0288 24.4927 41.87 26.2216 42.4465L25.2642 45.7389L22.959 45.171C22.2386 44.9916 21.4997 45.3845 21.3045 46.0464C21.1093 46.7083 21.5369 47.3872 22.2572 47.5666L25.7708 48.4334C25.8033 48.442 25.8359 48.4548 25.8684 48.4633C25.9009 48.4719 25.9335 48.4761 25.966 48.4847L29.4749 49.3516C29.5911 49.3814 29.712 49.3943 29.8281 49.3943C30.423 49.3943 30.9714 49.027 31.1341 48.4761C31.3293 47.8143 30.9017 47.1353 30.1814 46.9559L27.8808 46.388L28.8382 43.0956C29.7538 43.2451 30.674 43.3219 31.5896 43.3219C34.3223 43.3219 37.0179 42.6558 39.4393 41.3533C40.2666 40.9092 41.0334 40.4011 41.7445 39.8417L44.3983 42.2202L42.7252 43.7746C42.2046 44.2657 42.2139 45.0514 42.7531 45.5297C43.018 45.7645 43.3572 45.8798 43.6965 45.8798C44.0497 45.8798 44.3983 45.756 44.6632 45.504L47.1961 43.1127C47.2194 43.0913 47.2473 43.07 47.2705 43.0486C47.2891 43.0315 47.3077 43.0102 47.3263 42.9888L49.8731 40.5847C50.3937 40.0936 50.3844 39.3079 49.8453 38.8296C49.3108 38.3513 48.4556 38.3599 47.9351 38.8552L46.2713 40.4267L43.6222 38.0524C45.0211 36.4767 46.0528 34.6319 46.6245 32.6078C47.2008 30.5837 47.2844 28.5083 46.8987 26.5056L50.4773 25.6259L51.0908 27.7397C51.2535 28.2948 51.7972 28.6621 52.3968 28.6621C52.513 28.6621 52.6291 28.6493 52.7453 28.6194C53.4657 28.4443 53.8933 27.761 53.7027 27.0992L52.75 23.8239C52.7453 23.811 52.7453 23.7982 52.7407 23.7854C52.736 23.7726 52.7314 23.7598 52.7268 23.747L51.774 20.4674C51.5834 19.8055 50.8398 19.4127 50.1195 19.5877C49.3991 19.7628 48.9715 20.4461 49.1621 21.108L49.7802 23.2303L46.2016 24.11C45.8809 23.3029 45.4765 22.5129 44.9932 21.7528C44.547 21.0525 44.0404 20.3948 43.4827 19.7799L52.8708 11.154C57.5416 15.8641 60.3953 22.1286 60.3953 28.9866C60.3999 43.6038 47.4564 55.4965 31.5524 55.4965ZM20.44 34.9735C19.8591 34.0597 19.4176 33.0946 19.1201 32.0996C19.1155 32.0826 19.1108 32.0612 19.1062 32.0441C19.1015 32.0228 19.0922 32.0014 19.0876 31.9801C18.5345 30.0414 18.5252 27.9916 19.0922 26.0017C20.8862 19.686 27.9366 15.894 34.8057 17.5423C36.609 17.9736 38.2542 18.7422 39.6578 19.7884L21.5369 36.4382C21.1372 35.9771 20.77 35.4902 20.44 34.9735ZM42.6647 23.0082C43.2503 23.9221 43.6919 24.8914 43.9847 25.8907C43.9893 25.9077 43.994 25.9206 43.9986 25.9376C44.0033 25.9505 44.0079 25.9633 44.0125 25.9803C44.5749 27.9276 44.5842 29.9816 44.0125 31.9844C43.4455 33.9871 42.3441 35.7764 40.8197 37.2197C40.8104 37.2282 40.7964 37.2368 40.7871 37.2496C40.7778 37.2581 40.7732 37.2667 40.7639 37.2752C39.9738 38.0182 39.0675 38.6673 38.0636 39.2054C35.0938 40.8025 31.6268 41.2423 28.2991 40.4438C26.4958 40.0125 24.8506 39.2438 23.447 38.1976L41.5679 21.5478C41.9676 22.0047 42.3348 22.4915 42.6647 23.0082ZM31.5524 2.4853C39.021 2.4853 45.8344 5.10725 50.9607 9.39887L41.5772 18.0248C40.1922 16.9573 38.6121 16.116 36.8832 15.5395L37.8452 12.2471L40.1458 12.8151C40.262 12.845 40.3828 12.8578 40.499 12.8578C41.0939 12.8578 41.6423 12.4905 41.8049 11.9397C42.0001 11.2778 41.5726 10.5988 40.8522 10.4195L37.2921 9.53979C37.2782 9.53552 37.2643 9.53125 37.2503 9.52698C37.2364 9.52271 37.2224 9.51844 37.2085 9.51844L33.6392 8.63876C32.9188 8.45941 32.1798 8.85228 31.9846 9.51417C31.7894 10.1761 32.217 10.855 32.9374 11.0344L35.2426 11.6023L34.2805 14.8947C30.6322 14.2926 26.9095 14.899 23.6794 16.6413C22.8521 17.0854 22.0853 17.5935 21.3742 18.1529L18.7158 15.7787L20.3843 14.2072C20.9048 13.7161 20.8955 12.9304 20.3564 12.4521C19.8173 11.9738 18.9668 11.9824 18.4462 12.4777L15.8668 14.9118C15.8575 14.9203 15.8436 14.9289 15.8343 14.9417C15.825 14.9502 15.8157 14.963 15.8064 14.9716L13.2363 17.4014C12.7158 17.8924 12.7251 18.6782 13.2642 19.1564C13.5291 19.3913 13.8684 19.5066 14.2076 19.5066C14.5609 19.5066 14.9094 19.3828 15.1743 19.1308L16.8335 17.5636L19.4873 19.9379C18.0884 21.5136 17.0566 23.3584 16.485 25.3825C15.9087 27.4066 15.825 29.482 16.2107 31.4847L12.6368 32.3644L12.0186 30.2463C11.8281 29.5845 11.0845 29.1916 10.3641 29.3667C9.64372 29.5418 9.21614 30.225 9.40669 30.8869L10.3455 34.1152C10.3502 34.1451 10.3594 34.175 10.3687 34.2092C10.378 34.2391 10.3873 34.2647 10.3966 34.2946L11.3354 37.5229C11.4981 38.078 12.0419 38.4453 12.6414 38.4453C12.7576 38.4453 12.8738 38.4325 12.99 38.4026C13.7103 38.2275 14.1379 37.5442 13.9474 36.8824L13.3292 34.7643L16.9079 33.8804C17.2286 34.6874 17.6329 35.4774 18.1163 36.2375C18.5624 36.9379 19.069 37.5955 19.6267 38.2104L10.2386 46.8364C5.5678 42.1262 2.71418 35.8618 2.71418 29.0037C2.70489 14.378 15.6484 2.4853 31.5524 2.4853Z" stroke="black" stroke-width="3" mask="url(#path-7-inside-2_2261_123)"/>
</svg>
