<svg width="156" height="149" viewBox="0 0 156 149" fill="none" xmlns="http://www.w3.org/2000/svg">
<path d="M22.3716 26.3223V73.8828L8.79053 60.9121V26.3223H22.3716Z" stroke="black" stroke-width="2"/>
<path d="M44.1846 26.3223V57.5107L41.8398 55.2705L36.5283 50.1768L34.8359 48.5547V85.7979L30.6035 81.752V26.3223H44.1846Z" stroke="black" stroke-width="2"/>
<path d="M64.6611 1C66.4599 1 67.9831 2.0152 68.6865 3.44434L68.9453 3.97168L69.5322 4.00195C70.4315 4.0485 71.2289 4.38961 71.835 4.9248L72.6631 5.65625L73.3086 4.75977C73.9658 3.84687 75.0737 3.23449 76.3467 3.23438C78.419 3.23438 80.0215 4.82907 80.0215 6.70312C80.0215 8.23109 78.9522 9.55886 77.4102 10.0029L76.8945 10.1514L76.7334 10.6631C76.3166 11.9874 75.08 12.998 73.5293 13.1182L73.1377 13.1484L72.8711 13.4375C72.1964 14.1694 71.2185 14.6406 70.1143 14.6406C69.2792 14.6405 68.5149 14.3646 67.8877 13.9102L66.7959 13.1191L66.3555 14.3936C65.2686 17.5425 62.1506 19.8545 58.4287 19.8545C55.8159 19.8544 53.4939 18.7144 51.9678 16.9424L51.4199 16.3066L50.6982 16.7354C49.7681 17.289 48.688 17.6201 47.5225 17.6201C47.2426 17.6201 46.9647 17.5801 46.5996 17.5273L45.834 17.417L45.5342 18.1299C45.1169 19.1233 44.0871 19.8545 42.8477 19.8545C42.6319 19.8545 42.4125 19.8249 42.1777 19.7725L41.2803 19.5723L41.0059 20.4502C40.8497 20.9485 40.3573 21.3438 39.7314 21.3438C38.9493 21.3436 38.3945 20.75 38.3945 20.1094C38.3946 19.6224 38.715 19.1672 39.2324 18.9756L39.3389 18.9404L40.2627 18.6758L40.0342 17.7422C39.9808 17.524 39.9521 17.3236 39.9521 17.1299C39.9523 16.1627 40.5 15.2979 41.3633 14.8086L42.0791 14.4033L41.8193 13.623C41.628 13.0477 41.5108 12.487 41.5107 11.917C41.5107 8.80954 44.16 6.21387 47.5225 6.21387C48.2543 6.2139 48.9588 6.35678 49.6348 6.59766L50.7617 7L50.957 5.81836C51.4026 3.1193 53.8434 1 56.8711 1C58.2189 1.00007 59.4514 1.43699 60.46 2.15527L61.0957 2.6084L61.6895 2.10059C62.484 1.42203 63.5175 1.00004 64.6611 1Z" stroke="black" stroke-width="2"/>
<path d="M77.2139 96.0586L78.9053 97.6748V60.4346L116.166 96.0586L117.857 97.6748V60.4346L154.81 95.7617V147.961H1V60.4346L38.2617 96.0586L39.9521 97.6748V60.4336L77.2139 96.0586ZM6.79004 132.086H30.6035V112.211H6.79004V132.086ZM36.3945 132.086H60.208V112.211H36.3945V132.086ZM65.998 132.086H89.8115V112.211H65.998V132.086ZM95.6025 132.086H119.416V112.211H95.6025V132.086ZM125.206 132.086H149.02V112.211H125.206V132.086Z" stroke="black" stroke-width="2"/>
</svg>
