<svg width="156" height="149" viewBox="0 0 156 149" fill="none" xmlns="http://www.w3.org/2000/svg">
<path d="M49.2686 1C51.0884 1 52.6069 1.98726 53.3008 3.3418L53.5645 3.85645L54.1416 3.88477C55.0513 3.92991 55.8531 4.26202 56.458 4.77539L57.2686 5.46289L57.9053 4.6123C58.5559 3.74385 59.6656 3.14755 60.9551 3.14746C63.0662 3.14746 64.6299 4.70052 64.6299 6.44238C64.6299 7.86493 63.5899 9.14107 62.0283 9.57324L61.5117 9.71582L61.3447 10.2256C60.9374 11.4694 59.7138 12.4521 58.1406 12.5693L57.7578 12.5977L57.4932 12.874C56.8224 13.5734 55.8407 14.0322 54.7227 14.0322C53.8776 14.0322 53.1071 13.7642 52.4795 13.3271L51.4082 12.5811L50.9668 13.8096C49.89 16.8073 46.7831 19.0429 43.0361 19.043C40.4087 19.043 38.0832 17.9411 36.5615 16.2432L36.0215 15.6406L35.3203 16.042C34.3884 16.5751 33.3019 16.8955 32.1279 16.8955C31.8449 16.8955 31.5645 16.8572 31.2002 16.8066L30.4492 16.7021L30.1465 17.3965C29.7394 18.3278 28.7164 19.0428 27.4541 19.043C27.2347 19.043 27.012 19.0147 26.7754 18.9639L25.8945 18.7744L25.6152 19.6318C25.4692 20.0798 24.9889 20.4746 24.3369 20.4746C23.5163 20.4744 23 19.8835 23 19.3271C23 18.8741 23.3349 18.409 23.9336 18.2441L24.8799 17.9844L24.6377 17.0332C24.5854 16.8276 24.5586 16.642 24.5586 16.4639C24.5586 15.5698 25.085 14.7479 25.9541 14.2744L26.6982 13.8691L26.4219 13.0693C26.232 12.5206 26.1162 11.99 26.1162 11.4531C26.1162 8.526 28.7268 6.01097 32.1279 6.01074C32.8651 6.01074 33.5736 6.14959 34.252 6.38184L35.3633 6.7627L35.5615 5.60547C35.9994 3.05496 38.4181 1.00006 41.4775 1C42.8352 1 44.0739 1.42258 45.083 2.11328L45.7021 2.53711L46.2822 2.06152C47.0755 1.41045 48.1136 1.00005 49.2686 1Z" stroke="black" stroke-width="2"/>
<mask id="path-2-inside-1_2262_660" fill="white">
<path fill-rule="evenodd" clip-rule="evenodd" d="M52.8486 122.738H76.3726V80.5764L52.8486 68.8749V122.738ZM25.584 122.738H49.1081V80.5764L25.584 68.8749V122.738ZM13.7386 30.0691H27.5854L27.2681 23.4355H14.1304L13.7386 30.0691ZM27.7574 33.6582L29.3404 66.7102L24.5665 64.3363C23.6517 63.8836 22.526 64.229 22.0545 65.1072C21.9127 65.3692 21.8471 65.65 21.8471 65.9274H21.8435V122.736H8.25559L13.5259 33.6565L27.7574 33.6582ZM38.9592 87.4397V90.9181H35.3358V87.4397H38.9592ZM33.4655 83.8506H40.8277C41.8612 83.8506 42.6979 84.6539 42.6979 85.646V92.7135C42.6979 93.7057 41.8612 94.5089 40.8277 94.5089H33.4655C32.432 94.5089 31.5953 93.7057 31.5953 92.7135V85.646C31.5953 84.6539 32.432 83.8506 33.4655 83.8506ZM38.9592 105.482V108.96H35.3358V105.482H38.9592ZM33.4655 101.893H40.8277C41.8612 101.893 42.6979 102.696 42.6979 103.688V110.756C42.6979 111.748 41.8612 112.551 40.8277 112.551H33.4655C32.432 112.551 31.5953 111.748 31.5953 110.756V103.688C31.5953 102.696 32.432 101.893 33.4655 101.893ZM80.1113 118.37L95.0572 97.3781C96.0659 95.9605 96.8016 94.5566 97.282 93.1015C97.7571 91.6618 97.9857 90.1591 97.9857 88.5322V77.765L80.1131 68.8749V118.368L80.1113 118.37ZM71.6288 130.284L74.4439 126.329H0V130.284H71.6288ZM128.682 51.7771H98.9324C98.0726 51.7771 97.2873 52.1157 96.7182 52.662C96.1492 53.2083 95.7946 53.9605 95.7946 54.7875V55.2402C95.7946 56.0656 96.1474 56.8195 96.7182 57.3657C97.289 57.912 98.0708 58.2507 98.9324 58.2507H128.682C129.542 58.2507 130.327 57.912 130.896 57.3657C131.465 56.8195 131.82 56.0673 131.82 55.2402V54.7875C131.82 53.9622 131.467 53.2083 130.896 52.662C130.327 52.1157 129.544 51.7771 128.682 51.7771ZM145.672 122.144L154.132 134.024C155.25 135.597 155.81 137.268 155.81 138.927C155.81 140.586 155.25 142.258 154.132 143.83C152.981 145.445 151.41 146.72 149.544 147.594C147.643 148.484 145.435 148.959 143.043 148.959H84.5751C82.1836 148.959 79.973 148.484 78.0745 147.594C76.2078 146.721 74.6371 145.447 73.4866 143.83C72.368 142.258 71.8079 140.586 71.8079 138.927C71.8079 137.268 72.368 135.597 73.4866 134.024L74.0823 133.187C74.1337 133.124 74.1798 133.058 74.2223 132.99L81.5898 122.643C85.2575 121.322 88.8455 120.674 92.352 120.698C96.034 120.723 99.6663 121.492 103.245 123.005L103.311 123.033C107.619 124.668 111.873 125.471 116.073 125.442C120.292 125.413 124.421 124.545 128.455 122.84C132.05 121.321 134.711 120.502 137.349 120.432C139.762 120.368 142.302 120.927 145.672 122.144ZM84.9491 117.922L98.1382 99.3981C99.3596 97.681 100.255 95.9673 100.843 94.1822C101.437 92.3834 101.723 90.525 101.723 88.5322V61.8397H125.892V88.5322C125.892 90.525 126.177 92.3817 126.771 94.1822C127.362 95.9673 128.255 97.681 129.476 99.3981L142.277 117.376C140.506 116.983 138.877 116.812 137.248 116.855C134.027 116.94 130.971 117.859 126.952 119.557C123.373 121.07 119.741 121.84 116.059 121.865C112.357 121.891 108.565 121.167 104.685 119.694C100.67 118.007 96.564 117.148 92.368 117.119C89.9145 117.102 87.4415 117.369 84.9509 117.92L84.9491 117.922ZM116.996 112.66C117.812 111.877 118.317 110.795 118.317 109.599C118.317 108.287 115.709 104.053 113.807 100.986C111.905 104.053 109.298 108.287 109.298 109.599C109.298 110.795 109.803 111.877 110.618 112.66C111.434 113.443 112.561 113.928 113.807 113.928C115.054 113.928 116.179 113.443 116.996 112.66ZM122.056 109.599C122.056 107.303 118.998 102.373 116.865 98.9352C116.335 98.0792 115.871 97.3322 115.451 96.6004C115.286 96.306 115.034 96.0524 114.706 95.8788C113.802 95.4023 112.667 95.7189 112.171 96.5868C111.749 97.322 111.283 98.0724 110.749 98.9335C108.617 102.371 105.559 107.301 105.559 109.597C105.559 111.784 106.482 113.763 107.975 115.196C109.468 116.629 111.529 117.515 113.807 117.515C116.085 117.515 118.147 116.629 119.64 115.196C121.132 113.763 122.056 111.785 122.056 109.599ZM108.163 73.9854L107.87 74.3768C107.27 75.1783 107.459 76.2964 108.294 76.8733C109.129 77.4502 110.294 77.2681 110.895 76.4666L111.187 76.0752C111.788 75.2736 111.599 74.1555 110.764 73.5786C109.929 73.0017 108.764 73.1838 108.163 73.9854ZM116.41 70.1649V70.1751C116.41 71.1672 117.246 71.9705 118.28 71.9705C119.313 71.9705 120.15 71.1672 120.15 70.1751V70.1649C120.15 69.1727 119.313 68.3695 118.28 68.3695C117.246 68.3695 116.41 69.1727 116.41 70.1649ZM103.502 82.5249V82.5351C103.502 83.5273 104.339 84.3305 105.373 84.3305C106.406 84.3305 107.243 83.5273 107.243 82.5351V82.5249C107.243 81.5328 106.406 80.7295 105.373 80.7295C104.339 80.7295 103.502 81.5328 103.502 82.5249ZM120.125 90.2493V90.2595C120.125 91.2517 120.962 92.0549 121.996 92.0549C123.029 92.0549 123.866 91.2517 123.866 90.2595V90.2493C123.866 89.2572 123.029 88.454 121.996 88.454C120.962 88.454 120.125 89.2572 120.125 90.2493ZM112.084 82.5215V82.5317C112.084 83.5239 112.921 84.3271 113.954 84.3271C114.988 84.3271 115.825 83.5239 115.825 82.5317V82.5215C115.825 81.5294 114.988 80.7261 113.954 80.7261C112.921 80.7261 112.084 81.5294 112.084 82.5215ZM66.6811 87.4397V90.9181H63.0577V87.4397H66.6811ZM61.1875 83.8506H68.5496C69.5831 83.8506 70.4198 84.6539 70.4198 85.646V92.7135C70.4198 93.7057 69.5831 94.5089 68.5496 94.5089H61.1875C60.154 94.5089 59.3172 93.7057 59.3172 92.7135V85.646C59.3172 84.6539 60.154 83.8506 61.1875 83.8506ZM66.6811 105.482V108.96H63.0577V105.482H66.6811ZM61.1875 101.893H68.5496C69.5831 101.893 70.4198 102.696 70.4198 103.688V110.756C70.4198 111.748 69.5831 112.551 68.5496 112.551H61.1875C60.154 112.551 59.3172 111.748 59.3172 110.756V103.688C59.3172 102.696 60.154 101.893 61.1875 101.893Z"/>
</mask>
<path fill-rule="evenodd" clip-rule="evenodd" d="M52.8486 122.738H76.3726V80.5764L52.8486 68.8749V122.738ZM25.584 122.738H49.1081V80.5764L25.584 68.8749V122.738ZM13.7386 30.0691H27.5854L27.2681 23.4355H14.1304L13.7386 30.0691ZM27.7574 33.6582L29.3404 66.7102L24.5665 64.3363C23.6517 63.8836 22.526 64.229 22.0545 65.1072C21.9127 65.3692 21.8471 65.65 21.8471 65.9274H21.8435V122.736H8.25559L13.5259 33.6565L27.7574 33.6582ZM38.9592 87.4397V90.9181H35.3358V87.4397H38.9592ZM33.4655 83.8506H40.8277C41.8612 83.8506 42.6979 84.6539 42.6979 85.646V92.7135C42.6979 93.7057 41.8612 94.5089 40.8277 94.5089H33.4655C32.432 94.5089 31.5953 93.7057 31.5953 92.7135V85.646C31.5953 84.6539 32.432 83.8506 33.4655 83.8506ZM38.9592 105.482V108.96H35.3358V105.482H38.9592ZM33.4655 101.893H40.8277C41.8612 101.893 42.6979 102.696 42.6979 103.688V110.756C42.6979 111.748 41.8612 112.551 40.8277 112.551H33.4655C32.432 112.551 31.5953 111.748 31.5953 110.756V103.688C31.5953 102.696 32.432 101.893 33.4655 101.893ZM80.1113 118.37L95.0572 97.3781C96.0659 95.9605 96.8016 94.5566 97.282 93.1015C97.7571 91.6618 97.9857 90.1591 97.9857 88.5322V77.765L80.1131 68.8749V118.368L80.1113 118.37ZM71.6288 130.284L74.4439 126.329H0V130.284H71.6288ZM128.682 51.7771H98.9324C98.0726 51.7771 97.2873 52.1157 96.7182 52.662C96.1492 53.2083 95.7946 53.9605 95.7946 54.7875V55.2402C95.7946 56.0656 96.1474 56.8195 96.7182 57.3657C97.289 57.912 98.0708 58.2507 98.9324 58.2507H128.682C129.542 58.2507 130.327 57.912 130.896 57.3657C131.465 56.8195 131.82 56.0673 131.82 55.2402V54.7875C131.82 53.9622 131.467 53.2083 130.896 52.662C130.327 52.1157 129.544 51.7771 128.682 51.7771ZM145.672 122.144L154.132 134.024C155.25 135.597 155.81 137.268 155.81 138.927C155.81 140.586 155.25 142.258 154.132 143.83C152.981 145.445 151.41 146.72 149.544 147.594C147.643 148.484 145.435 148.959 143.043 148.959H84.5751C82.1836 148.959 79.973 148.484 78.0745 147.594C76.2078 146.721 74.6371 145.447 73.4866 143.83C72.368 142.258 71.8079 140.586 71.8079 138.927C71.8079 137.268 72.368 135.597 73.4866 134.024L74.0823 133.187C74.1337 133.124 74.1798 133.058 74.2223 132.99L81.5898 122.643C85.2575 121.322 88.8455 120.674 92.352 120.698C96.034 120.723 99.6663 121.492 103.245 123.005L103.311 123.033C107.619 124.668 111.873 125.471 116.073 125.442C120.292 125.413 124.421 124.545 128.455 122.84C132.05 121.321 134.711 120.502 137.349 120.432C139.762 120.368 142.302 120.927 145.672 122.144ZM84.9491 117.922L98.1382 99.3981C99.3596 97.681 100.255 95.9673 100.843 94.1822C101.437 92.3834 101.723 90.525 101.723 88.5322V61.8397H125.892V88.5322C125.892 90.525 126.177 92.3817 126.771 94.1822C127.362 95.9673 128.255 97.681 129.476 99.3981L142.277 117.376C140.506 116.983 138.877 116.812 137.248 116.855C134.027 116.94 130.971 117.859 126.952 119.557C123.373 121.07 119.741 121.84 116.059 121.865C112.357 121.891 108.565 121.167 104.685 119.694C100.67 118.007 96.564 117.148 92.368 117.119C89.9145 117.102 87.4415 117.369 84.9509 117.92L84.9491 117.922ZM116.996 112.66C117.812 111.877 118.317 110.795 118.317 109.599C118.317 108.287 115.709 104.053 113.807 100.986C111.905 104.053 109.298 108.287 109.298 109.599C109.298 110.795 109.803 111.877 110.618 112.66C111.434 113.443 112.561 113.928 113.807 113.928C115.054 113.928 116.179 113.443 116.996 112.66ZM122.056 109.599C122.056 107.303 118.998 102.373 116.865 98.9352C116.335 98.0792 115.871 97.3322 115.451 96.6004C115.286 96.306 115.034 96.0524 114.706 95.8788C113.802 95.4023 112.667 95.7189 112.171 96.5868C111.749 97.322 111.283 98.0724 110.749 98.9335C108.617 102.371 105.559 107.301 105.559 109.597C105.559 111.784 106.482 113.763 107.975 115.196C109.468 116.629 111.529 117.515 113.807 117.515C116.085 117.515 118.147 116.629 119.64 115.196C121.132 113.763 122.056 111.785 122.056 109.599ZM108.163 73.9854L107.87 74.3768C107.27 75.1783 107.459 76.2964 108.294 76.8733C109.129 77.4502 110.294 77.2681 110.895 76.4666L111.187 76.0752C111.788 75.2736 111.599 74.1555 110.764 73.5786C109.929 73.0017 108.764 73.1838 108.163 73.9854ZM116.41 70.1649V70.1751C116.41 71.1672 117.246 71.9705 118.28 71.9705C119.313 71.9705 120.15 71.1672 120.15 70.1751V70.1649C120.15 69.1727 119.313 68.3695 118.28 68.3695C117.246 68.3695 116.41 69.1727 116.41 70.1649ZM103.502 82.5249V82.5351C103.502 83.5273 104.339 84.3305 105.373 84.3305C106.406 84.3305 107.243 83.5273 107.243 82.5351V82.5249C107.243 81.5328 106.406 80.7295 105.373 80.7295C104.339 80.7295 103.502 81.5328 103.502 82.5249ZM120.125 90.2493V90.2595C120.125 91.2517 120.962 92.0549 121.996 92.0549C123.029 92.0549 123.866 91.2517 123.866 90.2595V90.2493C123.866 89.2572 123.029 88.454 121.996 88.454C120.962 88.454 120.125 89.2572 120.125 90.2493ZM112.084 82.5215V82.5317C112.084 83.5239 112.921 84.3271 113.954 84.3271C114.988 84.3271 115.825 83.5239 115.825 82.5317V82.5215C115.825 81.5294 114.988 80.7261 113.954 80.7261C112.921 80.7261 112.084 81.5294 112.084 82.5215ZM66.6811 87.4397V90.9181H63.0577V87.4397H66.6811ZM61.1875 83.8506H68.5496C69.5831 83.8506 70.4198 84.6539 70.4198 85.646V92.7135C70.4198 93.7057 69.5831 94.5089 68.5496 94.5089H61.1875C60.154 94.5089 59.3172 93.7057 59.3172 92.7135V85.646C59.3172 84.6539 60.154 83.8506 61.1875 83.8506ZM66.6811 105.482V108.96H63.0577V105.482H66.6811ZM61.1875 101.893H68.5496C69.5831 101.893 70.4198 102.696 70.4198 103.688V110.756C70.4198 111.748 69.5831 112.551 68.5496 112.551H61.1875C60.154 112.551 59.3172 111.748 59.3172 110.756V103.688C59.3172 102.696 60.154 101.893 61.1875 101.893Z" stroke="black" stroke-width="4" mask="url(#path-2-inside-1_2262_660)"/>
</svg>
