<svg width="156" height="149" viewBox="0 0 156 149" fill="none" xmlns="http://www.w3.org/2000/svg">
<mask id="path-1-inside-1_2261_116" fill="white">
<path d="M133.795 98.314C134.101 97.6848 134.277 97.012 134.277 96.2832V76.055C134.277 73.7812 133.242 71.6321 131.426 70.1619L131.4 70.137C130.261 69.1963 129.629 67.8445 129.629 66.4179V62.5992H130.007C131.192 62.5992 132.155 61.6835 132.155 60.5434V56.4133C132.155 55.2795 131.198 54.3575 130.007 54.3575H119.702C118.518 54.3575 117.554 55.2732 117.554 56.4133V60.5434C117.554 61.6772 118.511 62.5992 119.702 62.5992H120.08V66.4179C120.08 67.8694 119.422 69.2212 118.29 70.162C116.474 71.6384 115.439 73.7875 115.439 76.0552V96.2769C115.439 96.9995 115.615 97.6786 115.894 98.2828L102.133 98.289C102.439 97.6848 102.589 97.0057 102.589 96.2831V76.055C102.589 73.7812 101.554 71.6321 99.738 70.1618L99.7119 70.1369C98.5728 69.1963 97.9414 67.8444 97.9414 66.4179V62.5992H98.3189C99.5036 62.5992 100.467 61.6835 100.467 60.5434V56.4132C100.467 55.2795 99.5102 54.3574 98.3189 54.3574H88.0144C86.8297 54.3574 85.8662 55.2732 85.8662 56.4132V60.5434C85.8662 61.6772 86.8231 62.5992 88.0144 62.5992H88.3919V66.4179C88.3919 67.8694 87.7345 69.2212 86.6019 70.162C84.7858 71.6384 83.7508 73.7875 83.7508 76.0551V96.2769C83.7508 96.9995 83.9265 97.6785 84.2065 98.2828H70.4454C70.7514 97.6785 70.9011 96.9995 70.9011 96.2769V76.0488C70.9011 73.7749 69.8661 71.6258 68.1477 70.2242C68.1216 70.1992 68.0956 70.1743 68.0435 70.1494C66.9043 69.2087 66.2534 67.8569 66.2534 66.4304V62.6117H66.631C67.8157 62.6117 68.7792 61.6959 68.7792 60.5559V56.4257C68.7792 55.2919 67.8223 54.3699 66.631 54.3699H56.3265C55.1417 54.3699 54.1783 55.2857 54.1783 56.4257V60.5559C54.1783 61.6897 55.1352 62.6117 56.3265 62.6117H56.704V66.4304C56.704 67.8819 56.0465 69.2337 54.9139 70.1744C53.0979 71.6509 52.0628 73.8 52.0628 76.0676V96.2894C52.0628 97.012 52.2386 97.691 52.5185 98.2953L22.4445 98.314C10.4019 98.314 0.605957 107.689 0.605957 119.213C0.605957 130.738 10.4027 140.113 22.4445 140.113H26.0833V142.966C26.0833 146.274 28.8889 148.959 32.3454 148.959H126.499C129.955 148.959 132.761 146.274 132.761 142.966V140.113H133.34C145.383 140.113 155.179 130.737 155.179 119.213C155.179 107.813 145.636 98.5308 133.795 98.314ZM88.8468 57.2166H97.4849V59.752H88.8468V57.2166ZM88.5474 72.3421C90.3635 70.8657 91.3985 68.7165 91.3985 66.424V62.6053H94.9591V66.424C94.9591 68.6979 95.9941 70.847 97.8102 72.3172L97.8363 72.3421C98.9754 73.2828 99.6068 74.6346 99.6068 76.0611V96.2893C99.6068 97.3981 98.6695 98.2952 97.5108 98.2952H88.8272C87.6685 98.2952 86.7312 97.3981 86.7312 96.2893V93.8223H89.4846C91.177 93.8223 92.5375 92.5203 92.5375 90.9007V81.5252C92.5375 79.9055 91.177 78.6035 89.4846 78.6035L86.7312 78.5973V76.0868C86.7312 74.6353 87.3823 73.258 88.5474 72.3421ZM86.7313 81.4497L89.5564 81.4995V90.875C89.5564 90.9249 89.5304 90.9498 89.4783 90.9498L86.7314 90.9436L86.7313 81.4497ZM57.1656 57.2171H65.8232V59.7525H57.1656V57.2171ZM56.8596 72.3426C58.6757 70.8662 59.7107 68.717 59.7107 66.4245V62.6058H63.2714V66.4245C63.2714 68.6983 64.3064 70.8475 66.0248 72.2491C66.0508 72.274 66.0769 72.2989 66.129 72.3239C67.2681 73.2645 67.919 74.6164 67.919 76.0429V96.271C67.919 97.3799 66.9817 98.2769 65.823 98.2769H57.1394C55.9807 98.2769 55.0434 97.3799 55.0434 96.271V93.8041H57.7968C59.4892 93.8041 60.8497 92.5021 60.8497 90.8824V81.5069C60.8497 79.8872 59.4892 78.5853 57.7968 78.5853H55.0434V76.0748C55.0694 74.6358 55.7205 73.2583 56.8596 72.3426ZM55.0696 81.4502L57.8946 81.5V90.8755C57.8946 90.9254 57.8686 90.9503 57.8165 90.9503H55.0631L55.0696 81.4502ZM120.535 57.2176H129.173V59.7529H120.535V57.2176ZM120.21 72.343C122.026 70.8666 123.061 68.7175 123.061 66.425V62.6063H126.621V66.425C126.621 68.6988 127.656 70.8479 129.473 72.3182L129.499 72.3431C130.638 73.2837 131.269 74.6356 131.269 76.0621V96.2902C131.269 97.3991 130.332 98.2961 129.173 98.2961H120.49C119.331 98.2961 118.393 97.3991 118.393 96.2902V93.8233H121.147C122.839 93.8233 124.2 92.5213 124.2 90.9016V81.5261C124.2 79.9065 122.839 78.6045 121.147 78.6045H118.393V76.094C118.413 74.6363 119.071 73.2589 120.21 72.343ZM118.413 81.4506L121.238 81.5005V90.876C121.238 90.9258 121.212 90.9508 121.16 90.9508H118.407L118.413 81.4506ZM129.779 142.924C129.779 144.662 128.314 146.064 126.498 146.064H32.3446C30.5286 146.064 29.0638 144.663 29.0638 142.924V140.071H129.779L129.779 142.924ZM133.339 137.218H22.4236C12.0214 137.218 3.56627 129.126 3.56627 119.172C3.56627 109.217 12.022 101.125 22.4236 101.125H133.344C143.746 101.125 152.202 109.217 152.202 119.172C152.195 129.127 143.741 137.218 133.339 137.218Z"/>
</mask>
<path d="M133.795 98.314C134.101 97.6848 134.277 97.012 134.277 96.2832V76.055C134.277 73.7812 133.242 71.6321 131.426 70.1619L131.4 70.137C130.261 69.1963 129.629 67.8445 129.629 66.4179V62.5992H130.007C131.192 62.5992 132.155 61.6835 132.155 60.5434V56.4133C132.155 55.2795 131.198 54.3575 130.007 54.3575H119.702C118.518 54.3575 117.554 55.2732 117.554 56.4133V60.5434C117.554 61.6772 118.511 62.5992 119.702 62.5992H120.08V66.4179C120.08 67.8694 119.422 69.2212 118.29 70.162C116.474 71.6384 115.439 73.7875 115.439 76.0552V96.2769C115.439 96.9995 115.615 97.6786 115.894 98.2828L102.133 98.289C102.439 97.6848 102.589 97.0057 102.589 96.2831V76.055C102.589 73.7812 101.554 71.6321 99.738 70.1618L99.7119 70.1369C98.5728 69.1963 97.9414 67.8444 97.9414 66.4179V62.5992H98.3189C99.5036 62.5992 100.467 61.6835 100.467 60.5434V56.4132C100.467 55.2795 99.5102 54.3574 98.3189 54.3574H88.0144C86.8297 54.3574 85.8662 55.2732 85.8662 56.4132V60.5434C85.8662 61.6772 86.8231 62.5992 88.0144 62.5992H88.3919V66.4179C88.3919 67.8694 87.7345 69.2212 86.6019 70.162C84.7858 71.6384 83.7508 73.7875 83.7508 76.0551V96.2769C83.7508 96.9995 83.9265 97.6785 84.2065 98.2828H70.4454C70.7514 97.6785 70.9011 96.9995 70.9011 96.2769V76.0488C70.9011 73.7749 69.8661 71.6258 68.1477 70.2242C68.1216 70.1992 68.0956 70.1743 68.0435 70.1494C66.9043 69.2087 66.2534 67.8569 66.2534 66.4304V62.6117H66.631C67.8157 62.6117 68.7792 61.6959 68.7792 60.5559V56.4257C68.7792 55.2919 67.8223 54.3699 66.631 54.3699H56.3265C55.1417 54.3699 54.1783 55.2857 54.1783 56.4257V60.5559C54.1783 61.6897 55.1352 62.6117 56.3265 62.6117H56.704V66.4304C56.704 67.8819 56.0465 69.2337 54.9139 70.1744C53.0979 71.6509 52.0628 73.8 52.0628 76.0676V96.2894C52.0628 97.012 52.2386 97.691 52.5185 98.2953L22.4445 98.314C10.4019 98.314 0.605957 107.689 0.605957 119.213C0.605957 130.738 10.4027 140.113 22.4445 140.113H26.0833V142.966C26.0833 146.274 28.8889 148.959 32.3454 148.959H126.499C129.955 148.959 132.761 146.274 132.761 142.966V140.113H133.34C145.383 140.113 155.179 130.737 155.179 119.213C155.179 107.813 145.636 98.5308 133.795 98.314ZM88.8468 57.2166H97.4849V59.752H88.8468V57.2166ZM88.5474 72.3421C90.3635 70.8657 91.3985 68.7165 91.3985 66.424V62.6053H94.9591V66.424C94.9591 68.6979 95.9941 70.847 97.8102 72.3172L97.8363 72.3421C98.9754 73.2828 99.6068 74.6346 99.6068 76.0611V96.2893C99.6068 97.3981 98.6695 98.2952 97.5108 98.2952H88.8272C87.6685 98.2952 86.7312 97.3981 86.7312 96.2893V93.8223H89.4846C91.177 93.8223 92.5375 92.5203 92.5375 90.9007V81.5252C92.5375 79.9055 91.177 78.6035 89.4846 78.6035L86.7312 78.5973V76.0868C86.7312 74.6353 87.3823 73.258 88.5474 72.3421ZM86.7313 81.4497L89.5564 81.4995V90.875C89.5564 90.9249 89.5304 90.9498 89.4783 90.9498L86.7314 90.9436L86.7313 81.4497ZM57.1656 57.2171H65.8232V59.7525H57.1656V57.2171ZM56.8596 72.3426C58.6757 70.8662 59.7107 68.717 59.7107 66.4245V62.6058H63.2714V66.4245C63.2714 68.6983 64.3064 70.8475 66.0248 72.2491C66.0508 72.274 66.0769 72.2989 66.129 72.3239C67.2681 73.2645 67.919 74.6164 67.919 76.0429V96.271C67.919 97.3799 66.9817 98.2769 65.823 98.2769H57.1394C55.9807 98.2769 55.0434 97.3799 55.0434 96.271V93.8041H57.7968C59.4892 93.8041 60.8497 92.5021 60.8497 90.8824V81.5069C60.8497 79.8872 59.4892 78.5853 57.7968 78.5853H55.0434V76.0748C55.0694 74.6358 55.7205 73.2583 56.8596 72.3426ZM55.0696 81.4502L57.8946 81.5V90.8755C57.8946 90.9254 57.8686 90.9503 57.8165 90.9503H55.0631L55.0696 81.4502ZM120.535 57.2176H129.173V59.7529H120.535V57.2176ZM120.21 72.343C122.026 70.8666 123.061 68.7175 123.061 66.425V62.6063H126.621V66.425C126.621 68.6988 127.656 70.8479 129.473 72.3182L129.499 72.3431C130.638 73.2837 131.269 74.6356 131.269 76.0621V96.2902C131.269 97.3991 130.332 98.2961 129.173 98.2961H120.49C119.331 98.2961 118.393 97.3991 118.393 96.2902V93.8233H121.147C122.839 93.8233 124.2 92.5213 124.2 90.9016V81.5261C124.2 79.9065 122.839 78.6045 121.147 78.6045H118.393V76.094C118.413 74.6363 119.071 73.2589 120.21 72.343ZM118.413 81.4506L121.238 81.5005V90.876C121.238 90.9258 121.212 90.9508 121.16 90.9508H118.407L118.413 81.4506ZM129.779 142.924C129.779 144.662 128.314 146.064 126.498 146.064H32.3446C30.5286 146.064 29.0638 144.663 29.0638 142.924V140.071H129.779L129.779 142.924ZM133.339 137.218H22.4236C12.0214 137.218 3.56627 129.126 3.56627 119.172C3.56627 109.217 12.022 101.125 22.4236 101.125H133.344C143.746 101.125 152.202 109.217 152.202 119.172C152.195 129.127 143.741 137.218 133.339 137.218Z" stroke="black" stroke-width="4" mask="url(#path-1-inside-1_2261_116)"/>
<path d="M23.0493 107.727H132.734C139.311 107.727 144.591 112.764 144.749 118.898L144.752 119.191V119.192C144.752 125.459 139.408 130.657 132.727 130.657H23.0493C16.3926 130.657 11.0242 125.464 11.0239 119.192C11.0239 112.926 16.3681 107.727 23.0493 107.727ZM23.0552 108.58C16.9836 108.58 12.0044 113.318 12.0044 119.198C12.0044 124.897 16.7038 129.513 22.4907 129.802L23.0532 129.816H23.0552C29.0971 129.816 34.105 125.106 34.105 119.198C34.105 113.285 29.1175 108.58 23.0552 108.58ZM59.6118 108.58C53.5421 108.58 48.562 113.292 48.562 119.198C48.562 125.112 53.5495 129.816 59.6118 129.816C65.6834 129.816 70.6626 125.078 70.6626 119.198C70.6626 113.285 65.6743 108.58 59.6118 108.58ZM96.1704 108.58C90.1005 108.58 85.1196 113.292 85.1196 119.198C85.1197 125.114 90.1356 129.816 96.1704 129.816C102.242 129.816 107.221 125.078 107.221 119.198C107.221 113.283 102.212 108.58 96.1704 108.58ZM30.7144 110.357C33.3973 112.482 35.0806 115.653 35.0806 119.192C35.0804 122.732 33.3965 125.908 30.7153 128.025L28.4546 129.811H54.1792L51.9263 128.026C49.2434 125.902 47.5602 122.731 47.5601 119.192C47.5601 115.653 49.2439 112.476 51.9253 110.358L54.1851 108.573H28.4604L30.7144 110.357ZM67.272 110.357C69.955 112.482 71.6382 115.653 71.6382 119.192C71.6381 122.732 69.9542 125.908 67.2729 128.025L65.0132 129.811H90.7378L88.4839 128.026C85.8011 125.902 84.1178 122.731 84.1177 119.192C84.1177 115.653 85.8016 112.476 88.4829 110.358L90.7437 108.573H65.019L67.272 110.357ZM103.831 110.357C106.513 112.482 108.197 115.653 108.197 119.192C108.197 122.732 106.513 125.908 103.832 128.025L101.571 129.811H127.295L125.042 128.026C122.36 125.902 120.676 122.731 120.676 119.192C120.676 115.653 122.36 112.476 125.042 110.358L127.301 108.573H101.577L103.831 110.357ZM132.735 108.573C126.665 108.573 121.685 113.286 121.685 119.192C121.685 125.107 126.7 129.81 132.735 129.811C138.582 129.811 143.465 125.396 143.771 119.744L143.786 119.193V119.192C143.786 113.277 138.77 108.573 132.735 108.573Z" stroke="black" stroke-width="2"/>
<mask id="path-3-inside-2_2261_116" fill="white">
<path d="M154.294 0H1.49067C0.657455 0 0 0.629187 0 1.42657C0 2.22396 0.657455 2.85315 1.49067 2.85315H134.05V11.4313C132.358 12.3719 130.912 13.7238 129.956 15.3621H40.4234C38.6073 12.2473 35.1182 10.1417 31.1539 10.1417C25.2954 10.1417 20.5239 14.7081 20.5239 20.3147C20.5239 24.1333 22.7176 27.4414 25.9788 29.1856V39.7448L21.7086 46.6533C20.8233 48.0799 20.8754 49.8926 21.8323 51.2944L23.8502 54.1912V55.5679C23.8502 56.7017 24.807 57.6237 25.9983 57.6237H26.3759V61.4424C26.3759 62.8939 25.7184 64.2457 24.5858 65.1865C22.7697 66.6629 21.7347 68.8121 21.7347 71.0797V91.3014C21.7347 93.9864 24.0066 96.1605 26.8122 96.1605H35.4957C38.3013 96.1605 40.5732 93.9864 40.5732 91.3014V71.086C40.5732 68.8122 39.5382 66.6631 37.8197 65.2614C37.7937 65.2365 37.7677 65.2116 37.7156 65.1867C36.5764 64.246 35.9255 62.8942 35.9255 61.4677V57.649H36.3031C37.4878 57.649 38.4513 56.7332 38.4513 55.5932V54.2164L40.4691 51.3197C41.426 49.9429 41.4781 48.1053 40.5928 46.6786L36.3226 39.77V29.2108C38.041 28.2951 39.4536 26.937 40.4105 25.2987H109.769V32.8115C109.769 35.8079 112.321 38.25 115.452 38.25H135.071C138.202 38.25 140.753 35.8081 140.753 32.8115V30.3945C145.902 29.6968 149.893 25.4669 149.893 20.3212C149.893 16.5026 147.699 13.1945 144.438 11.4503L144.444 2.87217H154.319C155.153 2.87217 155.81 2.24298 155.81 1.44559C155.81 0.648206 155.127 0 154.294 0ZM35.4758 54.7773H26.8182L26.8117 52.242H35.4693L35.4758 54.7773ZM24.6895 76.4742L27.5146 76.5241V85.8996C27.5146 85.9494 27.4886 85.9744 27.4365 85.9744H24.683L24.6895 76.4742ZM32.924 61.4422C32.924 63.716 33.959 65.8652 35.6774 67.2668C35.7035 67.2917 35.7295 67.3166 35.7816 67.3416C36.9207 68.2822 37.5717 69.6341 37.5717 71.0606V91.2887C37.5717 92.3976 36.6343 93.2946 35.4756 93.2946H26.792C25.6334 93.2946 24.696 92.3976 24.696 91.2887V88.8218H27.4494C29.1419 88.8218 30.5023 87.5198 30.5023 85.9001V76.5246C30.5023 74.9049 29.1418 73.603 27.4494 73.603H24.696L24.6895 71.0863C24.6895 69.6348 25.3469 68.283 26.4796 67.3672C28.2956 65.8908 29.3307 63.7417 29.3307 61.4492V57.6305H32.8913L32.924 61.4422ZM37.9753 49.7243L37.7995 49.9672C37.422 49.6059 36.8882 49.3879 36.2828 49.3879H25.9783C25.3989 49.3879 24.8651 49.6059 24.4616 49.9672L24.2858 49.7243C23.9603 49.2384 23.9343 48.6154 24.2337 48.1295L28.2761 41.5822H33.959L38.0014 48.1295C38.3269 48.6154 38.3007 49.2446 37.9753 49.7243ZM33.3536 38.7041H28.9337V30.2692C29.6433 30.4124 30.3723 30.4872 31.1274 30.4872C31.8825 30.4872 32.6181 30.4124 33.3211 30.2692L33.3276 38.7041H33.3536ZM31.1274 27.6403C26.9093 27.6403 23.4788 24.3511 23.4788 20.3206C23.4788 16.2839 26.9158 13.0009 31.1274 13.0009C35.3455 13.0009 38.776 16.2901 38.776 20.3206C38.7825 24.3511 35.3455 27.6403 31.1274 27.6403ZM41.5361 18.2149H128.822C128.672 18.8939 128.594 19.5916 128.594 20.3142C128.594 21.0369 128.672 21.7408 128.822 22.4136L41.5361 22.4198C41.6858 21.7408 41.7639 21.0431 41.7639 20.3205C41.7574 19.5916 41.6858 18.8939 41.5361 18.2149ZM135.058 35.3715H115.439C113.948 35.3715 112.737 34.2128 112.737 32.7862V25.2734H129.955C131.543 27.977 134.401 29.9145 137.734 30.3691V32.7862C137.76 34.2128 136.542 35.3715 135.058 35.3715ZM146.898 20.3208C146.898 24.3575 143.461 27.6405 139.25 27.6405C135.032 27.6405 131.601 24.3513 131.601 20.3208C131.601 16.2841 135.038 13.0011 139.25 13.0011C143.461 12.9949 146.898 16.2841 146.898 20.3208ZM141.444 10.3659C140.734 10.2226 140.005 10.1478 139.25 10.1478C138.495 10.1478 137.759 10.2226 137.056 10.3659V2.87793H141.476L141.47 10.3659H141.444Z"/>
</mask>
<path d="M154.294 0H1.49067C0.657455 0 0 0.629187 0 1.42657C0 2.22396 0.657455 2.85315 1.49067 2.85315H134.05V11.4313C132.358 12.3719 130.912 13.7238 129.956 15.3621H40.4234C38.6073 12.2473 35.1182 10.1417 31.1539 10.1417C25.2954 10.1417 20.5239 14.7081 20.5239 20.3147C20.5239 24.1333 22.7176 27.4414 25.9788 29.1856V39.7448L21.7086 46.6533C20.8233 48.0799 20.8754 49.8926 21.8323 51.2944L23.8502 54.1912V55.5679C23.8502 56.7017 24.807 57.6237 25.9983 57.6237H26.3759V61.4424C26.3759 62.8939 25.7184 64.2457 24.5858 65.1865C22.7697 66.6629 21.7347 68.8121 21.7347 71.0797V91.3014C21.7347 93.9864 24.0066 96.1605 26.8122 96.1605H35.4957C38.3013 96.1605 40.5732 93.9864 40.5732 91.3014V71.086C40.5732 68.8122 39.5382 66.6631 37.8197 65.2614C37.7937 65.2365 37.7677 65.2116 37.7156 65.1867C36.5764 64.246 35.9255 62.8942 35.9255 61.4677V57.649H36.3031C37.4878 57.649 38.4513 56.7332 38.4513 55.5932V54.2164L40.4691 51.3197C41.426 49.9429 41.4781 48.1053 40.5928 46.6786L36.3226 39.77V29.2108C38.041 28.2951 39.4536 26.937 40.4105 25.2987H109.769V32.8115C109.769 35.8079 112.321 38.25 115.452 38.25H135.071C138.202 38.25 140.753 35.8081 140.753 32.8115V30.3945C145.902 29.6968 149.893 25.4669 149.893 20.3212C149.893 16.5026 147.699 13.1945 144.438 11.4503L144.444 2.87217H154.319C155.153 2.87217 155.81 2.24298 155.81 1.44559C155.81 0.648206 155.127 0 154.294 0ZM35.4758 54.7773H26.8182L26.8117 52.242H35.4693L35.4758 54.7773ZM24.6895 76.4742L27.5146 76.5241V85.8996C27.5146 85.9494 27.4886 85.9744 27.4365 85.9744H24.683L24.6895 76.4742ZM32.924 61.4422C32.924 63.716 33.959 65.8652 35.6774 67.2668C35.7035 67.2917 35.7295 67.3166 35.7816 67.3416C36.9207 68.2822 37.5717 69.6341 37.5717 71.0606V91.2887C37.5717 92.3976 36.6343 93.2946 35.4756 93.2946H26.792C25.6334 93.2946 24.696 92.3976 24.696 91.2887V88.8218H27.4494C29.1419 88.8218 30.5023 87.5198 30.5023 85.9001V76.5246C30.5023 74.9049 29.1418 73.603 27.4494 73.603H24.696L24.6895 71.0863C24.6895 69.6348 25.3469 68.283 26.4796 67.3672C28.2956 65.8908 29.3307 63.7417 29.3307 61.4492V57.6305H32.8913L32.924 61.4422ZM37.9753 49.7243L37.7995 49.9672C37.422 49.6059 36.8882 49.3879 36.2828 49.3879H25.9783C25.3989 49.3879 24.8651 49.6059 24.4616 49.9672L24.2858 49.7243C23.9603 49.2384 23.9343 48.6154 24.2337 48.1295L28.2761 41.5822H33.959L38.0014 48.1295C38.3269 48.6154 38.3007 49.2446 37.9753 49.7243ZM33.3536 38.7041H28.9337V30.2692C29.6433 30.4124 30.3723 30.4872 31.1274 30.4872C31.8825 30.4872 32.6181 30.4124 33.3211 30.2692L33.3276 38.7041H33.3536ZM31.1274 27.6403C26.9093 27.6403 23.4788 24.3511 23.4788 20.3206C23.4788 16.2839 26.9158 13.0009 31.1274 13.0009C35.3455 13.0009 38.776 16.2901 38.776 20.3206C38.7825 24.3511 35.3455 27.6403 31.1274 27.6403ZM41.5361 18.2149H128.822C128.672 18.8939 128.594 19.5916 128.594 20.3142C128.594 21.0369 128.672 21.7408 128.822 22.4136L41.5361 22.4198C41.6858 21.7408 41.7639 21.0431 41.7639 20.3205C41.7574 19.5916 41.6858 18.8939 41.5361 18.2149ZM135.058 35.3715H115.439C113.948 35.3715 112.737 34.2128 112.737 32.7862V25.2734H129.955C131.543 27.977 134.401 29.9145 137.734 30.3691V32.7862C137.76 34.2128 136.542 35.3715 135.058 35.3715ZM146.898 20.3208C146.898 24.3575 143.461 27.6405 139.25 27.6405C135.032 27.6405 131.601 24.3513 131.601 20.3208C131.601 16.2841 135.038 13.0011 139.25 13.0011C143.461 12.9949 146.898 16.2841 146.898 20.3208ZM141.444 10.3659C140.734 10.2226 140.005 10.1478 139.25 10.1478C138.495 10.1478 137.759 10.2226 137.056 10.3659V2.87793H141.476L141.47 10.3659H141.444Z" stroke="black" stroke-width="4" mask="url(#path-3-inside-2_2261_116)"/>
</svg>
