<svg width="156" height="149" viewBox="0 0 156 149" fill="none" xmlns="http://www.w3.org/2000/svg">
<path d="M24.2998 1C25.0408 1.00007 25.411 1.50142 25.4111 1.84863V12.877H23.1885V1.84863C23.1886 1.50143 23.5587 1 24.2998 1Z" stroke="black" stroke-width="2"/>
<path d="M75.0103 86.1191C75.3044 86.1192 75.5684 86.2096 75.7671 86.3525L75.8481 86.417C76.0174 86.5653 76.0986 86.7308 76.1216 86.8799V88.7451H73.8989V86.9678C73.8991 86.6206 74.2691 86.1191 75.0103 86.1191Z" stroke="black" stroke-width="2"/>
<path d="M75.0171 71.3145C75.7582 71.3145 76.1283 71.8158 76.1284 72.1631V79.5654C76.1284 79.922 75.7558 80.4219 75.0171 80.4219C74.2678 80.4218 73.8979 79.9197 73.8979 79.5654V72.1631L73.9019 72.0967C73.9451 71.7571 74.3123 71.3145 75.0171 71.3145Z" stroke="black" stroke-width="2"/>
<path d="M75.0171 26.9043C75.7582 26.9043 76.1283 27.4057 76.1284 27.7529V35.1553C76.1284 35.5025 75.7584 36.0049 75.0171 36.0049C74.2652 36.0048 73.8979 35.5002 73.8979 35.1553V27.7529L73.9019 27.6865C73.9451 27.347 74.3123 26.9043 75.0171 26.9043Z" stroke="black" stroke-width="2"/>
<path d="M75.0171 41.709C75.7582 41.709 76.1283 42.2104 76.1284 42.5576V49.96C76.1284 50.3072 75.7584 50.8096 75.0171 50.8096C74.2652 50.8095 73.8979 50.3049 73.8979 49.96V42.5576L73.9019 42.4912C73.9451 42.1517 74.3123 41.709 75.0171 41.709Z" stroke="black" stroke-width="2"/>
<path d="M75.0171 56.5078C75.7554 56.5078 76.1281 57.0067 76.1284 57.3633V64.7666C76.1282 65.1138 75.7581 65.6152 75.0171 65.6152C74.2655 65.6152 73.8982 65.1115 73.8979 64.7666V57.3633L73.9019 57.2959C73.9451 56.9488 74.3145 56.5079 75.0171 56.5078Z" stroke="black" stroke-width="2"/>
<path d="M76.1294 20.3516C76.1294 20.5259 76.0482 20.7349 75.8481 20.9102C75.6495 21.0841 75.3553 21.2012 75.0103 21.2012C74.7171 21.2012 74.4552 21.112 74.2603 20.9727L74.1802 20.9102C73.9802 20.7349 73.8989 20.5258 73.8989 20.3516V18.5215C74.6403 18.596 75.388 18.596 76.1294 18.5215V20.3516Z" stroke="black" stroke-width="2"/>
<path d="M13.7949 29.6816V110.952H1V29.6816H13.7949Z" stroke="black" stroke-width="2"/>
<path d="M30.7012 29.6816V110.952H17.9062V29.6816H30.7012Z" stroke="black" stroke-width="2"/>
<path d="M29.9092 114.803L1 136.228V114.803H29.9092Z" stroke="black" stroke-width="2"/>
<path d="M47.6064 29.6816V110.952H34.8115V29.6816H47.6064Z" stroke="black" stroke-width="2"/>
<path d="M47.5977 114.801V121.068L11.293 147.959H1V141.139L36.5439 114.801H47.5977Z" stroke="black" stroke-width="2"/>
<path d="M47.5996 147.958H17.9316L47.5996 125.979V147.958Z" stroke="black" stroke-width="2"/>
<path d="M81.6851 131.455V147.958H68.3647V131.455H81.6851Z" stroke="black" stroke-width="2"/>
<path d="M118.304 77.7949V81.3486H111.681V77.7949H118.304Z" stroke="black" stroke-width="2"/>
<path d="M130.009 131.455V147.958H121.445V131.455H130.009Z" stroke="black" stroke-width="2"/>
<path d="M139.788 77.7949V81.3486H133.149V77.7949H139.788Z" stroke="black" stroke-width="2"/>
<path d="M149.026 70.3848V147.958H134.12V129.526C134.12 128.965 133.857 128.474 133.486 128.136L133.471 128.122L133.456 128.109L133.306 127.994C132.946 127.743 132.51 127.606 132.06 127.605H119.384C118.389 127.605 117.325 128.334 117.325 129.526L117.333 147.958H102.426V70.3848H149.026ZM109.621 107.247C108.604 107.247 107.569 108.001 107.569 109.175V116.577C107.569 117.76 108.615 118.498 109.621 118.498H120.354C120.789 118.498 121.234 118.374 121.609 118.105L121.765 117.981C122.16 117.636 122.415 117.127 122.415 116.577V109.175C122.415 108.683 122.217 108.239 121.906 107.906L121.765 107.771C121.374 107.428 120.87 107.247 120.354 107.247H109.621ZM131.088 107.246C130.072 107.246 129.037 108 129.037 109.174V116.577C129.037 117.76 130.083 118.498 131.088 118.498H141.846C142.327 118.498 142.831 118.343 143.232 117.992L143.234 117.994C143.241 117.988 143.247 117.98 143.254 117.974C143.257 117.971 143.261 117.969 143.264 117.967L143.263 117.966C143.66 117.618 143.906 117.117 143.906 116.577V109.174C143.906 108.623 143.657 108.129 143.263 107.784H143.264C143.262 107.782 143.259 107.78 143.256 107.777C143.249 107.771 143.242 107.763 143.234 107.757L143.232 107.758C142.843 107.418 142.345 107.246 141.846 107.246H131.088ZM109.621 90.5928C108.604 90.5928 107.569 91.3469 107.569 92.5205V99.9229C107.569 101.106 108.615 101.844 109.621 101.844H120.354C120.789 101.844 121.234 101.719 121.609 101.451L121.765 101.327C122.16 100.982 122.415 100.473 122.415 99.9229V92.5205C122.415 92.0291 122.217 91.5848 121.906 91.252L121.765 91.1162C121.374 90.7735 120.87 90.5928 120.354 90.5928H109.621ZM131.088 90.5918C130.072 90.5918 129.037 91.3469 129.037 92.5205V99.9229C129.037 101.106 130.082 101.844 131.088 101.844H141.846C142.327 101.844 142.832 101.689 143.233 101.339L143.234 101.34C143.238 101.336 143.242 101.331 143.247 101.327C143.252 101.322 143.259 101.318 143.264 101.313L143.263 101.312C143.66 100.964 143.906 100.462 143.906 99.9229V92.5205C143.906 91.9694 143.657 91.4746 143.263 91.1299H143.264C143.261 91.1272 143.258 91.1247 143.255 91.1221C143.248 91.1158 143.241 91.1087 143.234 91.1025L143.232 91.1035C142.843 90.7635 142.345 90.5918 141.846 90.5918H131.088ZM109.621 73.9385C108.604 73.9385 107.569 74.6927 107.569 75.8662V83.2686C107.569 84.4514 108.615 85.1895 109.621 85.1895H120.354C120.789 85.1895 121.234 85.0652 121.609 84.7969L121.765 84.6729C122.16 84.3273 122.415 83.8187 122.415 83.2686V75.8662C122.414 75.3749 122.217 74.9305 121.906 74.5977L121.765 74.4619C121.374 74.1192 120.87 73.9385 120.354 73.9385H109.621ZM131.088 73.9385C130.072 73.9385 129.037 74.6926 129.037 75.8662V83.2686C129.037 84.4514 130.082 85.1895 131.088 85.1895H141.846C142.327 85.1895 142.832 85.0352 143.233 84.6846L143.234 84.6855C143.238 84.6817 143.242 84.6767 143.247 84.6729C143.252 84.6679 143.259 84.6642 143.264 84.6592L143.263 84.6582C143.66 84.3103 143.906 83.8084 143.906 83.2686V75.8662C143.906 75.3151 143.657 74.8203 143.263 74.4756H143.264C143.259 74.4704 143.252 74.466 143.247 74.4609C143.242 74.4572 143.238 74.4529 143.234 74.4492H143.233C142.844 74.109 142.345 73.9385 141.846 73.9385H131.088Z" stroke="black" stroke-width="2"/>
<path d="M118.304 94.4492V98.0029H111.681V94.4492H118.304Z" stroke="black" stroke-width="2"/>
<path d="M139.788 111.105V114.659H133.149V111.105H139.788Z" stroke="black" stroke-width="2"/>
<path d="M118.304 111.105V114.659H111.681V111.105H118.304Z" stroke="black" stroke-width="2"/>
<path d="M139.788 94.4492V98.0029H133.149V94.4492H139.788Z" stroke="black" stroke-width="2"/>
<path d="M125.728 13.0273C135.726 13.0274 145.453 15.777 153.537 20.8701L154.313 21.3701C154.626 21.5786 154.774 21.8537 154.798 22.0986L154.8 22.1162L154.802 22.1348C154.844 22.446 154.704 22.8194 154.317 23.085L154.137 23.1914C153.61 23.4572 152.949 23.4172 152.476 23.1064H152.475C144.75 18.0219 135.36 15.2773 125.727 15.2773C116.386 15.2774 107.29 17.8529 99.707 22.6367L98.9883 23.0996C98.3464 23.5099 97.4524 23.4125 96.957 22.9355C96.7484 22.7189 96.6506 22.4642 96.6494 22.2168L96.6553 22.1094L96.6562 22.0986C96.6773 21.8826 96.7952 21.643 97.0322 21.4463L97.1416 21.3643C105.372 15.9552 115.41 13.0273 125.728 13.0273Z" stroke="black" stroke-width="2"/>
<path d="M125.727 25.2422C132.812 25.2422 139.716 27.0991 145.558 30.5615L146.12 30.9014L146.13 30.9082C146.432 31.0901 146.589 31.3545 146.622 31.5938H146.623C146.658 31.8847 146.564 32.1931 146.317 32.4531C145.849 32.8952 145.036 33.0123 144.4 32.6934L144.275 32.623L144.271 32.6211L143.759 32.3115C138.429 29.165 132.151 27.4785 125.726 27.4785C119.102 27.4785 112.626 29.261 107.18 32.6064L107.173 32.6104L107.166 32.6152C106.534 33.0178 105.647 32.9236 105.148 32.4502C104.932 32.2333 104.832 31.9711 104.836 31.7158L104.844 31.6064L104.845 31.6025C104.876 31.3604 105.034 31.0885 105.337 30.8994L105.336 30.8984C111.286 27.2192 118.414 25.2422 125.727 25.2422Z" stroke="black" stroke-width="2"/>
<path d="M113.495 40.4609C121.014 36.5091 130.423 36.5075 137.951 40.457C138.279 40.6402 138.467 40.9163 138.519 41.1709C138.553 41.3774 138.491 41.6064 138.299 41.8057L137.999 42.1035L137.998 42.1045C137.589 42.5085 136.842 42.6112 136.286 42.2852L136.268 42.2744L136.25 42.2646L135.637 41.9521C129.271 38.8322 121.473 38.9371 115.195 42.2646L115.175 42.2744L115.157 42.2852C114.636 42.5903 113.955 42.5203 113.535 42.1768L113.455 42.1045L113.454 42.1035L113.158 41.8115C112.986 41.6302 112.925 41.4323 112.938 41.2539L112.948 41.1787L112.951 41.165L112.953 41.1523C112.993 40.9127 113.163 40.6437 113.495 40.4609Z" stroke="black" stroke-width="2"/>
<path d="M122.089 50.8037C124.054 49.3598 126.893 49.2603 128.981 50.543L129.181 50.6719L129.182 50.6729C131.182 52.0142 131.813 54.2798 130.901 56.1914L130.807 56.376V56.377C129.732 58.3881 127.127 59.5697 124.481 59.0479H124.482C121.933 58.5439 120.252 56.6499 120.156 54.5859L120.151 54.3857V54.3828C120.151 53.1231 120.748 51.8851 121.857 50.9824L122.085 50.8066L122.089 50.8037Z" stroke="black" stroke-width="2"/>
<path d="M75.0093 5.19922C77.8332 5.19922 80.0617 6.96165 80.5024 9.15332L80.5396 9.36621V9.36719C80.8599 11.5534 79.3474 13.7648 76.7192 14.4795L76.4497 14.5469L76.439 14.5498C75.5078 14.7853 74.5194 14.7853 73.5884 14.5498L73.5767 14.5469L73.5659 14.5439L73.3071 14.4795C70.7614 13.7871 69.2603 11.693 69.4614 9.58105L69.4868 9.36914V9.36621C69.8217 7.07621 72.1031 5.19925 75.0093 5.19922Z" stroke="black" stroke-width="2"/>
<path d="M30.6938 16.7266V25.8271H17.9067V16.7266H30.6938Z" stroke="black" stroke-width="2"/>
<path d="M67.5864 99.9961V103.55H60.9634V99.9961H67.5864Z" stroke="black" stroke-width="2"/>
<path d="M89.0786 99.9961V103.55H82.4399V99.9961H89.0786Z" stroke="black" stroke-width="2"/>
<path d="M67.5864 114.803V118.356H60.9634V114.803H67.5864Z" stroke="black" stroke-width="2"/>
<path d="M89.0786 114.803V118.356H82.4399V114.803H89.0786Z" stroke="black" stroke-width="2"/>
<path d="M98.3179 92.5938V147.959H85.7983V129.527C85.7982 128.966 85.5354 128.476 85.1646 128.138L85.1499 128.124L85.1343 128.11L84.9849 127.996C84.6248 127.745 84.1891 127.606 83.7388 127.606H66.3071C65.364 127.606 64.3855 128.256 64.2671 129.312L64.2554 129.527L64.2476 147.959H51.7114V92.5938H98.3179ZM58.9126 110.952C57.9173 110.952 56.853 111.681 56.853 112.873V120.275C56.853 121.458 57.9068 122.203 58.9126 122.203H69.647C70.094 122.203 70.5367 122.067 70.8999 121.806L71.0503 121.687C71.189 121.565 71.3061 121.426 71.4028 121.275H71.7075L71.7065 120.274L71.6987 112.872C71.6985 112.396 71.5139 111.952 71.1948 111.609L71.0503 111.469L70.8999 111.35C70.5367 111.088 70.094 110.952 69.647 110.952H58.9126ZM80.3813 110.952C79.386 110.952 78.3218 111.681 78.3218 112.873V113.873H78.3286L78.3218 120.274V120.275C78.3218 121.458 79.3754 122.203 80.3813 122.203H91.1392C91.6494 122.203 92.1443 122.021 92.5269 121.699L92.5425 121.687L92.5581 121.673C92.9324 121.331 93.1909 120.839 93.1909 120.275V112.873C93.1909 112.312 92.9289 111.821 92.5581 111.482L92.5425 111.469L92.5269 111.456L92.3784 111.342C92.0204 111.092 91.5855 110.952 91.1392 110.952H80.3813ZM58.9126 96.1465C57.912 96.1466 56.853 96.8808 56.853 98.0752V105.478C56.8532 106.669 57.9174 107.398 58.9126 107.398H69.647C70.0939 107.398 70.5367 107.262 70.8999 107.001L71.0503 106.881C71.3229 106.642 71.5184 106.337 71.6196 105.999L71.7075 105.923L71.7065 105.469L71.6987 98.0732C71.6984 97.5956 71.5162 97.1505 71.1958 96.8057L71.0503 96.6641L70.8999 96.5439C70.5368 96.2826 70.0939 96.1465 69.647 96.1465H58.9126ZM79.9526 96.1924C79.1001 96.3672 78.3218 97.0512 78.3218 98.0752V100.279L78.3267 100.274L78.3218 105.477V105.478C78.3219 106.669 79.3861 107.398 80.3813 107.398H91.1392C91.6492 107.398 92.1443 107.216 92.5269 106.895L92.5425 106.882L92.5581 106.868C92.929 106.53 93.1908 106.039 93.1909 105.478V98.0752C93.1909 97.511 92.9325 97.0183 92.5581 96.6768L92.5425 96.6631L92.5269 96.6504L92.3784 96.5361C92.0205 96.2859 91.5854 96.1465 91.1392 96.1465H80.3813C80.3648 96.1465 80.3481 96.148 80.3315 96.1484L80.3325 95.8604L79.9526 96.1924Z" stroke="black" stroke-width="2"/>
</svg>
