<svg width="501" height="351" viewBox="0 0 501 351" fill="none" xmlns="http://www.w3.org/2000/svg">
<path d="M302.244 92.758C297.876 92.0164 261.952 97.8583 250.742 121.627C239.533 145.395 242.087 154.854 242.391 160.886C242.936 171.748 248.206 189.944 261.595 203.582C278.03 220.276 296.867 219.143 296.867 219.143C296.867 219.143 344.421 218.953 345.6 219.143C346.779 219.334 347.118 218.392 346.949 217.069" stroke="white" stroke-width="3" stroke-miterlimit="10"/>
<path d="M114.44 160.316C114.19 163.783 106.035 165.486 105.151 158.713C104.767 155.766 101.328 125.776 108.134 106.818C108.134 106.818 123.524 26.7559 212.039 26.7559C300.555 26.7559 312.667 103.521 312.667 103.521L308.004 104.272C308.004 104.272 305.771 94.4628 304.932 92.5787C302.743 92.2583 267.274 96.5867 260.209 122.379C253.144 148.171 252.769 154.895 250.965 160.917C248.607 168.783 264.747 216.129 299.198 217.03C333.649 217.932 346.278 217.972 346.278 217.972V216.97" stroke="white" stroke-width="3" stroke-miterlimit="10"/>
<path d="M312.666 103.52C324.439 103.52 357.388 104.651 365.124 106.165C372.859 107.678 374.538 112.578 375.207 118.61C375.878 124.642 377.084 137.792 377.567 157.839C378.048 177.887 374.199 203.481 372.859 206.878C371.519 210.275 366.803 217.069 359.068 217.069H331.835C322.751 217.069 307.959 215.556 298.545 206.127C289.131 196.698 278.001 180.856 278.001 155.955C278.001 131.055 296.866 103.52 312.666 103.52Z" stroke="white" stroke-width="3" stroke-miterlimit="10"/>
<path d="M108.778 122.379H329.649C343.1 122.379 346.298 134.263 346.298 143.692C346.298 153.121 340.75 161.237 329.649 161.237C318.545 161.237 111.136 160.295 108.778 160.295C106.42 160.295 105.08 122.379 108.778 122.379Z" stroke="white" stroke-width="3" stroke-miterlimit="10"/>
<path d="M369.492 107.678C367.863 109.467 364.286 115.331 364.286 119.703C363.786 123.811 363.105 129.321 362.766 132.899C362.426 136.476 360.586 154.032 360.088 165.966C359.587 177.9 357.791 212.5 360.793 216.959" stroke="white" stroke-width="3" stroke-miterlimit="10"/>
<path d="M304.932 92.5762C304.932 92.5762 285.933 28.737 209.52 30.1501C125.275 31.7031 110.912 106.745 110.912 107.677C113.103 112.258 114.513 117.239 115.075 122.377M107.884 122.377C107.884 122.377 108.777 114.361 109.563 113.228C111.081 115.683 112.421 122.377 112.421 122.377" stroke="white" stroke-width="3" stroke-miterlimit="10"/>
<path d="M135.877 122.379V160.456C135.877 163.021 138.146 165.145 140.674 165.145C143.201 165.145 146.47 164.203 146.47 160.506V122.429C146.47 120.024 143.693 118.471 141.174 118.471C138.655 118.471 135.877 119.834 135.877 122.379Z" stroke="white" stroke-width="3" stroke-miterlimit="10"/>
<path d="M240.791 350C233.725 332.174 237.808 309.146 246.588 300.629C255.921 291.61 278.367 296.101 285.888 297.234C293.409 298.365 309.558 294.907 308.084 282.523C305.941 264.557 312.497 264.266 312.872 260.729C313.246 257.192 310.478 253.234 310.478 253.234C310.478 253.234 319.052 249.556 318.168 245.739C317.15 241.32 316.15 234.425 318.168 232.161C320.187 229.897 333.934 228.053 332.094 219.055M110.153 163.352C123.685 232.16 164.11 241.509 164.459 277.423C164.655 297.042 162.021 314.397 148.909 329.527" stroke="white" stroke-width="3" stroke-miterlimit="10"/>
<path d="M313.353 103.332V25.4741C313.416 22.8601 312.865 22.1785 311.018 22.1426H285.338" stroke="white" stroke-width="3"/>
<path d="M343.447 103.956V26.5673C343.384 23.9691 343.933 23.2915 345.769 23.2559H371.316" stroke="white" stroke-width="3"/>
<path d="M300.746 73.0911V41.3622C300.698 39.2064 301.114 38.3997 303.314 38.2869H313.353M316.855 38.2869H393.428M396.93 38.2869H444.088M341.834 94.1541H321.057M374.985 117.219H416.54M419.809 117.219H449.224M344.869 94.1541H393.662M397.397 94.1541H413.739C416.208 94.2464 416.838 95.1264 416.774 97.9982V142.077M369.382 94.1541V70.0646L372.184 67.2456H410.237M393.428 3.17773V67.2456M393.428 70.8334V117.219" stroke="white" stroke-width="2"/>
<path d="M393.429 121.063V139.002C393.502 141.303 393.974 142.026 395.763 142.077H500.818M377.554 166.936H416.774M420.043 166.936H454.594M416.774 145.665V213.833C416.611 216.264 417.301 216.865 419.576 216.909H441.987M375.453 191.794H397.631C400.311 191.697 400.666 192.511 400.666 194.869V198.063M400.419 287.294V316.765M362.146 216.652H366.348C368.996 216.467 369.492 217.365 369.383 219.984V239.973M369.383 243.561V315.829C369.411 318.546 368.769 319.302 366.581 319.417H343.936C342.268 319.298 341.683 318.635 341.601 315.829V289.177M307.984 285.541H369.383M372.418 285.589H444.322M341.601 285.333V219.166M300.513 294.766V330.645M255.69 34.3947V7.74246M232.811 28.2442V4.66406M188.922 28.7567H136.628M133.126 28.8054H102.94M133.359 58.9967V8.255M126.822 66.9899H102.57M56.3189 93.8821V127.726C56.3035 130.601 55.6937 131.324 53.5174 131.314H13.83C11.1275 131.245 10.8801 132.286 11.0286 134.646V165.654C10.9473 168.339 11.6551 168.891 13.83 168.73H111.181M400.666 252.948L400.432 283.638" stroke="white" stroke-width="3"/>
<path d="M105.344 119.012H89.9361C88.4009 119.188 88.0404 119.924 88.0684 122.087V168.728M88.0684 172.316V218.445M88.0684 222.033V237.409C87.9358 239.617 87.1113 240.067 84.8001 239.972H15.6973M115.85 193.843H91.5703M88.0684 193.843H78.2722M112.815 193.843V175.599M112.815 197.431V236.897C112.736 239.088 113.269 239.734 115.383 239.716H132.892M133.359 220.447V283.025C133.337 285.201 133.987 285.72 136.16 285.588H164.408M162.774 299.378H56.7854M88.0684 302.502V331.717M88.0684 299.171V260.986C88.0554 258.474 87.3816 257.745 85.267 257.398H58.6531C56.8793 257.403 56.2298 256.924 56.3185 254.323V243.437" stroke="white" stroke-width="3"/>
<path d="M56.319 239.972V221.129C56.2378 219.084 56.7916 218.449 59.1205 218.445H112.815M116.084 218.396H131.959M136.628 239.923H147.834" stroke="white" stroke-width="3"/>
<path d="M133.301 4.01899C134.19 4.03257 134.978 4.85129 134.965 5.94641C134.951 7.04136 134.143 7.83541 133.254 7.82241C132.365 7.80912 131.576 6.99111 131.589 5.89596C131.603 4.80065 132.412 4.0057 133.301 4.01899Z" fill="#263238" stroke="#A6A6A6"/>
<path d="M13.599 237.999C14.4881 238.013 15.2763 238.832 15.2627 239.927C15.249 241.022 14.4408 241.816 13.5519 241.803C12.6627 241.79 11.8737 240.972 11.8871 239.876C11.9007 238.781 12.7098 237.986 13.599 237.999Z" fill="#263238" stroke="#A6A6A6"/>
<path d="M88.058 328.662C88.9471 328.675 89.7353 329.494 89.7217 330.589C89.708 331.684 88.8998 332.478 88.0108 332.465C87.1217 332.452 86.3327 331.634 86.3461 330.539C86.3597 329.443 87.1687 328.648 88.058 328.662Z" fill="#263238" stroke="#A6A6A6"/>
<path d="M300.229 329.175C301.118 329.189 301.906 330.008 301.893 331.103C301.879 332.198 301.071 332.992 300.182 332.979C299.293 332.965 298.504 332.147 298.517 331.052C298.531 329.957 299.34 329.162 300.229 329.175Z" fill="#263238" stroke="#A6A6A6"/>
<path d="M442.855 214.935C443.744 214.949 444.533 215.767 444.519 216.862C444.505 217.957 443.697 218.751 442.808 218.738C441.919 218.725 441.13 217.907 441.143 216.812C441.157 215.717 441.966 214.922 442.855 214.935Z" fill="#263238" stroke="#A6A6A6"/>
<path d="M450.792 115.261C451.681 115.275 452.47 116.093 452.456 117.189C452.442 118.284 451.634 119.078 450.745 119.065C449.856 119.051 449.067 118.233 449.081 117.138C449.094 116.043 449.903 115.248 450.792 115.261Z" fill="#263238" stroke="#A6A6A6"/>
<path d="M255.626 3.47798C256.515 3.49155 257.304 4.31027 257.29 5.40539C257.276 6.50034 256.468 7.2944 255.579 7.2814C254.69 7.26811 253.901 6.45009 253.914 5.35494C253.928 4.25963 254.737 3.46469 255.626 3.47798Z" fill="#263238" stroke="#A6A6A6"/>
<path d="M232.925 0.532665C233.814 0.546238 234.602 1.36496 234.589 2.46008C234.575 3.55503 233.767 4.34908 232.878 4.33608C231.989 4.32279 231.2 3.50478 231.213 2.40963C231.227 1.31432 232.036 0.519375 232.925 0.532665Z" fill="#263238" stroke="#A6A6A6"/>
<path d="M64.7056 8.42578L83.4525 8.42578L83.4525 90.8178L78.4357 90.8178C72.2398 91.4796 69.8399 92.3114 68.534 93.7301L64.7056 93.7301L64.7056 8.42578Z" stroke="white" stroke-width="1.5"/>
<path d="M67.9121 8.42578L80.4923 8.42578L80.4923 14.9252L67.9121 14.9252L67.9121 8.42578Z" stroke="white" stroke-width="1.5"/>
<path d="M76.0522 9.7793L77.2856 9.7793L77.2856 11.1333L76.0522 11.1333L76.0522 9.7793Z" fill="black" stroke="white" stroke-width="1.5"/>
<path d="M73.832 9.7793L75.0654 9.7793L75.0654 11.1333L73.832 11.1333L73.832 9.7793Z" fill="black" stroke="white" stroke-width="1.5"/>
<path d="M71.6123 9.7793L73.0923 9.7793L73.0923 11.1333L71.6123 11.1333L71.6123 9.7793Z" fill="black" stroke="white" stroke-width="1.5"/>
<path d="M66.6787 19.2779L67.7362 19.2779L67.7362 21.0305L66.6787 21.0305L66.6787 19.2779ZM80.4215 19.2779L81.4789 19.2779L81.4789 21.0305L80.4215 21.0305L80.4215 19.2779ZM69.0575 18.9863L79.1002 18.9863L79.1002 21.9062L69.0575 21.9062L69.0575 18.9863ZM66.6787 22.4893L67.7362 22.4893L67.7362 24.2419L66.6787 24.2419L66.6787 22.4893ZM80.4215 22.4893L81.4789 22.4893L81.4789 24.2419L80.4215 24.2419L80.4215 22.4893ZM69.0575 22.1977L79.1002 22.1977L79.1002 25.1176L69.0575 25.1176L69.0575 22.1977ZM66.6787 25.7018L67.7362 25.7018L67.7362 27.4544L66.6787 27.4544L66.6787 25.7018ZM80.4215 25.7018L81.4789 25.7018L81.4789 27.4544L80.4215 27.4544L80.4215 25.7018ZM69.0575 25.4103L79.1002 25.4103L79.1002 28.3301L69.0575 28.3301L69.0575 25.4103ZM66.6787 28.9143L67.7362 28.9143L67.7362 30.6669L66.6787 30.6669L66.6787 28.9143ZM80.4215 28.9143L81.4789 28.9143L81.4789 30.6669L80.4215 30.6669L80.4215 28.9143ZM69.0575 28.6217L79.1002 28.6217L79.1002 31.5415L69.0575 31.5415L69.0575 28.6217ZM66.6787 32.1257L67.7362 32.1257L67.7362 33.8783L66.6787 33.8783L66.6787 32.1257ZM80.4215 32.1257L81.4789 32.1257L81.4789 33.8783L80.4215 33.8783L80.4215 32.1257ZM69.0575 31.8342L79.1002 31.8342L79.1002 34.754L69.0575 34.754L69.0575 31.8342ZM66.6787 35.3382L67.7362 35.3382L67.7362 37.0908L66.6787 37.0908L66.6787 35.3382ZM80.4215 35.3382L81.4789 35.3382L81.4789 37.0908L80.4215 37.0908L80.4215 35.3382ZM69.0575 35.0456L79.1002 35.0456L79.1002 37.9654L69.0575 37.9654L69.0575 35.0456ZM66.6787 38.5496L67.7362 38.5496L67.7362 40.3022L66.6787 40.3022L66.6787 38.5496ZM80.4215 38.5496L81.4789 38.5496L81.4789 40.3022L80.4215 40.3022L80.4215 38.5496ZM69.0575 38.2581L79.1002 38.2581L79.1002 41.178L69.0575 41.178L69.0575 38.2581ZM66.6787 41.7622L67.7362 41.7622L67.7362 43.5148L66.6787 43.5148L66.6787 41.7622ZM80.4215 41.7622L81.4789 41.7622L81.4789 43.5148L80.4215 43.5148L80.4215 41.7622ZM69.0575 41.4706L79.1002 41.4706L79.1002 44.3905L69.0575 44.3905L69.0575 41.4706ZM66.6787 44.9747L67.7362 44.9747L67.7362 46.7273L66.6787 46.7273L66.6787 44.9747ZM80.4215 44.9747L81.4789 44.9747L81.4789 46.7273L80.4215 46.7273L80.4215 44.9747ZM69.0575 44.682L79.1002 44.682L79.1002 47.6019L69.0575 47.6019L69.0575 44.682ZM66.6787 48.1861L67.7362 48.1861L67.7362 49.9387L66.6787 49.9387L66.6787 48.1861ZM80.4215 48.1861L81.4789 48.1861L81.4789 49.9387L80.4215 49.9387L80.4215 48.1861ZM69.0575 47.8946L79.1002 47.8946L79.1002 50.8144L69.0575 50.8144L69.0575 47.8946ZM66.6787 51.3986L67.7362 51.3986L67.7362 53.1512L66.6787 53.1512L66.6787 51.3986ZM80.4215 51.3986L81.4789 51.3986L81.4789 53.1512L80.4215 53.1512L80.4215 51.3986ZM69.0575 51.106L79.1002 51.106L79.1002 54.0258L69.0575 54.0258L69.0575 51.106ZM66.6787 54.61L67.7362 54.61L67.7362 56.3626L66.6787 56.3626L66.6787 54.61ZM80.4215 54.61L81.4789 54.61L81.4789 56.3626L80.4215 56.3626L80.4215 54.61ZM69.0575 54.3185L79.1002 54.3185L79.1002 57.2383L69.0575 57.2383L69.0575 54.3185ZM66.6787 57.8225L67.7362 57.8225L67.7362 59.5751L66.6787 59.5751L66.6787 57.8225ZM80.4215 57.8225L81.4789 57.8225L81.4789 59.5751L80.4215 59.5751L80.4215 57.8225ZM69.0575 57.531L79.1002 57.531L79.1002 60.4509L69.0575 60.4509L69.0575 57.531ZM66.6787 61.0339L67.7362 61.0339L67.7362 62.7865L66.6787 62.7865L66.6787 61.0339ZM80.4215 61.0339L81.4789 61.0339L81.4789 62.7865L80.4215 62.7865L80.4215 61.0339ZM69.0575 60.7424L79.1002 60.7424L79.1002 63.6623L69.0575 63.6623L69.0575 60.7424ZM66.6787 64.2465L67.7362 64.2465L67.7362 65.9991L66.6787 65.9991L66.6787 64.2465ZM80.4215 64.2465L81.4789 64.2465L81.4789 65.9991L80.4215 65.9991L80.4215 64.2465ZM69.0575 63.9549L79.1002 63.9549L79.1002 66.8748L69.0575 66.8748L69.0575 63.9549ZM66.6787 67.459L67.7362 67.459L67.7362 69.2116L66.6787 69.2116L66.6787 67.459ZM80.4215 67.459L81.4789 67.459L81.4789 69.2116L80.4215 69.2116L80.4215 67.459ZM69.0575 67.1663L79.1002 67.1663L79.1002 70.0862L69.0575 70.0862L69.0575 67.1663ZM66.6787 70.6704L67.7362 70.6704L67.7362 72.423L66.6787 72.423L66.6787 70.6704ZM80.4215 70.6704L81.4789 70.6704L81.4789 72.423L80.4215 72.423L80.4215 70.6704ZM69.0575 70.3788L79.1002 70.3788L79.1002 73.2987L69.0575 73.2987L69.0575 70.3788ZM66.6787 73.8829L67.7362 73.8829L67.7362 75.6355L66.6787 75.6355L66.6787 73.8829ZM80.4215 73.8829L81.4789 73.8829L81.4789 75.6355L80.4215 75.6355L80.4215 73.8829ZM69.0575 73.5902L79.1002 73.5902L79.1002 76.5101L69.0575 76.5101L69.0575 73.5902ZM66.6787 77.0943L67.7362 77.0943L67.7362 78.8469L66.6787 78.8469L66.6787 77.0943ZM80.4215 77.0943L81.4789 77.0943L81.4789 78.8469L80.4215 78.8469L80.4215 77.0943ZM69.0575 76.8028L79.1002 76.8028L79.1002 79.7226L69.0575 79.7226L69.0575 76.8028ZM66.6787 80.3068L67.7362 80.3068L67.7362 82.0594L66.6787 82.0594L66.6787 80.3068ZM80.4215 80.3068L81.4789 80.3068L81.4789 82.0594L80.4215 82.0594L80.4215 80.3068ZM69.0575 80.0153L79.1002 80.0153L79.1002 82.9352L69.0575 82.9352L69.0575 80.0153ZM66.6787 83.5194L67.7362 83.5194L67.7362 85.2719L66.6787 85.2719L66.6787 83.5194ZM80.4215 83.5194L81.4789 83.5194L81.4789 85.2719L80.4215 85.2719L80.4215 83.5194ZM69.0575 83.2267L79.1002 83.2267L79.1002 86.1466L69.0575 86.1466L69.0575 83.2267Z" fill="#00E7F9" fill-opacity="0.2" stroke="white" stroke-width="1.5"/>
<path d="M83.4521 8.42578L102.446 8.42578L102.446 90.8178L97.3627 90.8178C91.0849 91.4796 88.6533 92.3114 87.3302 93.7301L83.4521 93.7301L83.4521 8.42578Z" stroke="white" stroke-width="1.5"/>
<path d="M86.1655 8.42578L99.239 8.42578L99.239 14.9252L86.1655 14.9252L86.1655 8.42578Z" stroke="white" stroke-width="1.5"/>
<path d="M92.5791 9.7793L93.8125 9.7793L93.8125 11.1333L92.5791 11.1333L92.5791 9.7793Z" fill="black" stroke="white" stroke-width="1.5"/>
<path d="M90.3589 9.7793L91.8389 9.7793L91.8389 11.1333L90.3589 11.1333L90.3589 9.7793Z" fill="black" stroke="white" stroke-width="1.5"/>
<path d="M94.5527 9.7793L95.7861 9.7793L95.7861 11.1333L94.5527 11.1333L94.5527 9.7793Z" fill="black" stroke="white" stroke-width="1.5"/>
<path d="M34.1187 8.42578L64.7057 8.42578L64.7057 93.7301L34.1187 93.7301L34.1187 8.42578Z" stroke="white" stroke-width="1.5"/>
<path d="M36.3384 9.50781L52.6186 9.50781L52.6186 15.7364L36.3384 15.7364L36.3384 9.50781Z" stroke="white" stroke-width="1.5"/>
<path d="M40.5317 10.5918L42.2584 10.5918L42.2584 12.4874L40.5317 12.4874L40.5317 10.5918Z" fill="black" stroke="white" stroke-width="1.5"/>
<path d="M42.9985 10.5918L44.7252 10.5918L44.7252 12.4874L42.9985 12.4874L42.9985 10.5918Z" fill="black" stroke="white" stroke-width="1.5"/>
<path d="M45.4653 10.5918L47.192 10.5918L47.192 12.4874L45.4653 12.4874L45.4653 10.5918Z" fill="black" stroke="white" stroke-width="1.5"/>
<path d="M36.8315 19.2578L62.2385 19.2578L62.2385 59.6081L36.8315 59.6081L36.8315 19.2578Z" stroke="white" stroke-width="1.5"/>
<path d="M59.326 26.0273L39.9911 26.0273C39.4723 26.0273 39.0518 26.4787 39.0518 27.0355L39.0518 56.4328C39.0518 56.9896 39.4723 57.441 39.9911 57.441L59.326 57.441C59.8448 57.441 60.2654 56.9896 60.2654 56.4328L60.2654 27.0355C60.2654 26.4787 59.8448 26.0273 59.326 26.0273Z" stroke="white" stroke-width="1.5"/>
<path d="M46.3623 65.7793C46.4088 65.0877 46.6423 64.8122 47.3047 64.4824L50.6682 64.4824C51.3729 65.0069 51.469 65.2869 51.4752 65.7793L51.4752 73.1278L57.9335 73.1278C58.6124 73.1499 58.9689 73.3657 59.2789 74.1358L59.2789 77.5937C58.9575 78.3473 58.6826 78.5365 58.0678 78.6029L51.4752 78.6029L51.4752 85.9503C51.2695 86.5069 51.0742 86.7415 50.5338 86.9594L47.3047 86.9594C46.7983 86.7492 46.5917 86.5301 46.3623 85.9514L46.3623 78.6018L39.501 78.6018C38.8655 78.3141 38.6475 78.0463 38.5586 77.3049L38.5586 74.4235C38.6444 73.7153 38.819 73.4166 39.501 73.1267L46.3623 73.1267L46.3623 65.7793Z" stroke="white" stroke-width="1.5"/>
<path d="M48.995 66.3789L47.8281 68.8333L50.0325 68.8333L48.995 66.3789ZM48.995 84.9999L47.8281 82.5466L50.0325 82.5466L48.995 84.9999ZM57.5518 75.9061L55.3484 77.2054L55.3484 74.7521L57.5518 75.9061ZM40.3088 75.9061L42.5132 77.2054L42.5132 74.7521L40.3088 75.9061ZM39.6387 86.6195L39.6387 86.9288L38.5634 86.9288L38.5634 86.6195L39.6387 86.6195ZM38.662 84.6706L38.662 86.9288L38.3115 86.9288L38.3115 84.6706L38.662 84.6706ZM39.4984 85.6129L39.4984 85.9178L38.5624 85.9178L38.5624 85.614L39.4984 85.6129ZM39.6328 84.6706L39.6328 84.981L38.5624 84.981L38.5624 84.6706L39.6328 84.6706ZM40.9919 86.3468C40.9924 86.3044 40.9856 86.2623 40.9719 86.2227C40.9582 86.1836 40.9355 86.1492 40.9062 86.1229C40.8657 86.0871 40.8208 86.0579 40.7728 86.0364C40.7023 86.0017 40.6297 85.972 40.5558 85.9477C40.4646 85.9171 40.3752 85.8805 40.2879 85.838C40.2127 85.8004 40.1418 85.7527 40.0768 85.6961C40.0161 85.6459 39.967 85.5803 39.9338 85.5047C39.9005 85.4291 39.884 85.3457 39.8857 85.2615C39.8848 85.1747 39.9026 85.0889 39.9374 85.0113C39.9721 84.9336 40.023 84.8662 40.0858 84.8147C40.1548 84.7567 40.2327 84.7131 40.3158 84.6861C40.4107 84.654 40.5094 84.6383 40.6085 84.6396C40.7589 84.6396 40.8883 84.6706 40.9968 84.7327C41.1064 84.7948 41.191 84.8779 41.2487 84.9821C41.3085 85.0875 41.3383 85.2028 41.3383 85.328L40.9919 85.328C40.9928 85.2595 40.9777 85.1919 40.948 85.1318C40.9192 85.0728 40.8747 85.0252 40.8206 84.9954C40.7532 84.9597 40.6791 84.9426 40.6045 84.9456C40.5339 84.9431 40.4637 84.9574 40.3984 84.9877C40.3485 85.0112 40.3059 85.0505 40.276 85.1008C40.2491 85.149 40.2353 85.2048 40.2361 85.2615C40.2355 85.3022 40.2444 85.3423 40.262 85.3779C40.279 85.4112 40.3058 85.4444 40.3417 85.4744C40.3846 85.5073 40.4307 85.5348 40.4791 85.5564C40.5338 85.5819 40.5986 85.6074 40.6722 85.6307C40.7848 85.6684 40.8833 85.7094 40.966 85.7548C41.0496 85.7992 41.1193 85.8502 41.1751 85.9067C41.23 85.9616 41.2735 86.0293 41.3024 86.105C41.3313 86.1806 41.3449 86.2624 41.3423 86.3446C41.3434 86.4337 41.3257 86.5218 41.2906 86.6018C41.2555 86.6779 41.205 86.7439 41.1432 86.7947C41.0742 86.8508 40.9966 86.8925 40.9142 86.9177C40.8182 86.9469 40.719 86.9611 40.6195 86.9599C40.5219 86.9596 40.4248 86.9447 40.3307 86.9155C40.2395 86.8881 40.153 86.8439 40.0748 86.7847C39.9957 86.7259 39.9311 86.6458 39.8871 86.5518C39.843 86.4578 39.821 86.353 39.8229 86.247L40.1724 86.247C40.1707 86.3116 40.1822 86.3757 40.2063 86.4344C40.2285 86.4845 40.2613 86.5279 40.3019 86.5608C40.3427 86.594 40.3905 86.6162 40.4442 86.6328C40.5699 86.6662 40.7014 86.6609 40.8246 86.6173C40.8752 86.5959 40.919 86.5581 40.95 86.5087C40.9784 86.4607 40.9929 86.4042 40.9919 86.3468ZM42.8498 86.1938L43.1983 86.1938C43.1892 86.3338 43.1507 86.4694 43.0857 86.5896C43.0212 86.7053 42.9292 86.799 42.8199 86.8601C42.6904 86.9302 42.5476 86.9644 42.4037 86.9599C42.2874 86.962 42.1721 86.9367 42.0652 86.8856C41.9662 86.8362 41.8782 86.7631 41.8073 86.6716C41.7329 86.5726 41.677 86.458 41.643 86.3346C41.6044 86.1919 41.5856 86.0435 41.5873 85.8945L41.5873 85.7061C41.5873 85.5442 41.6072 85.3979 41.645 85.2659C41.6802 85.1427 41.737 85.0285 41.8123 84.93C41.8831 84.837 41.9719 84.763 42.0722 84.7139C42.1811 84.6628 42.2984 84.6375 42.4167 84.6396C42.578 84.6396 42.7144 84.6728 42.8249 84.7394C42.9374 84.8059 43.024 84.8968 43.0837 85.0132C43.1483 85.1363 43.1877 85.2737 43.1992 85.4156L42.8508 85.4156C42.8439 85.329 42.823 85.2445 42.789 85.1662C42.7599 85.0985 42.7121 85.0429 42.6526 85.0076C42.5794 84.9674 42.4982 84.9483 42.4167 84.9522C42.337 84.9522 42.2673 84.9677 42.2076 85.001C42.1474 85.0347 42.0959 85.0851 42.0582 85.1473C42.0155 85.2196 41.9851 85.3 41.9686 85.3846C41.9487 85.4777 41.9387 85.5841 41.9387 85.7038L41.9387 85.8945C41.9387 86.0076 41.9477 86.1118 41.9646 86.2049C41.9803 86.2887 42.0085 86.3689 42.0483 86.4422C42.0858 86.5086 42.1385 86.5627 42.2009 86.5991C42.2633 86.6356 42.3333 86.6529 42.4037 86.6495C42.5033 86.6495 42.5829 86.6317 42.6447 86.5974C42.705 86.564 42.7542 86.51 42.7851 86.4433C42.8203 86.3653 42.8423 86.2807 42.8498 86.1938Z" fill="black" stroke="white" stroke-width="1.5"/>
<path d="M36.8315 82.8965L36.8315 88.8542L43.985 88.8542" stroke="white" stroke-width="1.5"/>
<path d="M57.7827 85.8185L57.7827 85.9334C57.7827 86.0927 57.7624 86.2355 57.7219 86.3628C57.6855 86.4809 57.6263 86.5904 57.5478 86.6847C57.4744 86.7729 57.3823 86.8429 57.2785 86.8895C57.1684 86.9369 57.0498 86.9605 56.9303 86.9589C56.814 86.9633 56.6981 86.9411 56.5913 86.8938C56.4844 86.8465 56.3893 86.7754 56.3128 86.6857C56.2331 86.5908 56.1726 86.4807 56.1346 86.3618C56.0913 86.2237 56.0701 86.0794 56.0719 85.9344L56.0719 85.8185C56.0719 85.6592 56.0921 85.5164 56.1346 85.3911C56.1716 85.2728 56.2311 85.163 56.3098 85.0683C56.3838 84.9805 56.4762 84.9108 56.5801 84.8644C56.6896 84.816 56.8079 84.7916 56.9273 84.793C57.0548 84.793 57.1702 84.8168 57.2755 84.8644C57.3797 84.9103 57.4722 84.98 57.5458 85.0683C57.6245 85.1628 57.6837 85.2726 57.7199 85.3911C57.7614 85.5164 57.7827 85.6592 57.7827 85.8185ZM57.4273 85.9334L57.4273 85.8154C57.4273 85.6974 57.4162 85.594 57.3929 85.505C57.3754 85.4233 57.3423 85.346 57.2958 85.2773C57.2558 85.2176 57.2014 85.1695 57.1378 85.1376C57.0723 85.1051 57.0001 85.0888 56.9273 85.09C56.8547 85.0887 56.7829 85.105 56.7177 85.1376C56.655 85.1698 56.6011 85.2175 56.5608 85.2763C56.5146 85.3453 56.4813 85.4225 56.4626 85.5039C56.4388 85.6056 56.4276 85.7099 56.4292 85.8144L56.4292 85.9334C56.4292 86.0513 56.4393 86.1559 56.4626 86.2469C56.4817 86.3291 56.5153 86.4069 56.5618 86.4767C56.6064 86.5387 56.659 86.5853 56.7208 86.6174C56.7815 86.6484 56.8524 86.6629 56.9303 86.6629C57.003 86.6646 57.0751 86.649 57.1409 86.6174C57.2034 86.5844 57.257 86.536 57.2968 86.4767C57.3422 86.4067 57.3748 86.3288 57.3929 86.2469C57.417 86.1446 57.4286 86.0386 57.4273 85.9334ZM58.4933 84.822L58.4933 86.9299L58.138 86.9299L58.138 84.822L58.4933 84.822ZM59.7323 84.822L58.8972 85.8361L58.4214 86.3525L58.3587 85.9913L58.6988 85.5629L59.2991 84.822L59.7323 84.822ZM59.3497 86.9299L58.6715 85.9313L58.9164 85.683L59.7718 86.9299L59.3497 86.9299Z" fill="black" stroke="white" stroke-width="1.5"/>
<path d="M60.7587 82.6677L60.7587 88.7808L54.1284 88.7808M0.817871 8.42578L33.9608 8.42578L33.9608 93.7301L0.817869 93.7301L0.817871 8.42578Z" stroke="white" stroke-width="1.5"/>
<path d="M3.28467 9.50781L19.5649 9.50781L19.5649 15.7364L3.28467 15.7364L3.28467 9.50781Z" stroke="white" stroke-width="1.5"/>
<path d="M12.4116 10.5918L13.8916 10.5918L13.8916 12.4874L12.4116 12.4874L12.4116 10.5918Z" fill="black" stroke="white" stroke-width="1.5"/>
<path d="M12.4116 10.5918L13.8916 10.5918L13.8916 12.4874L12.4116 12.4874L12.4116 10.5918Z" fill="black" stroke="white" stroke-width="1.5"/>
<path d="M7.97119 10.5918L9.45121 10.5918L9.45121 12.4874L7.97119 12.4874L7.97119 10.5918Z" fill="black" stroke="white" stroke-width="1.5"/>
<path d="M10.1914 10.5918L11.6714 10.5918L11.6714 12.4874L10.1914 12.4874L10.1914 10.5918Z" fill="black" stroke="white" stroke-width="1.5"/>
<path d="M412.095 84.5681H493.783M482.025 13.252V112.415M462.221 32.2691V113.434" stroke="white" stroke-width="3" stroke-miterlimit="10"/>
</svg>
