<svg width="375" height="812" viewBox="0 0 375 812" fill="none" xmlns="http://www.w3.org/2000/svg">
<path d="M375 0.00195312H0V812.002H375V0.00195312Z" fill="url(#paint0_linear_2154_2926)"/>
<path d="M205.328 0L215.142 9.81364H303.85L312.995 18.9591H375V0H205.328Z" fill="url(#paint1_linear_2154_2926)"/>
<path d="M186.064 0L191.26 5.19622H269.618L277.313 12.891H375V13.6434H277.001L269.307 5.94867H190.949L185 0H186.064Z" fill="white"/>
<path d="M280.723 30.1728C280.723 31.6769 281.946 32.9006 283.45 32.9006C284.826 32.9006 285.964 31.8755 286.149 30.5493H327.964L340.444 43.0297H375V42.2773H340.756L328.276 29.7969H286.149C285.964 28.4707 284.826 27.4453 283.45 27.4453C281.946 27.4453 280.723 28.669 280.723 30.1728ZM281.475 30.1728C281.475 29.0836 282.361 28.1975 283.45 28.1975C284.539 28.1975 285.425 29.0836 285.425 30.1728C285.425 31.262 284.539 32.1481 283.45 32.1481C282.361 32.1481 281.475 31.262 281.475 30.1728Z" fill="white"/>
<path d="M169.672 811.999L159.858 802.192H71.1504L62.0049 793.053H0V811.999H169.672Z" fill="url(#paint2_linear_2154_2926)"/>
<path d="M188.936 811.999L183.739 806.807H105.382L97.6871 799.117H0V798.365H97.9986L105.693 806.055H184.051L190 811.999H188.936Z" fill="white"/>
<path d="M94.2775 781.848C94.2775 780.345 93.0537 779.122 91.55 779.122C90.1739 779.122 89.0356 780.146 88.8514 781.472H47.0359L34.5555 769H0V769.752H34.2439L46.7244 782.224H88.8511C89.0353 783.549 90.1736 784.574 91.5497 784.574C93.0538 784.573 94.2775 783.35 94.2775 781.848ZM93.525 781.848C93.525 782.936 92.6389 783.822 91.5497 783.822C90.4605 783.822 89.5747 782.936 89.5747 781.848C89.5747 780.759 90.4607 779.874 91.5497 779.874C92.6387 779.874 93.525 780.759 93.525 781.848Z" fill="white"/>
<defs>
<linearGradient id="paint0_linear_2154_2926" x1="187.5" y1="0.00195312" x2="187.5" y2="812.002" gradientUnits="userSpaceOnUse">
<stop stop-color="#052E16"/>
<stop offset="0.6" stop-color="#083D1E"/>
<stop offset="1" stop-color="#052E16"/>
</linearGradient>
<linearGradient id="paint1_linear_2154_2926" x1="290.164" y1="0" x2="290.164" y2="18.9591" gradientUnits="userSpaceOnUse">
<stop stop-color="#0F4D26"/>
<stop offset="1" stop-color="#083D1E"/>
</linearGradient>
<linearGradient id="paint2_linear_2154_2926" x1="84.8359" y1="793.053" x2="84.8359" y2="811.999" gradientUnits="userSpaceOnUse">
<stop stop-color="#0F4D26"/>
<stop offset="1" stop-color="#083D1E"/>
</linearGradient>
</defs>
</svg>
