<svg width="257" height="315" viewBox="0 0 257 315" fill="none" xmlns="http://www.w3.org/2000/svg">
<g clip-path="url(#clip0_2280_898)">
<path d="M256.419 0.712891H0.581543V314.288H256.419V0.712891Z" fill="white"/>
<g opacity="0.45">
<path d="M190.951 287.28C214.371 287.28 233.356 264.01 233.356 235.305C233.356 206.6 214.371 183.33 190.951 183.33C167.531 183.33 148.546 206.6 148.546 235.305C148.546 264.01 167.531 287.28 190.951 287.28Z" fill="#DED7FF"/>
<path d="M97.403 220.501C137.287 220.501 169.62 180.871 169.62 131.986C169.62 83.1002 137.287 43.4707 97.403 43.4707C57.5187 43.4707 25.186 83.1002 25.186 131.986C25.186 180.871 57.5187 220.501 97.403 220.501Z" fill="#DED7FF"/>
</g>
<path d="M229.199 123.115L227.043 125.534C226.971 125.615 226.909 125.703 226.851 125.794C225.482 124.624 223.976 123.784 222.41 123.276C222.43 123.161 222.446 123.043 222.449 122.922L222.564 119.343C222.599 118.229 221.889 117.287 220.98 117.244L218.06 117.103C217.152 117.06 216.383 117.93 216.347 119.044L216.232 122.624C216.229 122.744 216.237 122.863 216.249 122.979C214.698 123.324 213.183 123.991 211.775 124.981C211.724 124.884 211.668 124.79 211.602 124.702L209.629 122.06C209.014 121.238 207.969 121.181 207.298 121.934L205.142 124.353C204.472 125.106 204.425 126.387 205.04 127.21L207.014 129.852C207.08 129.939 207.151 130.017 207.226 130.087C206.271 131.766 205.585 133.611 205.172 135.531C205.078 135.506 204.982 135.487 204.883 135.483L201.963 135.342C201.525 135.321 201.107 135.509 200.784 135.871C200.782 135.873 200.78 135.875 200.779 135.878C200.455 136.244 200.267 136.743 200.25 137.283L200.136 140.863C200.1 141.977 200.81 142.919 201.719 142.962L204.64 143.103C204.738 143.108 204.835 143.097 204.93 143.081C205.211 144.983 205.755 146.839 206.563 148.565C206.484 148.627 206.407 148.696 206.335 148.777L204.18 151.196C203.509 151.949 203.463 153.23 204.077 154.053L206.051 156.695C206.665 157.517 207.711 157.574 208.382 156.82L210.537 154.401C210.609 154.32 210.672 154.233 210.73 154.141C212.099 155.312 213.605 156.152 215.172 156.66C215.152 156.774 215.136 156.891 215.132 157.013L215.017 160.593C214.999 161.133 215.155 161.648 215.454 162.044C215.753 162.441 216.16 162.671 216.6 162.692L219.521 162.832C219.972 162.854 220.389 162.65 220.699 162.302C221.012 161.951 221.216 161.452 221.234 160.891L221.348 157.312C221.352 157.191 221.344 157.072 221.33 156.956C222.882 156.611 224.397 155.945 225.805 154.954C225.856 155.051 225.913 155.146 225.978 155.233L227.952 157.875C228.566 158.698 229.612 158.754 230.283 158.001L232.438 155.582C233.109 154.829 233.155 153.548 232.541 152.726L230.567 150.084C230.501 149.995 230.43 149.919 230.355 149.848C231.31 148.17 231.996 146.324 232.41 144.403C232.503 144.428 232.599 144.448 232.698 144.453L235.619 144.593C236.07 144.615 236.487 144.41 236.797 144.063C237.11 143.712 237.314 143.213 237.331 142.652L237.446 139.072C237.482 137.959 236.771 137.017 235.863 136.973L232.942 136.833C232.844 136.828 232.747 136.837 232.652 136.853C232.37 134.952 231.826 133.096 231.018 131.369C231.097 131.308 231.174 131.238 231.246 131.158L233.402 128.739C234.072 127.986 234.119 126.704 233.504 125.882L231.53 123.24C230.915 122.418 229.87 122.362 229.199 123.115ZM224.021 146.971C220.871 150.506 215.961 150.242 213.076 146.38C210.191 142.519 210.407 136.501 213.558 132.965C216.708 129.43 221.618 129.694 224.503 133.556C227.387 137.417 227.171 143.435 224.021 146.971Z" stroke="#0F1B63" stroke-miterlimit="10"/>
<path d="M58.7951 261.927H57.6591C57.4494 261.927 57.2793 261.718 57.2793 261.461C57.2793 261.204 57.4494 260.996 57.6591 260.996H58.7951C59.0048 260.996 59.1749 261.204 59.1749 261.461C59.1749 261.718 59.0048 261.927 58.7951 261.927ZM55.1282 261.927H52.5968C52.387 261.927 52.2169 261.718 52.2169 261.461C52.2169 261.204 52.387 260.996 52.5968 260.996H55.1282C55.3379 260.996 55.5081 261.204 55.5081 261.461C55.5081 261.718 55.3379 261.927 55.1282 261.927ZM50.0653 261.927H47.5339C47.3241 261.927 47.154 261.718 47.154 261.461C47.154 261.204 47.3241 260.996 47.5339 260.996H50.0653C50.275 260.996 50.4452 261.204 50.4452 261.461C50.4452 261.718 50.275 261.927 50.0653 261.927ZM45.0024 261.927H42.471C42.2612 261.927 42.0911 261.718 42.0911 261.461C42.0911 261.204 42.2612 260.996 42.471 260.996H45.0024C45.2121 260.996 45.3823 261.204 45.3823 261.461C45.3823 261.718 45.2121 261.927 45.0024 261.927ZM39.9395 261.927H37.4081C37.1983 261.927 37.0282 261.718 37.0282 261.461C37.0282 261.204 37.1983 260.996 37.4081 260.996H39.9395C40.1492 260.996 40.3194 261.204 40.3194 261.461C40.3194 261.718 40.1492 261.927 39.9395 261.927ZM34.8766 261.927H32.3452C32.1354 261.927 31.9653 261.718 31.9653 261.461C31.9653 261.204 32.1354 260.996 32.3452 260.996H34.8766C35.0863 260.996 35.2565 261.204 35.2565 261.461C35.2565 261.718 35.0863 261.927 34.8766 261.927ZM29.8137 261.922C29.8101 261.922 29.807 261.922 29.8034 261.922C28.9209 261.891 28.0491 261.715 27.2124 261.396C27.0119 261.32 26.9004 261.059 26.9626 260.814C27.0247 260.568 27.2355 260.431 27.4375 260.507C28.2085 260.801 29.0114 260.963 29.8245 260.992C30.0337 260.999 30.1992 261.213 30.1936 261.47C30.1879 261.722 30.0193 261.922 29.8137 261.922ZM25.0407 260.104C24.9698 260.104 24.8983 260.079 24.8346 260.029C24.0985 259.443 23.4288 258.736 22.8454 257.927C22.7071 257.734 22.7221 257.44 22.8788 257.27C23.0351 257.1 23.2751 257.117 23.4149 257.31C23.9526 258.056 24.5689 258.707 25.2478 259.247C25.4236 259.387 25.474 259.675 25.3594 259.891C25.2869 260.029 25.1656 260.104 25.0407 260.104ZM21.7321 255.51C21.5907 255.51 21.455 255.413 21.3892 255.247C21.0068 254.274 20.7344 253.243 20.5802 252.184C20.5437 251.931 20.681 251.689 20.8876 251.644C21.0927 251.602 21.2911 251.767 21.3276 252.021C21.4694 252.997 21.7203 253.946 22.0734 254.842C22.1644 255.073 22.0852 255.351 21.8966 255.463C21.8436 255.495 21.7876 255.51 21.7321 255.51ZM20.811 249.476C20.6013 249.476 20.4312 249.268 20.4312 249.01V245.908C20.4312 245.651 20.6013 245.442 20.811 245.442C21.0207 245.442 21.1908 245.651 21.1908 245.908V249.01C21.1908 249.268 21.0207 249.476 20.811 249.476ZM20.811 243.271C20.6013 243.271 20.4312 243.062 20.4312 242.805V239.702C20.4312 239.445 20.6013 239.237 20.811 239.237C21.0207 239.237 21.1908 239.445 21.1908 239.702V242.805C21.1908 243.062 21.0207 243.271 20.811 243.271ZM20.811 237.065C20.6013 237.065 20.4312 236.856 20.4312 236.599V233.497C20.4312 233.24 20.6013 233.031 20.811 233.031C21.0207 233.031 21.1908 233.24 21.1908 233.497V236.599C21.1908 236.856 21.0207 237.065 20.811 237.065ZM20.811 230.86C20.6013 230.86 20.4312 230.651 20.4312 230.394V227.291C20.4312 227.034 20.6013 226.826 20.811 226.826C21.0207 226.826 21.1908 227.034 21.1908 227.291V230.394C21.1908 230.651 21.0207 230.86 20.811 230.86ZM20.811 224.654C20.6013 224.654 20.4312 224.446 20.4312 224.188V221.086C20.4312 220.829 20.6013 220.62 20.811 220.62C21.0207 220.62 21.1908 220.829 21.1908 221.086V224.188C21.1908 224.446 21.0207 224.654 20.811 224.654ZM20.811 218.449C20.6013 218.449 20.4312 218.24 20.4312 217.983V214.88C20.4312 214.623 20.6013 214.415 20.811 214.415C21.0207 214.415 21.1908 214.623 21.1908 214.88V217.983C21.1908 218.241 21.0207 218.449 20.811 218.449ZM20.811 212.243C20.6013 212.243 20.4312 212.035 20.4312 211.777V208.675C20.4312 208.418 20.6013 208.209 20.811 208.209C21.0207 208.209 21.1908 208.418 21.1908 208.675V211.777C21.1908 212.035 21.0207 212.243 20.811 212.243ZM20.811 206.038C20.6013 206.038 20.4312 205.83 20.4312 205.573V202.47C20.4312 202.213 20.6013 202.004 20.811 202.004C21.0207 202.004 21.1908 202.213 21.1908 202.47V205.573C21.1908 205.83 21.0207 206.038 20.811 206.038ZM20.811 199.833C20.6013 199.833 20.4312 199.624 20.4312 199.367V196.264C20.4312 196.007 20.6013 195.799 20.811 195.799C21.0207 195.799 21.1908 196.007 21.1908 196.264V199.367C21.1908 199.624 21.0207 199.833 20.811 199.833ZM20.811 193.627C20.6013 193.627 20.4312 193.419 20.4312 193.162V190.059C20.4312 189.802 20.6013 189.593 20.811 189.593C21.0207 189.593 21.1908 189.802 21.1908 190.059V193.162C21.1908 193.419 21.0207 193.627 20.811 193.627ZM20.811 187.422C20.6013 187.422 20.4312 187.213 20.4312 186.956V183.853C20.4312 183.596 20.6013 183.388 20.811 183.388C21.0207 183.388 21.1908 183.596 21.1908 183.853V186.956C21.1908 187.213 21.0207 187.422 20.811 187.422ZM20.811 181.216C20.6013 181.216 20.4312 181.008 20.4312 180.751V177.648C20.4312 177.391 20.6013 177.182 20.811 177.182C21.0207 177.182 21.1908 177.391 21.1908 177.648V180.751C21.1908 181.008 21.0207 181.216 20.811 181.216ZM20.811 175.011C20.6013 175.011 20.4312 174.802 20.4312 174.545V174.231C20.4312 173.259 20.5278 172.292 20.718 171.359C20.7688 171.109 20.9791 170.958 21.1785 171.02C21.3821 171.082 21.5059 171.335 21.455 171.583C21.2803 172.443 21.1908 173.334 21.1908 174.231V174.544C21.1908 174.802 21.0207 175.011 20.811 175.011ZM22.0271 169.068C21.9634 169.068 21.8986 169.048 21.839 169.007C21.657 168.88 21.5938 168.595 21.6976 168.372C22.133 167.437 22.6717 166.579 23.2982 165.82C23.4478 165.639 23.6879 165.641 23.8354 165.823C23.9829 166.006 23.9819 166.301 23.8323 166.482C23.2551 167.181 22.7585 167.972 22.3576 168.833C22.2872 168.983 22.1592 169.068 22.0271 169.068ZM25.5835 164.761C25.4498 164.761 25.3203 164.674 25.2514 164.521C25.1497 164.296 25.2155 164.013 25.399 163.888C26.1689 163.364 26.9929 162.973 27.8487 162.724C28.0548 162.666 28.2568 162.819 28.3056 163.07C28.3539 163.32 28.228 163.571 28.024 163.63C27.236 163.858 26.4768 164.219 25.768 164.702C25.7094 164.742 25.6462 164.761 25.5835 164.761ZM88.6703 163.337H86.1389C85.9291 163.337 85.759 163.129 85.759 162.872C85.759 162.615 85.9291 162.406 86.1389 162.406H88.6703C88.88 162.406 89.0502 162.615 89.0502 162.872C89.0502 163.129 88.88 163.337 88.6703 163.337ZM83.6079 163.337H81.0765C80.8668 163.337 80.6966 163.129 80.6966 162.872C80.6966 162.615 80.8668 162.406 81.0765 162.406H83.6079C83.8176 162.406 83.9878 162.615 83.9878 162.872C83.9872 163.129 83.8171 163.337 83.6079 163.337ZM78.545 163.337H76.0136C75.8039 163.337 75.6337 163.129 75.6337 162.872C75.6337 162.615 75.8039 162.406 76.0136 162.406H78.545C78.7547 162.406 78.9249 162.615 78.9249 162.872C78.9244 163.129 78.7547 163.337 78.545 163.337ZM73.4821 163.337H70.9507C70.741 163.337 70.5708 163.129 70.5708 162.872C70.5708 162.615 70.741 162.406 70.9507 162.406H73.4821C73.6918 162.406 73.862 162.615 73.862 162.872C73.862 163.129 73.6918 163.337 73.4821 163.337ZM68.4192 163.337H65.8878C65.6781 163.337 65.5079 163.129 65.5079 162.872C65.5079 162.615 65.6781 162.406 65.8878 162.406H68.4192C68.6289 162.406 68.7991 162.615 68.7991 162.872C68.7991 163.129 68.6289 163.337 68.4192 163.337ZM63.3563 163.337H60.8249C60.6152 163.337 60.445 163.129 60.445 162.872C60.445 162.615 60.6152 162.406 60.8249 162.406H63.3563C63.566 162.406 63.7362 162.615 63.7362 162.872C63.7362 163.129 63.566 163.337 63.3563 163.337ZM58.2934 163.337H55.762C55.5523 163.337 55.3821 163.129 55.3821 162.872C55.3821 162.615 55.5523 162.406 55.762 162.406H58.2934C58.5031 162.406 58.6733 162.615 58.6733 162.872C58.6733 163.129 58.5031 163.337 58.2934 163.337ZM53.2305 163.337H50.6991C50.4894 163.337 50.3192 163.129 50.3192 162.872C50.3192 162.615 50.4894 162.406 50.6991 162.406H53.2305C53.4402 162.406 53.6104 162.615 53.6104 162.872C53.6104 163.129 53.4402 163.337 53.2305 163.337ZM48.1676 163.337H45.6362C45.4265 163.337 45.2563 163.129 45.2563 162.872C45.2563 162.615 45.4265 162.406 45.6362 162.406H48.1676C48.3773 162.406 48.5475 162.615 48.5475 162.872C48.5475 163.129 48.3773 163.337 48.1676 163.337ZM43.1047 163.337H40.5733C40.3636 163.337 40.1934 163.129 40.1934 162.872C40.1934 162.615 40.3636 162.406 40.5733 162.406H43.1047C43.3144 162.406 43.4846 162.615 43.4846 162.872C43.4846 163.129 43.3144 163.337 43.1047 163.337ZM38.0418 163.337H35.5104C35.3007 163.337 35.1305 163.129 35.1305 162.872C35.1305 162.615 35.3007 162.406 35.5104 162.406H38.0418C38.2515 162.406 38.4217 162.615 38.4217 162.872C38.4217 163.129 38.2515 163.337 38.0418 163.337ZM32.9789 163.337H30.4475C30.2378 163.337 30.0676 163.129 30.0676 162.872C30.0676 162.615 30.2378 162.406 30.4475 162.406H32.9789C33.1886 162.406 33.3588 162.615 33.3588 162.872C33.3588 163.129 33.1886 163.337 32.9789 163.337Z" fill="#B19CFE"/>
<path d="M20.8108 214.331C21.7246 214.331 22.4654 213.423 22.4654 212.303C22.4654 211.183 21.7246 210.275 20.8108 210.275C19.897 210.275 19.1562 211.183 19.1562 212.303C19.1562 213.423 19.897 214.331 20.8108 214.331Z" fill="#B19CFE"/>
<path d="M20.8109 216.105C19.1014 216.105 17.71 214.401 17.71 212.305C17.71 210.209 19.1014 208.504 20.8109 208.504C22.5205 208.504 23.9119 210.209 23.9119 212.305C23.9119 214.4 22.5205 216.105 20.8109 216.105ZM20.8109 208.969C19.3106 208.969 18.0898 210.465 18.0898 212.304C18.0898 214.143 19.3106 215.639 20.8109 215.639C22.3113 215.639 23.532 214.143 23.532 212.304C23.532 210.465 22.3118 208.969 20.8109 208.969Z" fill="#B19CFE"/>
<path d="M106.036 149.153C105.781 149.153 105.574 148.899 105.574 148.587V144.812C105.574 144.499 105.781 144.246 106.036 144.246C106.291 144.246 106.498 144.499 106.498 144.812V148.587C106.498 148.899 106.291 149.153 106.036 149.153ZM106.036 141.603C105.781 141.603 105.574 141.349 105.574 141.037V137.262C105.574 136.949 105.781 136.696 106.036 136.696C106.291 136.696 106.498 136.949 106.498 137.262V141.037C106.498 141.349 106.291 141.603 106.036 141.603ZM106.036 134.053C105.781 134.053 105.574 133.799 105.574 133.486V129.711C105.574 129.399 105.781 129.145 106.036 129.145C106.291 129.145 106.498 129.399 106.498 129.711V133.486C106.498 133.799 106.291 134.053 106.036 134.053ZM106.036 126.503C105.781 126.503 105.574 126.249 105.574 125.936V122.162C105.574 121.849 105.781 121.595 106.036 121.595C106.291 121.595 106.498 121.849 106.498 122.162V125.936C106.498 126.25 106.291 126.503 106.036 126.503ZM106.036 118.953C105.781 118.953 105.574 118.699 105.574 118.387V114.612C105.574 114.299 105.781 114.045 106.036 114.045C106.291 114.045 106.498 114.299 106.498 114.612V118.387C106.498 118.699 106.291 118.953 106.036 118.953ZM106.036 111.403C105.781 111.403 105.574 111.149 105.574 110.837V107.062C105.574 106.749 105.781 106.495 106.036 106.495C106.291 106.495 106.498 106.749 106.498 107.062V110.837C106.498 111.149 106.291 111.403 106.036 111.403ZM154.949 104.602C154.694 104.602 154.487 104.348 154.487 104.036V101.94C154.487 101.628 154.694 101.374 154.949 101.374C155.204 101.374 155.411 101.628 155.411 101.94V104.036C155.411 104.348 155.204 104.602 154.949 104.602ZM106.036 103.853C105.781 103.853 105.574 103.6 105.574 103.287V99.5118C105.574 99.1993 105.781 98.9454 106.036 98.9454C106.291 98.9454 106.498 99.1993 106.498 99.5118V103.287C106.498 103.599 106.291 103.853 106.036 103.853ZM154.949 98.7318C154.694 98.7318 154.487 98.4786 154.487 98.1654V94.3905C154.487 94.078 154.694 93.8241 154.949 93.8241C155.204 93.8241 155.411 94.078 155.411 94.3905V98.1654C155.411 98.4779 155.204 98.7318 154.949 98.7318ZM106.036 96.3032C105.781 96.3032 105.574 96.0493 105.574 95.7368V91.9618C105.574 91.6494 105.781 91.3955 106.036 91.3955C106.291 91.3955 106.498 91.6494 106.498 91.9618V95.7368C106.498 96.0493 106.291 96.3032 106.036 96.3032ZM154.949 91.1813C154.694 91.1813 154.487 90.9274 154.487 90.6149V86.8399C154.487 86.5275 154.694 86.2736 154.949 86.2736C155.204 86.2736 155.411 86.5275 155.411 86.8399V90.6149C155.411 90.928 155.204 91.1813 154.949 91.1813ZM106.036 88.7526C105.781 88.7526 105.574 88.4987 105.574 88.1862V84.4113C105.574 84.0988 105.781 83.8449 106.036 83.8449C106.291 83.8449 106.498 84.0988 106.498 84.4113V88.1862C106.498 88.4993 106.291 88.7526 106.036 88.7526ZM154.949 83.6313C154.694 83.6313 154.487 83.3774 154.487 83.065V79.29C154.487 78.9775 154.694 78.7236 154.949 78.7236C155.204 78.7236 155.411 78.9775 155.411 79.29V83.065C155.411 83.3781 155.204 83.6313 154.949 83.6313ZM106.036 81.2027C105.781 81.2027 105.574 80.9488 105.574 80.6363V76.8614C105.574 76.5489 105.781 76.295 106.036 76.295C106.291 76.295 106.498 76.5489 106.498 76.8614V80.6363C106.498 80.9494 106.291 81.2027 106.036 81.2027ZM154.949 76.0814C154.694 76.0814 154.487 75.8275 154.487 75.515V71.7401C154.487 71.4276 154.694 71.1737 154.949 71.1737C155.204 71.1737 155.411 71.4276 155.411 71.7401V75.515C155.411 75.8282 155.204 76.0814 154.949 76.0814ZM106.036 73.6528C105.781 73.6528 105.574 73.3989 105.574 73.0864V69.3114C105.574 68.999 105.781 68.7451 106.036 68.7451C106.291 68.7451 106.498 68.999 106.498 69.3114V73.0864C106.498 73.3989 106.291 73.6528 106.036 73.6528ZM154.949 68.5315C154.694 68.5315 154.487 68.2776 154.487 67.9651V64.1902C154.487 63.8777 154.694 63.6238 154.949 63.6238C155.204 63.6238 155.411 63.8777 155.411 64.1902V67.9651C155.411 68.2776 155.204 68.5315 154.949 68.5315ZM106.036 66.1029C105.781 66.1029 105.574 65.849 105.574 65.5365V61.7615C105.574 61.449 105.781 61.1952 106.036 61.1952C106.291 61.1952 106.498 61.449 106.498 61.7615V65.5365C106.498 65.849 106.291 66.1029 106.036 66.1029ZM154.929 60.9822C154.686 60.9822 154.482 60.7491 154.468 60.448C154.412 59.2377 154.222 58.047 153.904 56.9074C153.821 56.6119 153.95 56.2893 154.191 56.1879C154.43 56.0871 154.696 56.244 154.777 56.5401C155.124 57.7774 155.33 59.0708 155.391 60.3837C155.406 60.6962 155.211 60.9633 154.956 60.9816C154.947 60.9816 154.938 60.9822 154.929 60.9822ZM106.34 58.5825C106.304 58.5825 106.269 58.5775 106.233 58.5674C105.984 58.495 105.831 58.1901 105.89 57.8858C106.137 56.6081 106.526 55.379 107.046 54.2324C107.169 53.959 107.451 53.8607 107.674 54.0132C107.897 54.165 107.977 54.5102 107.853 54.7836C107.374 55.8389 107.016 56.971 106.789 58.1472C106.738 58.4074 106.549 58.5825 106.34 58.5825ZM152.959 53.9331C152.812 53.9331 152.668 53.8481 152.578 53.6893C152.017 52.6939 151.349 51.7974 150.591 51.0244C150.396 50.8241 150.368 50.4669 150.532 50.2268C150.695 49.9856 150.986 49.9547 151.182 50.1544C152.004 50.9929 152.729 51.9656 153.338 53.0448C153.483 53.3025 153.43 53.6547 153.221 53.833C153.141 53.901 153.049 53.9331 152.959 53.9331ZM109.291 52.0639C109.174 52.0639 109.057 52.0091 108.966 51.9001C108.785 51.6803 108.783 51.3218 108.963 51.0994C109.716 50.1651 110.568 49.3619 111.495 48.7123C111.716 48.5573 111.999 48.6518 112.126 48.9234C112.252 49.1949 112.175 49.5408 111.953 49.6964C111.099 50.2943 110.314 51.0345 109.619 51.8964C109.529 52.0079 109.41 52.0639 109.291 52.0639ZM148.285 49.1609C148.221 49.1609 148.157 49.1451 148.096 49.1118C147.196 48.6172 146.245 48.277 145.27 48.1C145.017 48.0546 144.843 47.7661 144.88 47.4567C144.918 47.1474 145.15 46.9269 145.405 46.9798C146.464 47.1713 147.497 47.5412 148.474 48.0779C148.707 48.2058 148.811 48.541 148.707 48.8264C148.629 49.0361 148.461 49.1609 148.285 49.1609ZM114.571 48.3677C114.364 48.3677 114.176 48.1957 114.124 47.9387C114.062 47.635 114.212 47.3276 114.46 47.252C115.387 46.9685 116.346 46.8242 117.311 46.8242H117.623C117.878 46.8242 118.085 47.0781 118.085 47.3906C118.085 47.7031 117.878 47.957 117.623 47.957H117.311C116.422 47.957 115.538 48.0893 114.683 48.3507C114.646 48.3621 114.608 48.3677 114.571 48.3677ZM142.263 47.957H139.183C138.928 47.957 138.721 47.7031 138.721 47.3906C138.721 47.0781 138.928 46.8242 139.183 46.8242H142.263C142.518 46.8242 142.725 47.0781 142.725 47.3906C142.725 47.7031 142.518 47.957 142.263 47.957ZM136.103 47.957H133.023C132.768 47.957 132.561 47.7031 132.561 47.3906C132.561 47.0781 132.768 46.8242 133.023 46.8242H136.103C136.358 46.8242 136.565 47.0781 136.565 47.3906C136.565 47.7031 136.358 47.957 136.103 47.957ZM129.943 47.957H126.863C126.608 47.957 126.401 47.7031 126.401 47.3906C126.401 47.0781 126.608 46.8242 126.863 46.8242H129.943C130.198 46.8242 130.405 47.0781 130.405 47.3906C130.405 47.7031 130.198 47.957 129.943 47.957ZM123.783 47.957H120.703C120.448 47.957 120.241 47.7031 120.241 47.3906C120.241 47.0781 120.448 46.8242 120.703 46.8242H123.783C124.038 46.8242 124.245 47.0781 124.245 47.3906C124.245 47.7031 124.039 47.957 123.783 47.957Z" fill="#B19CFE"/>
<path d="M130.492 49.5187C131.451 49.5187 132.228 48.5662 132.228 47.3912C132.228 46.2162 131.451 45.2637 130.492 45.2637C129.533 45.2637 128.756 46.2162 128.756 47.3912C128.756 48.5662 129.533 49.5187 130.492 49.5187Z" fill="#B19CFE"/>
<path d="M130.492 51.3788C128.699 51.3788 127.239 49.5903 127.239 47.3916C127.239 45.1929 128.699 43.4043 130.492 43.4043C132.286 43.4043 133.745 45.1929 133.745 47.3916C133.745 49.5903 132.286 51.3788 130.492 51.3788ZM130.492 43.8925C128.918 43.8925 127.638 45.4625 127.638 47.3916C127.638 49.3213 128.918 50.8906 130.492 50.8906C132.067 50.8906 133.347 49.3206 133.347 47.3916C133.347 45.4625 132.067 43.8925 130.492 43.8925Z" fill="#B19CFE"/>
<path d="M132.567 78.0664H102.778V84.3084H132.567V78.0664Z" fill="#C1C1C1"/>
<path d="M156.632 75.7168H135.339C133.789 75.7168 132.319 76.3544 131.323 77.4587L125.539 82.764H102.75C101.798 82.764 101.025 83.7109 101.025 84.8783V123.537C101.025 124.704 101.798 125.651 102.75 125.651H158.275C159.228 125.651 160 124.705 160 123.537V86.1868V84.8783V80.4153C160 77.9319 158.493 75.7168 156.632 75.7168Z" fill="#FFC655"/>
<path d="M68.6269 192.539L65.4689 196.291C65.364 196.416 65.272 196.551 65.1888 196.692C63.088 195.003 60.794 193.818 58.4199 193.138C58.4466 192.963 58.4656 192.785 58.4672 192.604L58.5145 187.213C58.5289 185.536 57.4279 184.156 56.0591 184.138L51.6608 184.08C50.293 184.063 49.1669 185.412 49.1525 187.09L49.1052 192.481C49.1036 192.662 49.1196 192.84 49.1427 193.015C46.821 193.616 44.5666 194.698 42.4828 196.261C42.4031 196.118 42.3147 195.979 42.2129 195.851L39.1516 191.98C38.1986 190.775 36.6242 190.745 35.6415 191.913L32.4834 195.665C31.5007 196.833 31.4765 198.763 32.429 199.968L35.4903 203.838C35.5921 203.967 35.7026 204.08 35.8167 204.182C34.4392 206.756 33.4724 209.568 32.9173 212.478C32.7749 212.445 32.6299 212.422 32.4814 212.42L28.0831 212.362C27.4241 212.353 26.8017 212.658 26.3288 213.22C26.3257 213.223 26.3232 213.227 26.3206 213.23C25.8467 213.799 25.582 214.56 25.5748 215.372L25.5275 220.763C25.5131 222.44 26.6141 223.819 27.9829 223.837L32.3812 223.895C32.5302 223.897 32.6741 223.876 32.8165 223.847C33.3069 226.693 34.1894 229.457 35.4657 232.011C35.3485 232.109 35.2354 232.217 35.1305 232.342L31.9725 236.094C30.9898 237.262 30.9656 239.192 31.918 240.396L34.9794 244.267C35.9324 245.471 37.5068 245.501 38.4895 244.333L41.6476 240.581C41.7524 240.456 41.8444 240.321 41.9277 240.181C44.0289 241.87 46.3234 243.055 48.6981 243.735C48.6714 243.909 48.6508 244.086 48.6493 244.269L48.602 249.659C48.5948 250.472 48.8461 251.24 49.3103 251.82C49.7739 252.401 50.3948 252.726 51.0573 252.735L55.4556 252.792C56.1357 252.801 56.7556 252.472 57.2089 251.934C57.6679 251.388 57.9568 250.627 57.964 249.784L58.0113 244.393C58.0128 244.21 57.9958 244.034 57.9722 243.859C60.2944 243.258 62.5494 242.176 64.6336 240.612C64.7133 240.756 64.8017 240.894 64.9035 241.023L67.9649 244.894C68.9178 246.098 70.4922 246.128 71.475 244.96L74.633 241.208C75.6158 240.04 75.6399 238.11 74.6875 236.906L71.6261 233.035C71.5243 232.907 71.4138 232.794 71.2992 232.692C72.6767 230.116 73.6435 227.305 74.1987 224.393C74.3405 224.426 74.485 224.451 74.634 224.453L79.0323 224.511C79.7123 224.52 80.3322 224.191 80.7861 223.652C81.2451 223.107 81.534 222.346 81.5412 221.502L81.5889 216.111C81.6033 214.434 80.5018 213.055 79.1336 213.036L74.7353 212.978C74.5872 212.976 74.4423 212.995 74.2994 213.024C73.809 210.179 72.9265 207.415 71.6508 204.861C71.768 204.764 71.881 204.655 71.9859 204.531L75.1439 200.778C76.1267 199.61 76.1508 197.681 75.1984 196.477L72.137 192.606C71.1835 191.401 69.6092 191.371 68.6269 192.539ZM61.6725 228.694C57.0573 234.178 49.6629 234.038 45.1885 228.382C40.7141 222.725 40.8287 213.662 45.444 208.178C50.0592 202.694 57.4536 202.834 61.9279 208.491C66.4018 214.147 66.2872 223.21 61.6725 228.694Z" stroke="#0F1B63" stroke-miterlimit="10"/>
<path d="M152.392 236.727H105.119V264.502H152.392V236.727Z" fill="#C60C88"/>
<path d="M207.285 105.591V232.121C207.285 236.185 204.597 239.48 201.277 239.48H56.2342C52.9184 239.48 50.2261 236.185 50.2261 232.121V105.591C50.2261 101.527 52.9184 98.2266 56.2342 98.2266H201.277C204.597 98.2266 207.285 101.527 207.285 105.591Z" fill="#D42190"/>
<path opacity="0.5" d="M131.584 230.581C131.584 232.669 130.203 234.361 128.5 234.361C126.797 234.361 125.416 232.669 125.416 230.581C125.416 228.493 126.797 226.801 128.5 226.801C130.203 226.801 131.584 228.493 131.584 230.581Z" fill="white"/>
<path d="M205.398 222.241V107.008C205.398 103.515 203.168 100.684 200.416 100.684H57.095C54.3436 100.684 52.1128 103.515 52.1128 107.008V222.241H205.398Z" fill="#DED7FF"/>
<path d="M161.694 267.495H95.8179V267.302C95.8179 264.103 97.934 261.51 100.544 261.51H156.967C159.578 261.51 161.693 264.103 161.693 267.302V267.495H161.694Z" fill="#D42190"/>
<path d="M64.4719 99.5014C64.4719 93.924 61.0415 89.3345 56.6267 88.7145C56.6607 88.3498 56.6823 87.9806 56.6823 87.6051C56.6823 82.2577 53.1454 77.9233 48.7831 77.9233C47.6143 77.9233 46.5087 78.2427 45.5105 78.8009C43.4072 74.7821 39.7331 72.1172 35.5481 72.1172C29.0142 72.1172 23.7174 78.6093 23.7174 86.6179C23.7174 87.3229 23.7606 88.0159 23.8402 88.6937C19.3689 89.2481 15.8794 93.8755 15.8794 99.502C15.8794 105.502 19.848 110.366 24.7433 110.366H56.0475V110.339C60.7372 110.056 64.4719 105.319 64.4719 99.5014Z" fill="#B19CFE"/>
<path d="M45.8526 118.656V101.775H34.4984V118.656H30.9492L40.1755 129.25L49.4023 118.656H45.8526Z" fill="#FFC655"/>
<path d="M171.283 107.484H143.405C140.827 107.484 138.737 104.922 138.737 101.763V90.3988C138.737 87.2393 140.827 84.6777 143.405 84.6777H171.283C173.86 84.6777 175.95 87.2393 175.95 90.3988V101.762C175.95 104.922 173.86 107.484 171.283 107.484Z" fill="#542FD0"/>
<path d="M67.2188 271.594H39.3415C36.7638 271.594 34.6738 269.033 34.6738 265.873V254.51C34.6738 251.351 36.7638 248.789 39.3415 248.789H67.2193C69.797 248.789 71.8869 251.351 71.8869 254.51V265.873C71.8869 269.033 69.797 271.594 67.2188 271.594Z" fill="#542FD0"/>
<path d="M80.6245 175.118H52.7467C50.169 175.118 48.0791 172.556 48.0791 169.397V158.034C48.0791 154.874 50.169 152.312 52.7467 152.312H80.6245C83.2023 152.312 85.2922 154.874 85.2922 158.034V169.397C85.2922 172.556 83.2023 175.118 80.6245 175.118Z" fill="#542FD0"/>
<path d="M178.855 248.137H177.527C177.307 248.137 177.129 247.918 177.129 247.648C177.129 247.379 177.307 247.16 177.527 247.16H178.855C179.075 247.16 179.253 247.379 179.253 247.648C179.253 247.918 179.075 248.137 178.855 248.137Z" fill="#B19CFE"/>
<path d="M210.729 248.136H208.073C207.853 248.136 207.675 247.918 207.675 247.648C207.675 247.378 207.853 247.16 208.073 247.16H210.729C210.949 247.16 211.128 247.378 211.128 247.648C211.128 247.918 210.949 248.136 210.729 248.136ZM205.417 248.136H202.761C202.541 248.136 202.363 247.918 202.363 247.648C202.363 247.378 202.541 247.16 202.761 247.16H205.417C205.637 247.16 205.815 247.378 205.815 247.648C205.815 247.918 205.637 248.136 205.417 248.136ZM200.105 248.136H197.448C197.228 248.136 197.05 247.918 197.05 247.648C197.05 247.378 197.228 247.16 197.448 247.16H200.105C200.325 247.16 200.503 247.378 200.503 247.648C200.503 247.918 200.325 248.136 200.105 248.136ZM194.792 248.136H192.136C191.916 248.136 191.737 247.918 191.737 247.648C191.737 247.378 191.916 247.16 192.136 247.16H194.792C195.012 247.16 195.19 247.378 195.19 247.648C195.191 247.918 195.012 248.136 194.792 248.136ZM189.48 248.136H186.824C186.604 248.136 186.426 247.918 186.426 247.648C186.426 247.378 186.604 247.16 186.824 247.16H189.48C189.7 247.16 189.878 247.378 189.878 247.648C189.878 247.918 189.7 248.136 189.48 248.136ZM184.168 248.136H181.511C181.291 248.136 181.113 247.918 181.113 247.648C181.113 247.378 181.291 247.16 181.511 247.16H184.168C184.387 247.16 184.566 247.378 184.566 247.648C184.566 247.918 184.387 248.136 184.168 248.136ZM213.36 247.757C213.18 247.757 213.017 247.608 212.973 247.384C212.921 247.122 213.052 246.858 213.266 246.794C214.096 246.548 214.9 246.178 215.656 245.694C215.851 245.57 216.092 245.662 216.193 245.902C216.295 246.14 216.22 246.435 216.024 246.56C215.211 247.08 214.345 247.478 213.454 247.743C213.422 247.753 213.391 247.757 213.36 247.757ZM218.026 244.78C217.915 244.78 217.805 244.724 217.727 244.614C217.581 244.412 217.598 244.104 217.763 243.925C218.405 243.234 218.978 242.449 219.466 241.592C219.592 241.371 219.84 241.317 220.021 241.472C220.201 241.626 220.245 241.931 220.119 242.152C219.594 243.072 218.979 243.916 218.289 244.659C218.213 244.74 218.119 244.78 218.026 244.78ZM221.037 239.496C220.989 239.496 220.941 239.485 220.894 239.463C220.689 239.366 220.586 239.083 220.666 238.832C220.974 237.856 221.183 236.836 221.29 235.798C221.317 235.53 221.509 235.34 221.735 235.375C221.953 235.408 222.108 235.653 222.08 235.92C221.966 237.037 221.74 238.134 221.409 239.184C221.348 239.377 221.197 239.496 221.037 239.496ZM221.772 233.097C221.552 233.097 221.374 232.879 221.374 232.609V229.353C221.374 229.084 221.552 228.865 221.772 228.865C221.992 228.865 222.171 229.084 222.171 229.353V232.609C222.171 232.879 221.992 233.097 221.772 233.097ZM221.772 226.586C221.552 226.586 221.374 226.367 221.374 226.097V222.842C221.374 222.573 221.552 222.354 221.772 222.354C221.992 222.354 222.171 222.573 222.171 222.842V226.097C222.171 226.367 221.992 226.586 221.772 226.586ZM221.772 220.075C221.552 220.075 221.374 219.856 221.374 219.586V216.331C221.374 216.062 221.552 215.843 221.772 215.843C221.992 215.843 222.171 216.062 222.171 216.331V219.586C222.171 219.856 221.992 220.075 221.772 220.075ZM221.772 213.564C221.552 213.564 221.374 213.345 221.374 213.075V209.82C221.374 209.55 221.552 209.331 221.772 209.331C221.992 209.331 222.171 209.55 222.171 209.82V213.075C222.171 213.344 221.992 213.564 221.772 213.564ZM221.772 207.053C221.552 207.053 221.374 206.834 221.374 206.564V203.308C221.374 203.039 221.552 202.82 221.772 202.82C221.992 202.82 222.171 203.039 222.171 203.308V206.564C222.171 206.833 221.992 207.053 221.772 207.053ZM221.772 200.541C221.552 200.541 221.374 200.322 221.374 200.053V196.797C221.374 196.528 221.552 196.309 221.772 196.309C221.992 196.309 222.171 196.528 222.171 196.797V200.053C222.171 200.322 221.992 200.541 221.772 200.541ZM221.772 194.029C221.552 194.029 221.374 193.811 221.374 193.541V190.285C221.374 190.015 221.552 189.797 221.772 189.797C221.992 189.797 222.171 190.015 222.171 190.285V193.541C222.171 193.811 221.992 194.029 221.772 194.029Z" fill="#B19CFE"/>
<path d="M221.772 187.504C221.552 187.504 221.374 187.286 221.374 187.016V185.877H221.04C220.82 185.877 220.642 185.658 220.642 185.389C220.642 185.119 220.82 184.9 221.04 184.9H221.772C221.992 184.9 222.171 185.119 222.171 185.389V187.016C222.171 187.286 221.992 187.504 221.772 187.504Z" fill="#B19CFE"/>
<path d="M209.409 136.076H174.557C172.462 136.076 170.764 138.158 170.764 140.726V229.498C170.764 232.066 172.462 234.148 174.557 234.148H209.409C211.504 234.148 213.203 232.066 213.203 229.498V140.726C213.203 138.158 211.504 136.076 209.409 136.076Z" fill="#B19CFE"/>
<path d="M199.776 141.191H180.606C180.273 141.191 180.003 140.86 180.003 140.453V140.358C180.003 139.95 180.273 139.619 180.606 139.619H199.776C200.109 139.619 200.379 139.95 200.379 140.358V140.453C200.379 140.86 200.109 141.191 199.776 141.191Z" fill="#0F1B63"/>
<path d="M203.964 140.405C203.964 140.839 203.676 141.192 203.322 141.192C202.968 141.192 202.681 140.839 202.681 140.405C202.681 139.971 202.968 139.619 203.322 139.619C203.676 139.619 203.964 139.971 203.964 140.405Z" fill="#0F1B63"/>
<path d="M210.866 144.982H173.1V173.426H210.866V144.982Z" fill="white"/>
<path d="M199.148 156.867L196.379 160.927L189.215 150.422L177.235 167.986H191.565H201.193H206.731L199.148 156.867Z" fill="#FFC655"/>
<path d="M190.93 211.102H173.1V223.92H190.93V211.102Z" fill="white"/>
<path d="M185.398 216.083L184.09 217.999L180.708 213.039L175.052 221.332H181.818H186.363H188.978L185.398 216.083Z" fill="#FFC655"/>
<path d="M190.93 180.742H173.1V181.97H190.93V180.742Z" fill="#B19CFE"/>
<path d="M190.93 178.17H173.1V179.398H190.93V178.17Z" fill="#B19CFE"/>
<path d="M184.374 183.256H173.1V184.484H184.374V183.256Z" fill="#B19CFE"/>
<path d="M190.93 183.256H185.175V184.484H190.93V183.256Z" fill="#B19CFE"/>
<path d="M188.875 185.768H173.1V186.995H188.875V185.768Z" fill="#B19CFE"/>
<path d="M178.579 188.346H173.1V189.574H178.579V188.346Z" fill="#B19CFE"/>
<path d="M183.47 188.346H179.524V189.574H183.47V188.346Z" fill="#B19CFE"/>
<path d="M210.866 197.938H193.036V199.165H210.866V197.938Z" fill="#B19CFE"/>
<path d="M210.866 195.363H193.036V196.591H210.866V195.363Z" fill="#B19CFE"/>
<path d="M204.31 200.449H193.036V201.677H204.31V200.449Z" fill="#B19CFE"/>
<path d="M210.866 200.449H205.111V201.677H210.866V200.449Z" fill="#B19CFE"/>
<path d="M208.811 202.961H193.036V204.189H208.811V202.961Z" fill="#B19CFE"/>
<path d="M198.515 205.539H193.036V206.767H198.515V205.539Z" fill="#B19CFE"/>
<path d="M203.406 205.539H199.46V206.767H203.406V205.539Z" fill="#B19CFE"/>
<path d="M210.866 180.742H193.036V181.97H210.866V180.742Z" fill="#B19CFE"/>
<path d="M210.866 178.17H193.036V179.398H210.866V178.17Z" fill="#B19CFE"/>
<path d="M204.31 183.256H193.036V184.484H204.31V183.256Z" fill="#B19CFE"/>
<path d="M210.866 183.256H205.111V184.484H210.866V183.256Z" fill="#B19CFE"/>
<path d="M210.866 185.768H193.036V186.995H210.866V185.768Z" fill="#B19CFE"/>
<path d="M198.515 188.346H193.036V189.574H198.515V188.346Z" fill="#B19CFE"/>
<path d="M210.866 188.346H199.46V189.574H210.866V188.346Z" fill="#B19CFE"/>
<path d="M190.93 197.938H173.1V199.165H190.93V197.938Z" fill="#B19CFE"/>
<path d="M190.93 195.363H173.1V196.591H190.93V195.363Z" fill="#B19CFE"/>
<path d="M190.93 200.449H173.1V201.677H190.93V200.449Z" fill="#B19CFE"/>
<path d="M190.93 202.961H173.1V204.189H190.93V202.961Z" fill="#B19CFE"/>
<path d="M190.93 205.539H173.1V206.767H190.93V205.539Z" fill="#B19CFE"/>
<path d="M210.866 214.094H193.036V215.322H210.866V214.094Z" fill="#B19CFE"/>
<path d="M210.866 211.521H193.036V212.749H210.866V211.521Z" fill="#B19CFE"/>
<path d="M210.866 216.607H199.592V217.835H210.866V216.607Z" fill="#B19CFE"/>
<path d="M198.79 216.607H193.036V217.835H198.79V216.607Z" fill="#B19CFE"/>
<path d="M206.727 219.117H193.036V220.345H206.727V219.117Z" fill="#B19CFE"/>
<path d="M210.866 219.117H207.678V220.345H210.866V219.117Z" fill="#B19CFE"/>
<path d="M210.866 221.697H197.714V222.925H210.866V221.697Z" fill="#B19CFE"/>
<path d="M196.982 221.697H193.036V222.925H196.982V221.697Z" fill="#B19CFE"/>
<path d="M179.208 256.954H151.33C148.752 256.954 146.662 254.392 146.662 251.233V239.869C146.662 236.71 148.752 234.148 151.33 234.148H179.208C181.785 234.148 183.875 236.71 183.875 239.869V251.233C183.875 254.392 181.785 256.954 179.208 256.954Z" fill="#542FD0"/>
<path d="M223.209 219.129C223.209 220.304 222.432 221.257 221.473 221.257C220.514 221.257 219.737 220.304 219.737 219.129C219.737 217.955 220.514 217.002 221.473 217.002C222.432 217.002 223.209 217.955 223.209 219.129Z" fill="#B19CFE"/>
<path d="M221.472 223.117C219.678 223.117 218.219 221.329 218.219 219.13C218.219 216.931 219.679 215.143 221.472 215.143C223.266 215.143 224.725 216.931 224.725 219.13C224.726 221.329 223.266 223.117 221.472 223.117ZM221.472 215.63C219.898 215.63 218.618 217.2 218.618 219.129C218.618 221.058 219.898 222.628 221.472 222.628C223.047 222.628 224.327 221.058 224.327 219.129C224.327 217.2 223.047 215.63 221.472 215.63Z" fill="#B19CFE"/>
<path d="M236.452 187.913H208.574C205.997 187.913 203.907 185.351 203.907 182.192V170.828C203.907 167.669 205.997 165.107 208.574 165.107H236.452C239.03 165.107 241.12 167.669 241.12 170.828V182.192C241.12 185.351 239.03 187.913 236.452 187.913Z" fill="#542FD0"/>
<path d="M136.368 192.088H124.658V193.39H136.368V192.088Z" fill="#0F1B63"/>
<path d="M166.489 192.088H139.372V193.39H166.489V192.088Z" fill="#0F1B63"/>
<path d="M152.59 203.292C147.935 203.292 143.27 203.285 138.627 203.271L138.629 201.969C147.915 201.996 157.287 201.996 166.487 201.969L166.489 203.271C161.889 203.285 157.245 203.292 152.59 203.292Z" fill="#0F1B63"/>
<path d="M166.488 197.029H134.361V198.332H166.488V197.029Z" fill="#0F1B63"/>
<path d="M166.489 206.932H132.613V208.234H166.489V206.932Z" fill="#0F1B63"/>
<path d="M166.489 211.873H127.915V213.175H166.489V211.873Z" fill="#0F1B63"/>
<path d="M79.5095 117.633H61.373V118.935H79.5095V117.633Z" fill="#B19CFE"/>
<path d="M121.662 117.633H102.946V118.935H121.662V117.633Z" fill="#B19CFE"/>
<path d="M121.662 122.574H108.68V123.876H121.662V122.574Z" fill="#FFC655"/>
<path d="M121.662 132.477H103.339V133.779H121.662V132.477Z" fill="#FFC655"/>
<path d="M121.662 137.416H99.7505V138.718H121.662V137.416Z" fill="#FFC655"/>
<path d="M121.662 143.193H93.4771V144.496H121.662V143.193Z" fill="#FFC655"/>
<path d="M100.586 117.633H82.4492V118.935H100.586V117.633Z" fill="#FFC655"/>
<path d="M107.021 128.837C104.251 128.837 101.47 128.832 95.9099 128.822L92.2949 128.816L92.2959 127.514L95.9114 127.52C107.03 127.539 107.031 127.539 118.072 127.52L121.662 127.514V128.816L118.073 128.822C112.552 128.832 109.791 128.837 107.021 128.837Z" fill="#FFC655"/>
<path d="M75.2711 128.836C70.6164 128.836 65.9724 128.829 61.3721 128.816L61.3741 127.514C70.5737 127.541 79.947 127.541 89.2329 127.514L89.235 128.816C84.591 128.83 79.9254 128.836 75.2711 128.836Z" fill="#B19CFE"/>
<path d="M106.104 122.574H61.373V123.876H106.104V122.574Z" fill="#B19CFE"/>
<path d="M90.9938 143.193H61.373V144.496H90.9938V143.193Z" fill="#B19CFE"/>
<path d="M101.026 132.477H61.373V133.779H101.026V132.477Z" fill="#B19CFE"/>
<path d="M97.3104 137.416H61.373V138.718H97.3104V137.416Z" fill="#B19CFE"/>
<path d="M57.5767 119.182C57.9812 119.182 58.3091 118.78 58.3091 118.284C58.3091 117.789 57.9812 117.387 57.5767 117.387C57.1722 117.387 56.8442 117.789 56.8442 118.284C56.8442 118.78 57.1722 119.182 57.5767 119.182Z" fill="#D42190"/>
<path d="M58.3091 123.226C58.3091 123.722 57.9812 124.124 57.5767 124.124C57.1722 124.124 56.8442 123.722 56.8442 123.226C56.8442 122.73 57.1722 122.328 57.5767 122.328C57.9812 122.327 58.3091 122.729 58.3091 123.226Z" fill="#D42190"/>
<path d="M57.5767 129.063C57.9812 129.063 58.3091 128.661 58.3091 128.165C58.3091 127.67 57.9812 127.268 57.5767 127.268C57.1722 127.268 56.8442 127.67 56.8442 128.165C56.8442 128.661 57.1722 129.063 57.5767 129.063Z" fill="#D42190"/>
<path d="M58.3091 133.107C58.3091 133.603 57.9812 134.004 57.5767 134.004C57.1722 134.004 56.8442 133.603 56.8442 133.107C56.8442 132.611 57.1722 132.209 57.5767 132.209C57.9812 132.209 58.3091 132.611 58.3091 133.107Z" fill="#D42190"/>
<path d="M57.5767 138.967C57.9812 138.967 58.3091 138.565 58.3091 138.07C58.3091 137.574 57.9812 137.172 57.5767 137.172C57.1722 137.172 56.8442 137.574 56.8442 138.07C56.8442 138.565 57.1722 138.967 57.5767 138.967Z" fill="#D42190"/>
<path d="M58.3091 143.845C58.3091 144.341 57.9812 144.743 57.5767 144.743C57.1722 144.743 56.8442 144.341 56.8442 143.845C56.8442 143.349 57.1722 142.947 57.5767 142.947C57.9812 142.947 58.3091 143.349 58.3091 143.845Z" fill="#D42190"/>
<path d="M126.497 146.789C126.35 146.789 126.231 146.643 126.231 146.463V117.552C126.231 117.372 126.35 117.227 126.497 117.227C126.644 117.227 126.762 117.372 126.762 117.552V146.464C126.762 146.643 126.643 146.789 126.497 146.789Z" fill="#D42190"/>
<path d="M81.2826 209.152H79.6496C79.499 209.152 79.3777 209.003 79.3777 208.819C79.3777 208.634 79.4995 208.485 79.6496 208.485H81.2826C81.4332 208.485 81.5545 208.635 81.5545 208.819C81.555 209.003 81.4332 209.152 81.2826 209.152ZM78.0171 209.152H76.3847C76.2341 209.152 76.1127 209.003 76.1127 208.819C76.1127 208.634 76.2346 208.485 76.3847 208.485H78.0171C78.1677 208.485 78.289 208.635 78.289 208.819C78.2895 209.003 78.1677 209.152 78.0171 209.152ZM74.7517 209.152H74.0907C73.7191 209.152 73.3515 209.035 73.0282 208.816C72.8961 208.726 72.8494 208.523 72.9218 208.362C72.9953 208.2 73.1624 208.143 73.2919 208.232C73.535 208.397 73.8111 208.485 74.0907 208.485H74.7517C74.9023 208.485 75.0236 208.634 75.0236 208.818C75.0241 209.003 74.9023 209.152 74.7517 209.152ZM72.2135 207.301C72.0886 207.301 71.9761 207.195 71.9483 207.038C71.9149 206.85 71.8979 206.657 71.8979 206.464V204.971C71.8979 204.786 72.0198 204.637 72.1699 204.637C72.3199 204.637 72.4418 204.787 72.4418 204.971V206.464C72.4418 206.609 72.4546 206.755 72.4798 206.897C72.5117 207.077 72.4186 207.255 72.2721 207.294C72.2521 207.299 72.2326 207.301 72.2135 207.301ZM72.1699 203.303C72.0193 203.303 71.8979 203.154 71.8979 202.97V200.968C71.8979 200.784 72.0198 200.635 72.1699 200.635C72.3199 200.635 72.4418 200.784 72.4418 200.968V202.97C72.4418 203.154 72.3205 203.303 72.1699 203.303ZM72.1699 199.301C72.0193 199.301 71.8979 199.151 71.8979 198.967V196.965C71.8979 196.781 72.0198 196.632 72.1699 196.632C72.3199 196.632 72.4418 196.781 72.4418 196.965V198.967C72.4418 199.151 72.3205 199.301 72.1699 199.301ZM72.1699 195.298C72.0193 195.298 71.8979 195.148 71.8979 194.964V192.963C71.8979 192.778 72.0198 192.63 72.1699 192.63C72.3199 192.63 72.4418 192.779 72.4418 192.963V194.964C72.4418 195.149 72.3205 195.298 72.1699 195.298ZM72.1699 191.295C72.0193 191.295 71.8979 191.146 71.8979 190.962V190.718C71.8979 190.04 72.1046 189.391 72.4803 188.894C72.5826 188.759 72.7543 188.75 72.8653 188.875C72.9753 189 72.9825 189.212 72.8802 189.347C72.598 189.721 72.4423 190.208 72.4423 190.719V190.963C72.4418 191.147 72.3205 191.295 72.1699 191.295ZM82.3023 188.698H80.6699C80.5193 188.698 80.398 188.548 80.398 188.365C80.398 188.181 80.5198 188.031 80.6699 188.031H82.3023C82.4529 188.031 82.5748 188.181 82.5748 188.365C82.5748 188.548 82.4529 188.698 82.3023 188.698ZM79.0369 188.698H77.4044C77.2538 188.698 77.1325 188.548 77.1325 188.365C77.1325 188.181 77.2543 188.031 77.4044 188.031H79.0369C79.1875 188.031 79.3088 188.181 79.3088 188.365C79.3088 188.548 79.1875 188.698 79.0369 188.698ZM75.7715 188.698H74.139C73.9884 188.698 73.8671 188.548 73.8671 188.365C73.8671 188.181 73.9889 188.031 74.139 188.031H75.7715C75.9221 188.031 76.0434 188.181 76.0434 188.365C76.0434 188.548 75.9221 188.698 75.7715 188.698Z" fill="#0F1B63"/>
<path d="M87.2054 200.49H78.4648V201.825H87.2054V200.49Z" fill="#0F1B63"/>
<path d="M103.614 200.49H89.4932V201.825H103.614V200.49Z" fill="#0F1B63"/>
<path d="M103.613 211.842H94.873V213.176H103.613V211.842Z" fill="#0F1B63"/>
<path d="M92.586 211.842H78.4648V213.176H92.586V211.842Z" fill="#0F1B63"/>
<path d="M93.8381 204.357H78.4648V205.692H93.8381V204.357Z" fill="#0F1B63"/>
<path d="M103.613 204.357H96.1255V205.692H103.613V204.357Z" fill="#0F1B63"/>
<path d="M91.1159 208.152H78.4648V209.487H91.1159V208.152Z" fill="#0F1B63"/>
<path d="M103.613 208.152H95.0288V209.487H103.613V208.152Z" fill="#0F1B63"/>
<path d="M83.0405 184.373H78.4648V194.816H83.0405V184.373Z" fill="#FFC655"/>
<path d="M90.2192 180.408H85.6436V194.815H90.2192V180.408Z" fill="#D42190"/>
<path d="M97.1611 172.189H92.5854V194.815H97.1611V172.189Z" fill="#542FD0"/>
<path d="M93.9669 208.152H92.3247V209.487H93.9669V208.152Z" fill="#0F1B63"/>
<path d="M166.077 136.744H131.824V183.585H166.077V136.744Z" fill="#B19CFE"/>
<path d="M158.473 145.068H134.59V146.045H158.473V145.068Z" fill="white"/>
<path d="M146.506 153.153C142.405 153.153 138.311 153.148 134.589 153.137L134.591 152.16C142.033 152.183 150.962 152.183 158.473 152.16L158.475 153.137C154.718 153.148 150.608 153.153 146.506 153.153Z" fill="white"/>
<path d="M158.473 148.613H134.59V149.59H158.473V148.613Z" fill="white"/>
<path d="M152.001 155.721H134.59V156.697H152.001V155.721Z" fill="white"/>
<path d="M158.473 179.59H134.59V180.566H158.473V179.59Z" fill="white"/>
<path d="M158.473 173.475C150.961 173.453 142.033 173.453 134.591 173.475L134.589 172.498C142.033 172.477 150.962 172.477 158.475 172.498L158.473 173.475Z" fill="white"/>
<path d="M158.473 176.045H134.59V177.021H158.473V176.045Z" fill="white"/>
<path d="M152.001 168.938H134.59V169.914H152.001V168.938Z" fill="white"/>
<path d="M166.608 184.235H131.293V136.078H166.608V184.235ZM131.824 183.585H166.077V136.729H131.824V183.585Z" fill="#542FD0"/>
<path d="M166.343 136.402H131.559V142.013H166.343V136.402Z" fill="#542FD0"/>
<path d="M156.409 166.442C156.315 166.442 156.222 166.402 156.145 166.32L153.469 163.421C153.383 163.329 153.334 163.195 153.334 163.055C153.334 162.915 153.383 162.782 153.469 162.689L156.145 159.791C156.31 159.612 156.561 159.63 156.708 159.833C156.853 160.036 156.837 160.344 156.673 160.523L154.334 163.055L156.673 165.588C156.837 165.767 156.853 166.075 156.708 166.277C156.629 166.387 156.519 166.442 156.409 166.442Z" fill="white"/>
<path d="M160.538 166.441C160.428 166.441 160.318 166.386 160.24 166.276C160.094 166.074 160.11 165.766 160.275 165.587L162.613 163.055L160.275 160.522C160.11 160.343 160.095 160.035 160.24 159.833C160.386 159.631 160.637 159.612 160.803 159.79L163.479 162.689C163.565 162.781 163.613 162.915 163.613 163.055C163.613 163.194 163.564 163.327 163.479 163.421L160.803 166.319C160.726 166.401 160.632 166.441 160.538 166.441Z" fill="white"/>
<path d="M134.853 139.209L135.781 138.072C135.869 137.964 135.869 137.79 135.781 137.682C135.693 137.575 135.551 137.575 135.463 137.682L134.535 138.82L133.608 137.682C133.52 137.575 133.378 137.575 133.29 137.682C133.202 137.79 133.202 137.964 133.29 138.072L134.218 139.209L133.29 140.346C133.202 140.454 133.202 140.628 133.29 140.735C133.334 140.789 133.391 140.816 133.449 140.816C133.506 140.816 133.564 140.789 133.608 140.735L134.535 139.598L135.463 140.735C135.507 140.789 135.564 140.816 135.622 140.816C135.68 140.816 135.737 140.789 135.781 140.735C135.869 140.628 135.869 140.454 135.781 140.346L134.853 139.209Z" fill="white"/>
<path d="M138.833 140.816C138.11 140.816 137.521 140.094 137.521 139.209C137.521 138.322 138.11 137.602 138.833 137.602C139.556 137.602 140.144 138.323 140.144 139.209C140.144 140.095 139.556 140.816 138.833 140.816ZM138.833 138.116C138.342 138.116 137.942 138.606 137.942 139.208C137.942 139.81 138.342 140.3 138.833 140.3C139.325 140.3 139.724 139.81 139.724 139.208C139.724 138.606 139.325 138.116 138.833 138.116Z" fill="white"/>
<path d="M143.907 140.816H141.77C141.645 140.816 141.545 140.693 141.545 140.541C141.545 140.389 141.645 140.266 141.77 140.266H143.907C144.031 140.266 144.131 140.389 144.131 140.541C144.131 140.693 144.031 140.816 143.907 140.816Z" fill="white"/>
<path d="M120.878 73.6815L117.785 74.8811C117.682 74.9208 117.585 74.973 117.492 75.0323C116.561 73.0692 115.366 71.36 113.983 69.9513C114.048 69.8467 114.108 69.7371 114.158 69.618L115.639 66.0806C116.1 64.98 115.745 63.6249 114.847 63.0591L111.961 61.2428C111.063 60.6783 109.957 61.1137 109.496 62.2143L108.014 65.7517C107.964 65.8708 107.926 65.9943 107.895 66.119C106.201 65.5766 104.423 65.3794 102.627 65.569C102.613 65.4424 102.592 65.3151 102.56 65.1891L101.581 61.3978C101.277 60.2178 100.246 59.5614 99.2829 59.9349L96.1897 61.1345C95.2269 61.5074 94.6919 62.7712 94.9962 63.9512L95.9748 67.7425C96.0072 67.8685 96.0499 67.9876 96.0982 68.101C94.4966 69.2432 93.1021 70.7073 91.9528 72.4026C91.8674 72.3233 91.778 72.2496 91.6809 72.1884L88.7947 70.3722C88.3625 70.1 87.8695 70.049 87.4064 70.2285C87.4039 70.2298 87.4008 70.2304 87.3982 70.2323C86.9325 70.4156 86.5532 70.8106 86.3296 71.3436L84.8477 74.8811C84.3867 75.9817 84.7424 77.3368 85.6403 77.9025L88.5264 79.7188C88.6241 79.7806 88.7248 79.8247 88.8266 79.8631C88.3841 81.939 88.2227 84.1194 88.3774 86.3206C88.2741 86.3376 88.1702 86.3634 88.0674 86.4031L84.9742 87.6026C84.0115 87.9756 83.4764 89.2394 83.7807 90.4194L84.7593 94.2107C85.0636 95.3907 86.0947 96.0465 87.0574 95.6736L90.1507 94.4741C90.2535 94.4344 90.3506 94.3821 90.4431 94.3229C91.375 96.2866 92.5701 97.9958 93.9538 99.4051C93.8895 99.509 93.8283 99.6174 93.778 99.7371L92.2961 103.275C92.0725 103.808 92.0319 104.416 92.1815 104.986C92.3311 105.557 92.6533 106.022 93.0882 106.295L95.9743 108.112C96.4204 108.393 96.918 108.426 97.3621 108.253C97.8119 108.079 98.2071 107.693 98.4389 107.14L99.9208 103.602C99.9712 103.482 100.007 103.359 100.039 103.234C101.732 103.777 103.511 103.974 105.308 103.785C105.321 103.911 105.342 104.039 105.375 104.165L106.354 107.957C106.658 109.137 107.689 109.793 108.652 109.42L111.745 108.22C112.708 107.847 113.243 106.583 112.938 105.403L111.96 101.612C111.927 101.486 111.885 101.367 111.836 101.253C113.438 100.111 114.833 98.6466 115.983 96.9506C116.068 97.03 116.156 97.1043 116.254 97.1661L119.14 98.9823C119.586 99.2633 120.084 99.2967 120.529 99.1247C120.978 98.9502 121.374 98.5647 121.605 98.0109L123.088 94.4734C123.549 93.3728 123.193 92.0171 122.295 91.4519L119.409 89.6357C119.312 89.5746 119.211 89.5286 119.109 89.4895C119.551 87.4137 119.712 85.2339 119.558 83.0333C119.661 83.0163 119.765 82.9904 119.868 82.9507L122.961 81.7512C123.924 81.3783 124.459 80.1145 124.155 78.9351L123.176 75.1438C122.871 73.965 121.841 73.3086 120.878 73.6815ZM106.561 94.7254C102.04 96.4781 97.1986 93.3961 95.7687 87.8553C94.3388 82.3144 96.8532 76.3805 101.374 74.6278C105.894 72.8751 110.735 75.9571 112.165 81.498C113.595 87.0394 111.081 92.9728 106.561 94.7254Z" fill="#0F1B63"/>
<path d="M116.972 161.704L116.22 163.961C116.195 164.036 116.177 164.112 116.164 164.189C115.044 163.957 113.918 163.977 112.834 164.224C112.819 164.146 112.801 164.067 112.774 163.992L111.995 161.749C111.752 161.051 111.092 160.725 110.523 161.022L108.693 161.976C108.124 162.273 107.858 163.083 108.1 163.781L108.879 166.024C108.905 166.099 108.938 166.169 108.974 166.237C108.102 167.002 107.328 167.952 106.697 169.063C106.643 169.022 106.586 168.984 106.524 168.953L104.683 168.031C104.11 167.745 103.453 168.082 103.22 168.785L102.468 171.042C102.234 171.744 102.509 172.549 103.082 172.835L104.923 173.757C104.985 173.788 105.047 173.81 105.11 173.826C104.92 175.199 104.937 176.579 105.138 177.907C105.074 177.926 105.01 177.948 104.949 177.98L103.119 178.935C102.844 179.078 102.632 179.343 102.519 179.681C102.519 179.683 102.518 179.685 102.517 179.687C102.405 180.028 102.408 180.402 102.526 180.74L103.305 182.983C103.547 183.68 104.208 184.006 104.777 183.71L106.607 182.755C106.668 182.722 106.726 182.681 106.78 182.638C107.405 183.708 108.18 184.656 109.087 185.43C109.053 185.496 109.022 185.566 108.997 185.641L108.245 187.898C108.011 188.6 108.287 189.405 108.86 189.691L110.701 190.613C111.274 190.9 111.93 190.562 112.164 189.86L112.916 187.603C112.941 187.528 112.959 187.452 112.973 187.375C114.093 187.607 115.219 187.587 116.303 187.34C116.318 187.418 116.335 187.495 116.362 187.571L117.141 189.814C117.258 190.153 117.476 190.414 117.754 190.551C118.033 190.689 118.338 190.685 118.613 190.541L120.443 189.586C120.726 189.439 120.934 189.165 121.042 188.84C121.151 188.512 121.158 188.133 121.036 187.782L120.258 185.539C120.231 185.463 120.198 185.394 120.162 185.327C121.035 184.561 121.808 183.611 122.44 182.499C122.494 182.541 122.551 182.579 122.612 182.61L124.453 183.531C125.027 183.818 125.683 183.48 125.917 182.778L126.669 180.521C126.903 179.819 126.627 179.014 126.054 178.728L124.213 177.806C124.152 177.775 124.09 177.753 124.027 177.737C124.216 176.364 124.199 174.983 123.998 173.655C124.062 173.637 124.125 173.615 124.187 173.582L126.017 172.627C126.3 172.48 126.508 172.205 126.616 171.881C126.725 171.553 126.732 171.174 126.61 170.823L125.831 168.58C125.588 167.881 124.928 167.556 124.359 167.852L122.529 168.808C122.467 168.84 122.41 168.88 122.355 168.923C121.731 167.854 120.956 166.906 120.049 166.133C120.083 166.066 120.114 165.996 120.139 165.921L120.891 163.664C121.125 162.962 120.849 162.157 120.276 161.871L118.435 160.949C117.862 160.664 117.206 161.002 116.972 161.704ZM119.449 178.225C118.35 181.523 115.267 183.11 112.576 181.764C109.885 180.417 108.59 176.638 109.688 173.34C110.787 170.042 113.87 168.455 116.561 169.802C119.252 171.148 120.547 174.927 119.449 178.225Z" fill="#B19CFE"/>
<path d="M104.778 150.248L103.799 151.463C103.767 151.503 103.738 151.547 103.713 151.592C103.038 151.075 102.305 150.719 101.549 150.525C101.556 150.469 101.561 150.413 101.561 150.355L101.545 148.648C101.54 148.117 101.183 147.689 100.75 147.695L99.3566 147.715C98.9233 147.721 98.5743 148.158 98.5794 148.69L98.5953 150.397C98.5958 150.454 98.602 150.51 98.6102 150.566C97.8783 150.776 97.1705 151.138 96.5198 151.651C96.4936 151.606 96.4653 151.564 96.4319 151.523L95.4404 150.324C95.132 149.951 94.6329 149.955 94.3286 150.333L93.35 151.548C93.0457 151.926 93.0488 152.538 93.3572 152.911L94.3487 154.11C94.3816 154.15 94.417 154.184 94.454 154.216C94.0326 155.043 93.7421 155.942 93.5833 156.868C93.5381 156.859 93.4918 156.853 93.445 156.854L92.0521 156.873C91.8434 156.876 91.6481 156.978 91.5016 157.16C91.5006 157.161 91.4996 157.162 91.499 157.163C91.352 157.347 91.2729 157.59 91.2749 157.848L91.2909 159.555C91.296 160.086 91.6527 160.514 92.086 160.508L93.4795 160.488C93.5268 160.488 93.572 160.48 93.6172 160.469C93.7889 161.366 94.084 162.234 94.5029 163.032C94.4664 163.064 94.4314 163.1 94.3985 163.14L93.4199 164.355C93.1156 164.733 93.1187 165.345 93.4271 165.718L94.4186 166.917C94.727 167.29 95.2261 167.286 95.5303 166.908L96.509 165.693C96.5414 165.653 96.5697 165.609 96.5954 165.564C97.2702 166.081 98.0037 166.437 98.7598 166.631C98.7521 166.687 98.747 166.743 98.7475 166.801L98.7634 168.508C98.766 168.766 98.8498 169.006 98.9998 169.187C99.1499 169.367 99.3483 169.464 99.5586 169.461L100.952 169.442C101.167 169.439 101.362 169.33 101.503 169.155C101.645 168.979 101.732 168.735 101.729 168.468L101.713 166.76C101.713 166.702 101.706 166.647 101.698 166.592C102.43 166.381 103.138 166.02 103.789 165.506C103.815 165.551 103.844 165.594 103.877 165.634L104.868 166.834C105.177 167.207 105.676 167.203 105.98 166.825L106.959 165.609C107.263 165.231 107.26 164.62 106.951 164.247L105.96 163.047C105.927 163.008 105.892 162.973 105.855 162.941C106.276 162.114 106.566 161.215 106.726 160.288C106.771 160.298 106.817 160.304 106.864 160.304L108.257 160.284C108.472 160.281 108.667 160.172 108.807 159.997C108.95 159.82 109.037 159.577 109.034 159.309L109.019 157.602C109.014 157.07 108.657 156.643 108.224 156.649L106.831 156.668C106.784 156.669 106.738 156.677 106.693 156.687C106.521 155.79 106.226 154.922 105.807 154.125C105.844 154.092 105.879 154.057 105.912 154.017L106.89 152.802C107.195 152.424 107.191 151.812 106.883 151.439L105.892 150.239C105.581 149.866 105.083 149.87 104.778 150.248ZM102.782 161.757C101.351 163.534 99.0091 163.552 97.5596 161.799C96.1101 160.046 96.0947 157.175 97.5252 155.398C98.9551 153.622 101.298 153.604 102.747 155.356C104.196 157.11 104.212 159.981 102.782 161.757Z" stroke="#B19CFE" stroke-width="0.5" stroke-miterlimit="10"/>
<path d="M26.5243 134.373H20.1738V135.675H26.5243V134.373Z" fill="#0F1B63"/>
<path d="M45.3471 134.373H29.1489V135.675H45.3471V134.373Z" fill="#0F1B63"/>
<path d="M45.3469 148.352H35.3203V149.654H45.3469V148.352Z" fill="#0F1B63"/>
<path d="M32.6964 148.352H20.1738V149.654H32.6964V148.352Z" fill="#0F1B63"/>
<path d="M34.133 139.133H20.1738V140.435H34.133V139.133Z" fill="#0F1B63"/>
<path d="M45.3468 139.133H36.7568V140.435H45.3468V139.133Z" fill="#0F1B63"/>
<path d="M31.01 143.809H20.1738V145.111H31.01V143.809Z" fill="#0F1B63"/>
<path d="M45.3467 143.809H35.499V145.111H45.3467V143.809Z" fill="#0F1B63"/>
<path d="M34.2808 143.809H32.397V145.111H34.2808V143.809Z" fill="#0F1B63"/>
<path d="M193.897 256.314H187.547V257.617H193.897V256.314Z" fill="#0F1B63"/>
<path d="M212.72 256.314H196.521V257.617H212.72V256.314Z" fill="#0F1B63"/>
<path d="M212.719 270.293H202.693V271.595H212.719V270.293Z" fill="#0F1B63"/>
<path d="M200.069 270.293H187.547V271.595H200.069V270.293Z" fill="#0F1B63"/>
<path d="M201.506 261.076H187.547V262.378H201.506V261.076Z" fill="#0F1B63"/>
<path d="M212.719 261.076H204.129V262.378H212.719V261.076Z" fill="#0F1B63"/>
<path d="M198.383 265.75H187.547V267.052H198.383V265.75Z" fill="#0F1B63"/>
<path d="M212.719 265.75H202.872V267.052H212.719V265.75Z" fill="#0F1B63"/>
<path d="M201.653 265.75H199.769V267.052H201.653V265.75Z" fill="#0F1B63"/>
<path d="M208.653 95.6274L206.159 96.282C206.076 96.304 205.997 96.3355 205.921 96.3733C205.312 94.7517 204.481 93.3046 203.485 92.0748C203.542 91.9992 203.596 91.9186 203.642 91.8298L205.018 89.1976C205.446 88.3786 205.251 87.2856 204.583 86.7608L202.435 85.0743C201.767 84.5501 200.875 84.7889 200.447 85.6085L199.071 88.2406C199.025 88.3288 198.988 88.4221 198.955 88.5172C197.663 87.9376 196.284 87.6195 194.866 87.6031C194.863 87.5023 194.855 87.4015 194.837 87.2994L194.303 84.2427C194.137 83.2914 193.371 82.6834 192.595 82.8869L190.101 83.5415C189.324 83.745 188.828 84.6849 188.994 85.6362L189.529 88.693C189.547 88.7944 189.572 88.8914 189.603 88.9847C188.28 89.7312 187.099 90.7493 186.096 91.9702C186.034 91.9003 185.969 91.8342 185.897 91.7775L183.749 90.091C183.427 89.8383 183.045 89.7533 182.672 89.8509C182.67 89.8516 182.667 89.8522 182.665 89.8528C182.289 89.9536 181.969 90.2277 181.761 90.6246L180.385 93.2567C179.957 94.0757 180.152 95.1688 180.821 95.6935L182.968 97.3801C183.041 97.4374 183.117 97.4815 183.195 97.5206C182.722 99.1044 182.462 100.796 182.448 102.533C182.366 102.537 182.284 102.547 182.2 102.569L179.707 103.223C178.93 103.427 178.434 104.366 178.6 105.318L179.134 108.375C179.3 109.326 180.067 109.934 180.843 109.731L183.337 109.076C183.42 109.054 183.499 109.022 183.575 108.985C184.184 110.607 185.015 112.054 186.012 113.284C185.955 113.359 185.901 113.438 185.854 113.528L184.478 116.16C184.27 116.557 184.201 117.029 184.284 117.489C184.366 117.95 184.59 118.343 184.913 118.597L187.061 120.283C187.393 120.544 187.78 120.616 188.138 120.522C188.501 120.427 188.834 120.161 189.049 119.749L190.425 117.117C190.472 117.028 190.508 116.935 190.54 116.84C191.832 117.42 193.212 117.738 194.629 117.755C194.632 117.856 194.641 117.957 194.659 118.059L195.193 121.115C195.359 122.067 196.125 122.675 196.901 122.471L199.395 121.816C200.171 121.613 200.667 120.674 200.501 119.722L199.967 116.666C199.949 116.564 199.924 116.467 199.893 116.374C201.216 115.627 202.397 114.609 203.4 113.387C203.462 113.457 203.527 113.523 203.599 113.581L205.747 115.267C206.079 115.528 206.466 115.6 206.825 115.506C207.187 115.411 207.52 115.145 207.735 114.733L209.111 112.101C209.54 111.282 209.344 110.189 208.676 109.664L206.529 107.978C206.457 107.921 206.38 107.876 206.303 107.836C206.776 106.252 207.035 104.561 207.049 102.825C207.131 102.821 207.214 102.811 207.296 102.789L209.79 102.135C210.567 101.931 211.063 100.992 210.897 100.041L210.363 96.9838C210.195 96.0319 209.429 95.4239 208.653 95.6274ZM196.163 110.781C192.518 111.737 188.918 108.881 188.138 104.414C187.358 99.9467 189.688 95.5342 193.333 94.5778C196.977 93.6215 200.577 96.4773 201.358 100.945C202.138 105.412 199.808 109.824 196.163 110.781Z" fill="#0F1B63"/>
<path d="M160.058 106.806L148.158 102.281V99.0312L160.058 94.5062V97.6312L149.333 101.531V99.7812L160.058 103.681V106.806ZM145.783 141.906L154.033 118.356H157.508L149.258 141.906H145.783ZM148.158 166.806V163.681L158.883 159.781V161.531L148.158 157.631V154.506L160.058 159.031V162.281L148.158 166.806Z" fill="white"/>
<path d="M46.8275 259.322C47.5955 259.322 48.2795 259.478 48.8795 259.79C49.4915 260.09 49.9715 260.558 50.3195 261.194C50.6675 261.818 50.8415 262.622 50.8415 263.606V269.15H48.0335V264.038C48.0335 263.258 47.8595 262.682 47.5115 262.31C47.1755 261.938 46.6955 261.752 46.0715 261.752C45.6275 261.752 45.2255 261.848 44.8655 262.04C44.5175 262.22 44.2415 262.502 44.0375 262.886C43.8455 263.27 43.7495 263.762 43.7495 264.362V269.15H40.9415V255.794H43.7495V262.148L43.1195 261.338C43.4675 260.69 43.9655 260.192 44.6135 259.844C45.2615 259.496 45.9995 259.322 46.8275 259.322ZM57.3468 269.294C56.2068 269.294 55.3188 269.006 54.6828 268.43C54.0468 267.842 53.7288 266.972 53.7288 265.82V257.324H56.5368V265.784C56.5368 266.192 56.6448 266.51 56.8608 266.738C57.0768 266.954 57.3708 267.062 57.7428 267.062C58.1868 267.062 58.5648 266.942 58.8768 266.702L59.6328 268.682C59.3448 268.886 58.9968 269.042 58.5888 269.15C58.1928 269.246 57.7788 269.294 57.3468 269.294ZM52.2348 261.842V259.682H58.9488V261.842H52.2348ZM53.3435 281.322C54.1115 281.322 54.7895 281.478 55.3775 281.79C55.9775 282.09 56.4455 282.558 56.7815 283.194C57.1295 283.818 57.3035 284.622 57.3035 285.606V291.15H54.4955V286.038C54.4955 285.258 54.3335 284.682 54.0095 284.31C53.6855 283.938 53.2295 283.752 52.6415 283.752C52.2335 283.752 51.8675 283.848 51.5435 284.04C51.2195 284.22 50.9675 284.496 50.7875 284.868C50.6075 285.24 50.5175 285.714 50.5175 286.29V291.15H47.7095V286.038C47.7095 285.258 47.5475 284.682 47.2235 284.31C46.9115 283.938 46.4615 283.752 45.8735 283.752C45.4655 283.752 45.0995 283.848 44.7755 284.04C44.4515 284.22 44.1995 284.496 44.0195 284.868C43.8395 285.24 43.7495 285.714 43.7495 286.29V291.15H40.9415V281.466H43.6235V284.112L43.1195 283.338C43.4555 282.678 43.9295 282.18 44.5415 281.844C45.1655 281.496 45.8735 281.322 46.6655 281.322C47.5535 281.322 48.3275 281.55 48.9875 282.006C49.6595 282.45 50.1035 283.134 50.3195 284.058L49.3295 283.788C49.6535 283.032 50.1695 282.432 50.8775 281.988C51.5975 281.544 52.4195 281.322 53.3435 281.322ZM40.9415 313.15V299.794H43.7495V313.15H40.9415Z" fill="white"/>
<path d="M61.9963 178.282C61.5333 178.282 61.0895 178.231 60.665 178.128C60.2405 178.038 59.8804 177.896 59.5845 177.703L60.3949 175.523C60.7422 175.768 61.1667 175.89 61.6683 175.89C62.0414 175.89 62.3372 175.761 62.5559 175.504C62.7874 175.259 62.9032 174.886 62.9032 174.385V164.004H65.9131V174.365C65.9131 175.562 65.5723 176.514 64.8905 177.221C64.2088 177.929 63.2441 178.282 61.9963 178.282ZM64.4082 162.557C63.855 162.557 63.4048 162.396 63.0575 162.075C62.7102 161.753 62.5366 161.354 62.5366 160.879C62.5366 160.403 62.7102 160.004 63.0575 159.682C63.4048 159.361 63.855 159.2 64.4082 159.2C64.9613 159.2 65.4115 159.354 65.7588 159.663C66.1061 159.959 66.2797 160.345 66.2797 160.821C66.2797 161.322 66.1061 161.74 65.7588 162.075C65.4243 162.396 64.9741 162.557 64.4082 162.557ZM66.2604 198.539C65.3729 198.539 64.5175 198.436 63.6943 198.23C62.8839 198.012 62.2407 197.742 61.7648 197.42L62.7681 195.259C63.2441 195.555 63.8036 195.799 64.4467 195.992C65.1028 196.172 65.7459 196.262 66.3762 196.262C67.0708 196.262 67.5596 196.179 67.8426 196.012C68.1384 195.844 68.2864 195.613 68.2864 195.317C68.2864 195.073 68.1706 194.892 67.9391 194.777C67.7204 194.648 67.4245 194.552 67.0515 194.487C66.6785 194.423 66.2669 194.359 65.8167 194.294C65.3793 194.23 64.9355 194.146 64.4853 194.043C64.0351 193.928 63.6235 193.76 63.2505 193.542C62.8775 193.323 62.5752 193.027 62.3436 192.654C62.125 192.281 62.0156 191.799 62.0156 191.207C62.0156 190.551 62.2021 189.972 62.5752 189.471C62.9611 188.969 63.5142 188.577 64.2345 188.294C64.9548 187.998 65.8167 187.85 66.82 187.85C67.5275 187.85 68.2478 187.927 68.981 188.081C69.7142 188.236 70.3252 188.461 70.814 188.757L69.8106 190.898C69.309 190.603 68.8009 190.403 68.2864 190.3C67.7847 190.185 67.2959 190.127 66.82 190.127C66.1511 190.127 65.6623 190.217 65.3536 190.397C65.0449 190.577 64.8905 190.808 64.8905 191.091C64.8905 191.349 64.9999 191.542 65.2185 191.67C65.4501 191.799 65.7523 191.902 66.1254 191.979C66.4984 192.056 66.9036 192.127 67.3409 192.191C67.7911 192.243 68.2414 192.326 68.6916 192.442C69.1418 192.558 69.547 192.725 69.9071 192.944C70.2801 193.149 70.5824 193.439 70.814 193.812C71.0455 194.172 71.1613 194.648 71.1613 195.24C71.1613 195.883 70.9683 196.455 70.5824 196.957C70.1965 197.446 69.637 197.832 68.9038 198.115C68.1835 198.398 67.3023 198.539 66.2604 198.539Z" fill="white"/>
<path d="M162.403 258.853C160.991 258.853 159.733 258.569 158.63 258.001C157.526 257.417 156.658 256.613 156.025 255.591C155.408 254.568 155.099 253.407 155.099 252.109C155.099 250.794 155.408 249.634 156.025 248.627C156.658 247.605 157.526 246.81 158.63 246.242C159.733 245.657 160.991 245.365 162.403 245.365C163.783 245.365 164.984 245.657 166.007 246.242C167.029 246.81 167.784 247.629 168.271 248.701L165.325 250.283C164.984 249.666 164.554 249.212 164.035 248.92C163.531 248.627 162.98 248.481 162.379 248.481C161.73 248.481 161.145 248.627 160.626 248.92C160.107 249.212 159.693 249.626 159.384 250.161C159.092 250.697 158.946 251.346 158.946 252.109C158.946 252.872 159.092 253.521 159.384 254.057C159.693 254.592 160.107 255.006 160.626 255.298C161.145 255.591 161.73 255.737 162.379 255.737C162.98 255.737 163.531 255.599 164.035 255.323C164.554 255.031 164.984 254.568 165.325 253.935L168.271 255.542C167.784 256.597 167.029 257.417 166.007 258.001C164.984 258.569 163.783 258.853 162.403 258.853ZM160.042 285.761V274.513H163.182V285.761H160.042ZM155.83 281.622V278.652H167.419V281.622H155.83ZM160.042 315.761V304.513H163.182V315.761H160.042ZM155.83 311.622V308.652H167.419V311.622H155.83Z" fill="white"/>
<path d="M210.581 190.521C210.143 190.521 209.723 190.472 209.321 190.374C208.92 190.289 208.579 190.155 208.299 189.973L209.066 187.909C209.394 188.141 209.796 188.256 210.271 188.256C210.624 188.256 210.904 188.135 211.111 187.891C211.33 187.66 211.44 187.307 211.44 186.832V177.008H214.288V186.814C214.288 187.946 213.966 188.847 213.32 189.516C212.675 190.186 211.762 190.521 210.581 190.521ZM212.864 175.639C212.34 175.639 211.914 175.487 211.586 175.182C211.257 174.878 211.093 174.501 211.093 174.05C211.093 173.6 211.257 173.222 211.586 172.918C211.914 172.614 212.34 172.462 212.864 172.462C213.387 172.462 213.813 172.608 214.142 172.9C214.471 173.18 214.635 173.545 214.635 173.995C214.635 174.47 214.471 174.866 214.142 175.182C213.826 175.487 213.399 175.639 212.864 175.639ZM222.937 186.832V184.915L222.754 184.495V181.062C222.754 180.453 222.565 179.979 222.188 179.638C221.823 179.297 221.257 179.126 220.49 179.126C219.966 179.126 219.449 179.212 218.938 179.382C218.439 179.54 218.013 179.759 217.66 180.039L216.637 178.049C217.173 177.672 217.818 177.38 218.573 177.173C219.327 176.966 220.094 176.862 220.873 176.862C222.371 176.862 223.533 177.215 224.361 177.921C225.189 178.627 225.603 179.729 225.603 181.226V186.832H222.937ZM219.942 186.978C219.175 186.978 218.518 186.85 217.97 186.595C217.422 186.327 217.002 185.968 216.71 185.517C216.418 185.067 216.272 184.562 216.272 184.002C216.272 183.417 216.412 182.906 216.692 182.468C216.984 182.03 217.441 181.689 218.061 181.445C218.682 181.19 219.492 181.062 220.49 181.062H223.101V182.724H220.8C220.131 182.724 219.668 182.833 219.413 183.052C219.169 183.271 219.047 183.545 219.047 183.874C219.047 184.239 219.187 184.531 219.467 184.75C219.76 184.957 220.155 185.061 220.654 185.061C221.129 185.061 221.555 184.951 221.932 184.732C222.31 184.501 222.584 184.166 222.754 183.728L223.192 185.043C222.985 185.676 222.608 186.156 222.06 186.485C221.512 186.814 220.806 186.978 219.942 186.978ZM213.978 208.832L209.851 199.008H212.791L216.224 207.463H214.763L218.324 199.008H221.063L216.918 208.832H213.978ZM217.338 230.832V228.915L217.155 228.495V225.062C217.155 224.453 216.966 223.979 216.589 223.638C216.224 223.297 215.658 223.126 214.891 223.126C214.367 223.126 213.85 223.212 213.339 223.382C212.84 223.54 212.413 223.759 212.06 224.039L211.038 222.049C211.573 221.672 212.219 221.38 212.973 221.173C213.728 220.966 214.495 220.862 215.274 220.862C216.771 220.862 217.934 221.215 218.762 221.921C219.59 222.627 220.003 223.729 220.003 225.226V230.832H217.338ZM214.343 230.978C213.576 230.978 212.919 230.85 212.371 230.595C211.823 230.327 211.403 229.968 211.111 229.517C210.819 229.067 210.673 228.562 210.673 228.002C210.673 227.417 210.813 226.906 211.093 226.468C211.385 226.03 211.841 225.689 212.462 225.445C213.083 225.19 213.892 225.062 214.891 225.062H217.502V226.724H215.201C214.532 226.724 214.069 226.833 213.813 227.052C213.57 227.271 213.448 227.545 213.448 227.874C213.448 228.239 213.588 228.531 213.868 228.75C214.16 228.957 214.556 229.061 215.055 229.061C215.53 229.061 215.956 228.951 216.333 228.732C216.711 228.501 216.984 228.166 217.155 227.728L217.593 229.043C217.386 229.676 217.009 230.156 216.461 230.485C215.913 230.814 215.207 230.978 214.343 230.978Z" fill="white"/>
</g>
<defs>
<clipPath id="clip0_2280_898">
<rect width="257" height="315" fill="white"/>
</clipPath>
</defs>
</svg>
